<?xml version="1.0" encoding="utf-8"?>
<!-- Generated by IcoMoon.io -->
<!DOCTYPE svg PUBLIC "-//W3C//DTD SVG 1.1//EN" "http://www.w3.org/Graphics/SVG/1.1/DTD/svg11.dtd">
<svg version="1.1" xmlns="http://www.w3.org/2000/svg" xmlns:xlink="http://www.w3.org/1999/xlink" width="13" height="14" viewBox="0 0 13 14">
<path fill="#f2f2f2" d="M6 2.75v8.5q0 0.203-0.148 0.352t-0.352 0.148-0.352-0.148l-2.602-2.602h-2.047q-0.203 0-0.352-0.148t-0.148-0.352v-3q0-0.203 0.148-0.352t0.352-0.148h2.047l2.602-2.602q0.148-0.148 0.352-0.148t0.352 0.148 0.148 0.352zM9 7q0 0.594-0.332 1.105t-0.879 0.73q-0.078 0.039-0.195 0.039-0.203 0-0.352-0.145t-0.148-0.355q0-0.164 0.094-0.277t0.227-0.195 0.266-0.18 0.227-0.277 0.094-0.445-0.094-0.445-0.227-0.277-0.266-0.18-0.227-0.195-0.094-0.277q0-0.211 0.148-0.355t0.352-0.145q0.117 0 0.195 0.039 0.547 0.211 0.879 0.727t0.332 1.109zM11 7q0 1.195-0.664 2.207t-1.758 1.473q-0.102 0.039-0.195 0.039-0.211 0-0.359-0.148t-0.148-0.352q0-0.305 0.305-0.461 0.438-0.227 0.594-0.344 0.578-0.422 0.902-1.059t0.324-1.355-0.324-1.355-0.902-1.059q-0.156-0.117-0.594-0.344-0.305-0.156-0.305-0.461 0-0.203 0.148-0.352t0.352-0.148q0.102 0 0.203 0.039 1.094 0.461 1.758 1.473t0.664 2.207zM13 7q0 1.797-0.992 3.301t-2.641 2.215q-0.102 0.039-0.203 0.039-0.203 0-0.352-0.148t-0.148-0.352q0-0.281 0.305-0.461 0.055-0.031 0.176-0.082t0.176-0.082q0.359-0.195 0.641-0.398 0.961-0.711 1.5-1.773t0.539-2.258-0.539-2.258-1.5-1.773q-0.281-0.203-0.641-0.398-0.055-0.031-0.176-0.082t-0.176-0.082q-0.305-0.18-0.305-0.461 0-0.203 0.148-0.352t0.352-0.148q0.102 0 0.203 0.039 1.648 0.711 2.641 2.215t0.992 3.301z"></path>
</svg>
