<?xml version="1.0" encoding="utf-8"?>
<!-- Generator: Adobe Illustrator 19.0.0, SVG Export Plug-In . SVG Version: 6.00 Build 0)  -->
<svg version="1.1" id="Layer_1" xmlns="http://www.w3.org/2000/svg" xmlns:xlink="http://www.w3.org/1999/xlink" x="0px" y="0px"
	 viewBox="-286 382.3 38.5 29.7" style="enable-background:new -286 382.3 38.5 29.7;" xml:space="preserve">
<g id="Checkbox">
	<g>
		<rect x="-557.2" y="771.8" width="19" height="3.1"/>
		<path d="M-557.2,781.5h19v-3.1h-19C-557.2,778.4-557.2,781.4-557.2,781.5z"/>
		<rect x="-557.2" y="784.6" width="19" height="3.1"/>
		<path d="M-566,789h5.5v-5.5h-5.5V789z M-564.9,784.5h3.4v3.4h-3.4V784.5z"/>
		<path d="M-566,782.7h5.5c0-0.1,0-5.5,0-5.5h-5.5V782.7z M-564.9,778.2h3.4v3.4h-3.4V778.2z"/>
		<polygon points="-564,772.9 -565.5,771.3 -567.3,773.1 -565.8,774.7 -564,776.5 -562.2,774.7 -558.2,770.8 -560.2,769 		"/>
	</g>
</g>
</svg>
