<?xml version="1.0" encoding="utf-8"?>
<!-- Generator: Adobe Illustrator 19.0.0, SVG Export Plug-In . SVG Version: 6.00 Build 0)  -->
<svg version="1.1" id="Layer_1" xmlns="http://www.w3.org/2000/svg" xmlns:xlink="http://www.w3.org/1999/xlink" x="0px" y="0px"
	 viewBox="-286 382.3 38.5 29.7" style="enable-background:new -286 382.3 38.5 29.7;" xml:space="preserve">
<g id="Radios">
	<g>
		<path d="M-277.9,393.4c1.4,0,2.7-1.3,2.7-2.7s-1.1-2.7-2.7-2.7s-2.7,1.3-2.7,2.7C-280.6,392.3-279.3,393.4-277.9,393.4z
			 M-277.9,388.9c1,0,1.8,0.8,1.8,1.8s-0.8,1.8-1.8,1.8s-1.8-0.8-1.8-1.8C-279.7,389.9-278.9,388.9-277.9,388.9z"/>
		<circle cx="-277.9" cy="397.3" r="2.7"/>
		<circle cx="-277.9" cy="403.6" r="2.7"/>
		<rect x="-271.9" y="389.3" width="19" height="3.1"/>
		<path d="M-271.9,398.9h19v-3.1h-19C-271.9,395.8-271.9,398.8-271.9,398.9z"/>
		<rect x="-271.9" y="401.9" width="19" height="3.1"/>
	</g>
</g>
</svg>
