<?xml version="1.0" encoding="utf-8"?>
<!-- Generator: Adobe Illustrator 19.0.0, SVG Export Plug-In . SVG Version: 6.00 Build 0)  -->
<svg version="1.1" id="Layer_1" xmlns="http://www.w3.org/2000/svg" xmlns:xlink="http://www.w3.org/1999/xlink" x="0px" y="0px"
	 viewBox="-286 382.3 38.5 29.7" style="enable-background:new -286 382.3 38.5 29.7;" xml:space="preserve">
<g id="Numerical">
	<path d="M-561.6,787h-4.1v-7.9c0-0.9,0-1.8,0.1-2.7c-0.3,0.3-0.6,0.6-1,0.9l-1.7,1.4l-2.1-2.6l5.2-4.2h3.6V787z"/>
	<path d="M-548,787h-10.9v-2.7l3.6-3.7c1.1-1.1,1.7-1.8,2.1-2.2c0.3-0.4,0.6-0.7,0.7-1c0.1-0.2,0.2-0.6,0.2-0.9
		c0-0.4-0.1-0.7-0.4-0.9c-0.3-0.2-0.6-0.3-1.1-0.3s-1,0.2-1.4,0.4c-0.5,0.2-1.1,0.7-1.6,1.2l-2.2-2.6c0.8-0.7,1.4-1.2,1.9-1.5
		c0.6-0.3,1.2-0.5,1.7-0.7c0.6-0.2,1.3-0.2,2.1-0.2c1,0,1.8,0.2,2.6,0.5c0.8,0.3,1.3,0.8,1.8,1.4c0.4,0.7,0.7,1.3,0.7,2.1
		c0,0.6-0.1,1.1-0.2,1.6c-0.2,0.5-0.4,1-0.7,1.5c-0.3,0.5-0.8,1-1.2,1.5c-0.5,0.5-1.6,1.5-3.3,3v0.1h5.8v3.5L-548,787L-548,787z"/>
	<path d="M-535.4,775.3c0,0.9-0.3,1.7-0.9,2.4c-0.6,0.7-1.4,1.2-2.5,1.4v0.1c2.5,0.3,3.7,1.5,3.7,3.5c0,1.4-0.6,2.5-1.6,3.2
		c-1.2,0.8-2.7,1.2-4.6,1.2c-0.8,0-1.5-0.1-2.3-0.2c-0.7-0.1-1.4-0.3-2.2-0.7v-3.3c0.7,0.3,1.3,0.6,2,0.7c0.7,0.2,1.3,0.2,1.9,0.2
		c0.9,0,1.5-0.1,1.9-0.3c0.4-0.2,0.6-0.7,0.6-1.2c0-0.4-0.1-0.7-0.3-0.9c-0.2-0.2-0.6-0.4-1.1-0.5s-1.1-0.2-1.8-0.2h-1v-3h1
		c2.1,0,3.1-0.5,3.1-1.6c0-0.4-0.2-0.7-0.5-0.9c-0.3-0.2-0.7-0.2-1.2-0.2c-1,0-1.9,0.3-3,0.9l-1.7-2.7c0.8-0.6,1.6-0.9,2.5-1.2
		c0.9-0.3,1.8-0.3,2.9-0.3c1.5,0,2.8,0.3,3.6,0.9C-535.8,773.4-535.4,774.3-535.4,775.3z"/>
</g>
</svg>
