<?xml version="1.0" encoding="utf-8"?>
<!-- Generator: Adobe Illustrator 19.0.0, SVG Export Plug-In . SVG Version: 6.00 Build 0)  -->
<svg version="1.1" id="Layer_1" xmlns="http://www.w3.org/2000/svg" xmlns:xlink="http://www.w3.org/1999/xlink" x="0px" y="0px"
	 viewBox="-286 382.3 38.5 29.7" style="enable-background:new -286 382.3 38.5 29.7;" xml:space="preserve">
<g id="Checkbox">
	<g>
		<rect x="-272.2" y="389.1" width="18.9" height="3.1"/>
		<path d="M-272.2,398.6h18.9v-3.1h-18.9V398.6z"/>
		<rect x="-272.2" y="401.8" width="18.9" height="3.1"/>
		<path d="M-280.9,406.1h5.5v-5.5h-5.5V406.1z M-279.8,401.6h3.4v3.4h-3.4V401.6z"/>
		<path d="M-280.9,399.9h5.5c0-0.1,0-5.5,0-5.5h-5.5V399.9z M-279.8,395.4h3.4v3.4h-3.4V395.4z"/>
		<polygon points="-278.9,390.1 -280.5,388.6 -282.2,390.3 -280.7,391.9 -278.9,393.7 -277.1,391.9 -273.1,388.1 -275.2,386.2 		"/>
	</g>
</g>
</svg>
