<?xml version="1.0" encoding="utf-8"?>
<!-- Generator: Adobe Illustrator 19.0.0, SVG Export Plug-In . SVG Version: 6.00 Build 0)  -->
<svg version="1.1" id="Layer_1" xmlns="http://www.w3.org/2000/svg" xmlns:xlink="http://www.w3.org/1999/xlink" x="0px" y="0px"
	 viewBox="-286 382.3 38.5 29.7" style="enable-background:new -286 382.3 38.5 29.7;" xml:space="preserve">
<style type="text/css">
	.st0{fill:#010101;}
</style>
<g id="Dropdown">
	<path class="st0" d="M-251.5,388.6h-13.3H-282c-1.1,0-2,0.9-2,2v13.1c0,1.1,0.9,2,2,2h17.3h13.3c1.1,0,2-0.9,2-2v-13.1
		C-249.5,389.5-250.3,388.6-251.5,388.6z M-258,401.7l-5.9-5.9l2.4-2.4l3.5,3.5l3.5-3.5l2.4,2.4L-258,401.7z M-283,403.7v-13.1
		c0-0.6,0.4-1,1-1h15.6c-0.2,0.3-0.3,0.6-0.3,1v13.1c0,0.4,0.1,0.7,0.3,1H-282C-282.8,404.7-283,404.3-283,403.7z"/>
</g>
</svg>
