<?xml version="1.0" encoding="utf-8"?>
<!-- Generator: Adobe Illustrator 19.0.0, SVG Export Plug-In . SVG Version: 6.00 Build 0)  -->
<svg version="1.1" id="Layer_1" xmlns="http://www.w3.org/2000/svg" xmlns:xlink="http://www.w3.org/1999/xlink" x="0px" y="0px"
	 viewBox="-286 382.3 38.5 29.7" style="enable-background:new -286 382.3 38.5 29.7;" xml:space="preserve">
<g id="Explanation">
	<g>
		<path d="M-554.5,789c0,0.1-0.1,0.3-0.1,0.4c0,1.1,0.9,2,2,2c1.1,0,2-0.9,2-2c0-0.1,0-0.3-0.1-0.4H-554.5z"/>
		<path d="M-548.4,781.8c0.4-0.6,0.6-1.4,0.7-2.1c0.1-0.4,0.1-0.6,0.1-0.6c0-2.9-2.4-5.3-5.3-5.3s-5.3,2.4-5.3,5.3
			c0,0,0,0.2,0.1,0.6c0.1,0.7,0.3,1.5,0.7,2.1c0,0.1,0.1,0.1,0.1,0.2c0.1,0.1,0.1,0.1,0.2,0.2c0.1,0.2,0.3,0.4,0.5,0.6
			c0.1,0.1,0.1,0.1,0.2,0.2c0.1,0.1,0.2,0.2,0.3,0.2c1.4,0.9,1.6,3.9,1.7,4.5h3.5c0-0.7,0.2-3.5,1.6-4.5c0.1-0.1,0.1-0.2,0.2-0.2
			c0.1-0.1,0-0.2,0.1-0.3c0.2-0.2,0.2-0.5,0.5-0.7C-548.5,782-548.5,781.8-548.4,781.8L-548.4,781.8z"/>
		<path d="M-552.9,772.2c0.4,0,0.8-0.4,0.8-0.8v-2.8c0-0.4-0.4-0.8-0.8-0.8c-0.4,0-0.8,0.4-0.8,0.8v2.8
			C-553.8,771.8-553.4,772.2-552.9,772.2z"/>
		<path d="M-547.1,774.5l2.1-2.1c0.3-0.3,0.3-0.8,0-1.1s-0.8-0.3-1.1,0l-2.1,2.1c-0.3,0.3-0.3,0.8,0,1.1
			C-548.1,775-547.5,775-547.1,774.5z"/>
		<path d="M-558.5,774.5c0.3,0.3,0.8,0.3,1.1,0c0.3-0.3,0.3-0.8,0-1.1l-2.1-2.1c-0.3-0.3-0.8-0.3-1.1,0c-0.3,0.3-0.3,0.8,0,1.1
			L-558.5,774.5z"/>
		<path d="M-547.1,783.2c-0.3-0.3-0.8-0.3-1.1,0c-0.3,0.3-0.3,0.8,0,1.1l2.1,2.1c0.3,0.3,0.8,0.3,1.1,0c0.3-0.3,0.3-0.8,0-1.1
			L-547.1,783.2z"/>
		<path d="M-558.5,783.2l-2.1,2.1c-0.3,0.3-0.3,0.8,0,1.1c0.3,0.3,0.8,0.3,1.1,0l2.1-2.1c0.3-0.3,0.3-0.8,0-1.1
			C-557.6,782.9-558.2,782.9-558.5,783.2z"/>
		<path d="M-542.5,778.1h-2.8c-0.4,0-0.8,0.4-0.8,0.8s0.4,0.8,0.8,0.8h2.8c0.4,0,0.8-0.4,0.8-0.8
			C-541.7,778.4-542,778.1-542.5,778.1z"/>
		<path d="M-559.4,778.9c0-0.4-0.4-0.8-0.8-0.8h-2.8c-0.4,0-0.8,0.4-0.8,0.8c0,0.4,0.4,0.8,0.8,0.8h2.8
			C-559.8,779.7-559.4,779.3-559.4,778.9z"/>
	</g>
</g>
</svg>
