<?xml version="1.0" encoding="utf-8"?>
<!-- Generator: Adobe Illustrator 19.0.0, SVG Export Plug-In . SVG Version: 6.00 Build 0)  -->
<svg version="1.1" id="Layer_1" xmlns="http://www.w3.org/2000/svg" xmlns:xlink="http://www.w3.org/1999/xlink" x="0px" y="0px"
	 viewBox="-286 382.3 38.5 29.7" style="enable-background:new -286 382.3 38.5 29.7;" xml:space="preserve">
<g id="Explanation">
	<g>
		<path d="M-268.5,406.5c0,0.1-0.1,0.3-0.1,0.4c0,1.1,0.9,2,2,2s2-0.9,2-2c0-0.1,0-0.3-0.1-0.4H-268.5z"/>
		<path d="M-262.4,399.3c0.4-0.6,0.6-1.4,0.7-2.1c0.1-0.4,0.1-0.6,0.1-0.6c0-2.9-2.4-5.3-5.3-5.3s-5.3,2.4-5.3,5.3
			c0,0,0,0.2,0.1,0.6c0.1,0.7,0.3,1.5,0.7,2.1c0,0.1,0.1,0.1,0.1,0.2c0.1,0.1,0.1,0.1,0.2,0.2c0.1,0.2,0.3,0.4,0.5,0.6
			c0.1,0.1,0.1,0.1,0.2,0.2s0.2,0.2,0.3,0.2c1.4,0.9,1.6,3.9,1.7,4.5h3.5c0-0.7,0.2-3.5,1.6-4.5c0.1-0.1,0.1-0.2,0.2-0.2
			c0.1-0.1,0-0.2,0.1-0.3c0.2-0.2,0.2-0.5,0.5-0.7C-262.5,399.5-262.5,399.3-262.4,399.3L-262.4,399.3z"/>
		<path d="M-266.9,389.7c0.4,0,0.8-0.4,0.8-0.8v-2.8c0-0.4-0.4-0.8-0.8-0.8s-0.8,0.4-0.8,0.8v2.8
			C-267.8,389.3-267.4,389.7-266.9,389.7z"/>
		<path d="M-261.1,392l2.1-2.1c0.3-0.3,0.3-0.8,0-1.1s-0.8-0.3-1.1,0l-2.1,2.1c-0.3,0.3-0.3,0.8,0,1.1
			C-262.1,392.5-261.5,392.5-261.1,392z"/>
		<path d="M-272.5,392c0.3,0.3,0.8,0.3,1.1,0s0.3-0.8,0-1.1l-2.1-2.1c-0.3-0.3-0.8-0.3-1.1,0s-0.3,0.8,0,1.1L-272.5,392z"/>
		<path d="M-261.1,400.7c-0.3-0.3-0.8-0.3-1.1,0s-0.3,0.8,0,1.1l2.1,2.1c0.3,0.3,0.8,0.3,1.1,0s0.3-0.8,0-1.1L-261.1,400.7z"/>
		<path d="M-272.5,400.7l-2.1,2.1c-0.3,0.3-0.3,0.8,0,1.1s0.8,0.3,1.1,0l2.1-2.1c0.3-0.3,0.3-0.8,0-1.1
			C-271.6,400.4-272.2,400.4-272.5,400.7z"/>
		<path d="M-256.5,395.6h-2.8c-0.4,0-0.8,0.4-0.8,0.8s0.4,0.8,0.8,0.8h2.8c0.4,0,0.8-0.4,0.8-0.8
			C-255.7,395.9-256,395.6-256.5,395.6z"/>
		<path d="M-273.4,396.4c0-0.4-0.4-0.8-0.8-0.8h-2.8c-0.4,0-0.8,0.4-0.8,0.8s0.4,0.8,0.8,0.8h2.8
			C-273.8,397.2-273.4,396.8-273.4,396.4z"/>
	</g>
</g>
</svg>
