<?xml version="1.0" encoding="utf-8"?>
<!-- Generator: Adobe Illustrator 19.0.0, SVG Export Plug-In . SVG Version: 6.00 Build 0)  -->
<svg version="1.1" id="Layer_1" xmlns="http://www.w3.org/2000/svg" xmlns:xlink="http://www.w3.org/1999/xlink" x="0px" y="0px"
	 viewBox="-286 382.3 38.5 29.7" style="enable-background:new -286 382.3 38.5 29.7;" xml:space="preserve">
<g id="Radios">
	<g>
		<path d="M-563.2,776.1c1.4,0,2.7-1.3,2.7-2.7c0-1.4-1.1-2.7-2.7-2.7s-2.7,1.3-2.7,2.7C-565.9,774.9-564.6,776.1-563.2,776.1z
			 M-563.2,771.6c1,0,1.8,0.8,1.8,1.8s-0.8,1.8-1.8,1.8s-1.8-0.8-1.8-1.8C-565,772.5-564.2,771.6-563.2,771.6z"/>
		<circle cx="-563.2" cy="779.9" r="2.7"/>
		<circle cx="-563.2" cy="786.2" r="2.7"/>
		<rect x="-557.2" y="771.9" width="19" height="3.1"/>
		<path d="M-557.2,781.5h19v-3.1h-19C-557.2,778.4-557.2,781.4-557.2,781.5z"/>
		<rect x="-557.2" y="784.6" width="19" height="3.1"/>
	</g>
</g>
</svg>
