<?xml version="1.0" encoding="utf-8"?>
<!-- Generator: Adobe Illustrator 19.0.0, SVG Export Plug-In . SVG Version: 6.00 Build 0)  -->
<svg version="1.1" id="Layer_1" xmlns="http://www.w3.org/2000/svg" xmlns:xlink="http://www.w3.org/1999/xlink" x="0px" y="0px"
	 viewBox="-286 382.3 38.5 29.7" style="enable-background:new -286 382.3 38.5 29.7;" xml:space="preserve">
<style type="text/css">
	.st0{fill:#010101;}
</style>
<g id="Dropdown">
	<path class="st0" d="M-537.5,771h-13.3H-568c-1.1,0-2,0.9-2,2v13.1c0,1.1,0.9,2,2,2h17.3h13.3c1.1,0,2-0.9,2-2V773
		C-535.5,771.9-536.3,771-537.5,771z M-544,784.1l-5.9-5.9l2.4-2.4l3.5,3.5l3.5-3.5l2.4,2.4L-544,784.1z M-569,786.1V773
		c0-0.6,0.4-1,1-1h15.6c-0.2,0.3-0.3,0.6-0.3,1v13.1c0,0.4,0.1,0.7,0.3,1H-568C-568.7,787.1-569,786.7-569,786.1z"/>
</g>
</svg>
