<svg xmlns="http://www.w3.org/2000/svg" width="25" height="25" fill="none" viewBox="0 0 25 25">
    <circle cx="12.5" cy="12.5" r="11.997" stroke="#003E6B" transform="rotate(-22.074 12.5 12.5)"/>
    <circle cx="12.5" cy="12.5" r="5.748" stroke="#003E6B" transform="rotate(-22.074 12.5 12.5)"/>
    <path fill="#003E6B" d="M3.565 4.324L1.65 7.91l5.425 2.295 1.343-2.23 1.93-.783L8 1.402l-1.93.783-2.504 2.139zM20.676 3.565L17.09 1.65l-2.295 5.425 2.23 1.343.783 1.93L23.598 8l-.783-1.93-2.139-2.504zM21.434 20.676l1.917-3.586-5.425-2.295-1.343 2.23-1.93.783L17 23.598l1.93-.783 2.503-2.139zM4.806 21.239l3.3 2.595 2.582-6.104-2.23-1.343-1.266-1.735-5.79 2.349 1.265 1.734 2.14 2.504z"/>
</svg>
