<svg fill="none" viewBox="0 0 15 14" xmlns="http://www.w3.org/2000/svg">
	<path d="M3.78 14h1.321v-1.767h-.71c-.841 0-1.023-.28-1.023-1.337v-1.75c0-1.205-.396-1.898-1.255-2.13v-.033c.859-.23 1.255-.924 1.255-2.13v-1.75c0-1.056.182-1.336 1.024-1.336h.71V0H3.78C1.915 0 1.106.809 1.106 3.021v1.915c0 .925-.28 1.189-1.106 1.189v1.75c.825 0 1.106.264 1.106 1.189v1.915c0 2.212.81 3.021 2.675 3.021zM9.56 14h1.32c1.865 0 2.674-.809 2.674-3.021V9.064c0-.925.281-1.189 1.107-1.189v-1.75c-.826 0-1.107-.264-1.107-1.189V3.021C13.554.81 12.745 0 10.88 0H9.56v1.767h.709c.842 0 1.024.28 1.024 1.337v1.75c0 1.205.396 1.898 1.254 2.13v.033c-.858.23-1.254.924-1.254 2.13v1.75c0 1.056-.182 1.336-1.024 1.336h-.71V14z" fill="#003E6B"/>
</svg>
