<svg viewBox="0 0 16 16" xmlns="http://www.w3.org/2000/svg">
	<path d="M9.977 6.529l-.552-.552a3.33 3.33 0 0 0-4.69 0l-3.77 3.77a3.33 3.33 0 0 0 0 4.69l.552.552C2.161 15.632 2.99 16 3.817 16c.827 0 1.746-.368 2.298-1.011l1.839-1.84c.368-.367.368-.827 0-1.195-.368-.368-.828-.368-1.195 0l-1.84 1.84c-.643.643-1.747.643-2.298 0l-.552-.553a1.61 1.61 0 0 1 0-2.298L5.931 7.08c.644-.643 1.747-.643 2.299 0l.552.552c.367.368.827.368 1.195 0 .368-.276.368-.735 0-1.103z" fill="#003E6B"/>
	<path d="M14.943 1.563l-.552-.551C13.747.368 12.92 0 12.092 0c-.92 0-1.747.368-2.299 1.012L8.046 2.575c-.276.368-.276.92 0 1.195.368.368.828.368 1.195 0l1.656-1.655c.643-.644 1.747-.644 2.298 0l.552.552a1.61 1.61 0 0 1 0 2.299l-3.77 3.77c-.644.643-1.747.643-2.299 0-.368-.368-.827-.368-1.195 0-.368.367-.368.827 0 1.195a3.33 3.33 0 0 0 4.69 0l3.77-3.77c1.287-1.195 1.287-3.31 0-4.598z" fill="#003E6B"/>
</svg>
