<svg xmlns="http://www.w3.org/2000/svg" width="15" height="14" fill="none" viewBox="0 0 15 14">
    <path stroke="#003E6B" d="M3 2h-.532l.033.53L3 2.5l-.5.03.001.001v.006l.001.019.005.072.017.276a1690.728 1690.728 0 0 0 .253 4.019c.072 1.111.146 2.238.207 3.115.031.438.059.815.081 1.097.022.264.04.482.057.57.056.302.194.606.4.844.203.237.514.451.91.451h6.136c.4 0 .706-.218.906-.454.2-.237.334-.534.4-.82.021-.095.04-.266.057-.451.02-.202.041-.466.064-.778.047-.624.101-1.447.159-2.356.061-.97.127-2.047.19-3.087l.155-2.523.034-.531H3zM5 1.5a1 1 0 0 1 1-1h3a1 1 0 0 1 1 1"/>
    <rect width="14.5" height=".5" x=".25" y="1.75" stroke="#003E6B" stroke-width=".5" rx=".25"/>
    <rect width="1" height="8" fill="#003E6B" rx=".5" transform="matrix(-1 0 0 1 10 3.5)"/>
    <rect width="1" height="8" fill="#003E6B" rx=".5" transform="matrix(-1 0 0 1 8 3.5)"/>
    <rect width="1" height="8" x="5" y="3.5" fill="#003E6B" rx=".5"/>
</svg>
