<svg width="78" height="20" viewBox="0 0 78 20" fill="none" xmlns="http://www.w3.org/2000/svg">
<g clip-path="url(#clip0_3093_61394)">
<path d="M20.2675 8.36264H0.355408V1.23969C0.355408 0.966929 0.465715 0.705339 0.662063 0.512468C0.85841 0.319597 1.12472 0.211243 1.40239 0.211243L19.2205 0.211243C19.358 0.211243 19.4942 0.237844 19.6212 0.289529C19.7482 0.341213 19.8636 0.416968 19.9609 0.512468C20.0581 0.607968 20.1352 0.721343 20.1878 0.84612C20.2404 0.970897 20.2675 1.10463 20.2675 1.23969V8.36264Z" fill="#E8318A"/>
<path d="M0.355408 11.6384H20.2675V18.7461C20.2665 19.0182 20.1557 19.2789 19.9595 19.4709C19.7633 19.6629 19.4975 19.7708 19.2205 19.7708H1.40239C1.12539 19.7708 0.859667 19.6629 0.66343 19.4709C0.467193 19.2789 0.356434 19.0182 0.355408 18.7461L0.355408 11.6384Z" fill="#E8318A"/>
<path d="M8.65373 2.38623H0.355408V17.5996H8.65373V2.38623Z" fill="#E8318A"/>
<path d="M20.2675 9.99292H11.9692V17.7215H20.2675V9.99292Z" fill="#E8318A"/>
<path d="M73.7995 0.211243H68.4715V12.7697H73.7995V0.211243Z" fill="#E8318A"/>
<path d="M77.526 3.87555H64.7411V9.1092H77.526V3.87555Z" fill="#E8318A"/>
<path d="M63.4188 0.226479H53.7866V6.29051L49.4396 0.211243L43.6541 0.283615L43.5726 0.226479V19.6794H53.771V14.499L57.5014 19.706L63.3529 19.6717L63.2637 19.546L63.4188 19.6794V0.226479Z" fill="#E8318A"/>
<path d="M41.8276 7.26941H21.9155V12.7126H41.8276V7.26941Z" fill="#E8318A"/>
<path d="M32.8779 0.211243H21.9155V19.7708H32.8779V0.211243Z" fill="#E8318A"/>
<path d="M41.8276 0.211243H21.9155V5.65439H41.8276V0.211243Z" fill="#E8318A"/>
<path d="M41.8276 14.3276H21.9155V19.7708H41.8276V14.3276Z" fill="#E8318A"/>
</g>
<defs>
<clipPath id="clip0_3093_61394">
<rect width="77.1744" height="19.5595" fill="white" transform="translate(0.355408 0.211243)"/>
</clipPath>
</defs>
</svg>
