<svg width="25" height="25" viewBox="0 0 25 25" fill="none" xmlns="http://www.w3.org/2000/svg">
<rect width="25" height="25" rx="4" fill="#3963A9"/>
<g clip-path="url(#clip0_6_267)">
<path d="M12.1707 8.77734C10.1153 8.77734 8.44318 10.4495 8.44318 12.5048C8.44318 13.347 8.71904 14.1422 9.24098 14.8044C9.341 14.9313 9.44872 15.0563 9.55284 15.1772C9.86379 15.538 10.1574 15.8789 10.2619 16.2622C10.2642 16.2705 10.2839 16.3509 10.281 16.625L10.2805 16.6646C10.2773 16.887 10.2731 17.1916 10.4983 17.42C10.6525 17.5764 10.8687 17.6525 11.1593 17.6525H13.1752C13.4889 17.6525 13.7145 17.5757 13.8647 17.4178C14.068 17.2042 14.0544 16.9283 14.0453 16.7456C14.0437 16.7134 14.042 16.6808 14.0416 16.6483C14.0384 16.374 14.0589 16.2967 14.0598 16.2934C14.1659 15.9101 14.5099 15.5059 14.8135 15.1494C14.9147 15.0304 15.0104 14.918 15.0995 14.805C15.6216 14.1428 15.8976 13.3474 15.8976 12.5049C15.8976 10.4495 14.2257 8.77734 12.1707 8.77734ZM14.5099 14.3401C14.4295 14.442 14.3383 14.5492 14.2417 14.6627C13.8878 15.0785 13.4867 15.5498 13.3362 16.0929C13.3148 16.1703 13.2868 16.3129 13.2909 16.6572C13.2914 16.699 13.2934 16.741 13.2955 16.7827C13.2971 16.8156 13.2992 16.8589 13.299 16.8933C13.2726 16.8976 13.2327 16.9016 13.1752 16.9016H11.1593C11.0954 16.9016 11.058 16.8948 11.0389 16.8897C11.029 16.8408 11.0304 16.7392 11.0313 16.6751L11.0319 16.6329C11.0355 16.2865 11.0077 16.1429 10.9865 16.0648C10.8373 15.5174 10.4571 15.0762 10.1217 14.6871C10.0183 14.567 9.92055 14.4536 9.83075 14.3396C9.41428 13.8111 9.19413 13.1766 9.19413 12.5048C9.19413 10.8635 10.5294 9.52815 12.1708 9.52815C13.8118 9.52815 15.1469 10.8635 15.1469 12.5048C15.1468 13.177 14.9266 13.8117 14.5099 14.3401Z" fill="white"/>
<path d="M13.0975 17.9917H11.2433C10.8431 17.9917 10.5175 18.3173 10.5175 18.7175V19.274C10.5175 19.6742 10.8431 19.9998 11.2433 19.9998H13.0975C13.4977 19.9998 13.8233 19.6742 13.8233 19.274V18.7175C13.8233 18.3173 13.4977 17.9917 13.0975 17.9917ZM13.0725 19.249H11.2684V18.7426H13.0725V19.249Z" fill="white"/>
<path d="M12.1704 8.29155C12.3778 8.29155 12.5458 8.12351 12.5458 7.91613V6.37543C12.5458 6.16804 12.3778 6 12.1704 6C11.963 6 11.795 6.16804 11.795 6.37543V7.91613C11.795 8.12351 11.9631 8.29155 12.1704 8.29155Z" fill="white"/>
<path d="M17.1096 7.7319C16.9666 7.58198 16.7289 7.57642 16.5788 7.71949L15.439 8.80722C15.289 8.95034 15.2835 9.18801 15.4266 9.33803C15.5004 9.41531 15.5992 9.45426 15.6983 9.45426C15.7914 9.45426 15.8847 9.41982 15.9574 9.35044L17.0972 8.26265C17.2472 8.11954 17.2527 7.88187 17.1096 7.7319Z" fill="white"/>
<path d="M18.2287 11.4861C18.2285 11.4861 18.2283 11.4861 18.2281 11.4861L16.7609 11.4884C16.5535 11.4888 16.3857 11.6571 16.386 11.8645C16.3864 12.0716 16.5544 12.2393 16.7615 12.2393C16.7617 12.2393 16.7619 12.2393 16.7621 12.2393L18.2293 12.2369C18.4367 12.2366 18.6045 12.0682 18.6041 11.8609C18.6038 11.6537 18.4358 11.4861 18.2287 11.4861Z" fill="white"/>
<path d="M8.72354 9.23796C8.86665 9.08799 8.86114 8.85037 8.71112 8.70716L7.57133 7.61943C7.42146 7.47636 7.18379 7.48182 7.04053 7.63184C6.89741 7.78181 6.90292 8.01943 7.05294 8.16264L8.19274 9.25043C8.26542 9.31981 8.35867 9.35425 8.45188 9.35425C8.55089 9.3542 8.64975 9.31525 8.72354 9.23796Z" fill="white"/>
<path d="M7.23901 11.4884L5.77184 11.4861C5.77164 11.4861 5.77144 11.4861 5.77124 11.4861C5.56415 11.4861 5.39616 11.6538 5.39581 11.8609C5.39546 12.0682 5.5633 12.2366 5.77064 12.2369L7.23781 12.2393C7.23801 12.2393 7.23821 12.2393 7.23841 12.2393C7.44549 12.2393 7.61348 12.0715 7.61383 11.8645C7.61423 11.6571 7.44639 11.4887 7.23901 11.4884Z" fill="white"/>
</g>
<defs>
<clipPath id="clip0_6_267">
<rect width="14" height="14" fill="white" transform="translate(5 6)"/>
</clipPath>
</defs>
</svg>
