<svg display="none" width="0" height="0" version="1.1" xmlns="http://www.w3.org/2000/svg" xmlns:xlink="http://www.w3.org/1999/xlink">
<defs>
<symbol id="icon-caret-down" viewBox="0 0 585 1024">
	<path class="path1" d="M585.143 402.286q0 14.857-10.857 25.714l-256 256q-10.857 10.857-25.714 10.857t-25.714-10.857l-256-256q-10.857-10.857-10.857-25.714t10.857-25.714 25.714-10.857h512q14.857 0 25.714 10.857t10.857 25.714z"></path>
</symbol>
<symbol id="icon-caret-up" viewBox="0 0 585 1024">
	<path class="path1" d="M585.143 694.857q0 14.857-10.857 25.714t-25.714 10.857h-512q-14.857 0-25.714-10.857t-10.857-25.714 10.857-25.714l256-256q10.857-10.857 25.714-10.857t25.714 10.857l256 256q10.857 10.857 10.857 25.714z"></path>
</symbol>
<symbol id="icon-caret-left" viewBox="0 0 366 1024">
	<path class="path1" d="M365.714 256v512q0 14.857-10.857 25.714t-25.714 10.857-25.714-10.857l-256-256q-10.857-10.857-10.857-25.714t10.857-25.714l256-256q10.857-10.857 25.714-10.857t25.714 10.857 10.857 25.714z"></path>
</symbol>
<symbol id="icon-caret-right" viewBox="0 0 366 1024">
	<path class="path1" d="M329.143 512q0 14.857-10.857 25.714l-256 256q-10.857 10.857-25.714 10.857t-25.714-10.857-10.857-25.714v-512q0-14.857 10.857-25.714t25.714-10.857 25.714 10.857l256 256q10.857 10.857 10.857 25.714z"></path>
</symbol>
<symbol id="icon-dot-circle-o" viewBox="0 0 1024 1024">
	<path class="path1" d="M585.143 512q0 60.571-42.857 103.429t-103.429 42.857-103.429-42.857-42.857-103.429 42.857-103.429 103.429-42.857 103.429 42.857 42.857 103.429zM438.857 201.143q-84.571 0-156 41.714t-113.143 113.143-41.714 156 41.714 156 113.143 113.143 156 41.714 156-41.714 113.143-113.143 41.714-156-41.714-156-113.143-113.143-156-41.714zM877.714 512q0 119.429-58.857 220.286t-159.714 159.714-220.286 58.857-220.286-58.857-159.714-159.714-58.857-220.286 58.857-220.286 159.714-159.714 220.286-58.857 220.286 58.857 159.714 159.714 58.857 220.286z"></path>
</symbol>
<symbol id="icon-square-o" viewBox="0 0 805 1024">
	<path class="path1" d="M640 146.286h-475.429q-37.714 0-64.571 26.857t-26.857 64.571v475.429q0 37.714 26.857 64.571t64.571 26.857h475.429q37.714 0 64.571-26.857t26.857-64.571v-475.429q0-37.714-26.857-64.571t-64.571-26.857zM804.571 237.714v475.429q0 68-48.286 116.286t-116.286 48.286h-475.429q-68 0-116.286-48.286t-48.286-116.286v-475.429q0-68 48.286-116.286t116.286-48.286h475.429q68 0 116.286 48.286t48.286 116.286z"></path>
</symbol>
<symbol id="icon-square" viewBox="0 0 1024 1024">
	<path class="path1" d="M877.714 237.714v548.571q0 68-48.286 116.286t-116.286 48.286h-548.571q-68 0-116.286-48.286t-48.286-116.286v-548.571q0-68 48.286-116.286t116.286-48.286h548.571q68 0 116.286 48.286t48.286 116.286z"></path>
</symbol>
<symbol id="icon-circle" viewBox="0 0 1024 1024">
	<path class="path1" d="M877.714 512q0 119.429-58.857 220.286t-159.714 159.714-220.286 58.857-220.286-58.857-159.714-159.714-58.857-220.286 58.857-220.286 159.714-159.714 220.286-58.857 220.286 58.857 159.714 159.714 58.857 220.286z"></path>
</symbol>
<symbol id="icon-circle-thin" viewBox="0 0 1024 1024">
	<path class="path1" d="M438.857 146.286q-74.286 0-142 29.143t-116.571 78-78 116.571-29.143 142 29.143 142 78 116.571 116.571 78 142 29.143 142-29.143 116.571-78 78-116.571 29.143-142-29.143-142-78-116.571-116.571-78-142-29.143zM877.714 512q0 119.429-58.857 220.286t-159.714 159.714-220.286 58.857-220.286-58.857-159.714-159.714-58.857-220.286 58.857-220.286 159.714-159.714 220.286-58.857 220.286 58.857 159.714 159.714 58.857 220.286z"></path>
</symbol>
<symbol id="icon-search" viewBox="0 0 951 1024">
	<path class="path1" d="M658.286 475.429q0-105.714-75.143-180.857t-180.857-75.143-180.857 75.143-75.143 180.857 75.143 180.857 180.857 75.143 180.857-75.143 75.143-180.857zM950.857 950.857q0 29.714-21.714 51.429t-51.429 21.714q-30.857 0-51.429-21.714l-196-195.429q-102.286 70.857-228 70.857-81.714 0-156.286-31.714t-128.571-85.714-85.714-128.571-31.714-156.286 31.714-156.286 85.714-128.571 128.571-85.714 156.286-31.714 156.286 31.714 128.571 85.714 85.714 128.571 31.714 156.286q0 125.714-70.857 228l196 196q21.143 21.143 21.143 51.429z"></path>
</symbol>
<symbol id="icon-envelope-o" viewBox="0 0 1024 1024">
	<path class="path1" d="M950.857 859.429v-438.857q-18.286 20.571-39.429 37.714-153.143 117.714-243.429 193.143-29.143 24.571-47.429 38.286t-49.429 27.714-58.571 14h-1.143q-27.429 0-58.571-14t-49.429-27.714-47.429-38.286q-90.286-75.429-243.429-193.143-21.143-17.143-39.429-37.714v438.857q0 7.429 5.429 12.857t12.857 5.429h841.143q7.429 0 12.857-5.429t5.429-12.857zM950.857 258.857v-14t-0.286-7.429-1.714-7.143-3.143-5.143-5.143-4.286-8-1.429h-841.143q-7.429 0-12.857 5.429t-5.429 12.857q0 96 84 162.286 110.286 86.857 229.143 181.143 3.429 2.857 20 16.857t26.286 21.429 25.429 18 28.857 15.714 24.571 5.143h1.143q11.429 0 24.571-5.143t28.857-15.714 25.429-18 26.286-21.429 20-16.857q118.857-94.286 229.143-181.143 30.857-24.571 57.429-66t26.571-75.143zM1024 237.714v621.714q0 37.714-26.857 64.571t-64.571 26.857h-841.143q-37.714 0-64.571-26.857t-26.857-64.571v-621.714q0-37.714 26.857-64.571t64.571-26.857h841.143q37.714 0 64.571 26.857t26.857 64.571z"></path>
</symbol>
<symbol id="icon-star" viewBox="0 0 951 1024">
	<path class="path1" d="M950.857 369.714q0 12.571-14.857 27.429l-207.429 202.286 49.143 285.714q0.571 4 0.571 11.429 0 12-6 20.286t-17.429 8.286q-10.857 0-22.857-6.857l-256.571-134.857-256.571 134.857q-12.571 6.857-22.857 6.857-12 0-18-8.286t-6-20.286q0-3.429 1.143-11.429l49.143-285.714-208-202.286q-14.286-15.429-14.286-27.429 0-21.143 32-26.286l286.857-41.714 128.571-260q10.857-23.429 28-23.429t28 23.429l128.571 260 286.857 41.714q32 5.143 32 26.286z"></path>
</symbol>
<symbol id="icon-user" viewBox="0 0 805 1024">
	<path class="path1" d="M804.571 802.857q0 68.571-41.714 108.286t-110.857 39.714h-499.429q-69.143 0-110.857-39.714t-41.714-108.286q0-30.286 2-59.143t8-62.286 15.143-62 24.571-55.714 35.429-46.286 48.857-30.571 63.714-11.429q5.143 0 24 12.286t42.571 27.429 61.714 27.429 76.286 12.286 76.286-12.286 61.714-27.429 42.571-27.429 24-12.286q34.857 0 63.714 11.429t48.857 30.571 35.429 46.286 24.571 55.714 15.143 62 8 62.286 2 59.143zM621.714 292.571q0 90.857-64.286 155.143t-155.143 64.286-155.143-64.286-64.286-155.143 64.286-155.143 155.143-64.286 155.143 64.286 64.286 155.143z"></path>
</symbol>
<symbol id="icon-check" viewBox="0 0 1024 1024">
	<path class="path1" d="M954.857 323.429q0 22.857-16 38.857l-491.429 491.429q-16 16-38.857 16t-38.857-16l-284.571-284.571q-16-16-16-38.857t16-38.857l77.714-77.714q16-16 38.857-16t38.857 16l168 168.571 374.857-375.429q16-16 38.857-16t38.857 16l77.714 77.714q16 16 16 38.857z"></path>
</symbol>
<symbol id="icon-close" viewBox="0 0 805 1024">
	<path class="path1" d="M741.714 755.429q0 22.857-16 38.857l-77.714 77.714q-16 16-38.857 16t-38.857-16l-168-168-168 168q-16 16-38.857 16t-38.857-16l-77.714-77.714q-16-16-16-38.857t16-38.857l168-168-168-168q-16-16-16-38.857t16-38.857l77.714-77.714q16-16 38.857-16t38.857 16l168 168 168-168q16-16 38.857-16t38.857 16l77.714 77.714q16 16 16 38.857t-16 38.857l-168 168 168 168q16 16 16 38.857z"></path>
</symbol>
<symbol id="icon-search-plus" viewBox="0 0 951 1024">
	<path class="path1" d="M585.143 457.143v36.571q0 7.429-5.429 12.857t-12.857 5.429h-128v128q0 7.429-5.429 12.857t-12.857 5.429h-36.571q-7.429 0-12.857-5.429t-5.429-12.857v-128h-128q-7.429 0-12.857-5.429t-5.429-12.857v-36.571q0-7.429 5.429-12.857t12.857-5.429h128v-128q0-7.429 5.429-12.857t12.857-5.429h36.571q7.429 0 12.857 5.429t5.429 12.857v128h128q7.429 0 12.857 5.429t5.429 12.857zM658.286 475.429q0-105.714-75.143-180.857t-180.857-75.143-180.857 75.143-75.143 180.857 75.143 180.857 180.857 75.143 180.857-75.143 75.143-180.857zM950.857 950.857q0 30.286-21.429 51.714t-51.714 21.429q-30.857 0-51.429-21.714l-196-195.429q-102.286 70.857-228 70.857-81.714 0-156.286-31.714t-128.571-85.714-85.714-128.571-31.714-156.286 31.714-156.286 85.714-128.571 128.571-85.714 156.286-31.714 156.286 31.714 128.571 85.714 85.714 128.571 31.714 156.286q0 125.714-70.857 228l196 196q21.143 21.143 21.143 51.429z"></path>
</symbol>
<symbol id="icon-search-minus" viewBox="0 0 951 1024">
	<path class="path1" d="M585.143 457.143v36.571q0 7.429-5.429 12.857t-12.857 5.429h-329.143q-7.429 0-12.857-5.429t-5.429-12.857v-36.571q0-7.429 5.429-12.857t12.857-5.429h329.143q7.429 0 12.857 5.429t5.429 12.857zM658.286 475.429q0-105.714-75.143-180.857t-180.857-75.143-180.857 75.143-75.143 180.857 75.143 180.857 180.857 75.143 180.857-75.143 75.143-180.857zM950.857 950.857q0 30.286-21.429 51.714t-51.714 21.429q-30.857 0-51.429-21.714l-196-195.429q-102.286 70.857-228 70.857-81.714 0-156.286-31.714t-128.571-85.714-85.714-128.571-31.714-156.286 31.714-156.286 85.714-128.571 128.571-85.714 156.286-31.714 156.286 31.714 128.571 85.714 85.714 128.571 31.714 156.286q0 125.714-70.857 228l196 196q21.143 21.143 21.143 51.429z"></path>
</symbol>
<symbol id="icon-cog" viewBox="0 0 1024 1024">
	<path class="path1" d="M585.143 512q0-60.571-42.857-103.429t-103.429-42.857-103.429 42.857-42.857 103.429 42.857 103.429 103.429 42.857 103.429-42.857 42.857-103.429zM877.714 449.714v126.857q0 6.857-4.571 13.143t-11.429 7.429l-105.714 16q-10.857 30.857-22.286 52 20 28.571 61.143 78.857 5.714 6.857 5.714 14.286t-5.143 13.143q-15.429 21.143-56.571 61.714t-53.714 40.571q-6.857 0-14.857-5.143l-78.857-61.714q-25.143 13.143-52 21.714-9.143 77.714-16.571 106.286-4 16-20.571 16h-126.857q-8 0-14-4.857t-6.571-12.286l-16-105.143q-28-9.143-51.429-21.143l-80.571 61.143q-5.714 5.143-14.286 5.143-8 0-14.286-6.286-72-65.143-94.286-96-4-5.714-4-13.143 0-6.857 4.571-13.143 8.571-12 29.143-38t30.857-40.286q-15.429-28.571-23.429-56.571l-104.571-15.429q-7.429-1.143-12-7.143t-4.571-13.429v-126.857q0-6.857 4.571-13.143t10.857-7.429l106.286-16q8-26.286 22.286-52.571-22.857-32.571-61.143-78.857-5.714-6.857-5.714-13.714 0-5.714 5.143-13.143 14.857-20.571 56.286-61.429t54-40.857q7.429 0 14.857 5.714l78.857 61.143q25.143-13.143 52-21.714 9.143-77.714 16.571-106.286 4-16 20.571-16h126.857q8 0 14 4.857t6.571 12.286l16 105.143q28 9.143 51.429 21.143l81.143-61.143q5.143-5.143 13.714-5.143 7.429 0 14.286 5.714 73.714 68 94.286 97.143 4 4.571 4 12.571 0 6.857-4.571 13.143-8.571 12-29.143 38t-30.857 40.286q14.857 28.571 23.429 56l104.571 16q7.429 1.143 12 7.143t4.571 13.429z"></path>
</symbol>
<symbol id="icon-trash-o" viewBox="0 0 805 1024">
	<path class="path1" d="M292.571 420.571v329.143q0 8-5.143 13.143t-13.143 5.143h-36.571q-8 0-13.143-5.143t-5.143-13.143v-329.143q0-8 5.143-13.143t13.143-5.143h36.571q8 0 13.143 5.143t5.143 13.143zM438.857 420.571v329.143q0 8-5.143 13.143t-13.143 5.143h-36.571q-8 0-13.143-5.143t-5.143-13.143v-329.143q0-8 5.143-13.143t13.143-5.143h36.571q8 0 13.143 5.143t5.143 13.143zM585.143 420.571v329.143q0 8-5.143 13.143t-13.143 5.143h-36.571q-8 0-13.143-5.143t-5.143-13.143v-329.143q0-8 5.143-13.143t13.143-5.143h36.571q8 0 13.143 5.143t5.143 13.143zM658.286 834.286v-541.714h-512v541.714q0 12.571 4 23.143t8.286 15.429 6 4.857h475.429q1.714 0 6-4.857t8.286-15.429 4-23.143zM274.286 219.429h256l-27.429-66.857q-4-5.143-9.714-6.286h-181.143q-5.714 1.143-9.714 6.286zM804.571 237.714v36.571q0 8-5.143 13.143t-13.143 5.143h-54.857v541.714q0 47.429-26.857 82t-64.571 34.571h-475.429q-37.714 0-64.571-33.429t-26.857-80.857v-544h-54.857q-8 0-13.143-5.143t-5.143-13.143v-36.571q0-8 5.143-13.143t13.143-5.143h176.571l40-95.429q8.571-21.143 30.857-36t45.143-14.857h182.857q22.857 0 45.143 14.857t30.857 36l40 95.429h176.571q8 0 13.143 5.143t5.143 13.143z"></path>
</symbol>
<symbol id="icon-home" viewBox="0 0 951 1024">
	<path class="path1" d="M804.571 566.857v274.286q0 14.857-10.857 25.714t-25.714 10.857h-219.429v-219.429h-146.286v219.429h-219.429q-14.857 0-25.714-10.857t-10.857-25.714v-274.286q0-0.571 0.286-1.714t0.286-1.714l328.571-270.857 328.571 270.857q0.571 1.143 0.571 3.429zM932 527.429l-35.429 42.286q-4.571 5.143-12 6.286h-1.714q-7.429 0-12-4l-395.429-329.714-395.429 329.714q-6.857 4.571-13.714 4-7.429-1.143-12-6.286l-35.429-42.286q-4.571-5.714-4-13.429t6.286-12.286l410.857-342.286q18.286-14.857 43.429-14.857t43.429 14.857l139.429 116.571v-111.429q0-8 5.143-13.143t13.143-5.143h109.714q8 0 13.143 5.143t5.143 13.143v233.143l125.143 104q5.714 4.571 6.286 12.286t-4 13.429z"></path>
</symbol>
<symbol id="icon-file-o" viewBox="0 0 1024 1024">
	<path class="path1" d="M838.857 217.143q16 16 27.429 43.429t11.429 50.286v658.286q0 22.857-16 38.857t-38.857 16h-768q-22.857 0-38.857-16t-16-38.857v-914.286q0-22.857 16-38.857t38.857-16h512q22.857 0 50.286 11.429t43.429 27.429zM585.143 77.714v214.857h214.857q-5.714-16.571-12.571-23.429l-178.857-178.857q-6.857-6.857-23.429-12.571zM804.571 950.857v-585.143h-237.714q-22.857 0-38.857-16t-16-38.857v-237.714h-438.857v877.714h731.429z"></path>
</symbol>
<symbol id="icon-clock-o" viewBox="0 0 1024 1024">
	<path class="path1" d="M512 310.857v256q0 8-5.143 13.143t-13.143 5.143h-182.857q-8 0-13.143-5.143t-5.143-13.143v-36.571q0-8 5.143-13.143t13.143-5.143h128v-201.143q0-8 5.143-13.143t13.143-5.143h36.571q8 0 13.143 5.143t5.143 13.143zM749.714 512q0-84.571-41.714-156t-113.143-113.143-156-41.714-156 41.714-113.143 113.143-41.714 156 41.714 156 113.143 113.143 156 41.714 156-41.714 113.143-113.143 41.714-156zM877.714 512q0 119.429-58.857 220.286t-159.714 159.714-220.286 58.857-220.286-58.857-159.714-159.714-58.857-220.286 58.857-220.286 159.714-159.714 220.286-58.857 220.286 58.857 159.714 159.714 58.857 220.286z"></path>
</symbol>
<symbol id="icon-refresh" viewBox="0 0 1024 1024">
	<path class="path1" d="M863.429 603.429q0 2.857-0.571 4-36.571 153.143-153.143 248.286t-273.143 95.143q-83.429 0-161.429-31.429t-139.143-89.714l-73.714 73.714q-10.857 10.857-25.714 10.857t-25.714-10.857-10.857-25.714v-256q0-14.857 10.857-25.714t25.714-10.857h256q14.857 0 25.714 10.857t10.857 25.714-10.857 25.714l-78.286 78.286q40.571 37.714 92 58.286t106.857 20.571q76.571 0 142.857-37.143t106.286-102.286q6.286-9.714 30.286-66.857 4.571-13.143 17.143-13.143h109.714q7.429 0 12.857 5.429t5.429 12.857zM877.714 146.286v256q0 14.857-10.857 25.714t-25.714 10.857h-256q-14.857 0-25.714-10.857t-10.857-25.714 10.857-25.714l78.857-78.857q-84.571-78.286-199.429-78.286-76.571 0-142.857 37.143t-106.286 102.286q-6.286 9.714-30.286 66.857-4.571 13.143-17.143 13.143h-113.714q-7.429 0-12.857-5.429t-5.429-12.857v-4q37.143-153.143 154.286-248.286t274.286-95.143q83.429 0 162.286 31.714t140 89.429l74.286-73.714q10.857-10.857 25.714-10.857t25.714 10.857 10.857 25.714z"></path>
</symbol>
<symbol id="icon-list-alt" viewBox="0 0 1024 1024">
	<path class="path1" d="M219.429 676.571v36.571q0 7.429-5.429 12.857t-12.857 5.429h-36.571q-7.429 0-12.857-5.429t-5.429-12.857v-36.571q0-7.429 5.429-12.857t12.857-5.429h36.571q7.429 0 12.857 5.429t5.429 12.857zM219.429 530.286v36.571q0 7.429-5.429 12.857t-12.857 5.429h-36.571q-7.429 0-12.857-5.429t-5.429-12.857v-36.571q0-7.429 5.429-12.857t12.857-5.429h36.571q7.429 0 12.857 5.429t5.429 12.857zM219.429 384v36.571q0 7.429-5.429 12.857t-12.857 5.429h-36.571q-7.429 0-12.857-5.429t-5.429-12.857v-36.571q0-7.429 5.429-12.857t12.857-5.429h36.571q7.429 0 12.857 5.429t5.429 12.857zM877.714 676.571v36.571q0 7.429-5.429 12.857t-12.857 5.429h-548.571q-7.429 0-12.857-5.429t-5.429-12.857v-36.571q0-7.429 5.429-12.857t12.857-5.429h548.571q7.429 0 12.857 5.429t5.429 12.857zM877.714 530.286v36.571q0 7.429-5.429 12.857t-12.857 5.429h-548.571q-7.429 0-12.857-5.429t-5.429-12.857v-36.571q0-7.429 5.429-12.857t12.857-5.429h548.571q7.429 0 12.857 5.429t5.429 12.857zM877.714 384v36.571q0 7.429-5.429 12.857t-12.857 5.429h-548.571q-7.429 0-12.857-5.429t-5.429-12.857v-36.571q0-7.429 5.429-12.857t12.857-5.429h548.571q7.429 0 12.857 5.429t5.429 12.857zM950.857 786.286v-475.429q0-7.429-5.429-12.857t-12.857-5.429h-841.143q-7.429 0-12.857 5.429t-5.429 12.857v475.429q0 7.429 5.429 12.857t12.857 5.429h841.143q7.429 0 12.857-5.429t5.429-12.857zM1024 164.571v621.714q0 37.714-26.857 64.571t-64.571 26.857h-841.143q-37.714 0-64.571-26.857t-26.857-64.571v-621.714q0-37.714 26.857-64.571t64.571-26.857h841.143q37.714 0 64.571 26.857t26.857 64.571z"></path>
</symbol>
<symbol id="icon-lock" viewBox="0 0 658 1024">
	<path class="path1" d="M182.857 438.857h292.571v-109.714q0-60.571-42.857-103.429t-103.429-42.857-103.429 42.857-42.857 103.429v109.714zM658.286 493.714v329.143q0 22.857-16 38.857t-38.857 16h-548.571q-22.857 0-38.857-16t-16-38.857v-329.143q0-22.857 16-38.857t38.857-16h18.286v-109.714q0-105.143 75.429-180.571t180.571-75.429 180.571 75.429 75.429 180.571v109.714h18.286q22.857 0 38.857 16t16 38.857z"></path>
</symbol>
<symbol id="icon-flag" viewBox="0 0 1024 1024">
	<path class="path1" d="M182.857 146.286q0 41.143-36.571 62.857v723.429q0 7.429-5.429 12.857t-12.857 5.429h-36.571q-7.429 0-12.857-5.429t-5.429-12.857v-723.429q-36.571-21.714-36.571-62.857 0-30.286 21.429-51.714t51.714-21.429 51.714 21.429 21.429 51.714zM1024 182.857v436q0 14.286-7.143 22t-22.571 15.714q-122.857 66.286-210.857 66.286-34.857 0-70.571-12.571t-62-27.429-66-27.429-81.429-12.571q-109.714 0-265.143 83.429-9.714 5.143-18.857 5.143-14.857 0-25.714-10.857t-10.857-25.714v-424q0-18.286 17.714-31.429 12-8 45.143-24.571 134.857-68.571 240.571-68.571 61.143 0 114.286 16.571t125.143 50.286q21.714 10.857 50.286 10.857 30.857 0 67.143-12t62.857-26.857 50.286-26.857 31.143-12q14.857 0 25.714 10.857t10.857 25.714z"></path>
</symbol>
<symbol id="icon-volume-off" viewBox="0 0 439 1024">
	<path class="path1" d="M438.857 201.143v621.714q0 14.857-10.857 25.714t-25.714 10.857-25.714-10.857l-190.286-190.286h-149.714q-14.857 0-25.714-10.857t-10.857-25.714v-219.429q0-14.857 10.857-25.714t25.714-10.857h149.714l190.286-190.286q10.857-10.857 25.714-10.857t25.714 10.857 10.857 25.714z"></path>
</symbol>
<symbol id="icon-volume-down" viewBox="0 0 658 1024">
	<path class="path1" d="M438.857 201.143v621.714q0 14.857-10.857 25.714t-25.714 10.857-25.714-10.857l-190.286-190.286h-149.714q-14.857 0-25.714-10.857t-10.857-25.714v-219.429q0-14.857 10.857-25.714t25.714-10.857h149.714l190.286-190.286q10.857-10.857 25.714-10.857t25.714 10.857 10.857 25.714zM658.286 512q0 43.429-24.286 80.857t-64.286 53.429q-5.714 2.857-14.286 2.857-14.857 0-25.714-10.571t-10.857-26q0-12 6.857-20.286t16.571-14.286 19.429-13.143 16.571-20.286 6.857-32.571-6.857-32.571-16.571-20.286-19.429-13.143-16.571-14.286-6.857-20.286q0-15.429 10.857-26t25.714-10.571q8.571 0 14.286 2.857 40 15.429 64.286 53.143t24.286 81.143z"></path>
</symbol>
<symbol id="icon-volume-up" viewBox="0 0 951 1024">
	<path class="path1" d="M438.857 201.143v621.714q0 14.857-10.857 25.714t-25.714 10.857-25.714-10.857l-190.286-190.286h-149.714q-14.857 0-25.714-10.857t-10.857-25.714v-219.429q0-14.857 10.857-25.714t25.714-10.857h149.714l190.286-190.286q10.857-10.857 25.714-10.857t25.714 10.857 10.857 25.714zM658.286 512q0 43.429-24.286 80.857t-64.286 53.429q-5.714 2.857-14.286 2.857-14.857 0-25.714-10.571t-10.857-26q0-12 6.857-20.286t16.571-14.286 19.429-13.143 16.571-20.286 6.857-32.571-6.857-32.571-16.571-20.286-19.429-13.143-16.571-14.286-6.857-20.286q0-15.429 10.857-26t25.714-10.571q8.571 0 14.286 2.857 40 15.429 64.286 53.143t24.286 81.143zM804.571 512q0 87.429-48.571 161.429t-128.571 107.714q-7.429 2.857-14.286 2.857-15.429 0-26.286-10.857t-10.857-25.714q0-22.286 22.286-33.714 32-16.571 43.429-25.143 42.286-30.857 66-77.429t23.714-99.143-23.714-99.143-66-77.429q-11.429-8.571-43.429-25.143-22.286-11.429-22.286-33.714 0-14.857 10.857-25.714t25.714-10.857q7.429 0 14.857 2.857 80 33.714 128.571 107.714t48.571 161.429zM950.857 512q0 131.429-72.571 241.429t-193.143 162q-7.429 2.857-14.857 2.857-14.857 0-25.714-10.857t-10.857-25.714q0-20.571 22.286-33.714 4-2.286 12.857-6t12.857-6q26.286-14.286 46.857-29.143 70.286-52 109.714-129.714t39.429-165.143-39.429-165.143-109.714-129.714q-20.571-14.857-46.857-29.143-4-2.286-12.857-6t-12.857-6q-22.286-13.143-22.286-33.714 0-14.857 10.857-25.714t25.714-10.857q7.429 0 14.857 2.857 120.571 52 193.143 162t72.571 241.429z"></path>
</symbol>
<symbol id="icon-book" viewBox="0 0 951 1024">
	<path class="path1" d="M936.571 273.143q22.857 32.571 10.286 73.714l-157.143 517.714q-10.857 36.571-43.714 61.429t-70 24.857h-527.429q-44 0-84.857-30.571t-56.857-75.143q-13.714-38.286-1.143-72.571 0-2.286 1.714-15.429t2.286-21.143q0.571-4.571-1.714-12.286t-1.714-11.143q1.143-6.286 4.571-12t9.429-13.429 9.429-13.429q13.143-21.714 25.714-52.286t17.143-52.286q1.714-5.714 0.286-17.143t-0.286-16q1.714-6.286 9.714-16t9.714-13.143q12-20.571 24-52.571t14.286-51.429q0.571-5.143-1.429-18.286t0.286-16q2.286-7.429 12.571-17.429t12.571-12.857q10.857-14.857 24.286-48.286t15.714-55.143q0.571-4.571-1.714-14.571t-1.143-15.143q1.143-4.571 5.143-10.286t10.286-13.143 9.714-12q4.571-6.857 9.429-17.429t8.571-20 9.143-20.571 11.143-18.286 15.143-13.429 20.571-6.571 27.143 3.143l-0.571 1.714q21.714-5.143 29.143-5.143h434.857q42.286 0 65.143 32t10.286 74.286l-156.571 517.714q-20.571 68-40.857 87.714t-73.429 19.714h-496.571q-15.429 0-21.714 8.571-6.286 9.143-0.571 24.571 13.714 40 82.286 40h527.429q16.571 0 32-8.857t20-23.714l171.429-564q4-12.571 2.857-32.571 21.714 8.571 33.714 24.571zM328.571 274.286q-2.286 7.429 1.143 12.857t11.429 5.429h347.429q7.429 0 14.571-5.429t9.429-12.857l12-36.571q2.286-7.429-1.143-12.857t-11.429-5.429h-347.429q-7.429 0-14.571 5.429t-9.429 12.857zM281.143 420.571q-2.286 7.429 1.143 12.857t11.429 5.429h347.429q7.429 0 14.571-5.429t9.429-12.857l12-36.571q2.286-7.429-1.143-12.857t-11.429-5.429h-347.429q-7.429 0-14.571 5.429t-9.429 12.857z"></path>
</symbol>
<symbol id="icon-print" viewBox="0 0 951 1024">
	<path class="path1" d="M219.429 877.714h512v-146.286h-512v146.286zM219.429 512h512v-219.429h-91.429q-22.857 0-38.857-16t-16-38.857v-91.429h-365.714v365.714zM877.714 548.571q0-14.857-10.857-25.714t-25.714-10.857-25.714 10.857-10.857 25.714 10.857 25.714 25.714 10.857 25.714-10.857 10.857-25.714zM950.857 548.571v237.714q0 7.429-5.429 12.857t-12.857 5.429h-128v91.429q0 22.857-16 38.857t-38.857 16h-548.571q-22.857 0-38.857-16t-16-38.857v-91.429h-128q-7.429 0-12.857-5.429t-5.429-12.857v-237.714q0-45.143 32.286-77.429t77.429-32.286h36.571v-310.857q0-22.857 16-38.857t38.857-16h384q22.857 0 50.286 11.429t43.429 27.429l86.857 86.857q16 16 27.429 43.429t11.429 50.286v146.286h36.571q45.143 0 77.429 32.286t32.286 77.429z"></path>
</symbol>
<symbol id="icon-camera" viewBox="0 0 1097 1024">
	<path class="path1" d="M548.571 384q68 0 116.286 48.286t48.286 116.286-48.286 116.286-116.286 48.286-116.286-48.286-48.286-116.286 48.286-116.286 116.286-48.286zM950.857 146.286q60.571 0 103.429 42.857t42.857 103.429v512q0 60.571-42.857 103.429t-103.429 42.857h-804.571q-60.571 0-103.429-42.857t-42.857-103.429v-512q0-60.571 42.857-103.429t103.429-42.857h128l29.143-77.714q10.857-28 39.714-48.286t59.143-20.286h292.571q30.286 0 59.143 20.286t39.714 48.286l29.143 77.714h128zM548.571 804.571q105.714 0 180.857-75.143t75.143-180.857-75.143-180.857-180.857-75.143-180.857 75.143-75.143 180.857 75.143 180.857 180.857 75.143z"></path>
</symbol>
<symbol id="icon-video-camera" viewBox="0 0 1024 1024">
	<path class="path1" d="M1024 201.143v621.714q0 24-22.286 33.714-7.429 2.857-14.286 2.857-15.429 0-25.714-10.857l-230.286-230.286v94.857q0 68-48.286 116.286t-116.286 48.286h-402.286q-68 0-116.286-48.286t-48.286-116.286v-402.286q0-68 48.286-116.286t116.286-48.286h402.286q68 0 116.286 48.286t48.286 116.286v94.286l230.286-229.714q10.286-10.857 25.714-10.857 6.857 0 14.286 2.857 22.286 9.714 22.286 33.714z"></path>
</symbol>
<symbol id="icon-pencil" viewBox="0 0 1024 1024">
	<path class="path1" d="M207.429 877.714l52-52-134.286-134.286-52 52v61.143h73.143v73.143h61.143zM506.286 347.429q0-12.571-12.571-12.571-5.714 0-9.714 4l-309.714 309.714q-4 4-4 9.714 0 12.571 12.571 12.571 5.714 0 9.714-4l309.714-309.714q4-4 4-9.714zM475.429 237.714l237.714 237.714-475.429 475.429h-237.714v-237.714zM865.714 292.571q0 30.286-21.143 51.429l-94.857 94.857-237.714-237.714 94.857-94.286q20.571-21.714 51.429-21.714 30.286 0 52 21.714l134.286 133.714q21.143 22.286 21.143 52z"></path>
</symbol>
<symbol id="icon-edit" viewBox="0 0 1024 1024">
	<path class="path1" d="M507.429 676.571l66.286-66.286-86.857-86.857-66.286 66.286v32h54.857v54.857h32zM758.857 265.143q-9.143-9.143-18.857 0.571l-200 200q-9.714 9.714-0.571 18.857t18.857-0.571l200-200q9.714-9.714 0.571-18.857zM804.571 604.571v108.571q0 68-48.286 116.286t-116.286 48.286h-475.429q-68 0-116.286-48.286t-48.286-116.286v-475.429q0-68 48.286-116.286t116.286-48.286h475.429q36 0 66.857 14.286 8.571 4 10.286 13.143 1.714 9.714-5.143 16.571l-28 28q-8 8-18.286 4.571-13.143-3.429-25.714-3.429h-475.429q-37.714 0-64.571 26.857t-26.857 64.571v475.429q0 37.714 26.857 64.571t64.571 26.857h475.429q37.714 0 64.571-26.857t26.857-64.571v-72q0-7.429 5.143-12.571l36.571-36.571q8.571-8.571 20-4t11.429 16.571zM749.714 182.857l164.571 164.571-384 384h-164.571v-164.571zM1003.429 258.286l-52.571 52.571-164.571-164.571 52.571-52.571q16-16 38.857-16t38.857 16l86.857 86.857q16 16 16 38.857t-16 38.857z"></path>
</symbol>
<symbol id="icon-share-square-o" viewBox="0 0 951 1024">
	<path class="path1" d="M804.571 565.143v148q0 68-48.286 116.286t-116.286 48.286h-475.429q-68 0-116.286-48.286t-48.286-116.286v-475.429q0-68 48.286-116.286t116.286-48.286h145.714q7.429 0 12.857 5.429t5.429 12.857q0 15.429-14.857 18.286-44 14.857-76 34.286-5.714 2.286-9.143 2.286h-64q-37.714 0-64.571 26.857t-26.857 64.571v475.429q0 37.714 26.857 64.571t64.571 26.857h475.429q37.714 0 64.571-26.857t26.857-64.571v-122.286q0-10.857 10.286-16.571 16-7.429 30.857-21.143 9.143-9.143 20-4.571 12 5.143 12 16.571zM940 281.714l-219.429 219.429q-10.286 10.857-25.714 10.857-6.857 0-14.286-2.857-22.286-9.714-22.286-33.714v-109.714h-91.429q-184.571 0-250.286 74.857-68 78.286-42.286 270.286 1.714 13.143-11.429 19.429-4.571 1.143-6.857 1.143-9.143 0-14.857-7.429-5.714-8-12-17.714t-22.571-39.143-28.286-56.857-22-65.143-10-69.714q0-28 2-52t8-51.429 16-50.286 26.857-46.571 39.143-42.286 54-35.143 71.143-27.714 91.143-17.429 112.286-6.286h91.429v-109.714q0-24 22.286-33.714 7.429-2.857 14.286-2.857 14.857 0 25.714 10.857l219.429 219.429q10.857 10.857 10.857 25.714t-10.857 25.714z"></path>
</symbol>
<symbol id="icon-check-square-o" viewBox="0 0 951 1024">
	<path class="path1" d="M804.571 531.429v181.714q0 68-48.286 116.286t-116.286 48.286h-475.429q-68 0-116.286-48.286t-48.286-116.286v-475.429q0-68 48.286-116.286t116.286-48.286h475.429q36 0 66.857 14.286 8.571 4 10.286 13.143 1.714 9.714-5.143 16.571l-28 28q-5.714 5.714-13.143 5.714-1.714 0-5.143-1.143-13.143-3.429-25.714-3.429h-475.429q-37.714 0-64.571 26.857t-26.857 64.571v475.429q0 37.714 26.857 64.571t64.571 26.857h475.429q37.714 0 64.571-26.857t26.857-64.571v-145.143q0-7.429 5.143-12.571l36.571-36.571q5.714-5.714 13.143-5.714 3.429 0 6.857 1.714 11.429 4.571 11.429 16.571zM936.571 252l-465.143 465.143q-13.714 13.714-32.571 13.714t-32.571-13.714l-245.714-245.714q-13.714-13.714-13.714-32.571t13.714-32.571l62.857-62.857q13.714-13.714 32.571-13.714t32.571 13.714l150.286 150.286 369.714-369.714q13.714-13.714 32.571-13.714t32.571 13.714l62.857 62.857q13.714 13.714 13.714 32.571t-13.714 32.571z"></path>
</symbol>
<symbol id="icon-fast-backward" viewBox="0 0 1024 1024">
	<path class="path1" d="M998.286 80.571q10.857-10.857 18.286-7.429t7.429 18.286v841.143q0 14.857-7.429 18.286t-18.286-7.429l-405.714-405.714q-5.143-5.143-7.429-10.857v405.714q0 14.857-7.429 18.286t-18.286-7.429l-405.714-405.714q-5.143-5.143-7.429-10.857v387.429q0 14.857-10.857 25.714t-25.714 10.857h-73.143q-14.857 0-25.714-10.857t-10.857-25.714v-804.571q0-14.857 10.857-25.714t25.714-10.857h73.143q14.857 0 25.714 10.857t10.857 25.714v387.429q2.286-6.286 7.429-10.857l405.714-405.714q10.857-10.857 18.286-7.429t7.429 18.286v405.714q2.286-6.286 7.429-10.857z"></path>
</symbol>
<symbol id="icon-play" viewBox="0 0 805 1024">
	<path class="path1" d="M790.857 529.714l-758.857 421.714q-13.143 7.429-22.571 1.714t-9.429-20.571v-841.143q0-14.857 9.429-20.571t22.571 1.714l758.857 421.714q13.143 7.429 13.143 17.714t-13.143 17.714z"></path>
</symbol>
<symbol id="icon-pause" viewBox="0 0 1024 1024">
	<path class="path1" d="M877.714 109.714v804.571q0 14.857-10.857 25.714t-25.714 10.857h-292.571q-14.857 0-25.714-10.857t-10.857-25.714v-804.571q0-14.857 10.857-25.714t25.714-10.857h292.571q14.857 0 25.714 10.857t10.857 25.714zM365.714 109.714v804.571q0 14.857-10.857 25.714t-25.714 10.857h-292.571q-14.857 0-25.714-10.857t-10.857-25.714v-804.571q0-14.857 10.857-25.714t25.714-10.857h292.571q14.857 0 25.714 10.857t10.857 25.714z"></path>
</symbol>
<symbol id="icon-stop" viewBox="0 0 1024 1024">
	<path class="path1" d="M877.714 109.714v804.571q0 14.857-10.857 25.714t-25.714 10.857h-804.571q-14.857 0-25.714-10.857t-10.857-25.714v-804.571q0-14.857 10.857-25.714t25.714-10.857h804.571q14.857 0 25.714 10.857t10.857 25.714z"></path>
</symbol>
<symbol id="icon-fast-forward" viewBox="0 0 1024 1024">
	<path class="path1" d="M25.714 943.429q-10.857 10.857-18.286 7.429t-7.429-18.286v-841.143q0-14.857 7.429-18.286t18.286 7.429l405.714 405.714q4.571 4.571 7.429 10.857v-405.714q0-14.857 7.429-18.286t18.286 7.429l405.714 405.714q4.571 4.571 7.429 10.857v-387.429q0-14.857 10.857-25.714t25.714-10.857h73.143q14.857 0 25.714 10.857t10.857 25.714v804.571q0 14.857-10.857 25.714t-25.714 10.857h-73.143q-14.857 0-25.714-10.857t-10.857-25.714v-387.429q-2.857 5.714-7.429 10.857l-405.714 405.714q-10.857 10.857-18.286 7.429t-7.429-18.286v-405.714q-2.857 5.714-7.429 10.857z"></path>
</symbol>
<symbol id="icon-chevron-left" viewBox="0 0 731 1024">
	<path class="path1" d="M669.143 172l-303.429 303.429 303.429 303.429q10.857 10.857 10.857 25.714t-10.857 25.714l-94.857 94.857q-10.857 10.857-25.714 10.857t-25.714-10.857l-424-424q-10.857-10.857-10.857-25.714t10.857-25.714l424-424q10.857-10.857 25.714-10.857t25.714 10.857l94.857 94.857q10.857 10.857 10.857 25.714t-10.857 25.714z"></path>
</symbol>
<symbol id="icon-chevron-right" viewBox="0 0 731 1024">
	<path class="path1" d="M632.571 501.143l-424 424q-10.857 10.857-25.714 10.857t-25.714-10.857l-94.857-94.857q-10.857-10.857-10.857-25.714t10.857-25.714l303.429-303.429-303.429-303.429q-10.857-10.857-10.857-25.714t10.857-25.714l94.857-94.857q10.857-10.857 25.714-10.857t25.714 10.857l424 424q10.857 10.857 10.857 25.714t-10.857 25.714z"></path>
</symbol>
<symbol id="icon-times-circle" viewBox="0 0 1024 1024">
	<path class="path1" d="M656.571 641.143q0-14.857-10.857-25.714l-103.429-103.429 103.429-103.429q10.857-10.857 10.857-25.714 0-15.429-10.857-26.286l-51.429-51.429q-10.857-10.857-26.286-10.857-14.857 0-25.714 10.857l-103.429 103.429-103.429-103.429q-10.857-10.857-25.714-10.857-15.429 0-26.286 10.857l-51.429 51.429q-10.857 10.857-10.857 26.286 0 14.857 10.857 25.714l103.429 103.429-103.429 103.429q-10.857 10.857-10.857 25.714 0 15.429 10.857 26.286l51.429 51.429q10.857 10.857 26.286 10.857 14.857 0 25.714-10.857l103.429-103.429 103.429 103.429q10.857 10.857 25.714 10.857 15.429 0 26.286-10.857l51.429-51.429q10.857-10.857 10.857-26.286zM877.714 512q0 119.429-58.857 220.286t-159.714 159.714-220.286 58.857-220.286-58.857-159.714-159.714-58.857-220.286 58.857-220.286 159.714-159.714 220.286-58.857 220.286 58.857 159.714 159.714 58.857 220.286z"></path>
</symbol>
<symbol id="icon-question-circle" viewBox="0 0 1024 1024">
	<path class="path1" d="M512 786.286v-109.714q0-8-5.143-13.143t-13.143-5.143h-109.714q-8 0-13.143 5.143t-5.143 13.143v109.714q0 8 5.143 13.143t13.143 5.143h109.714q8 0 13.143-5.143t5.143-13.143zM658.286 402.286q0-50.286-31.714-93.143t-79.143-66.286-97.143-23.429q-138.857 0-212 121.714-8.571 13.714 4.571 24l75.429 57.143q4 3.429 10.857 3.429 9.143 0 14.286-6.857 30.286-38.857 49.143-52.571 19.429-13.714 49.143-13.714 27.429 0 48.857 14.857t21.429 33.714q0 21.714-11.429 34.857t-38.857 25.714q-36 16-66 49.429t-30 71.714v20.571q0 8 5.143 13.143t13.143 5.143h109.714q8 0 13.143-5.143t5.143-13.143q0-10.857 12.286-28.286t31.143-28.286q18.286-10.286 28-16.286t26.286-20 25.429-27.429 16-34.571 7.143-46.286zM877.714 512q0 119.429-58.857 220.286t-159.714 159.714-220.286 58.857-220.286-58.857-159.714-159.714-58.857-220.286 58.857-220.286 159.714-159.714 220.286-58.857 220.286 58.857 159.714 159.714 58.857 220.286z"></path>
</symbol>
<symbol id="icon-info-circle" viewBox="0 0 1024 1024">
	<path class="path1" d="M585.143 786.286v-91.429q0-8-5.143-13.143t-13.143-5.143h-54.857v-292.571q0-8-5.143-13.143t-13.143-5.143h-182.857q-8 0-13.143 5.143t-5.143 13.143v91.429q0 8 5.143 13.143t13.143 5.143h54.857v182.857h-54.857q-8 0-13.143 5.143t-5.143 13.143v91.429q0 8 5.143 13.143t13.143 5.143h256q8 0 13.143-5.143t5.143-13.143zM512 274.286v-91.429q0-8-5.143-13.143t-13.143-5.143h-109.714q-8 0-13.143 5.143t-5.143 13.143v91.429q0 8 5.143 13.143t13.143 5.143h109.714q8 0 13.143-5.143t5.143-13.143zM877.714 512q0 119.429-58.857 220.286t-159.714 159.714-220.286 58.857-220.286-58.857-159.714-159.714-58.857-220.286 58.857-220.286 159.714-159.714 220.286-58.857 220.286 58.857 159.714 159.714 58.857 220.286z"></path>
</symbol>
<symbol id="icon-times-circle-o" viewBox="0 0 1024 1024">
	<path class="path1" d="M626.857 616.571l-83.429 83.429q-5.714 5.714-13.143 5.714t-13.143-5.714l-78.286-78.286-78.286 78.286q-5.714 5.714-13.143 5.714t-13.143-5.714l-83.429-83.429q-5.714-5.714-5.714-13.143t5.714-13.143l78.286-78.286-78.286-78.286q-5.714-5.714-5.714-13.143t5.714-13.143l83.429-83.429q5.714-5.714 13.143-5.714t13.143 5.714l78.286 78.286 78.286-78.286q5.714-5.714 13.143-5.714t13.143 5.714l83.429 83.429q5.714 5.714 5.714 13.143t-5.714 13.143l-78.286 78.286 78.286 78.286q5.714 5.714 5.714 13.143t-5.714 13.143zM749.714 512q0-84.571-41.714-156t-113.143-113.143-156-41.714-156 41.714-113.143 113.143-41.714 156 41.714 156 113.143 113.143 156 41.714 156-41.714 113.143-113.143 41.714-156zM877.714 512q0 119.429-58.857 220.286t-159.714 159.714-220.286 58.857-220.286-58.857-159.714-159.714-58.857-220.286 58.857-220.286 159.714-159.714 220.286-58.857 220.286 58.857 159.714 159.714 58.857 220.286z"></path>
</symbol>
<symbol id="icon-arrow-up" viewBox="0 0 951 1024">
	<path class="path1" d="M920.571 554.857q0 29.143-21.143 51.429l-42.857 42.857q-21.714 21.714-52 21.714-30.857 0-51.429-21.714l-168-167.429v402.286q0 29.714-21.429 48.286t-51.714 18.571h-73.143q-30.286 0-51.714-18.571t-21.429-48.286v-402.286l-168 167.429q-20.571 21.714-51.429 21.714t-51.429-21.714l-42.857-42.857q-21.714-21.714-21.714-51.429 0-30.286 21.714-52l372-372q20-21.143 51.429-21.143 30.857 0 52 21.143l372 372q21.143 22.286 21.143 52z"></path>
</symbol>
<symbol id="icon-arrow-down" viewBox="0 0 951 1024">
	<path class="path1" d="M920.571 475.429q0 30.286-21.143 51.429l-372 372.571q-22.286 21.143-52 21.143-30.286 0-51.429-21.143l-372-372.571q-21.714-20.571-21.714-51.429 0-30.286 21.714-52l42.286-42.857q22.286-21.143 52-21.143 30.286 0 51.429 21.143l168 168v-402.286q0-29.714 21.714-51.429t51.429-21.714h73.143q29.714 0 51.429 21.714t21.714 51.429v402.286l168-168q21.143-21.143 51.429-21.143 29.714 0 52 21.143l42.857 42.857q21.143 22.286 21.143 52z"></path>
</symbol>
<symbol id="icon-compress" viewBox="0 0 1024 1024">
	<path class="path1" d="M438.857 548.571v256q0 14.857-10.857 25.714t-25.714 10.857-25.714-10.857l-82.286-82.286-189.714 189.714q-5.714 5.714-13.143 5.714t-13.143-5.714l-65.143-65.143q-5.714-5.714-5.714-13.143t5.714-13.143l189.714-189.714-82.286-82.286q-10.857-10.857-10.857-25.714t10.857-25.714 25.714-10.857h256q14.857 0 25.714 10.857t10.857 25.714zM870.286 164.571q0 7.429-5.714 13.143l-189.714 189.714 82.286 82.286q10.857 10.857 10.857 25.714t-10.857 25.714-25.714 10.857h-256q-14.857 0-25.714-10.857t-10.857-25.714v-256q0-14.857 10.857-25.714t25.714-10.857 25.714 10.857l82.286 82.286 189.714-189.714q5.714-5.714 13.143-5.714t13.143 5.714l65.143 65.143q5.714 5.714 5.714 13.143z"></path>
</symbol>
<symbol id="icon-plus" viewBox="0 0 805 1024">
	<path class="path1" d="M804.571 420.571v109.714q0 22.857-16 38.857t-38.857 16h-237.714v237.714q0 22.857-16 38.857t-38.857 16h-109.714q-22.857 0-38.857-16t-16-38.857v-237.714h-237.714q-22.857 0-38.857-16t-16-38.857v-109.714q0-22.857 16-38.857t38.857-16h237.714v-237.714q0-22.857 16-38.857t38.857-16h109.714q22.857 0 38.857 16t16 38.857v237.714h237.714q22.857 0 38.857 16t16 38.857z"></path>
</symbol>
<symbol id="icon-minus" viewBox="0 0 805 1024">
	<path class="path1" d="M804.571 420.571v109.714q0 22.857-16 38.857t-38.857 16h-694.857q-22.857 0-38.857-16t-16-38.857v-109.714q0-22.857 16-38.857t38.857-16h694.857q22.857 0 38.857 16t16 38.857z"></path>
</symbol>
<symbol id="icon-exclamation-circle" viewBox="0 0 1024 1024">
	<path class="path1" d="M438.857 73.143q119.429 0 220.286 58.857t159.714 159.714 58.857 220.286-58.857 220.286-159.714 159.714-220.286 58.857-220.286-58.857-159.714-159.714-58.857-220.286 58.857-220.286 159.714-159.714 220.286-58.857zM512 785.714v-108.571q0-8-5.143-13.429t-12.571-5.429h-109.714q-7.429 0-13.143 5.714t-5.714 13.143v108.571q0 7.429 5.714 13.143t13.143 5.714h109.714q7.429 0 12.571-5.429t5.143-13.429zM510.857 589.143l10.286-354.857q0-6.857-5.714-10.286-5.714-4.571-13.714-4.571h-125.714q-8 0-13.714 4.571-5.714 3.429-5.714 10.286l9.714 354.857q0 5.714 5.714 10t13.714 4.286h105.714q8 0 13.429-4.286t6-10z"></path>
</symbol>
<symbol id="icon-eye" viewBox="0 0 1024 1024">
	<path class="path1" d="M950.857 548.571q-86.857-134.857-217.714-201.714 34.857 59.429 34.857 128.571 0 105.714-75.143 180.857t-180.857 75.143-180.857-75.143-75.143-180.857q0-69.143 34.857-128.571-130.857 66.857-217.714 201.714 76 117.143 190.571 186.571t248.286 69.429 248.286-69.429 190.571-186.571zM539.429 329.143q0-11.429-8-19.429t-19.429-8q-71.429 0-122.571 51.143t-51.143 122.571q0 11.429 8 19.429t19.429 8 19.429-8 8-19.429q0-49.143 34.857-84t84-34.857q11.429 0 19.429-8t8-19.429zM1024 548.571q0 19.429-11.429 39.429-80 131.429-215.143 210.571t-285.429 79.143-285.429-79.429-215.143-210.286q-11.429-20-11.429-39.429t11.429-39.429q80-130.857 215.143-210.286t285.429-79.429 285.429 79.429 215.143 210.286q11.429 20 11.429 39.429z"></path>
</symbol>
<symbol id="icon-eye-slash" viewBox="0 0 1024 1024">
	<path class="path1" d="M317.143 762.857l44.571-80.571q-49.714-36-77.714-90.857t-28-116q0-69.143 34.857-128.571-130.857 66.857-217.714 201.714 95.429 147.429 244 214.286zM539.429 329.143q0-11.429-8-19.429t-19.429-8q-71.429 0-122.571 51.143t-51.143 122.571q0 11.429 8 19.429t19.429 8 19.429-8 8-19.429q0-49.143 34.857-84t84-34.857q11.429 0 19.429-8t8-19.429zM746.857 220q0 4-0.571 5.143-60 107.429-180 323.429t-180.571 324l-28 50.857q-5.714 9.143-16 9.143-6.857 0-76.571-40-9.143-5.714-9.143-16 0-6.857 25.143-49.714-81.714-37.143-150.571-98.857t-119.143-140q-11.429-17.714-11.429-39.429t11.429-39.429q87.429-134.286 217.143-212t283.429-77.714q50.857 0 102.857 9.714l30.857-55.429q5.714-9.143 16-9.143 2.857 0 10.286 3.429t17.714 8.857 18.857 10.571 18 10.571 11.143 6.571q9.143 5.714 9.143 15.429zM768 475.429q0 79.429-45.143 144.857t-119.429 94l160-286.857q4.571 25.714 4.571 48zM1024 548.571q0 20-11.429 39.429-22.286 36.571-62.286 82.857-85.714 98.286-198.571 152.571t-239.714 54.286l42.286-75.429q121.143-10.286 224.286-78.286t172.286-175.429q-65.714-102.286-161.143-168l36-64q54.286 36.571 104.286 87.429t82.571 105.143q11.429 19.429 11.429 39.429z"></path>
</symbol>
<symbol id="icon-exclamation-triangle" viewBox="0 0 1024 1024">
	<path class="path1" d="M585.143 785.714v-108.571q0-8-5.429-13.429t-12.857-5.429h-109.714q-7.429 0-12.857 5.429t-5.429 13.429v108.571q0 8 5.429 13.429t12.857 5.429h109.714q7.429 0 12.857-5.429t5.429-13.429zM584 572l10.286-262.286q0-6.857-5.714-10.857-7.429-6.286-13.714-6.286h-125.714q-6.286 0-13.714 6.286-5.714 4-5.714 12l9.714 261.143q0 5.714 5.714 9.429t13.714 3.714h105.714q8 0 13.429-3.714t6-9.429zM576 38.286l438.857 804.571q20 36-1.143 72-9.714 16.571-26.571 26.286t-36.286 9.714h-877.714q-19.429 0-36.286-9.714t-26.571-26.286q-21.143-36-1.143-72l438.857-804.571q9.714-17.714 26.857-28t37.143-10.286 37.143 10.286 26.857 28z"></path>
</symbol>
<symbol id="icon-calendar" viewBox="0 0 951 1024">
	<path class="path1" d="M73.143 950.857h164.571v-164.571h-164.571v164.571zM274.286 950.857h182.857v-164.571h-182.857v164.571zM73.143 749.714h164.571v-182.857h-164.571v182.857zM274.286 749.714h182.857v-182.857h-182.857v182.857zM73.143 530.286h164.571v-164.571h-164.571v164.571zM493.714 950.857h182.857v-164.571h-182.857v164.571zM274.286 530.286h182.857v-164.571h-182.857v164.571zM713.143 950.857h164.571v-164.571h-164.571v164.571zM493.714 749.714h182.857v-182.857h-182.857v182.857zM292.571 256v-164.571q0-7.429-5.429-12.857t-12.857-5.429h-36.571q-7.429 0-12.857 5.429t-5.429 12.857v164.571q0 7.429 5.429 12.857t12.857 5.429h36.571q7.429 0 12.857-5.429t5.429-12.857zM713.143 749.714h164.571v-182.857h-164.571v182.857zM493.714 530.286h182.857v-164.571h-182.857v164.571zM713.143 530.286h164.571v-164.571h-164.571v164.571zM731.429 256v-164.571q0-7.429-5.429-12.857t-12.857-5.429h-36.571q-7.429 0-12.857 5.429t-5.429 12.857v164.571q0 7.429 5.429 12.857t12.857 5.429h36.571q7.429 0 12.857-5.429t5.429-12.857zM950.857 219.429v731.429q0 29.714-21.714 51.429t-51.429 21.714h-804.571q-29.714 0-51.429-21.714t-21.714-51.429v-731.429q0-29.714 21.714-51.429t51.429-21.714h73.143v-54.857q0-37.714 26.857-64.571t64.571-26.857h36.571q37.714 0 64.571 26.857t26.857 64.571v54.857h219.429v-54.857q0-37.714 26.857-64.571t64.571-26.857h36.571q37.714 0 64.571 26.857t26.857 64.571v54.857h73.143q29.714 0 51.429 21.714t21.714 51.429z"></path>
</symbol>
<symbol id="icon-comment" viewBox="0 0 1024 1024">
	<path class="path1" d="M1024 512q0 99.429-68.571 183.714t-186.286 133.143-257.143 48.857q-40 0-82.857-4.571-113.143 100-262.857 138.286-28 8-65.143 12.571-9.714 1.143-17.429-5.143t-10-16.571v-0.571q-1.714-2.286-0.286-6.857t1.143-5.714 2.571-5.429l3.429-5.143t4-4.857 4.571-5.143q4-4.571 17.714-19.714t19.714-21.714 17.714-22.571 18.571-29.143 15.429-33.714 14.857-43.429q-89.714-50.857-141.429-125.714t-51.714-160.571q0-74.286 40.571-142t109.143-116.857 163.429-78 198.857-28.857q139.429 0 257.143 48.857t186.286 133.143 68.571 183.714z"></path>
</symbol>
<symbol id="icon-shopping-cart" viewBox="0 0 951 1024">
	<path class="path1" d="M365.714 877.714q0 29.714-21.714 51.429t-51.429 21.714-51.429-21.714-21.714-51.429 21.714-51.429 51.429-21.714 51.429 21.714 21.714 51.429zM877.714 877.714q0 29.714-21.714 51.429t-51.429 21.714-51.429-21.714-21.714-51.429 21.714-51.429 51.429-21.714 51.429 21.714 21.714 51.429zM950.857 256v292.571q0 13.714-9.429 24.286t-23.143 12.286l-596.571 69.714q7.429 34.286 7.429 40 0 9.143-13.714 36.571h525.714q14.857 0 25.714 10.857t10.857 25.714-10.857 25.714-25.714 10.857h-585.143q-14.857 0-25.714-10.857t-10.857-25.714q0-6.286 4.571-18t9.143-20.571 12.286-22.857 8.857-16.857l-101.143-470.286h-116.571q-14.857 0-25.714-10.857t-10.857-25.714 10.857-25.714 25.714-10.857h146.286q9.143 0 16.286 3.714t11.143 8.857 7.429 14 4.571 14.857 3.143 16.857 2.571 14.857h686.286q14.857 0 25.714 10.857t10.857 25.714z"></path>
</symbol>
<symbol id="icon-twitter-square" viewBox="0 0 1024 1024">
	<path class="path1" d="M731.429 348.571q-32 14.286-69.143 19.429 38.857-22.857 53.143-66.857-37.143 21.714-76.571 29.143-34.857-37.714-87.429-37.714-49.714 0-84.857 35.143t-35.143 84.857q0 16.571 2.857 27.429-73.714-4-138.286-37.143t-109.714-88.571q-16.571 28.571-16.571 60.571 0 65.143 52 100-26.857-0.571-57.143-14.857v1.143q0 42.857 28.571 76.286t70.286 41.429q-16.571 4.571-29.143 4.571-7.429 0-22.286-2.286 12 36 42.571 59.429t69.429 24q-66.286 51.429-149.143 51.429-14.857 0-28.571-1.714 84.571 53.714 184 53.714 64 0 120-20.286t96-54.286 68.857-78.286 42.857-92.571 14-96.286q0-10.286-0.571-15.429 36-25.714 60-62.286zM877.714 237.714v548.571q0 68-48.286 116.286t-116.286 48.286h-548.571q-68 0-116.286-48.286t-48.286-116.286v-548.571q0-68 48.286-116.286t116.286-48.286h548.571q68 0 116.286 48.286t48.286 116.286z"></path>
</symbol>
<symbol id="icon-facebook-square" viewBox="0 0 1024 1024">
	<path class="path1" d="M713.143 73.143q68 0 116.286 48.286t48.286 116.286v548.571q0 68-48.286 116.286t-116.286 48.286h-107.429v-340h113.714l17.143-132.571h-130.857v-84.571q0-32 13.429-48t52.286-16l69.714-0.571v-118.286q-36-5.143-101.714-5.143-77.714 0-124.286 45.714t-46.571 129.143v97.714h-114.286v132.571h114.286v340h-304q-68 0-116.286-48.286t-48.286-116.286v-548.571q0-68 48.286-116.286t116.286-48.286h548.571z"></path>
</symbol>
<symbol id="icon-comments" viewBox="0 0 1024 1024">
	<path class="path1" d="M804.571 438.857q0 79.429-53.714 146.857t-146.571 106.571-202 39.143q-49.143 0-100.571-9.143-70.857 50.286-158.857 73.143-20.571 5.143-49.143 9.143h-1.714q-6.286 0-11.714-4.571t-6.571-12q-0.571-1.714-0.571-3.714t0.286-3.714 1.143-3.429l1.429-2.857t2-3.143 2.286-2.857 2.571-2.857 2.286-2.571q2.857-3.429 13.143-14.286t14.857-16.857 12.857-16.571 14.286-22 11.714-25.143q-70.857-41.143-111.429-101.143t-40.571-128q0-79.429 53.714-146.857t146.571-106.571 202-39.143 202 39.143 146.571 106.571 53.714 146.857zM1024 585.143q0 68.571-40.571 128.286t-111.429 100.857q5.714 13.714 11.714 25.143t14.286 22 12.857 16.571 14.857 16.857 13.143 14.286q0.571 0.571 2.286 2.571t2.571 2.857 2.286 2.857 2 3.143l1.429 2.857t1.143 3.429 0.286 3.714-0.571 3.714q-1.714 8-7.429 12.571t-12.571 4q-28.571-4-49.143-9.143-88-22.857-158.857-73.143-51.429 9.143-100.571 9.143-154.857 0-269.714-75.429 33.143 2.286 50.286 2.286 92 0 176.571-25.714t150.857-73.714q71.429-52.571 109.714-121.143t38.286-145.143q0-44-13.143-86.857 73.714 40.571 116.571 101.714t42.857 131.429z"></path>
</symbol>
<symbol id="icon-thumb-tack" viewBox="0 0 658 1024">
	<path class="path1" d="M274.286 493.714v-256q0-8-5.143-13.143t-13.143-5.143-13.143 5.143-5.143 13.143v256q0 8 5.143 13.143t13.143 5.143 13.143-5.143 5.143-13.143zM658.286 694.857q0 14.857-10.857 25.714t-25.714 10.857h-245.143l-29.143 276q-1.143 6.857-6 11.714t-11.714 4.857h-0.571q-15.429 0-18.286-15.429l-43.429-277.143h-230.857q-14.857 0-25.714-10.857t-10.857-25.714q0-70.286 44.857-126.571t101.429-56.286v-292.571q-29.714 0-51.429-21.714t-21.714-51.429 21.714-51.429 51.429-21.714h365.714q29.714 0 51.429 21.714t21.714 51.429-21.714 51.429-51.429 21.714v292.571q56.571 0 101.429 56.286t44.857 126.571z"></path>
</symbol>
<symbol id="icon-external-link" viewBox="0 0 1024 1024">
	<path class="path1" d="M804.571 530.286v182.857q0 68-48.286 116.286t-116.286 48.286h-475.429q-68 0-116.286-48.286t-48.286-116.286v-475.429q0-68 48.286-116.286t116.286-48.286h402.286q8 0 13.143 5.143t5.143 13.143v36.571q0 8-5.143 13.143t-13.143 5.143h-402.286q-37.714 0-64.571 26.857t-26.857 64.571v475.429q0 37.714 26.857 64.571t64.571 26.857h475.429q37.714 0 64.571-26.857t26.857-64.571v-182.857q0-8 5.143-13.143t13.143-5.143h36.571q8 0 13.143 5.143t5.143 13.143zM1024 36.571v292.571q0 14.857-10.857 25.714t-25.714 10.857-25.714-10.857l-100.571-100.571-372.571 372.571q-5.714 5.714-13.143 5.714t-13.143-5.714l-65.143-65.143q-5.714-5.714-5.714-13.143t5.714-13.143l372.571-372.571-100.571-100.571q-10.857-10.857-10.857-25.714t10.857-25.714 25.714-10.857h292.571q14.857 0 25.714 10.857t10.857 25.714z"></path>
</symbol>
<symbol id="icon-upload" viewBox="0 0 951 1024">
	<path class="path1" d="M731.429 841.143q0-14.857-10.857-25.714t-25.714-10.857-25.714 10.857-10.857 25.714 10.857 25.714 25.714 10.857 25.714-10.857 10.857-25.714zM877.714 841.143q0-14.857-10.857-25.714t-25.714-10.857-25.714 10.857-10.857 25.714 10.857 25.714 25.714 10.857 25.714-10.857 10.857-25.714zM950.857 713.143v182.857q0 22.857-16 38.857t-38.857 16h-841.143q-22.857 0-38.857-16t-16-38.857v-182.857q0-22.857 16-38.857t38.857-16h244q12 32 40.286 52.571t63.143 20.571h146.286q34.857 0 63.143-20.571t40.286-52.571h244q22.857 0 38.857 16t16 38.857zM765.143 342.857q-9.714 22.857-33.714 22.857h-146.286v256q0 14.857-10.857 25.714t-25.714 10.857h-146.286q-14.857 0-25.714-10.857t-10.857-25.714v-256h-146.286q-24 0-33.714-22.857-9.714-22.286 8-39.429l256-256q10.286-10.857 25.714-10.857t25.714 10.857l256 256q17.714 17.143 8 39.429z"></path>
</symbol>
<symbol id="icon-square-o2" viewBox="0 0 805 1024">
	<path class="path1" d="M640 146.286h-475.429q-37.714 0-64.571 26.857t-26.857 64.571v475.429q0 37.714 26.857 64.571t64.571 26.857h475.429q37.714 0 64.571-26.857t26.857-64.571v-475.429q0-37.714-26.857-64.571t-64.571-26.857zM804.571 237.714v475.429q0 68-48.286 116.286t-116.286 48.286h-475.429q-68 0-116.286-48.286t-48.286-116.286v-475.429q0-68 48.286-116.286t116.286-48.286h475.429q68 0 116.286 48.286t48.286 116.286z"></path>
</symbol>
<symbol id="icon-bullhorn" viewBox="0 0 1024 1024">
	<path class="path1" d="M950.857 365.714q30.286 0 51.714 21.429t21.429 51.714-21.429 51.714-51.714 21.429v219.429q0 29.714-21.714 51.429t-51.429 21.714q-238.286-198.286-464-217.143-33.143 10.857-52 37.714t-17.714 57.429 22.857 52.857q-11.429 18.857-13.143 37.429t3.429 33.143 19.143 31.429 27.429 28.571 35.143 28.857q-16.571 33.143-63.714 47.429t-96.286 6.571-75.429-31.714q-4-13.143-16.857-50t-18.286-54-13.143-50.857-8.571-57.714 2-56.286 12.571-63.143h-69.714q-37.714 0-64.571-26.857t-26.857-64.571v-109.714q0-37.714 26.857-64.571t64.571-26.857h274.286q248.571 0 512-219.429 29.714 0 51.429 21.714t21.714 51.429v219.429zM877.714 710.857v-545.143q-225.143 172.571-438.857 196v154.286q215.429 24 438.857 194.857z"></path>
</symbol>
<symbol id="icon-arrow-circle-down" viewBox="0 0 1024 1024">
	<path class="path1" d="M733.714 512.571q0-15.429-10.286-25.714l-52-52q-10.286-10.286-25.714-10.286t-25.714 10.286l-108 108v-286.857q0-14.857-10.857-25.714t-25.714-10.857h-73.143q-14.857 0-25.714 10.857t-10.857 25.714v286.857l-108-108q-10.857-10.857-25.714-10.857t-25.714 10.857l-52 52q-10.286 10.286-10.286 25.714t10.286 25.714l258.857 258.857q10.286 10.286 25.714 10.286t25.714-10.286l258.857-258.857q10.286-10.286 10.286-25.714zM877.714 512q0 119.429-58.857 220.286t-159.714 159.714-220.286 58.857-220.286-58.857-159.714-159.714-58.857-220.286 58.857-220.286 159.714-159.714 220.286-58.857 220.286 58.857 159.714 159.714 58.857 220.286z"></path>
</symbol>
<symbol id="icon-filter" viewBox="0 0 805 1024">
	<path class="path1" d="M801.714 168.571q9.714 23.429-8 40l-281.714 281.714v424q0 24-22.286 33.714-7.429 2.857-14.286 2.857-15.429 0-25.714-10.857l-146.286-146.286q-10.857-10.857-10.857-25.714v-277.714l-281.714-281.714q-17.714-16.571-8-40 9.714-22.286 33.714-22.286h731.429q24 0 33.714 22.286z"></path>
</symbol>
<symbol id="icon-arrows-alt" viewBox="0 0 1024 1024">
	<path class="path1" d="M733.143 309.143l-202.857 202.857 202.857 202.857 82.286-82.286q16.571-17.714 40-8 22.286 9.714 22.286 33.714v256q0 14.857-10.857 25.714t-25.714 10.857h-256q-24 0-33.714-22.857-9.714-22.286 8-39.429l82.286-82.286-202.857-202.857-202.857 202.857 82.286 82.286q17.714 17.143 8 39.429-9.714 22.857-33.714 22.857h-256q-14.857 0-25.714-10.857t-10.857-25.714v-256q0-24 22.857-33.714 22.286-9.714 39.429 8l82.286 82.286 202.857-202.857-202.857-202.857-82.286 82.286q-10.857 10.857-25.714 10.857-6.857 0-13.714-2.857-22.857-9.714-22.857-33.714v-256q0-14.857 10.857-25.714t25.714-10.857h256q24 0 33.714 22.857 9.714 22.286-8 39.429l-82.286 82.286 202.857 202.857 202.857-202.857-82.286-82.286q-17.714-17.143-8-39.429 9.714-22.857 33.714-22.857h256q14.857 0 25.714 10.857t10.857 25.714v256q0 24-22.286 33.714-7.429 2.857-14.286 2.857-14.857 0-25.714-10.857z"></path>
</symbol>
<symbol id="icon-chain" viewBox="0 0 951 1024">
	<path class="path1" d="M832 694.857q0-22.857-16-38.857l-118.857-118.857q-16-16-38.857-16-24 0-41.143 18.286 1.714 1.714 10.857 10.571t12.286 12.286 8.571 10.857 7.429 14.571 2 15.714q0 22.857-16 38.857t-38.857 16q-8.571 0-15.714-2t-14.571-7.429-10.857-8.571-12.286-12.286-10.571-10.857q-18.857 17.714-18.857 41.714 0 22.857 16 38.857l117.714 118.286q15.429 15.429 38.857 15.429 22.857 0 38.857-14.857l84-83.429q16-16 16-38.286zM430.286 292q0-22.857-16-38.857l-117.714-118.286q-16-16-38.857-16-22.286 0-38.857 15.429l-84 83.429q-16 16-16 38.286 0 22.857 16 38.857l118.857 118.857q15.429 15.429 38.857 15.429 24 0 41.143-17.714-1.714-1.714-10.857-10.571t-12.286-12.286-8.571-10.857-7.429-14.571-2-15.714q0-22.857 16-38.857t38.857-16q8.571 0 15.714 2t14.571 7.429 10.857 8.571 12.286 12.286 10.571 10.857q18.857-17.714 18.857-41.714zM941.714 694.857q0 68.571-48.571 116l-84 83.429q-47.429 47.429-116 47.429-69.143 0-116.571-48.571l-117.714-118.286q-47.429-47.429-47.429-116 0-70.286 50.286-119.429l-50.286-50.286q-49.143 50.286-118.857 50.286-68.571 0-116.571-48l-118.857-118.857q-48-48-48-116.571t48.571-116l84-83.429q47.429-47.429 116-47.429 69.143 0 116.571 48.571l117.714 118.286q47.429 47.429 47.429 116 0 70.286-50.286 119.429l50.286 50.286q49.143-50.286 118.857-50.286 68.571 0 116.571 48l118.857 118.857q48 48 48 116.571z"></path>
</symbol>
<symbol id="icon-copy" viewBox="0 0 1024 1024">
	<path class="path1" d="M969.143 219.429q22.857 0 38.857 16t16 38.857v694.857q0 22.857-16 38.857t-38.857 16h-548.571q-22.857 0-38.857-16t-16-38.857v-164.571h-310.857q-22.857 0-38.857-16t-16-38.857v-384q0-22.857 11.429-50.286t27.429-43.429l233.143-233.143q16-16 43.429-27.429t50.286-11.429h237.714q22.857 0 38.857 16t16 38.857v187.429q38.857-22.857 73.143-22.857h237.714zM658.286 341.143l-170.857 170.857h170.857v-170.857zM292.571 121.714l-170.857 170.857h170.857v-170.857zM404.571 491.429l180.571-180.571v-237.714h-219.429v237.714q0 22.857-16 38.857t-38.857 16h-237.714v365.714h292.571v-146.286q0-22.857 11.429-50.286t27.429-43.429zM950.857 950.857v-658.286h-219.429v237.714q0 22.857-16 38.857t-38.857 16h-237.714v365.714h512z"></path>
</symbol>
<symbol id="icon-bars" viewBox="0 0 1024 1024">
	<path class="path1" d="M877.714 768v73.143q0 14.857-10.857 25.714t-25.714 10.857h-804.571q-14.857 0-25.714-10.857t-10.857-25.714v-73.143q0-14.857 10.857-25.714t25.714-10.857h804.571q14.857 0 25.714 10.857t10.857 25.714zM877.714 475.429v73.143q0 14.857-10.857 25.714t-25.714 10.857h-804.571q-14.857 0-25.714-10.857t-10.857-25.714v-73.143q0-14.857 10.857-25.714t25.714-10.857h804.571q14.857 0 25.714 10.857t10.857 25.714zM877.714 182.857v73.143q0 14.857-10.857 25.714t-25.714 10.857h-804.571q-14.857 0-25.714-10.857t-10.857-25.714v-73.143q0-14.857 10.857-25.714t25.714-10.857h804.571q14.857 0 25.714 10.857t10.857 25.714z"></path>
</symbol>
<symbol id="icon-list-ul" viewBox="0 0 1024 1024">
	<path class="path1" d="M219.429 804.571q0 45.714-32 77.714t-77.714 32-77.714-32-32-77.714 32-77.714 77.714-32 77.714 32 32 77.714zM219.429 512q0 45.714-32 77.714t-77.714 32-77.714-32-32-77.714 32-77.714 77.714-32 77.714 32 32 77.714zM1024 749.714v109.714q0 7.429-5.429 12.857t-12.857 5.429h-694.857q-7.429 0-12.857-5.429t-5.429-12.857v-109.714q0-7.429 5.429-12.857t12.857-5.429h694.857q7.429 0 12.857 5.429t5.429 12.857zM219.429 219.429q0 45.714-32 77.714t-77.714 32-77.714-32-32-77.714 32-77.714 77.714-32 77.714 32 32 77.714zM1024 457.143v109.714q0 7.429-5.429 12.857t-12.857 5.429h-694.857q-7.429 0-12.857-5.429t-5.429-12.857v-109.714q0-7.429 5.429-12.857t12.857-5.429h694.857q7.429 0 12.857 5.429t5.429 12.857zM1024 164.571v109.714q0 7.429-5.429 12.857t-12.857 5.429h-694.857q-7.429 0-12.857-5.429t-5.429-12.857v-109.714q0-7.429 5.429-12.857t12.857-5.429h694.857q7.429 0 12.857 5.429t5.429 12.857z"></path>
</symbol>
<symbol id="icon-table" viewBox="0 0 951 1024">
	<path class="path1" d="M292.571 786.286v-109.714q0-8-5.143-13.143t-13.143-5.143h-182.857q-8 0-13.143 5.143t-5.143 13.143v109.714q0 8 5.143 13.143t13.143 5.143h182.857q8 0 13.143-5.143t5.143-13.143zM292.571 566.857v-109.714q0-8-5.143-13.143t-13.143-5.143h-182.857q-8 0-13.143 5.143t-5.143 13.143v109.714q0 8 5.143 13.143t13.143 5.143h182.857q8 0 13.143-5.143t5.143-13.143zM585.143 786.286v-109.714q0-8-5.143-13.143t-13.143-5.143h-182.857q-8 0-13.143 5.143t-5.143 13.143v109.714q0 8 5.143 13.143t13.143 5.143h182.857q8 0 13.143-5.143t5.143-13.143zM292.571 347.429v-109.714q0-8-5.143-13.143t-13.143-5.143h-182.857q-8 0-13.143 5.143t-5.143 13.143v109.714q0 8 5.143 13.143t13.143 5.143h182.857q8 0 13.143-5.143t5.143-13.143zM585.143 566.857v-109.714q0-8-5.143-13.143t-13.143-5.143h-182.857q-8 0-13.143 5.143t-5.143 13.143v109.714q0 8 5.143 13.143t13.143 5.143h182.857q8 0 13.143-5.143t5.143-13.143zM877.714 786.286v-109.714q0-8-5.143-13.143t-13.143-5.143h-182.857q-8 0-13.143 5.143t-5.143 13.143v109.714q0 8 5.143 13.143t13.143 5.143h182.857q8 0 13.143-5.143t5.143-13.143zM585.143 347.429v-109.714q0-8-5.143-13.143t-13.143-5.143h-182.857q-8 0-13.143 5.143t-5.143 13.143v109.714q0 8 5.143 13.143t13.143 5.143h182.857q8 0 13.143-5.143t5.143-13.143zM877.714 566.857v-109.714q0-8-5.143-13.143t-13.143-5.143h-182.857q-8 0-13.143 5.143t-5.143 13.143v109.714q0 8 5.143 13.143t13.143 5.143h182.857q8 0 13.143-5.143t5.143-13.143zM877.714 347.429v-109.714q0-8-5.143-13.143t-13.143-5.143h-182.857q-8 0-13.143 5.143t-5.143 13.143v109.714q0 8 5.143 13.143t13.143 5.143h182.857q8 0 13.143-5.143t5.143-13.143zM950.857 164.571v621.714q0 37.714-26.857 64.571t-64.571 26.857h-768q-37.714 0-64.571-26.857t-26.857-64.571v-621.714q0-37.714 26.857-64.571t64.571-26.857h768q37.714 0 64.571 26.857t26.857 64.571z"></path>
</symbol>
<symbol id="icon-money" viewBox="0 0 1097 1024">
	<path class="path1" d="M438.857 658.286h219.429v-54.857h-73.143v-256h-65.143l-84.571 78.286 44 45.714q24-21.143 31.429-32.571h1.143v164.571h-73.143v54.857zM731.429 512q0 40-12 81.143t-34 76.571-58 57.714-78.857 22.286-78.857-22.286-58-57.714-34-76.571-12-81.143 12-81.143 34-76.571 58-57.714 78.857-22.286 78.857 22.286 58 57.714 34 76.571 12 81.143zM1024 658.286v-292.571q-60.571 0-103.429-42.857t-42.857-103.429h-658.286q0 60.571-42.857 103.429t-103.429 42.857v292.571q60.571 0 103.429 42.857t42.857 103.429h658.286q0-60.571 42.857-103.429t103.429-42.857zM1097.143 182.857v658.286q0 14.857-10.857 25.714t-25.714 10.857h-1024q-14.857 0-25.714-10.857t-10.857-25.714v-658.286q0-14.857 10.857-25.714t25.714-10.857h1024q14.857 0 25.714 10.857t10.857 25.714z"></path>
</symbol>
<symbol id="icon-sort" viewBox="0 0 585 1024">
	<path class="path1" d="M585.143 621.714q0 14.857-10.857 25.714l-256 256q-10.857 10.857-25.714 10.857t-25.714-10.857l-256-256q-10.857-10.857-10.857-25.714t10.857-25.714 25.714-10.857h512q14.857 0 25.714 10.857t10.857 25.714zM585.143 402.286q0 14.857-10.857 25.714t-25.714 10.857h-512q-14.857 0-25.714-10.857t-10.857-25.714 10.857-25.714l256-256q10.857-10.857 25.714-10.857t25.714 10.857l256 256q10.857 10.857 10.857 25.714z"></path>
</symbol>
<symbol id="icon-envelope" viewBox="0 0 1024 1024">
	<path class="path1" d="M1024 405.714v453.714q0 37.714-26.857 64.571t-64.571 26.857h-841.143q-37.714 0-64.571-26.857t-26.857-64.571v-453.714q25.143 28 57.714 49.714 206.857 140.571 284 197.143 32.571 24 52.857 37.429t54 27.429 62.857 14h1.143q29.143 0 62.857-14t54-27.429 52.857-37.429q97.143-70.286 284.571-197.143 32.571-22.286 57.143-49.714zM1024 237.714q0 45.143-28 86.286t-69.714 70.286q-214.857 149.143-267.429 185.714-5.714 4-24.286 17.429t-30.857 21.714-29.714 18.571-32.857 15.429-28.571 5.143h-1.143q-13.143 0-28.571-5.143t-32.857-15.429-29.714-18.571-30.857-21.714-24.286-17.429q-52-36.571-149.714-104.286t-117.143-81.429q-35.429-24-66.857-66t-31.429-78q0-44.571 23.714-74.286t67.714-29.714h841.143q37.143 0 64.286 26.857t27.143 64.571z"></path>
</symbol>
<symbol id="icon-rotate-left" viewBox="0 0 1024 1024">
	<path class="path1" d="M877.714 512q0 89.143-34.857 170.286t-93.714 140-140 93.714-170.286 34.857q-98.286 0-186.857-41.429t-150.857-116.857q-4-5.714-3.714-12.857t4.857-11.714l78.286-78.857q5.714-5.143 14.286-5.143 9.143 1.143 13.143 6.857 41.714 54.286 102.286 84t128.571 29.714q59.429 0 113.429-23.143t93.429-62.571 62.571-93.429 23.143-113.429-23.143-113.429-62.571-93.429-93.429-62.571-113.429-23.143q-56 0-107.429 20.286t-91.429 58l78.286 78.857q17.714 17.143 8 39.429-9.714 22.857-33.714 22.857h-256q-14.857 0-25.714-10.857t-10.857-25.714v-256q0-24 22.857-33.714 22.286-9.714 39.429 8l74.286 73.714q61.143-57.714 139.714-89.429t162.571-31.714q89.143 0 170.286 34.857t140 93.714 93.714 140 34.857 170.286z"></path>
</symbol>
<symbol id="icon-sitemap" viewBox="0 0 1024 1024">
	<path class="path1" d="M1024 713.143v182.857q0 22.857-16 38.857t-38.857 16h-182.857q-22.857 0-38.857-16t-16-38.857v-182.857q0-22.857 16-38.857t38.857-16h54.857v-109.714h-292.571v109.714h54.857q22.857 0 38.857 16t16 38.857v182.857q0 22.857-16 38.857t-38.857 16h-182.857q-22.857 0-38.857-16t-16-38.857v-182.857q0-22.857 16-38.857t38.857-16h54.857v-109.714h-292.571v109.714h54.857q22.857 0 38.857 16t16 38.857v182.857q0 22.857-16 38.857t-38.857 16h-182.857q-22.857 0-38.857-16t-16-38.857v-182.857q0-22.857 16-38.857t38.857-16h54.857v-109.714q0-29.714 21.714-51.429t51.429-21.714h292.571v-109.714h-54.857q-22.857 0-38.857-16t-16-38.857v-182.857q0-22.857 16-38.857t38.857-16h182.857q22.857 0 38.857 16t16 38.857v182.857q0 22.857-16 38.857t-38.857 16h-54.857v109.714h292.571q29.714 0 51.429 21.714t21.714 51.429v109.714h54.857q22.857 0 38.857 16t16 38.857z"></path>
</symbol>
<symbol id="icon-angle-left" viewBox="0 0 366 1024">
	<path class="path1" d="M358.286 310.857q0 7.429-5.714 13.143l-224.571 224.571 224.571 224.571q5.714 5.714 5.714 13.143t-5.714 13.143l-28.571 28.571q-5.714 5.714-13.143 5.714t-13.143-5.714l-266.286-266.286q-5.714-5.714-5.714-13.143t5.714-13.143l266.286-266.286q5.714-5.714 13.143-5.714t13.143 5.714l28.571 28.571q5.714 5.714 5.714 13.143z"></path>
</symbol>
<symbol id="icon-angle-right" viewBox="0 0 366 1024">
	<path class="path1" d="M340 548.571q0 7.429-5.714 13.143l-266.286 266.286q-5.714 5.714-13.143 5.714t-13.143-5.714l-28.571-28.571q-5.714-5.714-5.714-13.143t5.714-13.143l224.571-224.571-224.571-224.571q-5.714-5.714-5.714-13.143t5.714-13.143l28.571-28.571q5.714-5.714 13.143-5.714t13.143 5.714l266.286 266.286q5.714 5.714 5.714 13.143z"></path>
</symbol>
<symbol id="icon-angle-up" viewBox="0 0 658 1024">
	<path class="path1" d="M614.286 676.571q0 7.429-5.714 13.143l-28.571 28.571q-5.714 5.714-13.143 5.714t-13.143-5.714l-224.571-224.571-224.571 224.571q-5.714 5.714-13.143 5.714t-13.143-5.714l-28.571-28.571q-5.714-5.714-5.714-13.143t5.714-13.143l266.286-266.286q5.714-5.714 13.143-5.714t13.143 5.714l266.286 266.286q5.714 5.714 5.714 13.143z"></path>
</symbol>
<symbol id="icon-angle-down" viewBox="0 0 658 1024">
	<path class="path1" d="M614.286 420.571q0 7.429-5.714 13.143l-266.286 266.286q-5.714 5.714-13.143 5.714t-13.143-5.714l-266.286-266.286q-5.714-5.714-5.714-13.143t5.714-13.143l28.571-28.571q5.714-5.714 13.143-5.714t13.143 5.714l224.571 224.571 224.571-224.571q5.714-5.714 13.143-5.714t13.143 5.714l28.571 28.571q5.714 5.714 5.714 13.143z"></path>
</symbol>
<symbol id="icon-circle-o" viewBox="0 0 1024 1024">
	<path class="path1" d="M438.857 201.143q-84.571 0-156 41.714t-113.143 113.143-41.714 156 41.714 156 113.143 113.143 156 41.714 156-41.714 113.143-113.143 41.714-156-41.714-156-113.143-113.143-156-41.714zM877.714 512q0 119.429-58.857 220.286t-159.714 159.714-220.286 58.857-220.286-58.857-159.714-159.714-58.857-220.286 58.857-220.286 159.714-159.714 220.286-58.857 220.286 58.857 159.714 159.714 58.857 220.286z"></path>
</symbol>
<symbol id="icon-quote-left" viewBox="0 0 951 1024">
	<path class="path1" d="M438.857 548.571v219.429q0 45.714-32 77.714t-77.714 32h-219.429q-45.714 0-77.714-32t-32-77.714v-402.286q0-59.429 23.143-113.429t62.571-93.429 93.429-62.571 113.429-23.143h36.571q14.857 0 25.714 10.857t10.857 25.714v73.143q0 14.857-10.857 25.714t-25.714 10.857h-36.571q-60.571 0-103.429 42.857t-42.857 103.429v18.286q0 22.857 16 38.857t38.857 16h128q45.714 0 77.714 32t32 77.714zM950.857 548.571v219.429q0 45.714-32 77.714t-77.714 32h-219.429q-45.714 0-77.714-32t-32-77.714v-402.286q0-59.429 23.143-113.429t62.571-93.429 93.429-62.571 113.429-23.143h36.571q14.857 0 25.714 10.857t10.857 25.714v73.143q0 14.857-10.857 25.714t-25.714 10.857h-36.571q-60.571 0-103.429 42.857t-42.857 103.429v18.286q0 22.857 16 38.857t38.857 16h128q45.714 0 77.714 32t32 77.714z"></path>
</symbol>
<symbol id="icon-spinner" viewBox="0 0 1024 1024">
	<path class="path1" d="M300.571 796.571q0 30.286-21.429 51.714t-51.714 21.429q-29.714 0-51.429-21.714t-21.714-51.429q0-30.286 21.429-51.714t51.714-21.429 51.714 21.429 21.429 51.714zM585.143 914.286q0 30.286-21.429 51.714t-51.714 21.429-51.714-21.429-21.429-51.714 21.429-51.714 51.714-21.429 51.714 21.429 21.429 51.714zM182.857 512q0 30.286-21.429 51.714t-51.714 21.429-51.714-21.429-21.429-51.714 21.429-51.714 51.714-21.429 51.714 21.429 21.429 51.714zM869.714 796.571q0 29.714-21.714 51.429t-51.429 21.714q-30.286 0-51.714-21.429t-21.429-51.714 21.429-51.714 51.714-21.429 51.714 21.429 21.429 51.714zM318.857 227.429q0 37.714-26.857 64.571t-64.571 26.857-64.571-26.857-26.857-64.571 26.857-64.571 64.571-26.857 64.571 26.857 26.857 64.571zM987.429 512q0 30.286-21.429 51.714t-51.714 21.429-51.714-21.429-21.429-51.714 21.429-51.714 51.714-21.429 51.714 21.429 21.429 51.714zM621.714 109.714q0 45.714-32 77.714t-77.714 32-77.714-32-32-77.714 32-77.714 77.714-32 77.714 32 32 77.714zM924.571 227.429q0 53.143-37.714 90.571t-90.286 37.429q-53.143 0-90.571-37.429t-37.429-90.571q0-52.571 37.429-90.286t90.571-37.714q52.571 0 90.286 37.714t37.714 90.286z"></path>
</symbol>
<symbol id="icon-mail-reply" viewBox="0 0 1024 1024">
	<path class="path1" d="M1024 640q0 94.857-72.571 257.714-1.714 4-6 13.714t-7.714 17.143-7.429 12.571q-6.857 9.714-16 9.714-8.571 0-13.429-5.714t-4.857-14.286q0-5.143 1.429-15.143t1.429-13.429q2.857-38.857 2.857-70.286 0-57.714-10-103.429t-27.714-79.143-45.714-57.714-60.286-39.714-76-24.286-88-12.286-100.286-3.429h-128v146.286q0 14.857-10.857 25.714t-25.714 10.857-25.714-10.857l-292.571-292.571q-10.857-10.857-10.857-25.714t10.857-25.714l292.571-292.571q10.857-10.857 25.714-10.857t25.714 10.857 10.857 25.714v146.286h128q407.429 0 500 230.286 30.286 76.571 30.286 190.286z"></path>
</symbol>
<symbol id="icon-chain-broken" viewBox="0 0 951 1024">
	<path class="path1" d="M250.857 726.286l-146.286 146.286q-5.714 5.143-13.143 5.143-6.857 0-13.143-5.143-5.143-5.714-5.143-13.143t5.143-13.143l146.286-146.286q5.714-5.143 13.143-5.143t13.143 5.143q5.143 5.714 5.143 13.143t-5.143 13.143zM347.429 749.714v182.857q0 8-5.143 13.143t-13.143 5.143-13.143-5.143-5.143-13.143v-182.857q0-8 5.143-13.143t13.143-5.143 13.143 5.143 5.143 13.143zM219.429 621.714q0 8-5.143 13.143t-13.143 5.143h-182.857q-8 0-13.143-5.143t-5.143-13.143 5.143-13.143 13.143-5.143h182.857q8 0 13.143 5.143t5.143 13.143zM941.714 694.857q0 68.571-48.571 116l-84 83.429q-47.429 47.429-116 47.429-69.143 0-116.571-48.571l-190.857-191.429q-12-12-24-32l136.571-10.286 156 156.571q15.429 15.429 38.857 15.714t38.857-15.143l84-83.429q16-16 16-38.286 0-22.857-16-38.857l-156.571-157.143 10.286-136.571q20 12 32 24l192 192q48 49.143 48 116.571zM589.143 281.143l-136.571 10.286-156-156.571q-16-16-38.857-16-22.286 0-38.857 15.429l-84 83.429q-16 16-16 38.286 0 22.857 16 38.857l156.571 156.571-10.286 137.143q-20-12-32-24l-192-192q-48-49.143-48-116.571 0-68.571 48.571-116l84-83.429q47.429-47.429 116-47.429 69.143 0 116.571 48.571l190.857 191.429q12 12 24 32zM950.857 329.143q0 8-5.143 13.143t-13.143 5.143h-182.857q-8 0-13.143-5.143t-5.143-13.143 5.143-13.143 13.143-5.143h182.857q8 0 13.143 5.143t5.143 13.143zM640 18.286v182.857q0 8-5.143 13.143t-13.143 5.143-13.143-5.143-5.143-13.143v-182.857q0-8 5.143-13.143t13.143-5.143 13.143 5.143 5.143 13.143zM872.571 104.571l-146.286 146.286q-6.286 5.143-13.143 5.143t-13.143-5.143q-5.143-5.714-5.143-13.143t5.143-13.143l146.286-146.286q5.714-5.143 13.143-5.143t13.143 5.143q5.143 5.714 5.143 13.143t-5.143 13.143z"></path>
</symbol>
<symbol id="icon-unlock-alt" viewBox="0 0 658 1024">
	<path class="path1" d="M603.429 438.857q22.857 0 38.857 16t16 38.857v329.143q0 22.857-16 38.857t-38.857 16h-548.571q-22.857 0-38.857-16t-16-38.857v-329.143q0-22.857 16-38.857t38.857-16h18.286v-182.857q0-105.714 75.143-180.857t180.857-75.143 180.857 75.143 75.143 180.857q0 14.857-10.857 25.714t-25.714 10.857h-36.571q-14.857 0-25.714-10.857t-10.857-25.714q0-60.571-42.857-103.429t-103.429-42.857-103.429 42.857-42.857 103.429v182.857h420.571z"></path>
</symbol>
<symbol id="icon-ellipsis-h" viewBox="0 0 805 1024">
	<path class="path1" d="M219.429 420.571v109.714q0 22.857-16 38.857t-38.857 16h-109.714q-22.857 0-38.857-16t-16-38.857v-109.714q0-22.857 16-38.857t38.857-16h109.714q22.857 0 38.857 16t16 38.857zM512 420.571v109.714q0 22.857-16 38.857t-38.857 16h-109.714q-22.857 0-38.857-16t-16-38.857v-109.714q0-22.857 16-38.857t38.857-16h109.714q22.857 0 38.857 16t16 38.857zM804.571 420.571v109.714q0 22.857-16 38.857t-38.857 16h-109.714q-22.857 0-38.857-16t-16-38.857v-109.714q0-22.857 16-38.857t38.857-16h109.714q22.857 0 38.857 16t16 38.857z"></path>
</symbol>
<symbol id="icon-check-square" viewBox="0 0 1024 1024">
	<path class="path1" d="M391.429 742.286l350.857-350.857q10.857-10.857 10.857-25.714t-10.857-25.714l-58.286-58.286q-10.857-10.857-25.714-10.857t-25.714 10.857l-266.857 266.857-120.571-120.571q-10.857-10.857-25.714-10.857t-25.714 10.857l-58.286 58.286q-10.857 10.857-10.857 25.714t10.857 25.714l204.571 204.571q10.857 10.857 25.714 10.857t25.714-10.857zM877.714 237.714v548.571q0 68-48.286 116.286t-116.286 48.286h-548.571q-68 0-116.286-48.286t-48.286-116.286v-548.571q0-68 48.286-116.286t116.286-48.286h548.571q68 0 116.286 48.286t48.286 116.286z"></path>
</symbol>
<symbol id="icon-file" viewBox="0 0 1024 1024">
	<path class="path1" d="M585.143 292.571v-269.714q12.571 8 20.571 16l233.143 233.143q8 8 16 20.571h-269.714zM512 310.857q0 22.857 16 38.857t38.857 16h310.857v603.429q0 22.857-16 38.857t-38.857 16h-768q-22.857 0-38.857-16t-16-38.857v-914.286q0-22.857 16-38.857t38.857-16h457.143v310.857z"></path>
</symbol>
<symbol id="icon-cc" viewBox="0 0 1170 1024">
	<path class="path1" d="M448.571 576h118.286q-8 90.286-56.286 142t-122.571 51.714q-92.571 0-145.429-66.286t-52.857-180.571q0-110.857 53.143-178t133.143-67.143q84.571 0 132.571 49.714t55.429 141.143h-116q-2.857-36.571-20.286-56.571t-46.571-20q-32.571 0-50.571 34.571t-18 101.429q0 27.429 2.857 48t10.286 39.714 22.857 29.429 37.714 10.286q54.286 0 62.286-79.429zM855.429 576h117.714q-8 90.286-56 142t-122.286 51.714q-92.571 0-145.429-66.286t-52.857-180.571q0-110.857 53.143-178t133.143-67.143q84.571 0 132.571 49.714t55.429 141.143h-116.571q-2.286-36.571-20-56.571t-46.286-20q-32.571 0-50.571 34.571t-18 101.429q0 27.429 2.857 48t10.286 39.714 22.571 29.429 37.429 10.286q28 0 43.714-21.714t19.143-57.714zM1060.571 508q0-118.286-8.857-175.429t-34.571-92q-3.429-4.571-7.714-8t-12.286-8.571-9.143-6.286q-49.143-36-398.286-36-357.143 0-405.714 36-2.857 2.286-10 6.571t-12 8-8.286 8.286q-25.714 34.286-34.286 91.143t-8.571 176.286q0 118.857 8.571 175.714t34.286 91.714q3.429 4.571 8.571 8.571t11.714 8 10 6.857q25.143 18.857 136.857 28t268.857 9.143q348.571 0 398.286-37.143 2.857-2.286 9.714-6.286t11.714-8 7.714-9.143q26.286-34.286 34.857-90.857t8.571-176.571zM1170.286 73.143v877.714h-1170.286v-877.714h1170.286z"></path>
</symbol>
</defs>
</svg>
