<?xml version="1.0" encoding="UTF-8" standalone="no"?>
<svg width="556px" height="556px" viewBox="0 0 556 556" version="1.1" xmlns="http://www.w3.org/2000/svg" xmlns:xlink="http://www.w3.org/1999/xlink" xmlns:sketch="http://www.bohemiancoding.com/sketch/ns">
    <!-- Generator: Sketch 3.3.1 (12002) - http://www.bohemiancoding.com/sketch -->
    <title>ico-base</title>
    <desc>Created with Sketch.</desc>
    <defs></defs>
    <g id="SCRATCH" stroke="none" stroke-width="1" fill="none" fill-rule="evenodd" sketch:type="MSPage">
        <g id="ico-base" sketch:type="MSArtboardGroup">
            <g id="Mark" sketch:type="MSLayerGroup">
                <rect id="FILL" stroke="#979797" fill="#303E45" sketch:type="MSShapeGroup" x="0" y="0" width="556" height="556"></rect>
                <path d="M220.284682,280.790617 C190.053061,274.498757 169.642881,253.628196 169.642881,238.589116 L169.642881,223.856956 L208.928642,223.856956 C208.928642,247.950176 213.839362,266.672297 220.284682,280.790617 L220.284682,280.790617 Z M385.714567,238.589116 C385.714567,253.628196 365.304386,274.498757 335.072765,280.790617 C341.518085,266.672297 346.428806,247.950176 346.428806,223.856956 L385.714567,223.856956 L385.714567,238.589116 Z M405.357447,218.946235 C405.357447,210.812855 398.758667,204.214075 390.625287,204.214075 L346.428806,204.214075 L346.428806,189.481915 C346.428806,175.977434 335.379685,164.928314 321.875205,164.928314 L233.482242,164.928314 C219.977762,164.928314 208.928642,175.977434 208.928642,189.481915 L208.928642,204.214075 L164.73216,204.214075 C156.59878,204.214075 150,210.812855 150,218.946235 L150,238.589116 C150,267.746517 185.295801,299.973118 233.175322,302.275018 C239.313723,310.101478 244.991743,314.705278 247.754023,316.853718 C255.887403,324.219798 258.035843,331.892799 258.035843,341.714239 C258.035843,351.535679 253.125123,361.357119 238.392963,361.357119 C223.660802,361.357119 208.928642,371.17856 208.928642,385.91072 L208.928642,395.73216 C208.928642,398.49444 211.077082,400.642881 213.839362,400.642881 L341.518085,400.642881 C344.280366,400.642881 346.428806,398.49444 346.428806,395.73216 L346.428806,385.91072 C346.428806,371.17856 331.696645,361.357119 316.964485,361.357119 C302.232324,361.357119 297.321604,351.535679 297.321604,341.714239 C297.321604,331.892799 299.470044,324.219798 307.603424,316.853718 C310.365705,314.705278 316.043725,310.101478 322.182125,302.275018 C370.061646,299.973118 405.357447,267.746517 405.357447,238.589116 L405.357447,218.946235 Z" id="" fill="#FBFBFB" sketch:type="MSShapeGroup"></path>
            </g>
        </g>
    </g>
</svg>