<?xml version="1.0" encoding="UTF-8" standalone="no"?>
<svg width="556px" height="556px" viewBox="0 0 556 556" version="1.1" xmlns="http://www.w3.org/2000/svg" xmlns:xlink="http://www.w3.org/1999/xlink" xmlns:sketch="http://www.bohemiancoding.com/sketch/ns">
    <!-- Generator: Sketch 3.3.1 (12002) - http://www.bohemiancoding.com/sketch -->
    <title>ico-distinguished</title>
    <desc>Created with Sketch.</desc>
    <defs></defs>
    <g id="SCRATCH" stroke="none" stroke-width="1" fill="none" fill-rule="evenodd" sketch:type="MSPage">
        <g id="ico-distinguished" sketch:type="MSArtboardGroup">
            <g id="Mark" sketch:type="MSLayerGroup">
                <rect id="FILL" stroke="#979797" fill="#0079BC" sketch:type="MSShapeGroup" x="0" y="0" width="556" height="556"></rect>
                <g id="Group" transform="translate(150.000000, 94.000000)" fill="#FBFBFB" sketch:type="MSShapeGroup">
                    <path d="M70.284682,230.290617 C40.0530611,223.998757 19.6428806,203.128196 19.6428806,188.089116 L19.6428806,173.356956 L58.9286417,173.356956 C58.9286417,197.450176 63.8393618,216.172297 70.284682,230.290617 L70.284682,230.290617 Z M235.714567,188.089116 C235.714567,203.128196 215.304386,223.998757 185.072765,230.290617 C191.518085,216.172297 196.428806,197.450176 196.428806,173.356956 L235.714567,173.356956 L235.714567,188.089116 Z M255.357447,168.446235 C255.357447,160.312855 248.758667,153.714075 240.625287,153.714075 L196.428806,153.714075 L196.428806,138.981915 C196.428806,125.477434 185.379685,114.428314 171.875205,114.428314 L83.4822424,114.428314 C69.977762,114.428314 58.9286417,125.477434 58.9286417,138.981915 L58.9286417,153.714075 L14.7321604,153.714075 C6.59878019,153.714075 0,160.312855 0,168.446235 L0,188.089116 C0,217.246517 35.295801,249.473118 83.1753224,251.775018 C89.3137225,259.601478 94.9917427,264.205278 97.7540228,266.353718 C105.887403,273.719798 108.035843,281.392799 108.035843,291.214239 C108.035843,301.035679 103.125123,310.857119 88.3929625,310.857119 C73.6608021,310.857119 58.9286417,320.67856 58.9286417,335.41072 L58.9286417,345.23216 C58.9286417,347.99444 61.0770817,350.142881 63.8393618,350.142881 L191.518085,350.142881 C194.280366,350.142881 196.428806,347.99444 196.428806,345.23216 L196.428806,335.41072 C196.428806,320.67856 181.696645,310.857119 166.964485,310.857119 C152.232324,310.857119 147.321604,301.035679 147.321604,291.214239 C147.321604,281.392799 149.470044,273.719798 157.603424,266.353718 C160.365705,264.205278 166.043725,259.601478 172.182125,251.775018 C220.061646,249.473118 255.357447,217.246517 255.357447,188.089116 L255.357447,168.446235 Z" id=""></path>
                    <path d="M174.357254,34.8905659 C174.357254,33.2164567 172.571537,32.5468131 171.23225,32.3235985 L143.218824,28.2499329 L130.663005,2.85927768 C130.160772,1.79900856 129.21211,0.571328521 127.928627,0.571328521 C126.645143,0.571328521 125.696481,1.79900856 125.194249,2.85927768 L112.63843,28.2499329 L84.6250037,32.3235985 C83.2299128,32.5468131 81.5,33.2164567 81.5,34.8905659 C81.5,35.8950313 82.2254473,36.8436932 82.8950909,37.5691405 L103.207615,57.3236283 L98.4085023,85.2254473 C98.3526987,85.6160728 98.296895,85.9508946 98.296895,86.3415201 C98.296895,87.7924146 99.0223423,89.1317019 100.640648,89.1317019 C101.421899,89.1317019 102.147346,88.8526838 102.872793,88.4620583 L127.928627,75.2923997 L152.98446,88.4620583 C153.654104,88.8526838 154.435355,89.1317019 155.216606,89.1317019 C156.834911,89.1317019 157.504555,87.7924146 157.504555,86.3415201 C157.504555,85.9508946 157.504555,85.6160728 157.448751,85.2254473 L152.649638,57.3236283 L172.906359,37.5691405 C173.631806,36.8436932 174.357254,35.8950313 174.357254,34.8905659 L174.357254,34.8905659 Z" id=""></path>
                    <path d="M64.9286268,66.2667115 C64.9286268,65.4296569 64.0357686,65.0948351 63.3661249,64.9832278 L49.3594118,62.946395 L43.0815025,50.2510674 C42.8303861,49.7209328 42.3560552,49.1070928 41.7143134,49.1070928 C41.0725716,49.1070928 40.5982406,49.7209328 40.3471243,50.2510674 L34.069215,62.946395 L20.0625019,64.9832278 C19.3649564,65.0948351 18.5,65.4296569 18.5,66.2667115 C18.5,66.7689442 18.8627236,67.2432752 19.1975455,67.6059988 L29.3538076,77.4832427 L26.9542511,91.4341522 C26.9263493,91.629465 26.8984475,91.7968759 26.8984475,91.9921886 C26.8984475,92.7176359 27.2611712,93.3872795 28.0703239,93.3872795 C28.4609494,93.3872795 28.823673,93.2477705 29.1863967,93.0524577 L41.7143134,86.4676284 L54.2422301,93.0524577 C54.5770519,93.2477705 54.9676774,93.3872795 55.3583029,93.3872795 C56.1674556,93.3872795 56.5022774,92.7176359 56.5022774,91.9921886 C56.5022774,91.7968759 56.5022774,91.629465 56.4743756,91.4341522 L54.0748192,77.4832427 L64.2031795,67.6059988 C64.5659031,67.2432752 64.9286268,66.7689442 64.9286268,66.2667115 L64.9286268,66.2667115 Z" id="-copy"></path>
                    <path d="M234.928627,66.2667115 C234.928627,65.4296569 234.035769,65.0948351 233.366125,64.9832278 L219.359412,62.946395 L213.081503,50.2510674 C212.830386,49.7209328 212.356055,49.1070928 211.714313,49.1070928 C211.072572,49.1070928 210.598241,49.7209328 210.347124,50.2510674 L204.069215,62.946395 L190.062502,64.9832278 C189.364956,65.0948351 188.5,65.4296569 188.5,66.2667115 C188.5,66.7689442 188.862724,67.2432752 189.197545,67.6059988 L199.353808,77.4832427 L196.954251,91.4341522 C196.926349,91.629465 196.898448,91.7968759 196.898448,91.9921886 C196.898448,92.7176359 197.261171,93.3872795 198.070324,93.3872795 C198.460949,93.3872795 198.823673,93.2477705 199.186397,93.0524577 L211.714313,86.4676284 L224.24223,93.0524577 C224.577052,93.2477705 224.967677,93.3872795 225.358303,93.3872795 C226.167456,93.3872795 226.502277,92.7176359 226.502277,91.9921886 C226.502277,91.7968759 226.502277,91.629465 226.474376,91.4341522 L224.074819,77.4832427 L234.203179,67.6059988 C234.565903,67.2432752 234.928627,66.7689442 234.928627,66.2667115 L234.928627,66.2667115 Z" id="-copy-2"></path>
                </g>
            </g>
        </g>
    </g>
</svg>