<?xml version="1.0" encoding="UTF-8" standalone="no"?>
<svg width="688px" height="768px" viewBox="0 0 688 768" version="1.1" xmlns="http://www.w3.org/2000/svg" xmlns:xlink="http://www.w3.org/1999/xlink" xmlns:sketch="http://www.bohemiancoding.com/sketch/ns">
    <!-- Generator: Sketch 3.3.2 (12043) - http://www.bohemiancoding.com/sketch -->
    <title>ico-distinguished</title>
    <desc>Created with Sketch.</desc>
    <defs>
        <path id="path-1" d="M41.7152778,232.467126 C41.7152778,226.94113 45.5795391,220.204922 50.3469125,217.421055 L334.368365,51.5691115 C339.135485,48.7853917 346.864261,48.7852438 351.631635,51.5691115 L635.653087,217.421055 C640.420208,220.204775 644.284722,226.938981 644.284722,232.467126 L644.284722,533.532874 C644.284722,539.05887 640.420461,545.795078 635.653087,548.578945 L351.631635,714.430888 C346.864515,717.214608 339.135739,717.214756 334.368365,714.430888 L50.3469125,548.578945 C45.5797923,545.795225 41.7152778,539.061019 41.7152778,533.532874 L41.7152778,232.467126 Z"></path>
        <path id="path-3" d="M0.5,14.5 C0.5,6.7680135 11.6946912,0.5 25.5004128,0.5 L660.499587,0.5 C674.306934,0.5 685.5,11.700539 685.5,14.5 L685.5,0.5 C685.5,8.2319865 675.835363,20.1435837 663.912854,27.1056324 L364.587146,201.894368 C352.664894,208.856266 333.335363,208.856416 321.412854,201.894368 L22.0871456,27.1056324 C10.1648943,20.1437339 0.5,3.29946098 0.5,0.5 L0.5,14.5 Z"></path>
        <path id="path-5" d="M0.25,210.83436 C0.25,205.311282 4.11047363,198.57965 8.88680434,195.790552 L335.363196,5.14740399 C340.133171,2.36201694 347.860474,2.35830577 352.636804,5.14740399 L679.113196,195.790552 C683.883171,198.575939 687.75,205.317176 687.75,210.83436 L687.75,557.16564 C687.75,562.688718 683.889526,569.42035 679.113196,572.209448 L352.636804,762.852596 C347.866829,765.637983 340.139526,765.641694 335.363196,762.852596 L8.88680434,572.209448 C4.11682902,569.424061 0.25,562.682824 0.25,557.16564 L0.25,210.83436 Z"></path>
    </defs>
    <g id="Prod" stroke="none" stroke-width="1" fill="none" fill-rule="evenodd" sketch:type="MSPage">
        <g id="ico-distinguished" sketch:type="MSArtboardGroup">
            <g id="Group" sketch:type="MSLayerGroup">
                <g id="BG" transform="translate(1.000000, 1.000000)">
                    <path d="M0.5,210.499753 C0.5,204.977042 4.36114745,198.245315 9.13763731,195.456124 L334.362363,5.5438758 C339.132798,2.75822012 346.861147,2.75468464 351.637637,5.5438758 L676.862363,195.456124 C681.632798,198.24178 685.5,204.983265 685.5,210.499753 L685.5,555.500247 C685.5,561.022958 681.638853,567.754685 676.862363,570.543876 L351.637637,760.456124 C346.867202,763.24178 339.138853,763.245315 334.362363,760.456124 L9.13763731,570.543876 C4.36720195,567.75822 0.5,561.016735 0.5,555.500247 L0.5,210.499753 Z" id="Stroke" fill="#272C2E" sketch:type="MSShapeGroup"></path>
                    <mask id="mask-2" sketch:name="MASK" fill="white">
                        <use xlink:href="#path-1"></use>
                    </mask>
                    <use id="MASK" sketch:type="MSShapeGroup" xlink:href="#path-1"></use>
                    <rect id="Color" fill="#00ACFF" sketch:type="MSShapeGroup" mask="url(#mask-2)" x="-55" y="-15" width="796" height="796"></rect>
                    <rect id="Band" opacity="0.5" fill="#F2F2F2" sketch:type="MSShapeGroup" mask="url(#mask-2)" x="-55" y="321" width="796" height="100"></rect>
                    <rect id="Band-Copy" opacity="0.4" fill="#F2F2F2" sketch:type="MSShapeGroup" mask="url(#mask-2)" x="-55" y="221" width="796" height="100"></rect>
                    <rect id="Band-Copy-2" opacity="0.2" fill="#F2F2F2" sketch:type="MSShapeGroup" mask="url(#mask-2)" x="-55" y="121" width="796" height="100"></rect>
                    <rect id="Band-Copy-3" opacity="0.2" fill="#F2F2F2" sketch:type="MSShapeGroup" mask="url(#mask-2)" x="-55" y="501" width="796" height="100"></rect>
                </g>
                <g id="Title" transform="translate(1.000000, 552.000000)">
                    <mask id="mask-4" sketch:name="Mask" fill="white">
                        <use xlink:href="#path-3"></use>
                    </mask>
                    <use id="Mask" fill="#272C2E" sketch:type="MSShapeGroup" xlink:href="#path-3"></use>
                    <rect id="Rectangle-62" fill="#272C2E" sketch:type="MSShapeGroup" mask="url(#mask-4)" x="-36" y="-100" width="779" height="378"></rect>
                </g>
                <g id="MASK-+-ribbon">
                    <mask id="mask-6" sketch:name="Mask" fill="white">
                        <use xlink:href="#path-5"></use>
                    </mask>
                    <use id="Mask" sketch:type="MSShapeGroup" xlink:href="#path-5"></use>
                </g>
                <path d="M258.034733,393.484295 C212.753563,384.060295 182.183027,352.800198 182.183027,330.27454 L182.183027,308.208589 L241.025562,308.208589 C241.025562,344.295613 248.380879,372.337759 258.034733,393.484295 L258.034733,393.484295 Z M505.816973,330.27454 C505.816973,352.800198 475.246437,384.060295 429.965267,393.484295 C439.619121,372.337759 446.974438,344.295613 446.974438,308.208589 L505.816973,308.208589 L505.816973,330.27454 Z M535.238241,300.853272 C535.238241,288.671028 525.354534,278.787321 513.17229,278.787321 L446.974438,278.787321 L446.974438,256.72137 C446.974438,236.494248 430.424974,219.944785 410.197853,219.944785 L277.802147,219.944785 C257.575026,219.944785 241.025562,236.494248 241.025562,256.72137 L241.025562,278.787321 L174.82771,278.787321 C162.645466,278.787321 152.761759,288.671028 152.761759,300.853272 L152.761759,330.27454 C152.761759,373.946734 205.628099,422.216002 277.34244,425.663807 C286.536586,437.386343 295.041171,444.281953 299.178537,447.499904 C311.360781,458.53288 314.578732,470.025562 314.578732,484.736196 C314.578732,499.44683 307.223415,514.157464 285.157464,514.157464 C263.091513,514.157464 241.025562,528.868098 241.025562,550.934049 L241.025562,565.644683 C241.025562,569.782049 244.243514,573 248.380879,573 L439.619121,573 C443.756486,573 446.974438,569.782049 446.974438,565.644683 L446.974438,550.934049 C446.974438,528.868098 424.908487,514.157464 402.842536,514.157464 C380.776585,514.157464 373.421268,499.44683 373.421268,484.736196 C373.421268,470.025562 376.639219,458.53288 388.821463,447.499904 C392.958829,444.281953 401.463414,437.386343 410.65756,425.663807 C482.371901,422.216002 535.238241,373.946734 535.238241,330.27454 L535.238241,300.853272 Z" id="" fill="#272C2E" sketch:type="MSShapeGroup"></path>
            </g>
        </g>
    </g>
</svg>