<?xml version="1.0" encoding="UTF-8" standalone="no"?>
<svg width="556px" height="556px" viewBox="0 0 556 556" version="1.1" xmlns="http://www.w3.org/2000/svg" xmlns:xlink="http://www.w3.org/1999/xlink" xmlns:sketch="http://www.bohemiancoding.com/sketch/ns">
    <!-- Generator: Sketch 3.3.1 (12002) - http://www.bohemiancoding.com/sketch -->
    <title>ico-distinguished</title>
    <desc>Created with Sketch.</desc>
    <defs></defs>
    <g id="SCRATCH" stroke="none" stroke-width="1" fill="none" fill-rule="evenodd" sketch:type="MSPage">
        <g id="ico-distinguished" sketch:type="MSArtboardGroup">
            <g id="Mark" sketch:type="MSLayerGroup">
                <rect id="FILL" stroke="#979797" fill="#0EA6EC" sketch:type="MSShapeGroup" x="0" y="0" width="556" height="556"></rect>
                <path d="M366.489134,277.343634 L286.410914,302.59478 C284.178768,303.292325 281.946623,303.571343 279.714477,303.571343 C277.482332,303.571343 275.250186,303.292325 273.018041,302.59478 L192.93982,277.343634 L190.428657,321.428508 C189.312584,341.09929 230.467767,357.142836 279.714477,357.142836 C328.961188,357.142836 370.116371,341.09929 369.000298,321.428508 L366.489134,277.343634 Z M440.428955,232.142687 C440.428955,230.18956 439.173373,228.51545 437.359755,227.817905 L281.109568,178.710704 C280.551532,178.571194 280.133005,178.571194 279.714477,178.571194 C279.29595,178.571194 278.877423,178.571194 278.319386,178.710704 L122.0692,227.817905 C120.255582,228.51545 119,230.18956 119,232.142687 C119,234.095814 120.255582,235.769923 122.0692,236.467469 L168.525729,250.976415 C159.876165,263.113706 155.690892,280.691852 154.853837,297.014416 C149.552492,300.083616 145.785746,305.803489 145.785746,312.499925 C145.785746,318.777835 148.994455,324.218689 153.877274,327.427399 L145.785746,387.834837 C145.646237,389.090419 146.064764,390.346 146.901819,391.322564 C147.738874,392.299128 148.994455,392.857164 150.250037,392.857164 L177.035783,392.857164 C178.291365,392.857164 179.546947,392.299128 180.384002,391.322564 C181.221056,390.346 181.639584,389.090419 181.500075,387.834837 L173.408547,327.427399 C178.291365,324.218689 181.500075,318.777835 181.500075,312.499925 C181.500075,305.942998 178.012347,300.362634 172.711002,297.293434 C173.827074,278.459706 179.407438,263.113706 187.359456,256.835797 L278.319386,285.57467 C278.877423,285.714179 279.29595,285.714179 279.714477,285.714179 C280.133005,285.714179 280.551532,285.714179 281.109568,285.57467 L437.359755,236.467469 C439.173373,235.769923 440.428955,234.095814 440.428955,232.142687 L440.428955,232.142687 Z" id="ï†" fill="#FBFBFB" sketch:type="MSShapeGroup"></path>
            </g>
        </g>
    </g>
</svg>