<?xml version="1.0" encoding="utf-8"?>
<!-- Generator: Adobe Illustrator 17.1.0, SVG Export Plug-In . SVG Version: 6.00 Build 0)  -->
<!DOCTYPE svg PUBLIC "-//W3C//DTD SVG 1.1//EN" "http://www.w3.org/Graphics/SVG/1.1/DTD/svg11.dtd">
<svg version="1.1" id="Layer_1" xmlns="http://www.w3.org/2000/svg" xmlns:xlink="http://www.w3.org/1999/xlink" x="0px" y="0px"
	 viewBox="0 0 4430 4430" enable-background="new 0 0 4430 4430" xml:space="preserve">
<g>
	<g>
		<defs>
			<rect id="SVGID_1_" x="66" y="84" width="4299.9" height="4300.9"/>
		</defs>
		<clipPath id="SVGID_2_">
			<use xlink:href="#SVGID_1_"  overflow="visible"/>
		</clipPath>
		<path clip-path="url(#SVGID_2_)" fill="none" stroke="#3FA1DC" stroke-width="100" stroke-miterlimit="10" d="M2215.9,4334.9
			c1159.8,0,2100-940.4,2100-2100.5s-940.2-2100.5-2100-2100.5s-2100,940.4-2100,2100.5S1056.1,4334.9,2215.9,4334.9L2215.9,4334.9z
			 M2215.9,4334.9 M2216.4,3758.9c841.4,0,1523.5-682.3,1523.5-1524s-682.1-1524-1523.5-1524s-1523.5,682.3-1523.5,1524
			S1375,3758.9,2216.4,3758.9L2216.4,3758.9z M2216.4,3758.9"/>
	</g>
	<g>
		<defs>
			<rect id="SVGID_3_" x="65.9" y="83.9" width="4300" height="4301"/>
		</defs>
		<defs>
			<path id="SVGID_4_" d="M4128.4,2247.2c-1.6-50.5-14.5-92.9-30.9-107.7l-0.8-0.8l-0.7-0.6c-0.9-0.7-1.8-1.3-2.8-1.9v0l-0.1,0
				c-1-0.6-2-1-3.1-1.4l-0.9-0.4l-1.1-0.3c-21.3-6.1-64.1,5.2-107.9,30.3c-55,31.6-90.6,72.8-79.5,92.1c1.4,2.4,3.4,4.4,6.1,5.9v0
				c18.4,10.6,65.5-0.4,113.6-28c10.1-5.8,19.6-11.9,28.2-18.2c-0.8,10.6-1.1,21.9-0.7,33.5c1.8,55.4,17.1,101.2,35.7,111.4l0.1,0
				c2.7,1.4,5.4,2.1,8.2,2.1C4114.1,2362.5,4130.5,2310.6,4128.4,2247.2C4128.4,2247.2,4130.5,2310.6,4128.4,2247.2L4128.4,2247.2
				L4128.4,2247.2L4128.4,2247.2z M4048.1,2446.3l-0.8-0.8l-0.8-0.6c-0.8-0.7-1.8-1.4-2.8-1.9c-1.1-0.6-2.1-1-3.2-1.4l-0.9-0.3
				l-1.1-0.3c-21.2-6.1-64,5.2-107.8,30.3c-55,31.6-90.6,72.8-79.5,92.1c11,19.3,64.7,9.4,119.7-22.1c10.1-5.8,19.5-11.9,28.2-18.2
				c-0.8,10.6-1.1,21.9-0.7,33.5c1.8,55.5,17.1,101.3,35.8,111.4v0c2.7,1.4,5.4,2.1,8.2,2.1c22.3-0.7,38.7-52.7,36.6-116
				C4077.3,2503.5,4064.5,2461.1,4048.1,2446.3C4048.1,2446.3,4064.5,2461.1,4048.1,2446.3L4048.1,2446.3L4048.1,2446.3
				L4048.1,2446.3z M4011,2769.3l-0.6-0.8c-0.6-1-1.3-1.8-2.1-2.7c-0.7-0.9-1.6-1.6-2.4-2.3l-0.8-0.6l-1-0.6
				c-18.3-12.5-62.5-15.1-111.9-4.8c-62.1,12.8-108.8,40.9-104.3,62.7c0.6,2.7,1.9,5.2,3.9,7.5c14.2,15.8,62.3,20,116.7,8.8
				c11.4-2.3,22.3-5.2,32.4-8.5c-4.1,9.8-7.8,20.5-11,31.6c-15.6,53.2-15.4,101.4-0.9,116.9l0.1,0.1c2.1,2.2,4.5,3.7,7.1,4.5
				c21.4,6.3,53.2-38,71-98.8c14.2-48.5,15.3-92.7,4.4-112L4011,2769.3L4011,2769.3L4011,2769.3L4011,2769.3L4011,2769.3z
				 M3868.3,3045.4l-0.6-0.8c-0.6-0.9-1.2-1.9-2.1-2.7c-0.7-0.9-1.6-1.6-2.5-2.3l-0.7-0.6l-1-0.6c-18.3-12.5-62.5-15.1-111.9-4.9
				c-62.1,12.8-108.8,40.9-104.3,62.7c0.6,2.7,1.9,5.2,3.9,7.4l0.1,0.1c14.3,15.8,62.3,20,116.6,8.7c11.4-2.3,22.3-5.2,32.5-8.5
				c-4.1,9.8-7.8,20.5-11.1,31.7c-17.9,60.8-15,115.2,6.4,121.5c21.3,6.3,53.1-38,71-98.8c14.2-48.5,15.3-92.7,4.3-112
				L3868.3,3045.4L3868.3,3045.4L3868.3,3045.4L3868.3,3045.4L3868.3,3045.4z M3718.6,3330.9l-0.3-0.9c-0.3-1.1-0.6-2.1-1.2-3.2
				c-0.5-1.1-1.1-2-1.7-3l-0.5-0.8l-0.7-0.9c-13.6-17.4-55-33.3-105.2-38.6c-63.1-6.7-116,6-118.4,28.1c-0.3,2.8,0.2,5.6,1.5,8.3
				l0,0c8.7,19.4,53.3,38,108.5,43.8c11.6,1.2,22.9,1.8,33.5,1.7c-6.9,8.1-13.7,17.1-20.2,26.8c-35.5,52.6-49.3,105.3-30.8,117.7
				c18.4,12.5,62.2-20,97.6-72.6c28.3-41.9,42.7-83.8,38.1-105.4L3718.6,3330.9L3718.6,3330.9L3718.6,3330.9L3718.6,3330.9
				L3718.6,3330.9z M3498.9,3550.6l-0.3-0.9c-0.3-1.1-0.6-2.1-1.1-3.2l0,0l0,0c-0.5-1.1-1.1-2-1.7-2.9l-0.5-0.8l-0.7-0.9
				c-13.6-17.4-55-33.3-105.2-38.6c-63.1-6.6-116.1,6-118.4,28.1c-2.3,22.2,46.9,45.5,110,52.1c11.6,1.2,22.8,1.8,33.5,1.8
				c-6.9,8.2-13.7,17.1-20.2,26.8c-31,45.9-45.4,91.9-36.2,111.1l0.1,0.1c1.3,2.7,3.1,4.9,5.4,6.4c18.5,12.5,62.2-20.1,97.6-72.6
				c28.3-41.9,42.7-83.8,38.1-105.4L3498.9,3550.6L3498.9,3550.6L3498.9,3550.6L3498.9,3550.6L3498.9,3550.6z M3258.4,3757.6
				L3258.4,3757.6c-0.1-1.2-0.4-2.2-0.7-3.3l-0.3-1l-0.4-1c-7.7-20.8-42.3-48.4-88.5-68.7c-58.1-25.4-112.4-29.5-121.3-9.1
				c-1.1,2.6-1.5,5.4-1.1,8.4c2.4,21.1,39.3,52.3,90.1,74.6c10.7,4.7,21.2,8.6,31.4,11.8c-9,5.7-18.2,12.2-27.4,19.4
				c-49.7,39.3-78.8,85.4-65,102.9c13.8,17.5,65.3-0.2,115-39.6c39.6-31.3,66.1-66.9,68.2-88.9l0.2-1.1l0-1
				C3258.5,3760,3258.5,3758.8,3258.4,3757.6L3258.4,3757.6L3258.4,3757.6L3258.4,3757.6L3258.4,3757.6L3258.4,3757.6z
				 M2981.6,3897.1l-0.3-0.9l-0.4-1.1c-7.7-20.7-42.3-48.4-88.5-68.6c-58.1-25.4-112.4-29.5-121.3-9.1c-9,20.4,30.9,57.5,89,83
				c10.7,4.7,21.2,8.6,31.4,11.8c-9,5.7-18.2,12.2-27.4,19.4c-49.7,39.3-78.8,85.3-65,102.8c13.8,17.5,65.3-0.2,115-39.6
				c39.6-31.3,66-66.9,68.2-88.9l0.2-1.1v-1c0-1.1,0-2.2-0.1-3.4C2982.2,3899.2,2982,3898.1,2981.6,3897.1
				C2981.6,3897.1,2982,3898.1,2981.6,3897.1L2981.6,3897.1L2981.6,3897.1L2981.6,3897.1z M2622.2,3913.3
				c-47.2-42.3-97.6-63.1-112.4-46.5c-14.9,16.6,11.4,64.3,58.6,106.6c8.7,7.8,17.5,14.8,26.1,21c-10.3,2.6-21.1,5.9-32.1,9.9
				c-52.1,19.1-90.7,48-94.5,68.9v0c-0.5,3-0.4,5.8,0.6,8.4c7.7,20.9,62.1,20.1,121.7-1.7c47.4-17.4,83.6-42.9,92.6-63.1l0.5-1
				l0.3-0.9c0.4-1.1,0.7-2.1,0.9-3.3c0.3-1.1,0.3-2.3,0.3-3.4l0.1-1l-0.1-1.1C2684,3984,2659.8,3946.9,2622.2,3913.3
				C2622.2,3913.3,2659.8,3946.9,2622.2,3913.3L2622.2,3913.3L2622.2,3913.3L2622.2,3913.3z M2315.4,3962.7
				c-47.2-42.3-97.6-63.1-112.4-46.5c-1.9,2.1-3.1,4.6-3.7,7.6v0c-4.3,20.8,21,62,62.3,99c8.7,7.8,17.5,14.8,26.1,21.1
				c-10.3,2.6-21.1,5.9-32.1,9.9c-52.1,19.1-90.8,48-94.5,69c-0.6,3-0.4,5.8,0.6,8.4c7.7,20.9,62.1,20.2,121.7-1.7
				c47.4-17.4,83.6-42.9,92.6-63.1l0.5-1l0.3-0.9c0.4-1,0.7-2.1,0.9-3.3c0.2-1.2,0.3-2.3,0.3-3.4l0.1-1l-0.1-1.1
				C2377.3,4033.5,2353.1,3996.4,2315.4,3962.7C2315.4,3962.7,2353.1,3996.4,2315.4,3962.7L2315.4,3962.7L2315.4,3962.7
				L2315.4,3962.7z M1939.7,3869.6c-19.3,11.1-9.4,64.7,22.1,119.6c5.8,10.1,11.9,19.6,18.2,28.2c-10.6-0.8-21.9-1.1-33.5-0.7
				c-55.4,1.8-101.3,17.1-111.4,35.8h0c-1.4,2.7-2.2,5.4-2.1,8.2c0.7,22.3,52.7,38.7,116,36.7c50.5-1.6,92.9-14.4,107.7-30.8
				l0.8-0.8l0.6-0.8c0.7-0.9,1.3-1.8,1.9-2.8c0.6-1,1-2.1,1.4-3.1l0.3-0.9l0.3-1.1c6.2-21.3-5.2-64.1-30.3-107.9
				C2000.3,3894.1,1959,3858.5,1939.7,3869.6C1939.7,3869.6,1959,3858.5,1939.7,3869.6L1939.7,3869.6L1939.7,3869.6L1939.7,3869.6z
				 M1633,3820.2c-2.4,1.4-4.4,3.4-5.9,6.1c-10.6,18.4,0.4,65.5,28,113.6c5.8,10.1,11.9,19.6,18.2,28.2c-10.6-0.8-21.9-1.1-33.5-0.7
				c-55.3,1.8-101.1,17-111.3,35.7l-0.1,0.2c-1.4,2.6-2.1,5.4-2,8.1c0.7,22.3,52.6,38.7,116,36.7c50.5-1.6,92.9-14.4,107.7-30.9
				l0.8-0.8l0.6-0.8c0.7-0.9,1.4-1.8,1.9-2.8c0.6-1,1-2.1,1.4-3.1l0.3-0.9l0.3-1.1c6.2-21.3-5.2-64.1-30.3-107.9
				C1693.5,3844.7,1652.3,3809.1,1633,3820.2C1633,3820.2,1652.3,3809.1,1633,3820.2L1633,3820.2L1633,3820.2L1633,3820.2z
				 M1400.6,3682.7c-2.7,0.6-5.2,1.9-7.5,3.9l-0.1,0c-15.8,14.3-20,62.3-8.8,116.6c2.3,11.4,5.2,22.3,8.5,32.5
				c-9.9-4.1-20.5-7.8-31.7-11.1c-53.2-15.6-101.5-15.4-116.9-0.8l0,0c-2.2,2.1-3.7,4.5-4.5,7.1c-6.3,21.4,38,53.2,98.8,71
				c48.4,14.2,92.7,15.3,112,4.3l1-0.5l0.8-0.6c0.9-0.6,1.8-1.3,2.7-2.1l0,0l0,0c0.9-0.8,1.6-1.6,2.3-2.5l0.6-0.7l0.6-1
				c12.5-18.3,15.1-62.5,4.9-112C1450.5,3724.9,1422.4,3678.2,1400.6,3682.7C1400.6,3682.7,1422.4,3678.2,1400.6,3682.7
				L1400.6,3682.7L1400.6,3682.7L1400.6,3682.7z M1173.6,3544c-2.8-0.3-5.5,0.2-8.3,1.5l-0.1,0c-19.4,8.8-37.9,53.3-43.7,108.5
				c-1.2,11.6-1.8,22.8-1.7,33.5c-8.2-6.9-17.1-13.7-26.8-20.2c-46-31-92.1-45.5-111.2-36.3l0,0c-2.7,1.3-4.9,3.1-6.5,5.4
				c-12.5,18.5,20,62.2,72.6,97.7c41.9,28.2,83.8,42.7,105.4,38.1l1.1-0.2l0.9-0.3c1.1-0.3,2.1-0.6,3.2-1.2c1.1-0.5,2-1.1,3-1.7
				l0.8-0.5l0.9-0.7c17.4-13.6,33.3-55,38.6-105.2C1208.3,3599.3,1195.7,3546.3,1173.6,3544C1173.6,3544,1195.7,3546.3,1173.6,3544
				L1173.6,3544L1173.6,3544L1173.6,3544z M953.9,3324.2c-2.8-0.3-5.5,0.2-8.3,1.5l0,0c-19.4,8.8-38,53.3-43.7,108.5
				c-1.2,11.6-1.8,22.8-1.8,33.5c-8.1-6.9-17.1-13.7-26.8-20.2c-45.9-31-92-45.4-111.2-36.2l-0.1,0c-2.7,1.3-4.9,3.1-6.4,5.4
				c-12.5,18.5,20,62.2,72.6,97.7c41.9,28.2,83.7,42.6,105.4,38l1.1-0.2l0.9-0.3c1.1-0.3,2.1-0.7,3.2-1.2c1.1-0.5,2-1.1,2.9-1.7
				l0.8-0.5l0.9-0.7c17.4-13.6,33.3-55,38.6-105.2C988.6,3379.6,976,3326.6,953.9,3324.2C953.9,3324.2,976,3326.6,953.9,3324.2
				L953.9,3324.2L953.9,3324.2L953.9,3324.2z M794.9,3112c-2.5-1.1-5.3-1.5-8.4-1.1h0c-21.1,2.5-52.3,39.3-74.6,90.1
				c-4.7,10.7-8.6,21.2-11.8,31.4c-5.7-9-12.2-18.2-19.4-27.4c-34.4-43.5-73.8-71.2-94.9-68.3l-0.2,0c-3,0.4-5.6,1.5-7.8,3.2
				c-17.5,13.8,0.2,65.3,39.6,115.1c31.3,39.6,66.8,66.1,88.9,68.2l1.1,0.1l1,0c1.1,0,2.2,0,3.4-0.2c1.2-0.1,2.3-0.4,3.3-0.7
				l0.9-0.2l1.1-0.4c20.8-7.7,48.4-42.3,68.6-88.6C811.2,3175.3,815.3,3120.9,794.9,3112C794.9,3112,815.3,3120.9,794.9,3112
				L794.9,3112L794.9,3112L794.9,3112z M573.4,3046.3l1.1-0.4c20.8-7.7,48.4-42.3,68.7-88.6c25.4-58.1,29.5-112.4,9.1-121.3
				c-2.5-1.1-5.4-1.5-8.4-1.1h0c-21.1,2.4-52.3,39.3-74.6,90.1c-4.7,10.7-8.6,21.2-11.8,31.4c-5.7-9-12.2-18.2-19.4-27.4
				c-39.3-49.7-85.4-78.9-102.8-65c-17.5,13.8,0.2,65.3,39.6,115.1c31.3,39.6,66.8,66.1,88.9,68.2l1.1,0.2h1c1.1,0,2.2,0,3.4-0.1
				c1.2-0.1,2.3-0.4,3.3-0.7L573.4,3046.3L573.4,3046.3L573.4,3046.3L573.4,3046.3L573.4,3046.3z M434.4,2754.5l0.9,0.3
				c1,0.4,2.1,0.7,3.3,1c1.2,0.2,2.3,0.3,3.4,0.3l1,0l1.1-0.1c22.1-0.8,59.2-25.1,92.9-62.7c42.3-47.3,63.1-97.6,46.5-112.5
				c-2.1-1.8-4.6-3-7.6-3.6l-0.1,0c-20.9-4.2-62,21.1-98.9,62.4c-7.8,8.7-14.8,17.5-21,26.1c-2.6-10.3-5.9-21.1-9.9-32.1
				c-19.1-52.1-48-90.7-68.9-94.5H377c-3-0.5-5.8-0.3-8.4,0.6c-20.9,7.7-20.2,62.2,1.7,121.7c17.4,47.4,42.9,83.6,63.1,92.6
				L434.4,2754.5L434.4,2754.5L434.4,2754.5L434.4,2754.5L434.4,2754.5z M383.9,2447.3l1,0.5l0.9,0.3c1,0.4,2.1,0.7,3.3,0.9
				c1.2,0.3,2.3,0.3,3.4,0.3l1,0l1.1-0.1c22.1-0.8,59.2-25,92.9-62.7c42.3-47.3,63.1-97.6,46.5-112.5c-2.1-1.9-4.6-3.1-7.6-3.7h0
				c-20.8-4.3-62,21-99,62.3c-7.8,8.7-14.8,17.5-21,26.1c-2.6-10.3-5.9-21.1-9.9-32.1c-21.8-59.5-56.5-101.6-77.4-93.9
				c-20.9,7.7-20.2,62.1,1.7,121.7C338.2,2402.1,363.7,2438.3,383.9,2447.3C383.9,2447.3,363.7,2438.3,383.9,2447.3L383.9,2447.3
				L383.9,2447.3L383.9,2447.3z M363.4,2128l0.8,0.8l0.8,0.6c0.9,0.7,1.8,1.3,2.8,1.9l0,0l0,0c1,0.6,2,1,3.1,1.4l0.9,0.3l1.1,0.3
				c21.3,6.1,64.1-5.2,107.9-30.3c55-31.6,90.6-72.8,79.5-92.1c-11.1-19.3-64.7-9.4-119.6,22.2c-10.1,5.8-19.6,11.9-28.2,18.2
				c0.8-10.6,1.1-21.9,0.7-33.5c-1.8-55.4-17-101.2-35.7-111.4l0,0c-2.7-1.4-5.4-2.2-8.2-2.1c-22.3,0.7-38.7,52.7-36.6,116
				C334.2,2070.7,347,2113.1,363.4,2128C363.4,2128,347,2113.1,363.4,2128L363.4,2128L363.4,2128L363.4,2128z M412.9,1821.2l0.8,0.8
				l0.8,0.6c0.9,0.7,1.7,1.3,2.8,1.9l0,0l0.1,0c1,0.6,2,1,3.1,1.4l0.9,0.4l1.1,0.3c21.3,6.1,64.1-5.2,107.9-30.3
				c55-31.6,90.6-72.8,79.5-92.1c-11.1-19.3-64.7-9.4-119.6,22.2c-10.1,5.8-19.6,11.9-28.2,18.2c0.8-10.6,1.1-21.9,0.7-33.5
				c-1.8-55.4-17-101.3-35.7-111.4l0,0c-2.7-1.4-5.4-2.1-8.2-2.1c-22.3,0.7-38.7,52.7-36.7,116
				C383.6,1763.9,396.5,1806.3,412.9,1821.2C412.9,1821.2,396.5,1806.3,412.9,1821.2L412.9,1821.2L412.9,1821.2L412.9,1821.2z
				 M504.9,1516.2l0.6,0.8c0.6,0.9,1.2,1.8,2,2.6l0.1,0.1l0.1,0.1c0.8,0.8,1.6,1.6,2.5,2.2l0.8,0.6l1,0.6
				c18.3,12.5,62.5,15.1,111.9,4.9c62.1-12.8,108.8-40.9,104.3-62.7c-0.6-2.7-1.9-5.2-3.9-7.5l0,0c-14.2-15.8-62.3-20-116.6-8.8
				c-11.4,2.4-22.3,5.2-32.5,8.5c4.1-9.8,7.8-20.5,11.1-31.6c17.9-60.9,15-115.3-6.4-121.5c-21.4-6.3-53.2,38-71,98.8
				c-14.2,48.5-15.3,92.7-4.3,112L504.9,1516.2L504.9,1516.2L504.9,1516.2L504.9,1516.2L504.9,1516.2z M647.6,1240.2l0.6,0.8
				c0.6,0.9,1.3,1.8,2,2.7l0.1,0.1c0.8,0.9,1.6,1.6,2.5,2.3l0.8,0.6l1,0.6c18.3,12.5,62.5,15.1,111.9,4.8
				c62.1-12.8,108.8-40.9,104.3-62.7c-0.6-2.7-1.9-5.2-3.9-7.5l0,0c-14.2-15.8-62.3-20-116.6-8.8c-11.4,2.4-22.3,5.2-32.5,8.5
				c4.1-9.9,7.8-20.5,11.1-31.7c17.8-60.9,15-115.2-6.4-121.5c-21.4-6.3-53.2,38-71,98.8c-14.2,48.5-15.2,92.7-4.3,112L647.6,1240.2
				L647.6,1240.2L647.6,1240.2L647.6,1240.2L647.6,1240.2z M842.6,987.8l0.3,0.9c0.3,1.1,0.6,2.1,1.2,3.2c0.5,1.1,1.1,2,1.7,3
				l0.5,0.8l0.7,0.9c13.6,17.5,55,33.3,105.2,38.6c63.1,6.6,116.1-6,118.4-28.1c2.3-22.2-46.9-45.5-109.9-52.1
				c-11.6-1.2-22.8-1.8-33.5-1.7c6.9-8.2,13.7-17.1,20.2-26.8c35.5-52.6,49.3-105.3,30.8-117.7c-18.5-12.5-62.2,20-97.6,72.6
				c-28.3,41.9-42.7,83.8-38.1,105.4L842.6,987.8L842.6,987.8L842.6,987.8L842.6,987.8L842.6,987.8z M1271.2,832.2
				c1.1-2.5,1.5-5.4,1.1-8.4v0c-2.5-21.1-39.3-52.3-90.1-74.6c-10.7-4.7-21.2-8.6-31.4-11.8c9-5.7,18.2-12.2,27.4-19.4
				c49.7-39.3,78.8-85.4,65-102.8c-13.8-17.5-65.3,0.3-115.1,39.6c-39.6,31.3-66,66.9-68.2,88.9l-0.1,1.1l0,1c0,1.1,0,2.2,0.1,3.4v0
				c0.1,1.2,0.4,2.2,0.7,3.3l0.3,0.9l0.4,1c7.7,20.8,42.3,48.4,88.5,68.7C1208,848.5,1262.3,852.6,1271.2,832.2
				C1271.2,832.2,1262.3,852.6,1271.2,832.2L1271.2,832.2L1271.2,832.2L1271.2,832.2z M1547.2,689.4c1.1-2.5,1.5-5.4,1.1-8.4v0
				c-2.4-21.1-39.3-52.4-90.1-74.6c-10.7-4.7-21.2-8.6-31.4-11.8c9-5.7,18.2-12.2,27.4-19.4c49.7-39.3,78.8-85.4,65-102.8
				c-13.8-17.5-65.3,0.3-115.1,39.6c-39.6,31.3-66,66.9-68.2,88.9l-0.1,1.1l0,1c0,1.1,0,2.2,0.1,3.4v0c0.1,1.2,0.4,2.3,0.7,3.3
				l0.3,1l0.4,1c7.7,20.8,42.3,48.4,88.5,68.7C1484,705.8,1538.3,709.8,1547.2,689.4C1547.2,689.4,1538.3,709.8,1547.2,689.4
				L1547.2,689.4L1547.2,689.4L1547.2,689.4z M1837.7,395.1l0-0.1c0.5-3,0.3-5.8-0.6-8.4c-7.7-20.9-62.1-20.2-121.7,1.7
				c-47.4,17.4-83.6,42.9-92.6,63.1l-0.5,1l-0.3,0.9c-0.4,1-0.7,2.1-0.9,3.3c-0.3,1.2-0.3,2.3-0.3,3.4l-0.1,1l0.1,1.1
				c0.8,22.1,25.1,59.2,62.7,92.9c47.3,42.3,97.6,63.1,112.4,46.5c1.9-2.1,3.1-4.6,3.7-7.6l0-0.1c4.2-20.9-21-62-62.3-98.9
				c-8.7-7.8-17.5-14.8-26.1-21c10.4-2.6,21.1-5.9,32.1-9.9C1795.2,444.9,1833.9,416,1837.7,395.1
				C1837.7,395.1,1833.9,416,1837.7,395.1L1837.7,395.1L1837.7,395.1L1837.7,395.1z M2022.1,338.8c-47.4,17.4-83.6,42.9-92.6,63.1
				l-0.5,1l-0.3,0.9c-0.4,1-0.7,2.1-0.9,3.3c-0.2,1.2-0.3,2.3-0.3,3.4l0,1l0.1,1.1c0.8,22.1,25.1,59.2,62.7,92.9
				c47.2,42.3,97.6,63.1,112.4,46.5c1.9-2.1,3.1-4.6,3.7-7.6v0c4.3-20.9-21-62-62.3-99c-8.7-7.8-17.5-14.8-26.1-21
				c10.3-2.6,21.1-5.9,32-9.9c52.1-19.1,90.8-48,94.5-68.9v0c0.5-3,0.4-5.8-0.6-8.4C2136.1,316.2,2081.7,317,2022.1,338.8
				C2022.1,338.8,2081.7,317,2022.1,338.8L2022.1,338.8L2022.1,338.8L2022.1,338.8z M2470.5,375.1c1.4-2.7,2.1-5.4,2.1-8.2
				c-0.7-22.3-52.7-38.7-116-36.7c-50.5,1.6-92.9,14.4-107.7,30.8l-0.8,0.8l-0.6,0.8c-0.7,0.9-1.4,1.8-1.9,2.8c-0.6,1-1,2.1-1.4,3.1
				l-0.4,0.9l-0.3,1.1c-6.2,21.3,5.2,64.1,30.3,107.9c31.6,55,72.8,90.6,92.1,79.5c19.3-11.1,9.4-64.7-22.2-119.7
				c-5.8-10.1-11.9-19.6-18.2-28.2c10.6,0.8,21.9,1.1,33.6,0.7C2414.6,409.1,2460.4,393.8,2470.5,375.1L2470.5,375.1L2470.5,375.1
				L2470.5,375.1L2470.5,375.1L2470.5,375.1z M2672.7,607.5c2.4-1.4,4.4-3.4,5.9-6l0-0.1c10.6-18.4-0.5-65.4-28-113.5
				c-5.8-10.1-11.9-19.6-18.2-28.2c10.6,0.8,21.9,1.1,33.5,0.7c55.4-1.8,101.2-17.1,111.4-35.8l0,0c1.4-2.7,2.2-5.4,2.1-8.2
				c-0.7-22.3-52.6-38.7-116-36.7c-50.5,1.6-92.9,14.4-107.7,30.8l-0.8,0.8l-0.6,0.8c-0.7,0.8-1.3,1.7-1.9,2.7l-0.1,0.1l-0.1,0.1
				c-0.5,1-1,2-1.3,3l-0.4,0.9l-0.3,1.1c-6.2,21.3,5.2,64.1,30.3,107.9C2612.1,583,2653.4,618.6,2672.7,607.5
				C2672.7,607.5,2653.4,618.6,2672.7,607.5L2672.7,607.5L2672.7,607.5L2672.7,607.5z M3074.2,565.3c2.2-2.1,3.7-4.4,4.5-7.1
				c6.3-21.4-38-53.2-98.8-71c-48.5-14.2-92.7-15.2-112-4.3l-1,0.5l-0.8,0.6c-0.9,0.6-1.8,1.3-2.7,2.1c-0.9,0.8-1.6,1.6-2.3,2.5
				l-0.6,0.8l-0.6,1c-12.5,18.3-15.1,62.5-4.9,112c12.8,62.1,40.9,108.8,62.7,104.3c2.7-0.6,5.2-1.9,7.5-3.9l0,0
				c15.8-14.2,20-62.3,8.8-116.6c-2.4-11.4-5.2-22.3-8.5-32.5c9.9,4.1,20.5,7.8,31.7,11.1C3010.3,580.2,3058.6,580,3074.2,565.3
				L3074.2,565.3L3074.2,565.3L3074.2,565.3L3074.2,565.3L3074.2,565.3z M3193.7,849.3c2.7-0.6,5.2-1.9,7.4-3.9l0.1-0.1
				c15.8-14.2,20-62.3,8.8-116.6c-2.4-11.4-5.2-22.3-8.5-32.5c9.8,4.1,20.5,7.8,31.6,11.1c53.2,15.6,101.4,15.4,116.9,0.8l0.1-0.1
				c2.2-2.1,3.7-4.4,4.5-7.1c6.3-21.4-38-53.2-98.8-71c-48.5-14.2-92.7-15.3-112-4.3l-1,0.5l-0.8,0.6c-0.9,0.6-1.8,1.3-2.6,2l-0.1,0
				l-0.1,0.1c-0.9,0.8-1.6,1.6-2.2,2.5l-0.6,0.8l-0.6,1c-12.5,18.3-15,62.5-4.8,111.9C3143.8,807.1,3171.9,853.8,3193.7,849.3
				C3193.7,849.3,3171.9,853.8,3193.7,849.3L3193.7,849.3L3193.7,849.3L3193.7,849.3z M3387.6,1033.3c22.2,2.3,45.5-46.9,52.1-110
				c1.2-11.6,1.8-22.9,1.7-33.5c8.1,6.9,17.1,13.7,26.8,20.2c52.6,35.5,105.3,49.2,117.7,30.8c12.5-18.5-20-62.2-72.6-97.6
				c-41.9-28.3-83.7-42.7-105.4-38.1l-1.1,0.2l-1,0.3c-1.1,0.3-2.1,0.6-3.2,1.1c-1.1,0.5-2,1.1-3,1.7l-0.8,0.5l-0.9,0.7
				c-17.4,13.6-33.3,55-38.6,105.2C3352.9,978,3365.5,1031,3387.6,1033.3C3387.6,1033.3,3365.5,1031,3387.6,1033.3L3387.6,1033.3
				L3387.6,1033.3L3387.6,1033.3z M3607.3,1253c2.8,0.3,5.5-0.2,8.3-1.5l0.1,0c19.4-8.8,37.9-53.3,43.7-108.5
				c1.2-11.6,1.8-22.9,1.7-33.5c8.2,6.9,17.1,13.7,26.8,20.2c46,31,92.1,45.4,111.2,36.2v0c2.7-1.3,4.9-3.1,6.5-5.4
				c12.5-18.5-20.1-62.2-72.6-97.6c-41.9-28.2-83.7-42.7-105.4-38.1l-1.1,0.2l-0.9,0.3c-1.1,0.3-2.2,0.6-3.2,1.2
				c-1.1,0.5-2,1.1-3,1.7l-0.8,0.5l-0.9,0.7c-17.4,13.6-33.3,55-38.6,105.2C3572.6,1197.7,3585.2,1250.7,3607.3,1253
				C3607.3,1253,3585.2,1250.7,3607.3,1253L3607.3,1253L3607.3,1253L3607.3,1253z M3804.1,1287.1L3804.1,1287.1l-0.1,0
				c-1.2,0.1-2.2,0.4-3.3,0.7l-0.9,0.3l-1.1,0.4c-20.7,7.7-48.4,42.3-68.6,88.5c-25.4,58.1-29.5,112.4-9.1,121.4
				c20.4,8.9,57.5-30.9,83-89c4.7-10.7,8.6-21.2,11.8-31.4c5.7,9,12.2,18.2,19.4,27.4c34.4,43.5,73.9,71.2,94.9,68.2h0.1
				c3-0.4,5.6-1.5,7.8-3.2c17.5-13.8-0.2-65.3-39.6-115.1c-31.4-39.6-66.9-66-88.9-68.2l-1.1-0.2l-1,0
				C3806.4,1286.9,3805.3,1286.9,3804.1,1287.1C3804.1,1287.1,3805.3,1286.9,3804.1,1287.1L3804.1,1287.1L3804.1,1287.1
				L3804.1,1287.1z M3874.5,1628.3c-42.3,47.3-63.1,97.6-46.5,112.4c16.6,14.9,64.3-11.4,106.6-58.6c7.8-8.7,14.8-17.5,21-26.1
				c2.6,10.3,5.8,21.1,9.9,32.1c21.9,59.5,56.5,101.5,77.4,93.9c20.9-7.7,20.1-62.1-1.7-121.7c-17.4-47.4-43-83.6-63.1-92.6
				l-1.1-0.5l-0.9-0.3c-1.1-0.4-2.2-0.7-3.3-0.9c-1.1-0.2-2.3-0.3-3.4-0.3l-1-0.1l-1.1,0.1
				C3945.3,1566.5,3908.2,1590.7,3874.5,1628.3C3874.5,1628.3,3908.2,1590.7,3874.5,1628.3L3874.5,1628.3L3874.5,1628.3
				L3874.5,1628.3z M4027.6,1874.5l-1-0.5l-1-0.3c-1-0.4-2.1-0.7-3.2-0.9c-1.1-0.2-2.3-0.3-3.4-0.3l-1-0.1l-1.1,0.1
				c-22.1,0.8-59.1,25.1-92.8,62.7c-42.3,47.3-63.1,97.6-46.5,112.4c16.6,14.9,64.3-11.4,106.6-58.6c7.8-8.7,14.8-17.5,21-26.1
				c2.6,10.3,5.8,21.1,9.8,32.1c21.9,59.5,56.5,101.5,77.4,93.9c21-7.7,20.2-62.1-1.6-121.7
				C4073.4,1919.6,4047.9,1883.4,4027.6,1874.5L4027.6,1874.5L4027.6,1874.5z M4027.6,1874.5"/>
		</defs>
		<defs>
			<rect id="SVGID_5_" x="66" y="84" width="4300.1" height="4301"/>
		</defs>
		<clipPath id="SVGID_6_">
			<use xlink:href="#SVGID_3_"  overflow="visible"/>
		</clipPath>
		<clipPath id="SVGID_7_" clip-path="url(#SVGID_6_)">
			<use xlink:href="#SVGID_4_"  overflow="visible"/>
		</clipPath>
		<clipPath id="SVGID_8_" clip-path="url(#SVGID_7_)">
			<use xlink:href="#SVGID_5_"  overflow="visible"/>
		</clipPath>
		<path clip-path="url(#SVGID_8_)" fill-rule="evenodd" clip-rule="evenodd" fill="#3FA1DC" d="M298.9,316.9h3835.5v3834.5H298.9
			V316.9z M298.9,316.9"/>
	</g>
	<g>
		<defs>
			<rect id="SVGID_9_" x="65.9" y="83.9" width="4300" height="4301"/>
		</defs>
		<defs>
			<path id="SVGID_10_" d="M1887.1,3701.8h-55.4l254-254l27.7,27.7L1887.1,3701.8L1887.1,3701.8L1887.1,3701.8L1887.1,3701.8
				L1887.1,3701.8z M2363.1,3447.8l254,254h-55.4l-226.3-226.3L2363.1,3447.8L2363.1,3447.8L2363.1,3447.8L2363.1,3447.8
				L2363.1,3447.8z M1760.4,3731.3h928l-325.3-325.2l-48.6,48.6l-90.2-90.2l-90.2,90.2l-48.6-48.6L1760.4,3731.3L1760.4,3731.3
				L1760.4,3731.3z M1760.4,3731.3"/>
		</defs>
		<defs>
			<rect id="SVGID_11_" x="66" y="84" width="4300.1" height="4301"/>
		</defs>
		<clipPath id="SVGID_12_">
			<use xlink:href="#SVGID_9_"  overflow="visible"/>
		</clipPath>
		<clipPath id="SVGID_13_" clip-path="url(#SVGID_12_)">
			<use xlink:href="#SVGID_10_"  overflow="visible"/>
		</clipPath>
		<clipPath id="SVGID_14_" clip-path="url(#SVGID_13_)">
			<use xlink:href="#SVGID_11_"  overflow="visible"/>
		</clipPath>
		<path clip-path="url(#SVGID_14_)" fill-rule="evenodd" clip-rule="evenodd" fill="#3FA1DC" d="M2693.4,3736.3h-938v-376.8h938
			V3736.3z M2693.4,3736.3"/>
	</g>
	<g>
		<defs>
			<rect id="SVGID_15_" x="65.9" y="83.9" width="4300" height="4301"/>
		</defs>
		<defs>
			<path id="SVGID_16_" d="M2302.3,1662.3l-247.4-151c-5.3-3.2-12-3.2-17.3,0l-249.3,151.1v-905h368V1374l146-107.4V1662.3
				L2302.3,1662.3L2302.3,1662.3L2302.3,1662.3L2302.3,1662.3z M1771.7,724.1c-9.2,0-16.6,7.4-16.6,16.6V1692c0,6,3.2,11.5,8.5,14.5
				c5.2,3,11.6,2.9,16.8-0.3l265.9-161.2l264.1,161.1c2.7,1.6,5.7,2.5,8.7,2.5c2.8,0,5.6-0.7,8.1-2.1c5.3-2.9,8.5-8.5,8.5-14.5
				v-449.9l47-34.6l224.8,166.4V724.1H1771.7L1771.7,724.1L1771.7,724.1z M1771.7,724.1"/>
		</defs>
		<defs>
			<rect id="SVGID_17_" x="66" y="84" width="4300.1" height="4301"/>
		</defs>
		<clipPath id="SVGID_18_">
			<use xlink:href="#SVGID_15_"  overflow="visible"/>
		</clipPath>
		<clipPath id="SVGID_19_" clip-path="url(#SVGID_18_)">
			<use xlink:href="#SVGID_16_"  overflow="visible"/>
		</clipPath>
		<clipPath id="SVGID_20_" clip-path="url(#SVGID_19_)">
			<use xlink:href="#SVGID_17_"  overflow="visible"/>
		</clipPath>
		<path clip-path="url(#SVGID_20_)" fill-rule="evenodd" clip-rule="evenodd" fill="#42A1DA" d="M1750,719.1h862.4v994.5H1750V719.1
			z M1750,719.1"/>
	</g>
	<g>
		<defs>
			<rect id="SVGID_21_" x="65.9" y="83.9" width="4300" height="4301"/>
		</defs>
		<defs>
			<path id="SVGID_22_" d="M2491.1,925.4l-15.6-15c-3-2.9-7.1-4.5-11.3-4.5s-8.3,1.6-11.3,4.5l-0.1,0.1l-91.5,94.5l7.1-0.1
				l-33.7-32.5c-3-2.9-7.1-4.5-11.3-4.5c-4.2,0-8.3,1.6-11.3,4.5l-15.6,15c-3,2.9-4.7,7-4.7,11.1c0,4.1,1.7,8.2,4.7,11.1l41.5,39.9
				l15.6,15c3,2.9,7.1,4.5,11.3,4.5s8.3-1.6,11.3-4.5l15.6-15l0.1-0.1l99.3-101.9l-3.6-3.5l3.5,3.6c3-2.9,4.7-7,4.7-11.1
				C2495.9,932.3,2494.2,928.3,2491.1,925.4L2491.1,925.4L2491.1,925.4z M2491.1,925.4"/>
		</defs>
		<defs>
			<rect id="SVGID_23_" x="66" y="84" width="4300.1" height="4301"/>
		</defs>
		<clipPath id="SVGID_24_">
			<use xlink:href="#SVGID_21_"  overflow="visible"/>
		</clipPath>
		<clipPath id="SVGID_25_" clip-path="url(#SVGID_24_)">
			<use xlink:href="#SVGID_22_"  overflow="visible"/>
		</clipPath>
		<clipPath id="SVGID_26_" clip-path="url(#SVGID_25_)">
			<use xlink:href="#SVGID_23_"  overflow="visible"/>
		</clipPath>
		<path clip-path="url(#SVGID_26_)" fill-rule="evenodd" clip-rule="evenodd" fill="#FFFFFF" d="M2291.9,905.9h204v163h-204V905.9z
			 M2291.9,905.9"/>
	</g>
	<g>
		<defs>
			<rect id="SVGID_27_" x="65.9" y="83.9" width="4300" height="4301"/>
		</defs>
		<defs>
			<path id="SVGID_28_" d="M2276.9,890.9h234v193h-234V890.9z M2487.7,929l-15.6-15c-2.1-2-4.9-3.1-7.8-3.1s-5.7,1.1-7.8,3.1
				l-91.5,94.5l-33.7-32.5c-2.1-2-4.9-3.1-7.8-3.1c-2.9,0-5.7,1.1-7.8,3.1l-15.6,15c-2.1,2-3.2,4.7-3.2,7.5c0,2.8,1.1,5.5,3.2,7.5
				l41.5,39.9l15.6,15c2.1,2,4.9,3.1,7.8,3.1s5.7-1.1,7.8-3.1l15.6-15l99.3-101.9c2.1-2,3.2-4.7,3.2-7.5
				C2490.9,933.7,2489.7,931,2487.7,929L2487.7,929z M2487.7,929"/>
		</defs>
		<clipPath id="SVGID_29_">
			<use xlink:href="#SVGID_27_"  overflow="visible"/>
		</clipPath>
		<clipPath id="SVGID_30_" clip-path="url(#SVGID_29_)">
			<use xlink:href="#SVGID_28_"  overflow="visible"/>
		</clipPath>
		<path clip-path="url(#SVGID_30_)" fill="none" stroke="#FFFFFF" stroke-width="20" stroke-miterlimit="10" d="M2487.7,929
			l-15.6-15c-2.1-2-4.9-3.1-7.8-3.1c-2.9,0-5.7,1.1-7.8,3.1l-91.5,94.5l-33.7-32.5c-2.1-2-4.9-3.1-7.8-3.1s-5.7,1.1-7.8,3.1
			l-15.6,15c-2.1,2-3.2,4.7-3.2,7.5s1.1,5.5,3.2,7.5l41.5,39.9l15.6,15c2.1,2,4.9,3.1,7.8,3.1s5.7-1.1,7.8-3.1l15.6-15l99.3-101.9
			c2.1-2,3.2-4.7,3.2-7.5C2490.9,933.7,2489.7,931,2487.7,929L2487.7,929z M2487.7,929"/>
	</g>
</g>
<g>
	<defs>
		<rect id="SVGID_31_" x="747.9" y="1563.8" width="2940.2" height="1632"/>
	</defs>
	<clipPath id="SVGID_32_">
		<use xlink:href="#SVGID_31_"  overflow="visible"/>
	</clipPath>
	<g clip-path="url(#SVGID_32_)">
		<text transform="matrix(1 0 0 1 1083.3008 2996.5547)"><tspan x="0" y="0" fill="#1AA1DE" font-family="'AvenirNext-Bold'" font-size="426.9836" letter-spacing="46">V</tspan><tspan x="338.2" y="0" fill="#1AA1DE" font-family="'AvenirNext-Bold'" font-size="426.9836" letter-spacing="46">ER</tspan><tspan x="973.5" y="0" fill="#1AA1DE" font-family="'AvenirNext-Bold'" font-size="426.9836" letter-spacing="46">IFIE</tspan><tspan x="1938.1" y="0" fill="#1AA1DE" font-family="'AvenirNext-Bold'" font-size="426.9836">D</tspan></text>
	</g>
	<g clip-path="url(#SVGID_32_)">
		<text transform="matrix(1 0 0 1 1695.1738 2512.6426)"><tspan x="0" y="0" fill="#1AA1DE" font-family="'AvenirNext-Bold'" font-size="948.8525" letter-spacing="104">I</tspan><tspan x="406.1" y="0" fill="#1AA1DE" font-family="'AvenirNext-Bold'" font-size="948.8525">D</tspan></text>
	</g>
</g>
</svg>
