<?xml version="1.0" encoding="utf-8"?>
<!-- Generator: Adobe Illustrator 28.0.0, SVG Export Plug-In . SVG Version: 6.00 Build 0)  -->
<svg version="1.1" id="icon" xmlns="http://www.w3.org/2000/svg" xmlns:xlink="http://www.w3.org/1999/xlink" x="0px" y="0px"
	 viewBox="0 0 32 32" style="enable-background:new 0 0 32 32;" xml:space="preserve">
<style type="text/css">
	.st0{fill:#454545;}
	.st1{fill:none;}
</style>
<polygon class="st0" points="24,17 25.9,20.7 30,21.3 27,24 27.8,28 24,25.8 20.2,28 21,24 18,21.3 22.2,20.7 "/>
<rect x="6" y="16" class="st0" width="6" height="2"/>
<rect x="6" y="12" class="st0" width="10" height="2"/>
<rect x="6" y="8" class="st0" width="10" height="2"/>
<path class="st0" d="M16,26H4V6h24v10h2V6c0-1.1-0.9-2-2-2H4C2.9,4,2,4.9,2,6v20c0,1.1,0.9,2,2,2h12V26z"/>
<rect id="_Transparent_Rectangle_" class="st1" width="32" height="32"/>
</svg>
