<svg xmlns="http://www.w3.org/2000/svg" viewBox="0 0 1524.05 150.17"><title>MicroMasters Program Logo</title><path d="M31.57,65.82a3,3,0,0,0,.72.09,3,3,0,0,0,2.91-2.28,74.73,74.73,0,0,1,14-28.45A143.33,143.33,0,0,0,63.68,39a75.1,75.1,0,0,0-8.46,23.65,3,3,0,1,0,5.91,1.06A68,68,0,0,1,70,40.24a216.58,216.58,0,0,0,36.87,3.29V63.18a3,3,0,1,0,6,0V43.48a224.37,224.37,0,0,0,35.75-3.67,67.78,67.78,0,0,1,9,23.66,3,3,0,1,0,5.91-1.06A74.82,74.82,0,0,0,155,38.54q6.81-1.46,13.86-3.43a74.71,74.71,0,0,1,14,28.43,3,3,0,1,0,5.82-1.45,82.24,82.24,0,0,0-159.27.1A3,3,0,0,0,31.57,65.82Zm42.2-31.16c11.14-15,26.08-23.14,33.12-26.39V37.41A217.27,217.27,0,0,1,73.77,34.67Zm39.12,2.7V8.72c7.35,3.47,21.4,11.46,32,25.63A218.5,218.5,0,0,1,112.89,37.37Zm51.57-7.27q-6.54,1.75-12.89,3A87.8,87.8,0,0,0,124.33,7.95,76,76,0,0,1,164.47,30.09ZM95,7.71A88.63,88.63,0,0,0,67.11,33.47c-6.06-1.19-10.7-2.41-13.63-3.27A76,76,0,0,1,95,7.71Z" transform="translate(-28.32 -0.42)"/><path d="M187.68,144.34h0l-156.37.25a3,3,0,0,0,0,6h0l156.37-.25a3,3,0,0,0,0-6Z" transform="translate(-28.32 -0.42)"/><path d="M31.32,82.85h0l156.37-.25a3,3,0,1,0,0-6l-156.37.25a3,3,0,0,0,0,6Z" transform="translate(-28.32 -0.42)"/><path d="M31.32,135.06a3,3,0,0,0,3-3V103.72l28.44,28.45a3.09,3.09,0,0,0,4.24,0l28.44-28.45v28.34a3,3,0,1,0,6,0V96.47a3,3,0,0,0-5.12-2.12L64.88,125.81,33.44,94.35a3,3,0,0,0-5.12,2.12v35.59A3,3,0,0,0,31.32,135.06Z" transform="translate(-28.32 -0.42)"/><path d="M188.83,93.7a3,3,0,0,0-3.27.65l-31.44,31.45L122.69,94.35a3,3,0,0,0-5.12,2.12v35.59a3,3,0,0,0,6,0V103.72L152,132.17a3.09,3.09,0,0,0,4.24,0l28.44-28.45v28.34a3,3,0,0,0,6,0V96.47A3,3,0,0,0,188.83,93.7Z" transform="translate(-28.32 -0.42)"/><path d="M283.34,121,258.5,49.46H258q1,15.94,1,29.88V121H246.31V35.34h19.75l23.79,68.14h.35l24.49-68.14h19.8V121H321V78.64q0-6.39.32-16.64t.56-12.42h-.47L295.7,121Z" transform="translate(-28.32 -0.42)"/><path d="M354.77,39a7.62,7.62,0,0,1,2-5.68,7.88,7.88,0,0,1,5.77-2,7.71,7.71,0,0,1,5.65,2,7.62,7.62,0,0,1,2,5.68,7.48,7.48,0,0,1-2,5.54,7.64,7.64,0,0,1-5.65,2,7.81,7.81,0,0,1-5.77-2A7.48,7.48,0,0,1,354.77,39Zm14.59,82H355.59V56.2h13.77Z" transform="translate(-28.32 -0.42)"/><path d="M415.18,122.17q-14.71,0-22.35-8.58t-7.65-24.64q0-16.35,8-25.14T416.29,55a43.33,43.33,0,0,1,18.46,3.81l-4.16,11.07q-8.73-3.4-14.41-3.4-16.82,0-16.82,22.32,0,10.9,4.19,16.38t12.28,5.48a35.22,35.22,0,0,0,17.4-4.57v12a27.18,27.18,0,0,1-7.88,3.11A47.35,47.35,0,0,1,415.18,122.17Z" transform="translate(-28.32 -0.42)"/><path d="M481.33,55a33.18,33.18,0,0,1,6.86.59l-1.35,12.83a26,26,0,0,0-6.09-.7q-8.26,0-13.39,5.39t-5.13,14V121H448.46V56.2h10.78l1.82,11.43h.7a25.67,25.67,0,0,1,8.41-9.2A20,20,0,0,1,481.33,55Z" transform="translate(-28.32 -0.42)"/><path d="M557.68,88.48q0,15.88-8.14,24.79t-22.68,8.91a31.07,31.07,0,0,1-16.05-4.1,27.07,27.07,0,0,1-10.72-11.78,40.11,40.11,0,0,1-3.75-17.81q0-15.76,8.09-24.61T527.21,55q14.06,0,22.27,9.05T557.68,88.48Zm-47.17,0q0,22.44,16.58,22.44,16.4,0,16.41-22.44,0-22.21-16.52-22.21-8.67,0-12.57,5.74T510.51,88.48Z" transform="translate(-28.32 -0.42)"/><path d="M612,121,587.15,49.46h-.47q1,15.94,1,29.88V121H575V35.34h19.75l23.79,68.14h.35l24.49-68.14h19.8V121H649.67V78.64q0-6.39.32-16.64t.56-12.42h-.47L624.36,121Z" transform="translate(-28.32 -0.42)"/><path d="M724.79,121,722,112h-.47q-4.69,5.92-9.43,8.06a29.84,29.84,0,0,1-12.19,2.14q-9.55,0-14.91-5.16t-5.36-14.59q0-10,7.44-15.12t22.68-5.57L721,81.39V77.93q0-6.21-2.9-9.29t-9-3.08A31.11,31.11,0,0,0,699.53,67a72.23,72.23,0,0,0-8.79,3.46l-4.45-9.84a48,48,0,0,1,11.54-4.19A53.14,53.14,0,0,1,709.67,55q12.36,0,18.66,5.39t6.3,16.93V121Zm-20.51-9.37q7.5,0,12-4.19t4.54-11.75V90.06l-8.32.35q-9.73.35-14.15,3.25T694,102.54a8.66,8.66,0,0,0,2.58,6.71Q699.12,111.63,704.28,111.63Z" transform="translate(-28.32 -0.42)"/><path d="M797.38,102.54q0,9.49-6.91,14.56t-19.8,5.07q-13,0-20.8-3.93V106.35q11.43,5.27,21.27,5.27,12.71,0,12.71-7.68a6.08,6.08,0,0,0-1.41-4.1,16.66,16.66,0,0,0-4.63-3.4,79.66,79.66,0,0,0-9-4q-11.19-4.34-15.15-8.67t-4-11.25a14.77,14.77,0,0,1,6.71-12.92q6.71-4.6,18.25-4.6a51.7,51.7,0,0,1,21.62,4.63L791.88,70q-10.49-4.34-17.64-4.34-10.9,0-10.9,6.21a6.25,6.25,0,0,0,2.84,5.16q2.84,2.11,12.39,5.8a56.67,56.67,0,0,1,11.66,5.68,17,17,0,0,1,5.39,5.95A17.21,17.21,0,0,1,797.38,102.54Z" transform="translate(-28.32 -0.42)"/><path d="M836.41,111a33.49,33.49,0,0,0,10.08-1.58v10.37a27.74,27.74,0,0,1-5.89,1.67,40.66,40.66,0,0,1-7.47.67q-19.57,0-19.57-20.62V66.63h-8.85V60.53l9.49-5,4.69-13.71h8.5V56.2h18.46V66.63H827.38v34.69q0,5,2.49,7.35A9.08,9.08,0,0,0,836.41,111Z" transform="translate(-28.32 -0.42)"/><path d="M887.73,122.17q-15.12,0-23.64-8.82t-8.53-24.29q0-15.88,7.91-25T885.21,55q12.83,0,20.27,7.79t7.44,21.45V91.7H869.75q.29,9.43,5.1,14.5t13.54,5.07a50,50,0,0,0,10.69-1.08,56.05,56.05,0,0,0,10.63-3.6v11.19a42.26,42.26,0,0,1-10.2,3.4A62.52,62.52,0,0,1,887.73,122.17Zm-2.52-56.72a13.84,13.84,0,0,0-10.52,4.16q-4,4.16-4.72,12.13h29.41q-.12-8-3.87-12.16T885.21,65.45Z" transform="translate(-28.32 -0.42)"/><path d="M961.45,55a33.18,33.18,0,0,1,6.86.59L967,68.44a26,26,0,0,0-6.09-.7q-8.26,0-13.39,5.39t-5.13,14V121H928.57V56.2h10.78l1.82,11.43h.7a25.67,25.67,0,0,1,8.41-9.2A20,20,0,0,1,961.45,55Z" transform="translate(-28.32 -0.42)"/><path d="M1023.85,102.54q0,9.49-6.91,14.56t-19.8,5.07q-13,0-20.8-3.93V106.35q11.43,5.27,21.27,5.27,12.71,0,12.71-7.68a6.08,6.08,0,0,0-1.41-4.1,16.66,16.66,0,0,0-4.63-3.4,79.66,79.66,0,0,0-9-4q-11.19-4.34-15.15-8.67t-4-11.25a14.77,14.77,0,0,1,6.71-12.92q6.71-4.6,18.25-4.6a51.7,51.7,0,0,1,21.62,4.63L1018.34,70q-10.49-4.34-17.64-4.34-10.9,0-10.9,6.21a6.25,6.25,0,0,0,2.84,5.16q2.84,2.11,12.39,5.8a56.67,56.67,0,0,1,11.66,5.68,17,17,0,0,1,5.39,5.95A17.21,17.21,0,0,1,1023.85,102.54Z" transform="translate(-28.32 -0.42)"/><path d="M1128.09,61.23q0,13.42-8.79,20.57t-25,7.15h-8.91V121h-14V35.34H1096q16.05,0,24.05,6.56T1128.09,61.23Zm-42.71,15.94h7.44q10.78,0,15.82-3.75t5-11.72q0-7.38-4.51-11t-14.06-3.63h-9.73Z" transform="translate(-28.32 -0.42)"/><path d="M1176.6,55a33.18,33.18,0,0,1,6.86.59l-1.35,12.83a26,26,0,0,0-6.09-.7q-8.26,0-13.39,5.39t-5.13,14V121h-13.77V56.2h10.78l1.82,11.43h.7a25.67,25.67,0,0,1,8.41-9.2A20,20,0,0,1,1176.6,55Z" transform="translate(-28.32 -0.42)"/><path d="M1252.95,88.48q0,15.88-8.14,24.79t-22.68,8.91a31.07,31.07,0,0,1-16.05-4.1,27.07,27.07,0,0,1-10.72-11.78,40.11,40.11,0,0,1-3.75-17.81q0-15.76,8.09-24.61T1222.48,55q14.06,0,22.27,9.05T1252.95,88.48Zm-47.17,0q0,22.44,16.58,22.44,16.4,0,16.41-22.44,0-22.21-16.52-22.21-8.67,0-12.57,5.74T1205.78,88.48Z" transform="translate(-28.32 -0.42)"/><path d="M1323.5,56.2v7.56l-11.07,2.05a17.91,17.91,0,0,1,2.52,5,19.88,19.88,0,0,1,1,6.33q0,10-6.91,15.76t-19,5.74a30.86,30.86,0,0,1-5.62-.47q-4.45,2.75-4.45,6.45A3.58,3.58,0,0,0,1282,108q2.08,1.11,7.65,1.11h11.31q10.72,0,16.29,4.57t5.57,13.18a19.17,19.17,0,0,1-9.08,17q-9.08,6-26.25,6-13.24,0-20.21-4.69a15.15,15.15,0,0,1-7-13.36,14.22,14.22,0,0,1,3.78-10,20.25,20.25,0,0,1,10.58-5.65,10.34,10.34,0,0,1-4.54-3.78,9.53,9.53,0,0,1-1.79-5.48,9.43,9.43,0,0,1,2.05-6.15,23.66,23.66,0,0,1,6.09-5,18,18,0,0,1-8.17-7.06,20.77,20.77,0,0,1-3.13-11.46q0-10.55,6.65-16.35t19-5.8a46.24,46.24,0,0,1,5.77.38,36.55,36.55,0,0,1,4.54.79Zm-50.92,74.88a7.58,7.58,0,0,0,4,6.86q4,2.4,11.28,2.4,11.25,0,16.76-3.22t5.51-8.55q0-4.22-3-6t-11.22-1.79h-10.43q-5.92,0-9.4,2.78A9.13,9.13,0,0,0,1272.58,131.08Zm5.92-53.91q0,6.09,3.13,9.38t9,3.28q12,0,12-12.77,0-6.33-3-9.76t-9-3.43q-6,0-9.05,3.4T1278.5,77.17Z" transform="translate(-28.32 -0.42)"/><path d="M1368.38,55a33.18,33.18,0,0,1,6.86.59l-1.35,12.83a26,26,0,0,0-6.09-.7q-8.26,0-13.39,5.39t-5.13,14V121h-13.77V56.2h10.78l1.82,11.43h.7a25.67,25.67,0,0,1,8.41-9.2A20,20,0,0,1,1368.38,55Z" transform="translate(-28.32 -0.42)"/><path d="M1427.79,121l-2.75-9h-.47q-4.69,5.92-9.43,8.06a29.84,29.84,0,0,1-12.19,2.14q-9.55,0-14.91-5.16t-5.36-14.59q0-10,7.44-15.12t22.68-5.57l11.19-.35V77.93q0-6.21-2.9-9.29t-9-3.08a31.11,31.11,0,0,0-9.55,1.46,72.23,72.23,0,0,0-8.79,3.46l-4.45-9.84a48,48,0,0,1,11.54-4.19A53.14,53.14,0,0,1,1412.68,55q12.36,0,18.66,5.39t6.3,16.93V121Zm-20.51-9.37q7.5,0,12-4.19t4.54-11.75V90.06l-8.32.35q-9.73.35-14.15,3.25t-4.42,8.88a8.66,8.66,0,0,0,2.58,6.71Q1402.13,111.63,1407.29,111.63Z" transform="translate(-28.32 -0.42)"/><path d="M1511.46,121h-13.83V81q0-7.44-2.81-11.1T1486,66.27q-8,0-11.69,5.19t-3.72,17.26V121h-13.77V56.2h10.78l1.93,8.5h.7a18,18,0,0,1,7.82-7.15A25.23,25.23,0,0,1,1489.38,55q14.94,0,19.8,10.2h.94a19.75,19.75,0,0,1,8.09-7.5,25.67,25.67,0,0,1,12-2.7q11.6,0,16.9,5.86t5.3,17.87V121h-13.77V81q0-7.44-2.84-11.1t-8.82-3.66q-8,0-11.75,5t-3.72,15.38Z" transform="translate(-28.32 -0.42)"/></svg>
