<svg xmlns="http://www.w3.org/2000/svg" viewBox="0 0 133.28 119.8">
    <path class="cls-1" d="M27.11,43.21A129,129,0,0,0,40,46.42,59.6,59.6,0,0,0,32.75,66l3.94,0.71A55.79,55.79,0,0,1,44.14,47.2,184,184,0,0,0,74.8,49.87V66.36h4V49.85a185.1,185.1,0,0,0,29.8-2.93,55.69,55.69,0,0,1,7.5,19.59l3.94-.71a59.37,59.37,0,0,0-7.28-19.68q6-1.24,12.27-3a61.23,61.23,0,0,1,11.55,23.39l3.88-1a66.47,66.47,0,0,0-128.74.08l3.88,1A61.24,61.24,0,0,1,27.11,43.21Zm19.46,0.35C56.08,30.42,69.23,23.49,74.8,21V45.89A180.18,180.18,0,0,1,46.57,43.56Zm32.23,2.3V21.35c5.93,2.72,18.28,9.49,27.35,22A181.27,181.27,0,0,1,78.8,45.86Zm43.36-6.07q-5.93,1.59-11.67,2.71a73.59,73.59,0,0,0-24.61-22A62.34,62.34,0,0,1,122.15,39.79ZM67.24,20.36c-7.22,4.05-17.4,11.23-25,22.44-5.51-1.05-9.7-2.15-12.28-2.9A62.33,62.33,0,0,1,67.24,20.36Z" transform="translate(-9.84 -15.73)"/>
    <rect class="cls-1" x="9.85" y="131.42" width="133.27" height="4" transform="translate(-10.04 -15.62) rotate(-0.08)"/>
    <rect class="cls-1" x="9.85" y="75.42" width="133.27" height="4" transform="translate(-9.96 -15.62) rotate(-0.08)"/>
    <polygon class="cls-1" points="59.7 104.96 59.7 70.71 29.96 100.47 0.21 70.71 0.21 104.96 4.21 104.96 4.21 80.37 29.96 106.13 55.7 80.37 55.7 104.96 59.7 104.96"/>
    <polygon class="cls-1" points="131.2 104.96 131.2 70.71 101.46 100.47 71.71 70.71 71.71 104.96 75.71 104.96 75.71 80.37 101.46 106.13 127.2 80.37 127.2 104.96 131.2 104.96"/>
</svg>
