<svg xmlns="http://www.w3.org/2000/svg" viewBox="0 0 2116.96 151"><title>Professional Certificate Logo</title><path d="M219,42A42,42,0,0,0,153.33,7.33,3,3,0,0,0,152,7H3a3,3,0,0,0-3,3V125a3,3,0,0,0,3,3H146v20a3,3,0,0,0,5.12,2.12l25.41-25.41,12,11.69c3.55,3.44,7.11,6.88,9.79,9.46C203.71,151,203.71,151,205,151a3,3,0,0,0,3-3V71a3,3,0,0,0-.07-.62A41.84,41.84,0,0,0,219,42Zm-6,0A36,36,0,1,1,177,6,36,36,0,0,1,213,42ZM6,122V13H146.66a41.9,41.9,0,0,0-.6,57.38A3,3,0,0,0,146,71v51Zm172.59-3.65a3,3,0,0,0-4.21,0L152,140.76v-65a41.91,41.91,0,0,0,50,0V141C196.07,135.33,186,125.54,178.59,118.35Z"/><path d="M170.88,56.12a3,3,0,0,0,4.24,0l21-21a3,3,0,0,0-4.24-4.24L173,49.76,161.12,37.88a3,3,0,1,0-4.24,4.24Z"/><path d="M97.31,37.79H57.55a3.46,3.46,0,1,0,0,6.92H89L45.36,88.3a3.46,3.46,0,0,0,4.89,4.89L93.85,49.6V81a3.46,3.46,0,0,0,6.92,0V41.25A3.46,3.46,0,0,0,97.31,37.79Z"/><path d="M316,56.23q0,13.42-8.79,20.57t-25,7.15h-8.91V116h-14V30.34H284Q300,30.34,308,36.9T316,56.23ZM273.31,72.17h7.44q10.78,0,15.82-3.75t5-11.72q0-7.38-4.51-11T283,42.05h-9.73Z"/><path d="M364.54,50a33.18,33.18,0,0,1,6.86.59l-1.35,12.83a26,26,0,0,0-6.09-.7q-8.26,0-13.39,5.39t-5.13,14V116H331.67V51.2h10.78l1.82,11.43h.7a25.67,25.67,0,0,1,8.41-9.2A20,20,0,0,1,364.54,50Z"/><path d="M440.89,83.48q0,15.88-8.14,24.79t-22.68,8.91a31.07,31.07,0,0,1-16.05-4.1,27.07,27.07,0,0,1-10.72-11.78,40.11,40.11,0,0,1-3.75-17.81q0-15.76,8.09-24.61T410.42,50q14.06,0,22.27,9.05T440.89,83.48Zm-47.17,0q0,22.44,16.58,22.44,16.4,0,16.41-22.44,0-22.21-16.52-22.21-8.67,0-12.57,5.74T393.72,83.48Z"/><path d="M489.23,61.63H473.41V116H459.58V61.63H448.92V55.18L459.58,51V46.74q0-11.48,5.39-17t16.46-5.54a44,44,0,0,1,14.3,2.4L492.1,37a31.76,31.76,0,0,0-9.73-1.64q-4.69,0-6.83,2.9T473.41,47V51.2h15.82Z"/><path d="M528.55,117.17q-15.12,0-23.64-8.82t-8.53-24.29q0-15.88,7.91-25T526,50q12.83,0,20.27,7.79t7.44,21.45V86.7H510.56q.29,9.43,5.1,14.5t13.54,5.07a50,50,0,0,0,10.69-1.08,56.05,56.05,0,0,0,10.63-3.6v11.19a42.31,42.31,0,0,1-10.2,3.4A62.52,62.52,0,0,1,528.55,117.17ZM526,60.45a13.84,13.84,0,0,0-10.52,4.16q-4,4.16-4.72,12.13h29.41q-.12-8-3.87-12.16T526,60.45Z"/><path d="M612.92,97.54q0,9.49-6.91,14.56t-19.8,5.07q-13,0-20.8-3.93V101.35q11.43,5.27,21.27,5.27,12.71,0,12.71-7.68a6.08,6.08,0,0,0-1.41-4.1,16.66,16.66,0,0,0-4.63-3.4,79.66,79.66,0,0,0-9-4q-11.19-4.34-15.15-8.67t-4-11.25A14.77,14.77,0,0,1,572,54.62Q578.7,50,590.25,50a51.7,51.7,0,0,1,21.62,4.63L607.41,65q-10.49-4.34-17.64-4.34-10.9,0-10.9,6.21a6.25,6.25,0,0,0,2.84,5.16q2.84,2.11,12.39,5.8a56.67,56.67,0,0,1,11.66,5.68,17,17,0,0,1,5.39,5.95A17.21,17.21,0,0,1,612.92,97.54Z"/><path d="M671.34,97.54q0,9.49-6.91,14.56t-19.8,5.07q-13,0-20.8-3.93V101.35q11.43,5.27,21.27,5.27,12.71,0,12.71-7.68a6.08,6.08,0,0,0-1.41-4.1,16.66,16.66,0,0,0-4.63-3.4,79.66,79.66,0,0,0-9-4q-11.19-4.34-15.15-8.67t-4-11.25a14.77,14.77,0,0,1,6.71-12.92q6.71-4.6,18.25-4.6a51.7,51.7,0,0,1,21.62,4.63L665.83,65q-10.49-4.34-17.64-4.34-10.9,0-10.9,6.21a6.25,6.25,0,0,0,2.84,5.16q2.84,2.11,12.39,5.8a56.67,56.67,0,0,1,11.66,5.68,17,17,0,0,1,5.39,5.95A17.21,17.21,0,0,1,671.34,97.54Z"/><path d="M685.4,34a7.62,7.62,0,0,1,2-5.68,7.88,7.88,0,0,1,5.77-2,7.71,7.71,0,0,1,5.65,2,7.62,7.62,0,0,1,2,5.68,7.48,7.48,0,0,1-2,5.54,7.64,7.64,0,0,1-5.65,2,7.81,7.81,0,0,1-5.77-2A7.48,7.48,0,0,1,685.4,34ZM700,116H686.22V51.2H700Z"/><path d="M777.16,83.48q0,15.88-8.14,24.79t-22.68,8.91a31.07,31.07,0,0,1-16.05-4.1,27.07,27.07,0,0,1-10.72-11.78,40.11,40.11,0,0,1-3.75-17.81q0-15.76,8.09-24.61T746.69,50q14.06,0,22.27,9.05T777.16,83.48Zm-47.17,0q0,22.44,16.58,22.44,16.4,0,16.41-22.44,0-22.21-16.52-22.21-8.67,0-12.57,5.74T730,83.48Z"/><path d="M850,116H836.16V76.16q0-7.5-3-11.19t-9.58-3.69q-8.73,0-12.77,5.16t-4,17.29V116H793V51.2h10.78l1.93,8.5h.7a19.17,19.17,0,0,1,8.32-7.15,27.89,27.89,0,0,1,12-2.52Q850,50,850,73.75Z"/><path d="M909.7,116l-2.75-9h-.47q-4.69,5.92-9.43,8.06a29.84,29.84,0,0,1-12.19,2.14q-9.55,0-14.91-5.16t-5.36-14.59q0-10,7.44-15.12t22.68-5.57l11.19-.35V72.93q0-6.21-2.9-9.29t-9-3.08A31.11,31.11,0,0,0,884.45,62a72.23,72.23,0,0,0-8.79,3.46l-4.45-9.84a48,48,0,0,1,11.54-4.19A53.14,53.14,0,0,1,894.58,50q12.36,0,18.66,5.39t6.3,16.93V116Zm-20.51-9.37q7.5,0,12-4.19t4.54-11.75V85.06l-8.32.35q-9.73.35-14.15,3.25t-4.42,8.88a8.66,8.66,0,0,0,2.58,6.71Q884,106.63,889.19,106.63Z"/><path d="M952.53,116H938.76V24.83h13.77Z"/><path d="M1041.3,41.12q-12.07,0-19,8.55t-6.91,23.61q0,15.76,6.65,23.85t19.25,8.09a50.58,50.58,0,0,0,10.55-1.08q5.1-1.08,10.61-2.78v12a64.3,64.3,0,0,1-22.85,3.81q-18.81,0-28.89-11.4t-10.08-32.61q0-13.36,4.89-23.38a34.91,34.91,0,0,1,14.15-15.35q9.26-5.33,21.74-5.33a54,54,0,0,1,24.26,5.51l-5,11.66a75.46,75.46,0,0,0-9.17-3.6A33.06,33.06,0,0,0,1041.3,41.12Z"/><path d="M1107.75,117.17q-15.12,0-23.64-8.82t-8.53-24.29q0-15.88,7.91-25T1105.23,50q12.83,0,20.27,7.79t7.44,21.45V86.7h-43.18q.29,9.43,5.1,14.5t13.54,5.07a50,50,0,0,0,10.69-1.08,56.05,56.05,0,0,0,10.63-3.6v11.19a42.31,42.31,0,0,1-10.2,3.4A62.52,62.52,0,0,1,1107.75,117.17Zm-2.52-56.72a13.84,13.84,0,0,0-10.52,4.16q-4,4.16-4.72,12.13h29.41q-.12-8-3.87-12.16T1105.23,60.45Z"/><path d="M1181.46,50a33.18,33.18,0,0,1,6.86.59L1187,63.44a26,26,0,0,0-6.09-.7q-8.26,0-13.39,5.39t-5.13,14V116h-13.77V51.2h10.78l1.82,11.43h.7a25.67,25.67,0,0,1,8.41-9.2A20,20,0,0,1,1181.46,50Z"/><path d="M1224.46,106a33.49,33.49,0,0,0,10.08-1.58v10.37a27.8,27.8,0,0,1-5.89,1.67,40.66,40.66,0,0,1-7.47.67q-19.57,0-19.57-20.62V61.63h-8.85V55.53l9.49-5,4.69-13.71h8.5V51.2h18.46V61.63h-18.46V96.31q0,5,2.49,7.35A9.08,9.08,0,0,0,1224.46,106Z"/><path d="M1246.67,34a7.62,7.62,0,0,1,2-5.68,7.88,7.88,0,0,1,5.77-2,7.71,7.71,0,0,1,5.65,2,7.62,7.62,0,0,1,2,5.68,7.48,7.48,0,0,1-2,5.54,7.64,7.64,0,0,1-5.65,2,7.81,7.81,0,0,1-5.77-2A7.48,7.48,0,0,1,1246.67,34Zm14.59,82h-13.77V51.2h13.77Z"/><path d="M1313.47,61.63h-15.82V116h-13.83V61.63h-10.66V55.18L1283.82,51V46.74q0-11.48,5.39-17t16.46-5.54a44,44,0,0,1,14.3,2.4L1316.34,37a31.76,31.76,0,0,0-9.73-1.64q-4.69,0-6.83,2.9t-2.14,8.7V51.2h15.82Zm10.2-27.6a7.62,7.62,0,0,1,2-5.68,7.88,7.88,0,0,1,5.77-2,7.71,7.71,0,0,1,5.65,2,7.62,7.62,0,0,1,2,5.68,7.48,7.48,0,0,1-2,5.54,7.64,7.64,0,0,1-5.65,2,7.81,7.81,0,0,1-5.77-2A7.48,7.48,0,0,1,1323.66,34Zm14.59,82h-13.77V51.2h13.77Z"/><path d="M1384.13,117.17q-14.71,0-22.35-8.58t-7.65-24.64q0-16.35,8-25.14T1385.25,50a43.33,43.33,0,0,1,18.46,3.81l-4.16,11.07q-8.73-3.4-14.41-3.4-16.82,0-16.82,22.32,0,10.9,4.19,16.38t12.28,5.48a35.22,35.22,0,0,0,17.4-4.57v12a27.2,27.2,0,0,1-7.88,3.11A47.35,47.35,0,0,1,1384.13,117.17Z"/><path d="M1458,116l-2.75-9h-.47q-4.69,5.92-9.43,8.06a29.84,29.84,0,0,1-12.19,2.14q-9.55,0-14.91-5.16t-5.36-14.59q0-10,7.44-15.12T1443,76.74l11.19-.35V72.93q0-6.21-2.9-9.29t-9-3.08a31.11,31.11,0,0,0-9.55,1.46,72.23,72.23,0,0,0-8.79,3.46l-4.45-9.84A48,48,0,0,1,1431,51.46,53.14,53.14,0,0,1,1442.84,50q12.36,0,18.66,5.39t6.3,16.93V116Zm-20.51-9.37q7.5,0,12-4.19T1454,90.69V85.06l-8.32.35q-9.73.35-14.15,3.25t-4.42,8.88a8.66,8.66,0,0,0,2.58,6.71Q1432.3,106.63,1437.45,106.63Z"/><path d="M1511.16,106a33.49,33.49,0,0,0,10.08-1.58v10.37a27.8,27.8,0,0,1-5.89,1.67,40.66,40.66,0,0,1-7.47.67q-19.57,0-19.57-20.62V61.63h-8.85V55.53l9.49-5,4.69-13.71h8.5V51.2h18.46V61.63h-18.46V96.31q0,5,2.49,7.35A9.08,9.08,0,0,0,1511.16,106Z"/><path d="M1562.49,117.17q-15.12,0-23.64-8.82t-8.53-24.29q0-15.88,7.91-25T1560,50q12.83,0,20.27,7.79t7.44,21.45V86.7H1544.5q.29,9.43,5.1,14.5t13.54,5.07a50,50,0,0,0,10.69-1.08,56.05,56.05,0,0,0,10.63-3.6v11.19a42.31,42.31,0,0,1-10.2,3.4A62.52,62.52,0,0,1,1562.49,117.17ZM1560,60.45a13.84,13.84,0,0,0-10.52,4.16q-4,4.16-4.72,12.13h29.41q-.12-8-3.87-12.16T1560,60.45Z"/><path d="M1692.69,56.23q0,13.42-8.79,20.57t-25,7.15H1650V116h-14V30.34h24.67q16.05,0,24.05,6.56T1692.69,56.23ZM1650,72.17h7.44q10.78,0,15.82-3.75t5-11.72q0-7.38-4.51-11t-14.06-3.63H1650Z"/><path d="M1741.2,50a33.18,33.18,0,0,1,6.86.59l-1.35,12.83a26,26,0,0,0-6.09-.7q-8.26,0-13.39,5.39t-5.13,14V116h-13.77V51.2h10.78l1.82,11.43h.7a25.67,25.67,0,0,1,8.41-9.2A20,20,0,0,1,1741.2,50Z"/><path d="M1817.55,83.48q0,15.88-8.14,24.79t-22.68,8.91a31.07,31.07,0,0,1-16.05-4.1A27.07,27.07,0,0,1,1760,101.29a40.11,40.11,0,0,1-3.75-17.81q0-15.76,8.09-24.61T1787.08,50q14.06,0,22.27,9.05T1817.55,83.48Zm-47.17,0q0,22.44,16.58,22.44,16.4,0,16.41-22.44,0-22.21-16.52-22.21-8.67,0-12.57,5.74T1770.38,83.48Z"/><path d="M1888.1,51.2v7.56L1877,60.8a17.91,17.91,0,0,1,2.52,5,19.88,19.88,0,0,1,1,6.33q0,10-6.91,15.76t-19,5.74a30.86,30.86,0,0,1-5.62-.47q-4.45,2.75-4.45,6.45a3.58,3.58,0,0,0,2.08,3.34q2.08,1.11,7.65,1.11h11.31q10.72,0,16.29,4.57t5.57,13.18a19.17,19.17,0,0,1-9.08,17q-9.08,6-26.25,6-13.24,0-20.21-4.69a15.15,15.15,0,0,1-7-13.36,14.22,14.22,0,0,1,3.78-10,20.25,20.25,0,0,1,10.58-5.65,10.34,10.34,0,0,1-4.54-3.78,9.53,9.53,0,0,1-1.79-5.48,9.43,9.43,0,0,1,2.05-6.15,23.66,23.66,0,0,1,6.09-5,18,18,0,0,1-8.17-7.06,20.77,20.77,0,0,1-3.13-11.46q0-10.55,6.65-16.35t19-5.8a46.24,46.24,0,0,1,5.77.38,36.55,36.55,0,0,1,4.54.79Zm-50.92,74.88a7.58,7.58,0,0,0,4,6.86q4,2.4,11.28,2.4,11.25,0,16.76-3.22t5.51-8.55q0-4.22-3-6t-11.22-1.79h-10.43q-5.92,0-9.4,2.78A9.13,9.13,0,0,0,1837.18,126.08Zm5.92-53.91q0,6.09,3.13,9.38t9,3.28q12,0,12-12.77,0-6.33-3-9.76t-9-3.43q-6,0-9.05,3.4T1843.1,72.17Z"/><path d="M1933,50a33.18,33.18,0,0,1,6.86.59l-1.35,12.83a26,26,0,0,0-6.09-.7q-8.26,0-13.39,5.39t-5.13,14V116h-13.77V51.2h10.78l1.82,11.43h.7a25.67,25.67,0,0,1,8.41-9.2A20,20,0,0,1,1933,50Z"/><path d="M1992.39,116l-2.75-9h-.47q-4.69,5.92-9.43,8.06a29.84,29.84,0,0,1-12.19,2.14q-9.55,0-14.91-5.16t-5.36-14.59q0-10,7.44-15.12t22.68-5.57l11.19-.35V72.93q0-6.21-2.9-9.29t-9-3.08a31.11,31.11,0,0,0-9.55,1.46,72.23,72.23,0,0,0-8.79,3.46l-4.45-9.84a48,48,0,0,1,11.54-4.19A53.14,53.14,0,0,1,1977.28,50q12.36,0,18.66,5.39t6.3,16.93V116Zm-20.51-9.37q7.5,0,12-4.19t4.54-11.75V85.06l-8.32.35q-9.73.35-14.15,3.25t-4.42,8.88a8.66,8.66,0,0,0,2.58,6.71Q1966.73,106.63,1971.89,106.63Z"/><path d="M2076.07,116h-13.83V76q0-7.44-2.81-11.1t-8.79-3.66q-8,0-11.69,5.19t-3.72,17.26V116h-13.77V51.2h10.78l1.93,8.5h.7a18,18,0,0,1,7.82-7.15A25.23,25.23,0,0,1,2054,50q14.94,0,19.8,10.2h.94a19.75,19.75,0,0,1,8.09-7.5,25.67,25.67,0,0,1,12-2.7q11.6,0,16.9,5.86t5.3,17.87V116H2103.2V76q0-7.44-2.84-11.1t-8.82-3.66q-8,0-11.75,5t-3.72,15.38Z"/></svg>
