<svg xmlns="http://www.w3.org/2000/svg" viewBox="0 0 1198.33 151"><title>XSeries Program Logo</title><path d="M219,42A42,42,0,0,0,153.33,7.33,3,3,0,0,0,152,7H3a3,3,0,0,0-3,3V125a3,3,0,0,0,3,3H146v20a3,3,0,0,0,5.12,2.12l25.41-25.41,12,11.69c3.55,3.44,7.11,6.88,9.79,9.46C203.71,151,203.71,151,205,151a3,3,0,0,0,3-3V71a3,3,0,0,0-.07-.62A41.84,41.84,0,0,0,219,42Zm-6,0A36,36,0,1,1,177,6,36,36,0,0,1,213,42ZM6,122V13H146.66a41.9,41.9,0,0,0-.6,57.38A3,3,0,0,0,146,71v51Zm172.59-3.65a3,3,0,0,0-4.21,0L152,140.76v-65a41.91,41.91,0,0,0,50,0V141C196.07,135.33,186,125.54,178.59,118.35Z"/><path d="M170.88,56.12a3,3,0,0,0,4.24,0l21-21a3,3,0,0,0-4.24-4.24L173,49.76,161.12,37.88a3,3,0,1,0-4.24,4.24Z"/><path d="M109,99h-4.62l-27-31.5L105.24,35h2.91a3,3,0,1,0,0-6H92.71a3,3,0,0,0,0,6h4.62L73.43,62.89,49.52,35h3.76a3,3,0,0,0,0-6H37.86a3,3,0,0,0,0,6h3.76L69.48,67.5,42.48,99H37a3,3,0,0,0,0,6H54.14a3,3,0,1,0,0-6H50.38l23-26.89L96.48,99H91.86a3,3,0,1,0,0,6H109a3,3,0,0,0,0-6Z"/><path d="M326.75,116.67H310.63l-21.45-35-21.62,35h-15L281,72.25,254.38,31H270l19.8,32.4L309.58,31H324.7L297.92,72.49Z"/><path d="M387.68,93.41q0,11.43-8.26,17.93t-22.79,6.5q-14.53,0-23.79-4.51V100.08a64.64,64.64,0,0,0,12.45,4.34A52.79,52.79,0,0,0,357.57,106q8.32,0,12.28-3.16a10.32,10.32,0,0,0,4-8.5,10.65,10.65,0,0,0-3.63-8.14q-3.63-3.34-15-7.91-11.72-4.75-16.52-10.84a22.93,22.93,0,0,1-4.8-14.65q0-10.72,7.62-16.87t20.45-6.15a60.09,60.09,0,0,1,24.49,5.39l-4.45,11.43q-11.43-4.8-20.39-4.8-6.8,0-10.31,3a9.72,9.72,0,0,0-3.52,7.82,11,11,0,0,0,1.41,5.71,14.36,14.36,0,0,0,4.63,4.48,78.15,78.15,0,0,0,11.6,5.57q9.43,3.93,13.83,7.32a21.56,21.56,0,0,1,6.45,7.68A23.09,23.09,0,0,1,387.68,93.41Z"/><path d="M431.1,117.84q-15.12,0-23.64-8.82t-8.53-24.29q0-15.88,7.91-25t21.74-9.08q12.83,0,20.27,7.79t7.44,21.45v7.44H413.11q.29,9.43,5.1,14.5t13.54,5.07a50,50,0,0,0,10.69-1.08,56.05,56.05,0,0,0,10.63-3.6v11.19a42.31,42.31,0,0,1-10.2,3.4A62.6,62.6,0,0,1,431.1,117.84Zm-2.52-56.72a13.84,13.84,0,0,0-10.52,4.16q-4,4.16-4.72,12.13h29.41q-.12-8-3.87-12.16T428.58,61.12Z"/><path d="M504.81,50.69a33.18,33.18,0,0,1,6.86.59l-1.35,12.83a26,26,0,0,0-6.09-.7q-8.26,0-13.39,5.39t-5.13,14v33.87H471.94V51.86h10.78l1.82,11.43h.7a25.67,25.67,0,0,1,8.41-9.2A20,20,0,0,1,504.81,50.69Z"/><path d="M522.86,34.69a7.62,7.62,0,0,1,2-5.68,7.88,7.88,0,0,1,5.77-2,7.71,7.71,0,0,1,5.65,2,7.62,7.62,0,0,1,2,5.68,7.48,7.48,0,0,1-2,5.54,7.64,7.64,0,0,1-5.65,2,7.81,7.81,0,0,1-5.77-2A7.48,7.48,0,0,1,522.86,34.69Zm14.59,82H523.68V51.86h13.77Z"/><path d="M585.44,117.84q-15.12,0-23.64-8.82t-8.53-24.29q0-15.88,7.91-25t21.74-9.08q12.83,0,20.27,7.79t7.44,21.45v7.44H567.45q.29,9.43,5.1,14.5t13.54,5.07a50,50,0,0,0,10.69-1.08,56.05,56.05,0,0,0,10.63-3.6v11.19a42.31,42.31,0,0,1-10.2,3.4A62.6,62.6,0,0,1,585.44,117.84Zm-2.52-56.72a13.84,13.84,0,0,0-10.52,4.16q-4,4.16-4.72,12.13H597.1q-.12-8-3.87-12.16T582.92,61.12Z"/><path d="M669.81,98.21q0,9.49-6.91,14.56t-19.8,5.07q-13,0-20.8-3.93V102q11.43,5.27,21.27,5.27,12.71,0,12.71-7.68a6.08,6.08,0,0,0-1.41-4.1,16.66,16.66,0,0,0-4.63-3.4,79.66,79.66,0,0,0-9-4q-11.19-4.34-15.15-8.67t-4-11.25a14.77,14.77,0,0,1,6.71-12.92q6.71-4.6,18.25-4.6a51.7,51.7,0,0,1,21.62,4.63l-4.45,10.37q-10.49-4.34-17.64-4.34-10.9,0-10.9,6.21a6.25,6.25,0,0,0,2.84,5.16q2.84,2.11,12.39,5.8a56.67,56.67,0,0,1,11.66,5.68,17,17,0,0,1,5.39,5.95A17.21,17.21,0,0,1,669.81,98.21Z"/><path d="M774.05,56.9q0,13.42-8.79,20.57t-25,7.15h-8.91v32.05h-14V31H742q16.05,0,24.05,6.56T774.05,56.9ZM731.34,72.84h7.44q10.78,0,15.82-3.75t5-11.72q0-7.38-4.51-11t-14.06-3.63h-9.73Z"/><path d="M822.57,50.69a33.18,33.18,0,0,1,6.86.59l-1.35,12.83a26,26,0,0,0-6.09-.7q-8.26,0-13.39,5.39t-5.13,14v33.87H789.7V51.86h10.78l1.82,11.43h.7a25.67,25.67,0,0,1,8.41-9.2A20,20,0,0,1,822.57,50.69Z"/><path d="M898.92,84.15q0,15.88-8.14,24.79t-22.68,8.91a31.07,31.07,0,0,1-16.05-4.1A27.07,27.07,0,0,1,841.32,102a40.11,40.11,0,0,1-3.75-17.81q0-15.76,8.09-24.61t22.79-8.85q14.06,0,22.27,9.05T898.92,84.15Zm-47.17,0q0,22.44,16.58,22.44,16.4,0,16.41-22.44,0-22.21-16.52-22.21-8.67,0-12.57,5.74T851.75,84.15Z"/><path d="M969.46,51.86v7.56l-11.07,2.05a17.91,17.91,0,0,1,2.52,5,19.88,19.88,0,0,1,1,6.33q0,10-6.91,15.76t-19,5.74a30.86,30.86,0,0,1-5.62-.47q-4.45,2.75-4.45,6.45a3.58,3.58,0,0,0,2.08,3.34q2.08,1.11,7.65,1.11H946.9q10.72,0,16.29,4.57t5.57,13.18a19.17,19.17,0,0,1-9.08,17q-9.08,6-26.25,6-13.24,0-20.21-4.69a15.15,15.15,0,0,1-7-13.36,14.21,14.21,0,0,1,3.78-10,20.25,20.25,0,0,1,10.58-5.65,10.34,10.34,0,0,1-4.54-3.78,9.53,9.53,0,0,1-1.79-5.48,9.43,9.43,0,0,1,2.05-6.15,23.66,23.66,0,0,1,6.09-5,18,18,0,0,1-8.17-7.06,20.77,20.77,0,0,1-3.13-11.46q0-10.55,6.65-16.35t19-5.8a46.24,46.24,0,0,1,5.77.38,36.55,36.55,0,0,1,4.54.79Zm-50.92,74.88a7.57,7.57,0,0,0,4,6.86q4,2.4,11.28,2.4,11.25,0,16.76-3.22t5.51-8.55q0-4.22-3-6t-11.22-1.79H931.43q-5.92,0-9.4,2.78A9.12,9.12,0,0,0,918.54,126.74Zm5.92-53.91q0,6.09,3.13,9.38t9,3.28q12,0,12-12.77,0-6.33-3-9.76t-9-3.43q-6,0-9.05,3.4T924.46,72.84Z"/><path d="M1014.34,50.69a33.18,33.18,0,0,1,6.86.59l-1.35,12.83a26,26,0,0,0-6.09-.7q-8.26,0-13.39,5.39t-5.13,14v33.87H981.47V51.86h10.78l1.82,11.43h.7a25.67,25.67,0,0,1,8.41-9.2A20,20,0,0,1,1014.34,50.69Z"/><path d="M1073.76,116.67l-2.75-9h-.47q-4.69,5.92-9.43,8.06a29.85,29.85,0,0,1-12.19,2.14q-9.55,0-14.91-5.16t-5.36-14.59q0-10,7.44-15.12t22.68-5.57l11.19-.35V73.6q0-6.21-2.9-9.29t-9-3.08a31.11,31.11,0,0,0-9.55,1.46,72.23,72.23,0,0,0-8.79,3.46l-4.45-9.84a48,48,0,0,1,11.54-4.19,53.14,53.14,0,0,1,11.84-1.44q12.36,0,18.66,5.39T1083.6,73v43.65Zm-20.51-9.37q7.5,0,12-4.19t4.54-11.75V85.73l-8.32.35q-9.73.35-14.15,3.25t-4.42,8.88a8.66,8.66,0,0,0,2.58,6.71Q1048.09,107.29,1053.25,107.29Z"/><path d="M1157.43,116.67H1143.6v-40q0-7.44-2.81-11.1T1132,61.94q-8,0-11.69,5.19t-3.72,17.26v32.29h-13.77V51.86h10.78l1.93,8.5h.7a18,18,0,0,1,7.82-7.15,25.23,25.23,0,0,1,11.28-2.52q14.94,0,19.8,10.2h.94a19.75,19.75,0,0,1,8.09-7.5,25.67,25.67,0,0,1,12-2.7q11.6,0,16.9,5.86t5.3,17.87v42.25h-13.77v-40q0-7.44-2.84-11.1t-8.82-3.66q-8,0-11.75,5t-3.72,15.38Z"/></svg>
