<svg xmlns="http://www.w3.org/2000/svg" viewBox="0 0 36.06 36.98">
    <polygon class="cls-1" points="4.96 16.47 3.06 15.45 1.15 16.44 1.53 14.32 0 12.81 2.13 12.52 3.1 10.59 4.04 12.53 6.16 12.86 4.61 14.34 4.96 16.47"/>
    <polygon class="cls-1" points="11.89 36.98 6.99 36.98 6.99 19.89 11.89 16.34 11.89 36.98"/>
    <polygon class="cls-1" points="10.34 6.69 10.69 8.81 8.79 7.79 6.88 8.78 7.26 6.66 5.73 5.15 7.86 4.86 8.83 2.94 9.77 4.87 11.89 5.2 10.34 6.69"/>
    <rect class="cls-1" x="15.59" y="12.95" width="4.89" height="24.02"/>
    <polygon class="cls-1" points="19.56 3.75 19.91 5.87 18.01 4.86 16.1 5.84 16.48 3.73 14.95 2.21 17.08 1.92 18.05 0 18.99 1.94 21.11 2.26 19.56 3.75"/>
    <polygon class="cls-1" points="29.06 36.98 24.17 36.98 24.18 15.99 29.06 19.6 29.06 36.98"/>
    <polygon class="cls-1" points="27.23 7.79 25.31 8.78 25.7 6.66 24.17 5.15 26.3 4.86 27.26 2.94 28.2 4.87 30.33 5.2 28.77 6.69 29.12 8.81 27.23 7.79"/>
    <polygon class="cls-1" points="32.95 15.45 31.04 16.44 31.42 14.32 29.89 12.81 32.02 12.52 32.99 10.59 33.93 12.53 36.06 12.86 34.51 14.35 34.85 16.47 32.95 15.45"/>
</svg>
