<?xml version="1.0" standalone="no"?>
<!DOCTYPE svg PUBLIC "-//W3C//DTD SVG 1.1//EN" "http://www.w3.org/Graphics/SVG/1.1/DTD/svg11.dtd" >
<svg>
<metadata>
Created by FontForge 20090622 at Tue Feb 21 11:03:15 2017
 By deploy user
Copyright &#194;&#169; 2011 Bold Monday. All rights reserved. Trio Grotesk is a trademark of Bold Monday. Unauthorised copying or modification of any of its data is illegal.
</metadata>
<defs>
<font id="TrioGrotesk-Bold" horiz-adv-x="950" >
  <font-face 
    font-family="Trio Grotesk Bold"
    font-weight="700"
    font-stretch="normal"
    units-per-em="1000"
    panose-1="2 11 8 5 4 0 0 0 0 4"
    ascent="815"
    descent="-185"
    x-height="519"
    cap-height="742"
    bbox="-240 -195 1580 1060"
    underline-thickness="50"
    underline-position="-50"
    unicode-range="U+0020-U+FB02"
  />
<missing-glyph horiz-adv-x="414" 
d="M149 -148q-22 0 -35.5 13.5t-13.5 35.5v877q0 22 13.5 35.5t35.5 13.5h116q22 0 35.5 -13.5t13.5 -35.5v-877q0 -23 -13 -36t-36 -13h-116z" />
    <glyph glyph-name="IJ" unicode="IJ" horiz-adv-x="997" 
d="M174 310q-22 0 -35.5 13.5t-13.5 35.5v334q0 22 13.5 35.5t35.5 13.5h71q22 0 35.5 -13.5t13.5 -35.5v-334q0 -23 -13 -36t-36 -13h-71zM500 -14q-202 0 -324 101q-28 24 -28 50q0 25 18 46l26 30q14 17 35 17q17 0 36 -12q129 -80 235 -80q101 0 155.5 56.5t54.5 155.5
v343q0 22 13.5 35.5t35.5 13.5h71q22 0 35.5 -13.5t13.5 -35.5v-339q0 -178 -94.5 -273t-282.5 -95z" />
    <glyph glyph-name=".notdef" horiz-adv-x="414" 
d="M149 -148q-22 0 -35.5 13.5t-13.5 35.5v877q0 22 13.5 35.5t35.5 13.5h116q22 0 35.5 -13.5t13.5 -35.5v-877q0 -23 -13 -36t-36 -13h-116z" />
    <glyph glyph-name=".null" horiz-adv-x="0" 
 />
    <glyph glyph-name="nonmarkingreturn" horiz-adv-x="333" 
 />
    <glyph glyph-name="space" unicode=" " horiz-adv-x="400" 
 />
    <glyph glyph-name="exclam" unicode="!" horiz-adv-x="399" 
d="M214 281h-28q-44 0 -49 49l-36 363q-2 22 10.5 35.5t35.5 13.5h105q23 0 35.5 -13.5t10.5 -35.5l-35 -363q-5 -49 -49 -49zM246 0h-94q-22 0 -35.5 13t-13.5 36v52q0 22 13.5 35.5t35.5 13.5h94q22 0 35.5 -13.5t13.5 -35.5v-52q0 -23 -13.5 -36t-35.5 -13z" />
    <glyph glyph-name="quotedbl" unicode="&#x22;" horiz-adv-x="598" 
d="M149 449q-22 0 -35.5 13.5t-13.5 35.5v195q0 22 13.5 35.5t35.5 13.5h51q22 0 35.5 -13.5t13.5 -35.5v-195q0 -22 -13.5 -35.5t-35.5 -13.5h-51zM398 449q-22 0 -35.5 13.5t-13.5 35.5v195q0 22 13.5 35.5t35.5 13.5h51q22 0 35.5 -13.5t13.5 -35.5v-195q0 -22 -13 -35.5
t-36 -13.5h-51z" />
    <glyph glyph-name="numbersign" unicode="#" 
d="M602 0q-22 0 -35.5 13.5t-13.5 35.5v96h-156v-96q0 -23 -13.5 -36t-35.5 -13h-61q-22 0 -35.5 13.5t-13.5 35.5v96h-89q-23 0 -36 13.5t-13 35.5v52q0 22 13.5 35.5t35.5 13.5h89v152h-89q-23 0 -36 13.5t-13 35.5v52q0 22 13.5 35.5t35.5 13.5h89v96q0 22 13.5 35.5
t35.5 13.5h61q22 0 35.5 -13.5t13.5 -35.5v-96h156v96q0 22 13.5 35.5t35.5 13.5h61q22 0 35.5 -13.5t13.5 -35.5v-96h89q22 0 35.5 -13.5t13.5 -35.5v-52q0 -22 -13 -35.5t-36 -13.5h-89v-152h89q22 0 35.5 -13.5t13.5 -35.5v-52q0 -22 -13 -35.5t-36 -13.5h-89v-96
q0 -23 -13 -36t-36 -13h-61zM391 453v-164h168v164h-168z" />
    <glyph glyph-name="dollar" unicode="$" horiz-adv-x="931" 
d="M208 241q97 -68 200 -82v164q-143 16 -214.5 60t-71.5 128q0 90 77.5 151t208.5 72v74q0 22 13.5 35.5t35.5 13.5h41q22 0 35.5 -13.5t13.5 -35.5v-77q141 -18 220 -78q29 -21 29 -51q0 -24 -16 -41l-24 -28q-12 -16 -33 -16q-17 0 -34 11q-71 43 -142 59v-138
q142 -16 213.5 -60t71.5 -137q0 -98 -76.5 -159t-208.5 -75v-77q0 -23 -13.5 -36t-35.5 -13h-41q-22 0 -35.5 13.5t-13.5 35.5v77q-178 15 -282 101q-26 21 -26 46q0 24 17 44l24 28q15 16 32 16q18 0 35 -12zM671 242q0 29 -29.5 45t-94.5 24v-152q55 8 89.5 29t34.5 54z
M283 520q0 -26 32 -39t93 -20v131q-54 -7 -89.5 -26t-35.5 -46z" />
    <glyph glyph-name="percent" unicode="%" horiz-adv-x="1219" 
d="M305 61l464 656q19 25 50 25h66q38 0 38 -31q0 -14 -11 -30l-464 -656q-19 -25 -50 -25h-66q-38 0 -38 31q0 14 11 30zM120 570q0 77 58 131.5t141 54.5t141.5 -54.5t58.5 -131.5q0 -76 -58.5 -130.5t-141.5 -54.5q-82 0 -140.5 54t-58.5 131zM250 570q0 -29 19.5 -48
t49.5 -19t49.5 19t19.5 48t-19.5 48.5t-49.5 19.5t-49.5 -19.5t-19.5 -48.5zM696 171q0 77 58 131.5t141 54.5t141.5 -54.5t58.5 -131.5q0 -76 -58.5 -130.5t-141.5 -54.5q-82 0 -140.5 54t-58.5 131zM826 171q0 -29 19.5 -48t49.5 -19t49.5 19t19.5 48t-19.5 48.5
t-49.5 19.5t-49.5 -19.5t-19.5 -48.5z" />
    <glyph glyph-name="ampersand" unicode="&#x26;" horiz-adv-x="1020" 
d="M802 420q14 27 40 27q13 0 26 -7l19 -11q43 -25 43 -65q0 -20 -10 -39q-49 -92 -152 -178q74 -29 168 -29q26 0 39.5 -13.5t13.5 -35.5v-7q0 -34 -20.5 -55t-59.5 -21q-149 0 -281 69q-135 -69 -264 -69q-125 0 -208 55t-83 158q0 159 222 224q-26 69 -26 135
q0 84 59.5 141t166.5 57q104 0 165 -50t61 -130q0 -74 -54 -131t-155 -91q32 -38 47 -54q40 -44 80 -77q97 79 163 197zM370 116q68 0 134 26q-35 31 -73 74q-46 50 -76 95q-55 -19 -81.5 -44t-26.5 -60q0 -43 33 -67t90 -24zM424 558q0 -47 23 -100q55 17 87.5 46t32.5 69
q0 29 -18 47t-50 18q-33 0 -54 -23t-21 -57z" />
    <glyph glyph-name="quotesingle" unicode="'" horiz-adv-x="399" 
d="M174 449q-22 0 -35.5 13.5t-13.5 35.5v195q0 22 13.5 35.5t35.5 13.5h51q22 0 35.5 -13.5t13.5 -35.5v-195q0 -22 -13 -35.5t-36 -13.5h-51z" />
    <glyph glyph-name="parenleft" unicode="(" horiz-adv-x="543" 
d="M264 314q0 -197 129 -321q50 -49 50 -94v-33q0 -51 -52 -51q-36 0 -108 59q-91 74 -137 193t-46 247t46 247t137 193q72 59 108 59q52 0 52 -51v-33q0 -45 -50 -94q-129 -124 -129 -321z" />
    <glyph glyph-name="parenright" unicode=")" horiz-adv-x="543" 
d="M279 314q0 197 -129 321q-50 49 -50 94v33q0 51 52 51q36 0 108 -59q91 -74 137 -193t46 -247t-46 -247t-137 -193q-72 -59 -108 -59q-52 0 -52 51v33q0 45 50 94q129 124 129 321z" />
    <glyph glyph-name="asterisk" unicode="*" horiz-adv-x="700" 
d="M172 674l112 -37v116q0 21 12.5 33.5t33.5 12.5h37q21 0 33.5 -12.5t12.5 -33.5v-116l113 37q20 7 36 -1.5t23 -29.5l12 -34q7 -19 -1.5 -35t-28.5 -23l-113 -37l68 -92q27 -37 -11 -65l-29 -22q-16 -12 -34 -9.5t-30 19.5l-70 96l-68 -94q-12 -17 -30.5 -19.5t-34.5 9.5
l-30 21q-36 28 -10 64l67 93l-109 36q-44 15 -30 58l11 35q6 19 21.5 28t36.5 2z" />
    <glyph glyph-name="plus" unicode="+" horiz-adv-x="833" 
d="M676 267h-187v-187q0 -22 -13.5 -35.5t-35.5 -13.5h-66q-22 0 -35.5 13.5t-13.5 35.5v187h-187q-22 0 -35.5 13.5t-13.5 35.5v52q0 22 13.5 35.5t35.5 13.5h187v187q0 22 13.5 35.5t35.5 13.5h66q22 0 35.5 -13.5t13.5 -35.5v-187h187q22 0 35.5 -13.5t13.5 -35.5v-52
q0 -22 -13.5 -35.5t-35.5 -13.5z" />
    <glyph glyph-name="comma" unicode="," horiz-adv-x="427" 
d="M327 98v-132q0 -151 -138 -151q-89 0 -89 59v8q0 22 13.5 35.5t35.5 13.5q26 0 37 11.5t11 35.5v30h-38q-23 0 -36 13t-13 36v41q0 22 13.5 35.5t35.5 13.5h119q22 0 35.5 -13.5t13.5 -35.5z" />
    <glyph glyph-name="hyphen" unicode="-" horiz-adv-x="594" 
d="M435 193h-276q-23 0 -36 13.5t-13 35.5v52q0 22 13.5 35.5t35.5 13.5h276q22 0 35.5 -13.5t13.5 -35.5v-52q0 -22 -13 -35.5t-36 -13.5z" />
    <glyph glyph-name="period" unicode="." horiz-adv-x="392" 
d="M243 0h-94q-23 0 -36 13t-13 36v52q0 22 13.5 35.5t35.5 13.5h94q22 0 35.5 -13.5t13.5 -35.5v-52q0 -23 -13 -36t-36 -13z" />
    <glyph glyph-name="slash" unicode="/" horiz-adv-x="631" 
d="M625 732l-457 -873q-15 -30 -55 -30h-69q-21 0 -32.5 12t-11.5 30q0 15 6 25l457 873q15 30 55 30h69q21 0 32.5 -12t11.5 -30q0 -13 -6 -25z" />
    <glyph glyph-name="zero" unicode="0" horiz-adv-x="987" 
d="M80 371q0 160 120.5 272.5t292.5 112.5t293 -112.5t121 -272.5t-121 -272.5t-293 -112.5t-292.5 112.5t-120.5 272.5zM256 371q0 -97 67.5 -163.5t169.5 -66.5q103 0 170.5 66.5t67.5 163.5t-67.5 163.5t-170.5 66.5q-102 0 -169.5 -66.5t-67.5 -163.5z" />
    <glyph glyph-name="one" unicode="1" horiz-adv-x="574" 
d="M449 690v-641q0 -23 -13.5 -36t-35.5 -13h-71q-22 0 -35.5 13.5t-13.5 35.5v485q-63 -48 -122 -74q-42 -18 -72 -18t-48 17.5t-18 52.5v25q0 37 48 61q105 53 186 117q34 27 84 27h62q22 0 35.5 -14.5t13.5 -37.5z" />
    <glyph glyph-name="two" unicode="2" horiz-adv-x="870" 
d="M746 0h-622q-22 0 -35.5 13t-13.5 36q0 81 28.5 144.5t83 107.5t121 73t154.5 50q151 36 151 102q0 36 -37 56.5t-93 20.5q-62 0 -132 -24t-116 -59q-25 -19 -44 -19q-17 0 -33 13l-20 16q-40 32 -40 66q0 26 24 48q51 48 152 80.5t207 32.5q148 0 228 -65.5t80 -168.5
q0 -90 -64.5 -145t-196.5 -87q-111 -27 -166.5 -58.5t-80.5 -82.5h465q22 0 35.5 -13.5t13.5 -35.5v-52q0 -23 -13.5 -36t-35.5 -13z" />
    <glyph glyph-name="three" unicode="3" horiz-adv-x="905" 
d="M474 -14q-116 0 -223 31t-158 81q-23 23 -23 48q0 33 40 66l20 16q16 13 32 13q19 0 45 -19q114 -83 263 -83q81 0 131 25.5t50 69.5q0 37 -38 51.5t-115 14.5h-162q-22 0 -35.5 13t-13.5 36v50q0 22 13.5 35.5t35.5 13.5h159q66 0 99 19.5t33 53.5q0 39 -40 60.5
t-103 21.5q-66 0 -135 -23t-119 -60q-26 -19 -45 -19q-16 0 -32 13l-20 16q-40 33 -40 67q0 25 23 47q45 43 146 77.5t217 34.5q148 0 235.5 -59t87.5 -153q0 -53 -27.5 -96t-75.5 -62q126 -36 126 -162q0 -105 -91.5 -171.5t-259.5 -66.5z" />
    <glyph glyph-name="four" unicode="4" horiz-adv-x="864" 
d="M510 300v230l-265 -230h265zM679 693v-393h116q22 0 35.5 -13.5t13.5 -35.5v-48q0 -23 -13 -36t-36 -13h-116v-105q0 -23 -13.5 -36t-35.5 -13h-71q-23 0 -36 13t-13 36v105h-441q-23 0 -36 13t-13 36v59q0 29 24 51l458 406q25 23 57 23h71q22 0 35.5 -13.5t13.5 -35.5z
" />
    <glyph glyph-name="five" unicode="5" horiz-adv-x="910" 
d="M223 224q116 -83 255 -83q81 0 126 30t45 80t-45 77.5t-124 27.5q-117 0 -208 -42q-37 -16 -56 -16q-27 0 -55 20l-24 18q-27 21 -27 52q0 9 3 21l83 285q15 48 69 48h468q22 0 35.5 -13.5t13.5 -35.5v-55q0 -22 -13 -35.5t-36 -13.5h-401l-45 -137q110 47 232 47
q136 0 221 -71t85 -175q0 -108 -92 -187.5t-258 -79.5q-104 0 -208 31.5t-158 82.5q-24 22 -24 48q0 33 40 65l20 16q17 14 33 14q19 0 45 -19z" />
    <glyph glyph-name="six" unicode="6" horiz-adv-x="908" 
d="M486 601q-90 0 -157.5 -54.5t-80.5 -140.5q125 78 276 78q133 0 223.5 -62t90.5 -171q0 -115 -98.5 -190t-249.5 -75q-184 0 -302 111t-118 273q0 163 117.5 274.5t298.5 111.5q95 0 178.5 -30t120.5 -67q22 -22 22 -46q0 -37 -39 -68l-20 -16q-16 -13 -33 -13
q-21 0 -44 19q-82 66 -185 66zM503 335q-134 0 -238 -66q28 -61 87.5 -97t140.5 -36q76 0 122.5 30.5t46.5 76.5q0 43 -42.5 67.5t-116.5 24.5z" />
    <glyph glyph-name="seven" unicode="7" horiz-adv-x="760" 
d="M740 693v-27q0 -36 -22 -67q-180 -244 -329 -550q-24 -49 -79 -49h-60q-24 0 -37 12t-13 32q0 16 9 35q62 129 148.5 272t158.5 241h-447q-23 0 -36 13t-13 36v52q0 22 13.5 35.5t35.5 13.5h622q22 0 35.5 -13.5t13.5 -35.5z" />
    <glyph glyph-name="eight" unicode="8" horiz-adv-x="906" 
d="M453 -14q-170 0 -274 59.5t-104 167.5q0 122 123 176q-84 53 -84 151q0 97 90.5 156.5t248.5 59.5t248.5 -59.5t90.5 -156.5q0 -98 -84 -151q123 -54 123 -176q0 -108 -104 -167.5t-274 -59.5zM453 451q71 0 117 22.5t46 61.5t-46 61.5t-117 22.5t-117 -22.5t-46 -61.5
t46 -61.5t117 -22.5zM453 126q86 0 144 25.5t58 68.5q0 44 -58 69.5t-144 25.5t-144 -25.5t-58 -69.5q0 -43 58 -68.5t144 -25.5z" />
    <glyph glyph-name="nine" unicode="9" horiz-adv-x="908" 
d="M422 140q90 0 157 54.5t81 140.5q-124 -78 -276 -78q-133 0 -223.5 62t-90.5 171q0 115 98.5 190t249.5 75q184 0 302 -111t118 -273q0 -163 -117.5 -274.5t-298.5 -111.5q-95 0 -178.5 30t-120.5 67q-22 22 -22 46q0 37 39 68l20 16q16 13 33 13q21 0 44 -19
q82 -66 185 -66zM405 406q133 0 237 66q-28 61 -87 97t-140 36q-76 0 -122.5 -30.5t-46.5 -76.5q0 -43 42.5 -67.5t116.5 -24.5z" />
    <glyph glyph-name="colon" unicode=":" horiz-adv-x="392" 
d="M243 0h-94q-23 0 -36 13t-13 36v52q0 22 13.5 35.5t35.5 13.5h94q22 0 35.5 -13.5t13.5 -35.5v-52q0 -23 -13 -36t-36 -13zM243 369h-94q-23 0 -36 13.5t-13 35.5v52q0 22 13.5 35.5t35.5 13.5h94q22 0 35.5 -13.5t13.5 -35.5v-52q0 -22 -13 -35.5t-36 -13.5z" />
    <glyph glyph-name="semicolon" unicode=";" horiz-adv-x="427" 
d="M327 98v-132q0 -151 -138 -151q-89 0 -89 59v8q0 22 13.5 35.5t35.5 13.5q26 0 37 11.5t11 35.5v30h-38q-23 0 -36 13t-13 36v41q0 22 13.5 35.5t35.5 13.5h119q22 0 35.5 -13.5t13.5 -35.5zM265 369h-94q-23 0 -36 13.5t-13 35.5v52q0 22 13.5 35.5t35.5 13.5h94
q22 0 35.5 -13.5t13.5 -35.5v-52q0 -22 -13 -35.5t-36 -13.5z" />
    <glyph glyph-name="less" unicode="&#x3c;" horiz-adv-x="647" 
d="M100 321q0 15 12 29l241 264q25 27 62 27h91q41 0 41 -32q0 -14 -22 -38l-233 -250l233 -251q22 -24 22 -38q0 -32 -41 -32h-91q-37 0 -62 27l-241 265q-12 14 -12 29z" />
    <glyph glyph-name="equal" unicode="=" horiz-adv-x="836" 
d="M687 388h-538q-23 0 -36 13t-13 36v52q0 22 13.5 35.5t35.5 13.5h538q22 0 35.5 -13.5t13.5 -35.5v-52q0 -23 -13 -36t-36 -13zM687 142h-538q-23 0 -36 13t-13 36v52q0 22 13.5 35.5t35.5 13.5h538q22 0 35.5 -13.5t13.5 -35.5v-52q0 -23 -13 -36t-36 -13z" />
    <glyph glyph-name="greater" unicode="&#x3e;" horiz-adv-x="647" 
d="M547 321q0 -15 -12 -29l-241 -265q-25 -27 -62 -27h-91q-41 0 -41 32q0 14 22 38l233 251l-233 250q-22 24 -22 38q0 32 41 32h91q37 0 62 -27l241 -264q12 -14 12 -29z" />
    <glyph glyph-name="question" unicode="?" horiz-adv-x="894" 
d="M367 0q-22 0 -35.5 13.5t-13.5 35.5v52q0 22 13.5 35.5t35.5 13.5h94q22 0 35.5 -13.5t13.5 -35.5v-52q0 -23 -13 -36t-36 -13h-94zM488 602q-153 0 -257 -72q-24 -17 -43 -17q-17 0 -33 13l-15 13q-40 35 -40 66q0 26 24 46q60 50 158 77.5t198 27.5q137 0 225.5 -52
t88.5 -152q0 -67 -44.5 -110.5t-133.5 -72.5l-85 -27q-33 -10 -33 -43v-24q0 -23 -13 -36t-36 -13h-71q-22 0 -35.5 13.5t-13.5 35.5v72q0 77 78 102l120 39q28 9 39 13t27 11.5t21.5 16t5.5 19.5q0 54 -132 54z" />
    <glyph glyph-name="at" unicode="@" horiz-adv-x="933" 
d="M490 -14q-114 0 -210.5 49.5t-153.5 138.5t-57 198q0 164 124 274t312 110q157 0 251 -80t94 -211v-209q0 -22 -13 -35.5t-36 -13.5h-21q-55 0 -73 48q-80 -58 -178 -58q-89 0 -144.5 46t-55.5 122q0 75 53.5 126.5t147.5 51.5q83 0 154 -43q-4 56 -56.5 86.5
t-126.5 30.5q-115 0 -190 -70t-75 -176t78.5 -182t225.5 -76q23 0 39 -13.5t16 -36.5v-3q0 -43 -25.5 -58.5t-79.5 -15.5zM570 307q66 0 114 44v37q-51 45 -115 45q-39 0 -63 -16t-24 -46t23 -47t65 -17z" />
    <glyph glyph-name="A" unicode="A" 
d="M429 742h92q40 0 55 -30l332 -645q7 -13 7 -26q0 -18 -12 -29.5t-33 -11.5h-79q-40 0 -55 30l-56 115h-410l-56 -115q-15 -30 -55 -30h-79q-21 0 -33 11.5t-12 29.5q0 13 7 26l332 645q15 30 55 30zM475 564l-132 -269h263z" />
    <glyph glyph-name="B" unicode="B" horiz-adv-x="1041" 
d="M174 0q-22 0 -35.5 13.5t-13.5 35.5v644q0 22 13.5 35.5t35.5 13.5h492q129 0 194 -57t65 -137q0 -46 -21.5 -88t-62.5 -70q46 -25 75.5 -71t29.5 -107q0 -95 -71 -153.5t-186 -58.5h-515zM689 300h-395v-152h395q37 0 59 21.5t22 53.5t-22 54.5t-59 22.5zM667 594h-373
v-152h373q38 0 60 23t22 54t-21.5 53t-60.5 22z" />
    <glyph glyph-name="C" unicode="C" horiz-adv-x="972" 
d="M241 371q0 -97 73 -163.5t181 -66.5q80 0 150.5 36.5t122.5 94.5q16 17 37 17q16 0 29 -12l27 -26q31 -31 31 -60q0 -21 -21 -47q-54 -65 -158.5 -111.5t-220.5 -46.5q-179 0 -303 110t-124 275q0 109 57.5 198t155 138t215.5 49q119 0 223 -47.5t154 -109.5
q21 -26 21 -47q0 -31 -30 -61l-27 -26q-13 -12 -29 -12q-21 0 -37 17q-52 58 -122.5 94.5t-150.5 36.5q-108 0 -181 -66.5t-73 -163.5z" />
    <glyph glyph-name="D" unicode="D" horiz-adv-x="1030" 
d="M174 0q-22 0 -35.5 13.5t-13.5 35.5v644q0 22 13.5 35.5t35.5 13.5h399q186 0 289 -103t103 -268t-103 -268t-289 -103h-399zM568 594h-274v-446h274q108 0 164.5 64.5t56.5 158.5t-56.5 158.5t-164.5 64.5z" />
    <glyph glyph-name="E" unicode="E" horiz-adv-x="951" 
d="M174 0q-22 0 -35.5 13.5t-13.5 35.5v644q0 22 13.5 35.5t35.5 13.5h648q22 0 35.5 -13.5t13.5 -35.5v-52q0 -23 -13.5 -36t-35.5 -13h-528v-142h375q22 0 35.5 -13.5t13.5 -35.5v-52q0 -23 -13 -36t-36 -13h-375v-150h528q22 0 35.5 -13.5t13.5 -35.5v-52
q0 -23 -13.5 -36t-35.5 -13h-648z" />
    <glyph glyph-name="F" unicode="F" horiz-adv-x="906" 
d="M174 0q-22 0 -35.5 13.5t-13.5 35.5v644q0 22 13.5 35.5t35.5 13.5h648q22 0 35.5 -13.5t13.5 -35.5v-52q0 -23 -13.5 -36t-35.5 -13h-528v-142h365q22 0 35.5 -13.5t13.5 -35.5v-52q0 -23 -13 -36t-36 -13h-365v-251q0 -23 -13 -36t-36 -13h-71z" />
    <glyph glyph-name="G" unicode="G" horiz-adv-x="1003" 
d="M943 380q0 -167 -125 -280.5t-315 -113.5q-186 0 -312 109.5t-126 275.5q0 109 60 198t160 138t218 49q112 0 205.5 -36t147.5 -92q24 -24 24 -48q0 -31 -32 -58l-32 -26q-14 -11 -28 -11q-20 0 -39 18q-109 98 -247 98q-115 0 -188 -63.5t-73 -166.5q0 -99 71.5 -164.5
t190.5 -65.5q93 0 155.5 39t91.5 106h-302q-22 0 -35.5 13t-13.5 36v45q0 22 13.5 35.5t35.5 13.5h446q22 0 35.5 -13.5t13.5 -35.5z" />
    <glyph glyph-name="H" unicode="H" horiz-adv-x="1016" 
d="M771 0q-22 0 -35.5 13.5t-13.5 35.5v251h-428v-251q0 -23 -13 -36t-36 -13h-71q-22 0 -35.5 13.5t-13.5 35.5v644q0 22 13.5 35.5t35.5 13.5h71q22 0 35.5 -13.5t13.5 -35.5v-243h428v243q0 22 13.5 35.5t35.5 13.5h71q22 0 35.5 -13.5t13.5 -35.5v-644q0 -23 -13.5 -36
t-35.5 -13h-71z" />
    <glyph glyph-name="I" unicode="I" horiz-adv-x="419" 
d="M174 0q-22 0 -35.5 13.5t-13.5 35.5v644q0 22 13.5 35.5t35.5 13.5h71q22 0 35.5 -13.5t13.5 -35.5v-644q0 -23 -13 -36t-36 -13h-71z" />
    <glyph glyph-name="J" unicode="J" horiz-adv-x="771" 
d="M30 236q0 94 78 94h40q22 0 35.5 -13.5t13.5 -35.5q0 -61 35.5 -102t104.5 -41q66 0 108 41t42 131v383q0 22 13.5 35.5t35.5 13.5h71q22 0 35.5 -13.5t13.5 -35.5v-379q0 -155 -81.5 -241.5t-237.5 -86.5q-151 0 -229 74.5t-78 175.5z" />
    <glyph glyph-name="K" unicode="K" horiz-adv-x="967" 
d="M720 24l-272 326l-154 -114v-187q0 -23 -13 -36t-36 -13h-71q-22 0 -35.5 13.5t-13.5 35.5v644q0 22 13.5 35.5t35.5 13.5h71q22 0 35.5 -13.5t13.5 -35.5v-269l391 295q30 24 58 24h136q17 0 26.5 -8t9.5 -20q0 -17 -16 -30l-319 -241l338 -386q14 -16 14 -30
q0 -12 -9.5 -20t-26.5 -8h-118q-39 0 -58 24z" />
    <glyph glyph-name="L" unicode="L" horiz-adv-x="881" 
d="M174 0q-22 0 -35.5 13.5t-13.5 35.5v644q0 22 13.5 35.5t35.5 13.5h71q22 0 35.5 -13.5t13.5 -35.5v-543h518q22 0 35.5 -13.5t13.5 -35.5v-52q0 -23 -13.5 -36t-35.5 -13h-638z" />
    <glyph glyph-name="M" unicode="M" horiz-adv-x="1171" 
d="M586 124q-32 0 -56 29l-236 299v-403q0 -23 -13 -36t-36 -13h-71q-22 0 -35.5 13.5t-13.5 35.5v644q0 22 13.5 35.5t35.5 13.5h58q24 0 37.5 -7.5t29.5 -27.5l286 -360l287 360q16 20 29.5 27.5t37.5 7.5h58q22 0 35.5 -13.5t13.5 -35.5v-644q0 -22 -13.5 -35.5
t-35.5 -13.5h-71q-22 0 -35.5 13t-13.5 36v403l-236 -299q-24 -29 -55 -29z" />
    <glyph glyph-name="N" unicode="N" horiz-adv-x="1050" 
d="M762 20l-468 461v-432q0 -22 -13.5 -35.5t-35.5 -13.5h-71q-22 0 -35.5 13.5t-13.5 35.5v644q0 23 13.5 36t35.5 13h60q34 0 54 -20l468 -461v432q0 22 13.5 35.5t35.5 13.5h71q22 0 35.5 -13.5t13.5 -35.5v-644q0 -23 -13.5 -36t-35.5 -13h-60q-34 0 -54 20z" />
    <glyph glyph-name="O" unicode="O" horiz-adv-x="1006" 
d="M503 601q-113 0 -187.5 -66.5t-74.5 -163.5t74.5 -163.5t187.5 -66.5t187.5 66.5t74.5 163.5t-74.5 163.5t-187.5 66.5zM503 756q190 0 314 -111.5t124 -273.5t-124 -273.5t-314 -111.5t-314 111.5t-124 273.5t124 273.5t314 111.5z" />
    <glyph glyph-name="P" unicode="P" horiz-adv-x="960" 
d="M174 0q-22 0 -35.5 13.5t-13.5 35.5v644q0 22 13.5 35.5t35.5 13.5h484q124 0 190.5 -66.5t66.5 -171.5q0 -103 -67 -169t-190 -66h-364v-220q0 -23 -13 -36t-36 -13h-71zM645 594h-351v-177h351q44 0 69 25t25 63q0 39 -25 64t-69 25z" />
    <glyph glyph-name="Q" unicode="Q" horiz-adv-x="1006" 
d="M503 756q190 0 314 -111.5t124 -273.5q0 -165 -128 -277l78 -91q13 -15 13 -30q0 -39 -39 -39h-72q-36 0 -62 30l-46 54q-88 -32 -182 -32q-190 0 -314 111.5t-124 273.5t124 273.5t314 111.5zM503 601q-113 0 -187.5 -66.5t-74.5 -163.5q0 -98 75 -169t187 -71
q43 0 77 10l-77 90q-13 15 -13 30q0 39 39 39h72q36 0 62 -30l43 -51q59 67 59 152q0 97 -74.5 163.5t-187.5 66.5z" />
    <glyph glyph-name="R" unicode="R" horiz-adv-x="1024" 
d="M174 0q-22 0 -35.5 13.5t-13.5 35.5v644q0 22 13.5 35.5t35.5 13.5h484q124 0 190.5 -66.5t66.5 -171.5q0 -85 -46 -146t-133 -81l192 -208q11 -13 11 -28q0 -18 -11.5 -29.5t-32.5 -11.5h-97q-31 0 -57 30l-217 242h-230v-223q0 -23 -13 -36t-36 -13h-71zM645 594h-351
v-177h351q44 0 69 25t25 63q0 39 -25 64t-69 25z" />
    <glyph glyph-name="S" unicode="S" horiz-adv-x="910" 
d="M179 228q135 -93 290 -93q86 0 145 24t59 70q0 39 -49.5 56t-166.5 25q-186 13 -278 60t-92 146q0 107 99.5 173.5t264.5 66.5q111 0 196.5 -28t128.5 -61q31 -23 31 -54q0 -24 -17 -44l-26 -30q-14 -17 -35 -17q-17 0 -36 12q-118 73 -242 73q-76 0 -134 -22.5
t-58 -59.5q0 -34 49.5 -47.5t150.5 -20.5q75 -5 129.5 -13t105.5 -24t82.5 -39t50 -59t18.5 -83q0 -118 -104 -185.5t-276 -67.5q-114 0 -212 30t-161 81q-28 23 -28 49t18 47l26 30q14 17 34 17t37 -12z" />
    <glyph glyph-name="T" unicode="T" horiz-adv-x="899" 
d="M825 592h-291v-543q0 -23 -13 -36t-36 -13h-71q-22 0 -35.5 13.5t-13.5 35.5v543h-291q-22 0 -35.5 13t-13.5 36v52q0 22 13.5 35.5t35.5 13.5h751q22 0 35.5 -13.5t13.5 -35.5v-52q0 -23 -13 -36t-36 -13z" />
    <glyph glyph-name="U" unicode="U" horiz-adv-x="996" 
d="M498 -14q-85 0 -150.5 17t-120 55.5t-83.5 110t-29 172.5v352q0 22 13.5 35.5t35.5 13.5h71q22 0 35.5 -13.5t13.5 -35.5v-352q0 -202 214 -202t214 202v352q0 22 13.5 35.5t35.5 13.5h71q22 0 35.5 -13.5t13.5 -35.5v-352q0 -101 -29 -172.5t-83.5 -110t-120 -55.5
t-150.5 -17z" />
    <glyph glyph-name="V" unicode="V" horiz-adv-x="948" 
d="M520 0h-92q-40 0 -55 30l-332 645q-6 11 -6 25q0 18 11.5 30t32.5 12h79q40 0 55 -30l261 -534l261 534q15 30 55 30h79q21 0 32.5 -12t11.5 -30q0 -14 -6 -25l-332 -645q-15 -30 -55 -30z" />
    <glyph glyph-name="W" unicode="W" horiz-adv-x="1296" 
d="M443 0h-81q-41 0 -53 38l-258 637q-6 13 -6 25q0 18 11.5 30t32.5 12h78q41 0 55 -36l172 -479l166 477q13 38 53 38h70q40 0 53 -38l166 -477l172 479q14 36 55 36h78q21 0 32.5 -12t11.5 -30q0 -12 -6 -25l-258 -637q-12 -38 -53 -38h-81q-40 0 -53 38l-152 433
l-152 -433q-13 -38 -53 -38z" />
    <glyph glyph-name="X" unicode="X" horiz-adv-x="965" 
d="M68 69l299 302l-299 302q-13 15 -13 30q0 39 39 39h103q33 0 62 -30l223 -235l224 235q28 30 62 30h103q39 0 39 -39q0 -15 -13 -30l-300 -302l300 -302q13 -15 13 -30q0 -39 -39 -39h-103q-34 0 -62 30l-224 235l-223 -235q-29 -30 -62 -30h-103q-39 0 -39 39
q0 15 13 30z" />
    <glyph glyph-name="Y" unicode="Y" horiz-adv-x="961" 
d="M448 0q-22 0 -35.5 13.5t-13.5 35.5v239l-366 385q-13 15 -13 30q0 39 39 39h98q33 0 62 -30l261 -286l262 286q28 30 62 30h98q39 0 39 -39q0 -15 -13 -30l-365 -385v-239q0 -23 -13.5 -36t-35.5 -13h-66z" />
    <glyph glyph-name="Z" unicode="Z" horiz-adv-x="909" 
d="M790 0h-671q-23 0 -36 13t-13 36v52q0 22 21 41l476 450h-438q-23 0 -36 13t-13 36v52q0 22 13.5 35.5t35.5 13.5h651q22 0 35.5 -13.5t13.5 -35.5v-52q0 -23 -22 -43l-470 -448h453q22 0 35.5 -13.5t13.5 -35.5v-52q0 -23 -13.5 -36t-35.5 -13z" />
    <glyph glyph-name="bracketleft" unicode="[" horiz-adv-x="528" 
d="M149 -171q-22 0 -35.5 13.5t-13.5 35.5v872q0 22 13.5 35.5t35.5 13.5h230q22 0 35.5 -13.5t13.5 -35.5v-52q0 -22 -13 -35.5t-36 -13.5h-115v-670h115q22 0 35.5 -13.5t13.5 -35.5v-52q0 -22 -13 -35.5t-36 -13.5h-230z" />
    <glyph glyph-name="backslash" unicode="\" horiz-adv-x="631" 
d="M463 -141l-457 873q-6 12 -6 25q0 18 11.5 30t32.5 12h69q40 0 55 -30l457 -873q6 -11 6 -25q0 -18 -11.5 -30t-32.5 -12h-69q-40 0 -55 30z" />
    <glyph glyph-name="bracketright" unicode="]" horiz-adv-x="528" 
d="M379 -171h-230q-23 0 -36 13.5t-13 35.5v52q0 22 13.5 35.5t35.5 13.5h115v670h-115q-23 0 -36 13.5t-13 35.5v52q0 22 13.5 35.5t35.5 13.5h230q22 0 35.5 -13.5t13.5 -35.5v-872q0 -22 -13.5 -35.5t-35.5 -13.5z" />
    <glyph glyph-name="asciicircum" unicode="^" horiz-adv-x="700" 
d="M350 785q15 0 27 -8l202 -138q21 -14 21 -38q0 -17 -10 -30l-3 -4q-27 -35 -64 -35q-24 0 -46 16l-127 88l-127 -88q-22 -16 -47 -16q-35 0 -62 34l-4 5q-10 13 -10 30q0 24 21 38l202 138q12 8 27 8z" />
    <glyph glyph-name="underscore" unicode="_" horiz-adv-x="927" 
d="M738 -150h-549q-23 0 -36 13t-13 36v52q0 22 13.5 35.5t35.5 13.5h549q22 0 35.5 -13.5t13.5 -35.5v-52q0 -23 -13.5 -36t-35.5 -13z" />
    <glyph glyph-name="grave" unicode="`" horiz-adv-x="500" 
d="M290 587l-164 88q-26 13 -26 40q0 13 7 26l1 2q21 38 61 38q21 0 41 -11l164 -88q26 -13 26 -40q0 -13 -7 -26l-1 -2q-21 -38 -61 -38q-21 0 -41 11z" />
    <glyph glyph-name="a" unicode="a" horiz-adv-x="767" 
d="M224 359q-24 -15 -37 -15q-16 0 -33 17l-6 6q-23 23 -23 54q0 30 30 54q72 58 228 58q140 0 209.5 -54.5t69.5 -150.5v-279q0 -23 -13 -36t-36 -13h-21q-55 0 -72 44q-83 -58 -188 -58q-101 0 -169 47.5t-68 127.5q0 79 67.5 126t173.5 47q92 0 163 -38v29q0 79 -118 79
q-82 0 -157 -45zM375 226q-45 0 -75.5 -18t-30.5 -48q0 -31 31 -47.5t74 -16.5q37 0 71.5 12t53.5 32v45q-49 41 -124 41z" />
    <glyph glyph-name="b" unicode="b" horiz-adv-x="773" 
d="M387 -14q-78 0 -148 23.5t-119 63.5v677q0 22 13.5 35.5t35.5 13.5h66q22 0 35.5 -13.5t13.5 -35.5v-249q65 32 142 32q113 0 192.5 -74.5t79.5 -194.5q0 -122 -84.5 -200t-226.5 -78zM391 399q-56 0 -107 -34v-218q47 -29 105 -29q62 0 98.5 40.5t36.5 101.5t-37 100
t-96 39z" />
    <glyph glyph-name="c" unicode="c" horiz-adv-x="721" 
d="M249 259q0 -56 38.5 -96.5t100.5 -40.5q69 0 145 60q19 15 35 15q17 0 34 -17l6 -6q23 -23 23 -54q0 -30 -27 -57q-30 -29 -88.5 -53t-134.5 -24q-131 0 -218.5 76t-87.5 197t87.5 197t218.5 76q76 0 134.5 -24t88.5 -53q27 -27 27 -56q0 -32 -23 -55l-6 -6
q-17 -17 -34 -17q-16 0 -35 15q-76 60 -145 60q-62 0 -100.5 -40.5t-38.5 -96.5z" />
    <glyph glyph-name="d" unicode="d" horiz-adv-x="774" 
d="M600 0h-10q-55 0 -73 48q-69 -62 -170 -62q-116 0 -194 78.5t-78 195.5q0 122 83.5 197.5t197.5 75.5q67 0 129 -30v247q0 22 13 35.5t35 13.5h67q22 0 35.5 -13.5t13.5 -35.5v-701q0 -22 -13.5 -35.5t-35.5 -13.5zM377 120q62 0 108 43v198q-49 38 -105 38
q-58 0 -94.5 -39t-36.5 -100q0 -60 35 -100t93 -40z" />
    <glyph glyph-name="e" unicode="e" horiz-adv-x="758" 
d="M631 59q-33 -31 -97 -52t-144 -21q-153 0 -234 79.5t-81 192.5q0 120 88 197.5t218 77.5q71 0 130.5 -25t95.5 -64.5t56 -83.5t20 -85q0 -58 -50 -58h-397q14 -50 57 -73.5t101 -23.5q85 0 166 58q21 15 35 15q17 0 34 -17l6 -6q23 -23 23 -55t-27 -56zM386 412
q-50 0 -90 -23.5t-57 -68.5h277q-31 92 -130 92z" />
    <glyph glyph-name="f" unicode="f" horiz-adv-x="530" 
d="M443 393h-129v-344q0 -22 -13.5 -35.5t-35.5 -13.5h-66q-23 0 -36 13t-13 36v344h-66q-22 0 -35.5 13.5t-13.5 35.5v27q0 23 13.5 36.5t35.5 13.5h66v100q0 86 50 140t142 54q82 0 126 -38q27 -24 27 -56t-23 -55l-6 -6q-17 -17 -34 -17q-15 0 -35 16q-20 15 -41 15
q-18 0 -30 -14t-12 -41v-98h129q23 0 36 -13.5t13 -36.5v-27q0 -22 -13 -35.5t-36 -13.5z" />
    <glyph glyph-name="g" unicode="g" horiz-adv-x="769" 
d="M339 29q-111 0 -187.5 70.5t-76.5 181.5q0 110 77 181t188 71q98 0 173 -60q19 46 73 46h9q23 0 36 -13.5t13 -36.5v-381q0 -273 -281 -273q-129 0 -196 49q-35 25 -35 59q0 30 23 53l6 6q17 17 34 17q15 0 36 -15q55 -37 126 -37q58 0 90.5 25.5t32.5 70.5v21
q-62 -35 -141 -35zM373 156q59 0 107 41v162q-44 42 -105 42q-54 0 -90 -34t-36 -87t35.5 -88.5t88.5 -35.5z" />
    <glyph glyph-name="h" unicode="h" horiz-adv-x="788" 
d="M634 0h-66q-22 0 -35.5 13.5t-13.5 35.5v230q0 57 -26.5 87.5t-77.5 30.5q-70 0 -126 -58v-290q0 -22 -13.5 -35.5t-35.5 -13.5h-66q-22 0 -35.5 13t-13.5 36v701q0 22 13.5 35.5t35.5 13.5h66q22 0 35.5 -13.5t13.5 -35.5v-264q72 47 163 47q106 0 168.5 -63t62.5 -180
v-241q0 -22 -13.5 -35.5t-35.5 -13.5z" />
    <glyph glyph-name="i" unicode="i" horiz-adv-x="414" 
d="M174 0q-22 0 -35.5 13.5t-13.5 35.5v420q0 23 13.5 36.5t35.5 13.5h66q23 0 36 -13.5t13 -36.5v-420q0 -23 -13.5 -36t-35.5 -13h-66zM251 609h-88q-23 0 -36 13.5t-13 35.5v35q0 22 13.5 35.5t35.5 13.5h88q22 0 35.5 -13.5t13.5 -35.5v-35q0 -22 -13 -35.5t-36 -13.5z
" />
    <glyph glyph-name="j" unicode="j" horiz-adv-x="449" 
d="M198 519h66q22 0 35.5 -13.5t13.5 -35.5v-461q0 -86 -51.5 -140t-143.5 -54q-82 0 -126 38q-27 24 -27 56t23 55l6 6q17 17 34 17q15 0 35 -16q20 -15 41 -15q19 0 32 14t13 41v459q0 22 13.5 35.5t35.5 13.5zM275 609h-88q-23 0 -36 13.5t-13 35.5v35q0 22 13.5 35.5
t35.5 13.5h88q22 0 35.5 -13.5t13.5 -35.5v-35q0 -22 -13 -35.5t-36 -13.5z" />
    <glyph glyph-name="k" unicode="k" horiz-adv-x="767" 
d="M504 27l-150 193l-65 -50v-132q0 -17 -10 -27.5t-28 -10.5h-88q-17 0 -27.5 10.5t-10.5 27.5v723q0 17 10.5 27.5t27.5 10.5h88q18 0 28 -10.5t10 -27.5v-420l179 151q33 27 62 27h103q40 0 40 -35q0 -19 -21 -35l-172 -132l192 -247q20 -24 20 -38q0 -32 -38 -32h-88
q-40 0 -62 27z" />
    <glyph glyph-name="l" unicode="l" horiz-adv-x="414" 
d="M174 0q-22 0 -35.5 13.5t-13.5 35.5v701q0 22 13.5 35.5t35.5 13.5h66q22 0 35.5 -13.5t13.5 -35.5v-701q0 -23 -13.5 -36t-35.5 -13h-66z" />
    <glyph glyph-name="m" unicode="m" horiz-adv-x="1183" 
d="M240 0h-66q-22 0 -35.5 13.5t-13.5 35.5v420q0 23 13 36.5t35 13.5h9q29 0 50 -15.5t27 -41.5q71 71 181 71q123 0 189 -78q84 78 205 78q117 0 180.5 -62.5t63.5 -180.5v-241q0 -23 -13 -36t-36 -13h-66q-23 0 -36 13t-13 36v230q0 57 -26.5 87.5t-77.5 30.5
q-65 0 -126 -45v-303q0 -23 -13 -36t-36 -13h-66q-23 0 -36 13t-13 36v274q-28 74 -106 74q-62 0 -125 -52v-296q0 -23 -13.5 -36t-35.5 -13z" />
    <glyph glyph-name="n" unicode="n" horiz-adv-x="788" 
d="M174 0q-22 0 -35.5 13.5t-13.5 35.5v421q0 22 13.5 35.5t35.5 13.5h9q61 0 75 -56q82 70 194 70q106 0 168.5 -63t62.5 -180v-241q0 -23 -13.5 -36t-35.5 -13h-66q-22 0 -35.5 13.5t-13.5 35.5v235q0 55 -26.5 86t-76.5 31q-72 0 -127 -57v-295q0 -22 -13.5 -35.5
t-35.5 -13.5h-66z" />
    <glyph glyph-name="o" unicode="o" horiz-adv-x="754" 
d="M377 120q58 0 93 41t35 99t-34.5 98.5t-93.5 40.5q-58 0 -93 -41t-35 -99t34.5 -98.5t93.5 -40.5zM377 -14q-132 0 -217 79t-85 194t85 194.5t217 79.5t217 -79.5t85 -194.5t-85 -194t-217 -79z" />
    <glyph glyph-name="p" unicode="p" horiz-adv-x="774" 
d="M241 -171h-67q-22 0 -35.5 13.5t-13.5 35.5v592q0 22 13.5 35.5t35.5 13.5h10q55 0 72 -48q72 62 171 62q116 0 194 -78.5t78 -195.5q0 -122 -83.5 -197.5t-197.5 -75.5q-69 0 -129 29v-137q0 -22 -13 -35.5t-35 -13.5zM397 399q-60 0 -108 -43v-199q46 -37 105 -37
q58 0 94.5 39t36.5 100q0 60 -35 100t-93 40z" />
    <glyph glyph-name="q" unicode="q" horiz-adv-x="774" 
d="M590 519h10q22 0 35.5 -13.5t13.5 -35.5v-592q0 -22 -13.5 -35.5t-35.5 -13.5h-67q-22 0 -35 13.5t-13 35.5v137q-60 -29 -129 -29q-114 0 -197.5 75.5t-83.5 197.5q0 117 78 195.5t194 78.5q100 0 170 -62q18 48 73 48zM377 399q-58 0 -93 -40t-35 -100q0 -61 36.5 -100
t94.5 -39q57 0 105 37v199q-48 43 -108 43z" />
    <glyph glyph-name="r" unicode="r" horiz-adv-x="610" 
d="M413 350q0 49 -34 49q-43 0 -90 -58v-292q0 -23 -13.5 -36t-35.5 -13h-66q-22 0 -35.5 13.5t-13.5 35.5v420q0 23 13.5 36.5t35.5 13.5h9q28 0 48.5 -15t26.5 -41q73 70 163 70q70 0 107 -41t37 -103q0 -89 -78 -89h-25q-23 0 -36 13.5t-13 36.5z" />
    <glyph glyph-name="s" unicode="s" horiz-adv-x="692" 
d="M542 487q33 -22 33 -54q0 -34 -23 -57l-6 -6q-17 -17 -34 -17q-12 0 -36 14q-73 42 -149 42q-40 0 -61 -10.5t-21 -27.5q0 -18 25 -26.5t81 -16.5q49 -7 77 -12t63.5 -14t54.5 -19.5t37.5 -26t26 -37.5t7.5 -51q0 -85 -70 -133.5t-198 -48.5q-79 0 -146 18t-101 47
q-27 24 -27 56t23 55l6 6q17 17 36 17q15 0 33 -13q82 -61 192 -61q93 0 93 45q0 20 -25 28.5t-105 20.5q-29 4 -46 7q-94 15 -144.5 49.5t-50.5 104.5q0 83 70 125t181 42q71 0 124.5 -14.5t79.5 -31.5z" />
    <glyph glyph-name="t" unicode="t" horiz-adv-x="611" 
d="M114 393q-22 0 -35.5 13.5t-13.5 36.5v26q0 23 13.5 36.5t35.5 13.5h67v152q0 23 13.5 36t35.5 13h66q22 0 35.5 -13.5t13.5 -35.5v-152h130q23 0 36 -13.5t13 -36.5v-26q0 -23 -13 -36.5t-36 -13.5h-130v-211q0 -27 12 -41t30 -14q21 0 41 15q20 16 35 16q17 0 34 -17
l6 -6q23 -23 23 -55t-27 -56q-43 -38 -132 -38q-186 0 -186 194v213h-67z" />
    <glyph glyph-name="u" unicode="u" horiz-adv-x="788" 
d="M614 519q22 0 35.5 -13.5t13.5 -35.5v-421q0 -22 -13.5 -35.5t-35.5 -13.5h-9q-29 0 -49.5 15.5t-26.5 40.5q-79 -70 -193 -70q-106 0 -168.5 63t-62.5 180v241q0 22 13.5 35.5t35.5 13.5h66q22 0 35.5 -13.5t13.5 -35.5v-235q0 -55 26.5 -86t76.5 -31q72 0 127 57v295
q0 22 13.5 35.5t35.5 13.5h66z" />
    <glyph glyph-name="v" unicode="v" horiz-adv-x="750" 
d="M403 0h-56q-28 0 -44.5 10.5t-29.5 36.5l-212 405q-6 14 -6 25q0 18 11.5 30t32.5 12h69q40 0 55 -30l152 -306l152 306q15 30 55 30h69q21 0 32.5 -12t11.5 -30q0 -11 -6 -25l-212 -405q-13 -26 -29.5 -36.5t-44.5 -10.5z" />
    <glyph glyph-name="w" unicode="w" horiz-adv-x="1056" 
d="M554 519q39 0 53 -35l122 -293l99 292q12 36 55 36h69q21 0 32.5 -12t11.5 -30q0 -11 -6 -25l-162 -416q-15 -36 -51 -36h-81q-36 0 -51 36l-117 290l-117 -290q-15 -36 -51 -36h-81q-36 0 -51 36l-162 416q-6 14 -6 25q0 18 11.5 30t32.5 12h69q43 0 55 -36l99 -292
l122 293q14 35 53 35h52z" />
    <glyph glyph-name="x" unicode="x" horiz-adv-x="750" 
d="M636 519q39 0 39 -39q0 -15 -13 -30l-176 -188l186 -193q13 -15 13 -30q0 -39 -39 -39h-101q-27 0 -55 30l-115 129l-115 -129q-28 -30 -55 -30h-101q-39 0 -39 39q0 15 13 30l186 193l-176 188q-13 15 -13 30q0 39 39 39h101q30 0 55 -30l105 -124l105 124q25 30 55 30
h101z" />
    <glyph glyph-name="y" unicode="y" horiz-adv-x="760" 
d="M200 -27q26 -17 45 -17q33 0 50 35l9 18l-233 443q-6 14 -6 25q0 18 11.5 30t32.5 12h69q40 0 55 -30l151 -315l153 314q14 31 55 31h69q21 0 32.5 -12t11.5 -30q0 -11 -6 -25l-257 -487q-45 -84 -84 -117t-108 -33q-37 0 -70.5 11.5t-50.5 27.5q-27 26 -27 56
q0 32 23 55l6 6q17 17 33 17q12 0 36 -15z" />
    <glyph glyph-name="z" unicode="z" horiz-adv-x="734" 
d="M144 0q-22 0 -35.5 13.5t-13.5 35.5v23q0 30 20 50l274 265h-233q-22 0 -35.5 13.5t-13.5 35.5v33q0 23 13.5 36.5t35.5 13.5h429q22 0 35.5 -13.5t13.5 -36.5v-27q0 -25 -24 -49l-265 -260h245q22 0 35.5 -13.5t13.5 -35.5v-35q0 -22 -13.5 -35.5t-35.5 -13.5h-446z" />
    <glyph glyph-name="braceleft" unicode="{" horiz-adv-x="672" 
d="M100 280v68q0 21 13.5 34t35.5 15q37 2 54 26t17 78q0 7 -1 40t-1 62q0 96 56.5 153t165.5 57q59 0 92 -13q40 -15 40 -63v-19q0 -48 -48 -48q-10 0 -34 4.5t-38 4.5q-74 0 -74 -100q0 -11 1.5 -47.5t1.5 -51.5q0 -62 -23 -102.5t-83 -63.5q60 -23 83 -63.5t23 -102.5
q0 -15 -1.5 -51.5t-1.5 -47.5q0 -100 74 -100q14 0 38 4.5t34 4.5q48 0 48 -48v-19q0 -48 -40 -63q-33 -13 -92 -13q-109 0 -165.5 57t-56.5 153q0 29 1 62t1 40q0 54 -17 78t-54 26q-22 2 -35.5 15t-13.5 34z" />
    <glyph glyph-name="bar" unicode="|" horiz-adv-x="364" 
d="M149 -171q-22 0 -35.5 13.5t-13.5 35.5v872q0 22 13.5 35.5t35.5 13.5h66q22 0 35.5 -13.5t13.5 -35.5v-872q0 -22 -13 -35.5t-36 -13.5h-66z" />
    <glyph glyph-name="braceright" unicode="}" horiz-adv-x="672" 
d="M572 348v-68q0 -21 -13.5 -34t-35.5 -15q-37 -2 -54 -26t-17 -78q0 -7 1 -40t1 -62q0 -96 -56.5 -153t-165.5 -57q-59 0 -92 13q-40 15 -40 63v19q0 48 48 48q10 0 34 -4.5t38 -4.5q74 0 74 100q0 11 -1.5 47.5t-1.5 51.5q0 62 23 102.5t83 63.5q-60 23 -83 63.5
t-23 102.5q0 15 1.5 51.5t1.5 47.5q0 100 -74 100q-14 0 -38 -4.5t-34 -4.5q-48 0 -48 48v19q0 48 40 63q33 13 92 13q109 0 165.5 -57t56.5 -153q0 -29 -1 -62t-1 -40q0 -54 17 -78t54 -26q22 -2 35.5 -15t13.5 -34z" />
    <glyph glyph-name="asciitilde" unicode="~" horiz-adv-x="769" 
d="M488 372q31 0 48 39q14 32 56 32q14 0 29 -5l6 -2q56 -19 56 -69q0 -29 -17 -60q-48 -82 -149 -82q-56 0 -130 34.5t-92 34.5q-29 0 -46 -39q-15 -32 -58 -32q-11 0 -29 5l-4 1q-58 14 -58 71q0 24 12 50q19 39 59 64.5t96 25.5t129.5 -34t91.5 -34z" />
    <glyph glyph-name="uni00A0" unicode="&#xa0;" horiz-adv-x="0" 
 />
    <glyph glyph-name="exclamdown" unicode="&#xa1;" horiz-adv-x="399" 
d="M185 290h28q44 0 49 -49l36 -363q2 -22 -10.5 -35.5t-35.5 -13.5h-105q-23 0 -35.5 13.5t-10.5 35.5l35 363q5 49 49 49zM153 571h94q23 0 36 -13.5t13 -35.5v-52q0 -22 -13.5 -35.5t-35.5 -13.5h-94q-22 0 -35.5 13.5t-13.5 35.5v52q0 22 13 35.5t36 13.5z" />
    <glyph glyph-name="cent" unicode="&#xa2;" horiz-adv-x="813" 
d="M100 370q0 115 73 191t190 94v38q0 22 13.5 35.5t35.5 13.5h31q22 0 35.5 -13.5t13.5 -35.5v-38q114 -18 198 -105q23 -23 23 -51t-34 -62l-14 -14q-14 -14 -34 -14q-23 0 -39 19q-44 51 -100 74v-265q54 21 100 74q16 19 39 19q20 0 34 -14l14 -14q34 -34 34 -61
q0 -29 -23 -52q-86 -89 -198 -106v-34q0 -23 -13 -36t-36 -13h-31q-22 0 -35.5 13.5t-13.5 35.5v35q-117 18 -190 94t-73 192zM265 370q0 -49 26.5 -85.5t71.5 -51.5v272q-45 -15 -71.5 -51t-26.5 -84z" />
    <glyph glyph-name="sterling" unicode="&#xa3;" horiz-adv-x="954" 
d="M805 0h-656q-23 0 -36 13t-13 36v37q0 22 13.5 35.5t35.5 13.5h11q41 0 84 11.5t78.5 42t35.5 72.5q0 27 -18 55h-159q-23 0 -36 13t-13 36v37q0 22 13.5 35.5t35.5 13.5h67q-10 33 -10 69q0 109 83.5 172.5t213.5 63.5q85 0 160.5 -25.5t109.5 -58.5q20 -19 20 -40
q0 -32 -28 -59l-20 -19q-13 -12 -30 -12t-34 12q-82 58 -175 58q-62 0 -99 -28.5t-37 -75.5q0 -29 15 -57h328q22 0 35.5 -13.5t13.5 -35.5v-37q0 -23 -13 -36t-36 -13h-238q15 -33 15 -67q0 -73 -65 -114h348q22 0 35.5 -13.5t13.5 -35.5v-37q0 -23 -13 -36t-36 -13z" />
    <glyph glyph-name="yen" unicode="&#xa5;" horiz-adv-x="1121" 
d="M1008 673l-319 -336h138q22 0 35.5 -13.5t13.5 -35.5v-37q0 -23 -13 -36t-36 -13h-184v-153q0 -23 -13.5 -36t-35.5 -13h-66q-22 0 -35.5 13.5t-13.5 35.5v153h-190q-23 0 -36 13t-13 36v37q0 22 13.5 35.5t35.5 13.5h144l-320 336q-13 15 -13 30q0 39 39 39h98
q33 0 62 -30l261 -286l262 286q28 30 62 30h98q39 0 39 -39q0 -15 -13 -30z" />
    <glyph glyph-name="brokenbar" unicode="&#xa6;" horiz-adv-x="364" 
d="M149 403q-22 0 -35.5 13.5t-13.5 35.5v326q0 22 13.5 35.5t35.5 13.5h66q22 0 35.5 -13.5t13.5 -35.5v-326q0 -22 -13 -35.5t-36 -13.5h-66zM149 -150q-22 0 -35.5 13.5t-13.5 35.5v326q0 22 13.5 35.5t35.5 13.5h66q22 0 35.5 -13.5t13.5 -35.5v-326q0 -23 -13 -36
t-36 -13h-66z" />
    <glyph glyph-name="section" unicode="&#xa7;" horiz-adv-x="810" 
d="M211 184q49 -31 116.5 -47.5t128.5 -16.5q89 0 89 35q0 14 -15 21t-51 12l-155 20q-119 16 -171.5 53.5t-52.5 104.5q0 61 41 116q-41 38 -41 99q0 82 70 128t195 46q89 0 175 -21.5t134 -49.5q36 -21 36 -51q0 -25 -18 -45l-23 -25q-16 -17 -36 -17q-17 0 -34 11
q-49 31 -116.5 47.5t-128.5 16.5q-89 0 -89 -35q0 -14 15 -21t51 -12l155 -20q120 -15 172 -53.5t52 -103.5q0 -64 -42 -117q42 -37 42 -99q0 -82 -70.5 -128t-194.5 -46q-89 0 -175 21.5t-134 49.5q-36 20 -36 51q0 26 18 45l23 25q16 17 36 17q17 0 34 -11zM560 345
q0 26 -19 39t-69 19l-170 21q-27 3 -44 7q-8 -18 -8 -35q0 -26 19 -39t69 -19l170 -21q30 -4 44 -7q8 16 8 35z" />
    <glyph glyph-name="dieresis" unicode="&#xa8;" horiz-adv-x="639" 
d="M236 614h-87q-23 0 -36 13t-13 36v25q0 22 13.5 35.5t35.5 13.5h87q22 0 35.5 -13.5t13.5 -35.5v-25q0 -23 -13.5 -36t-35.5 -13zM490 614h-87q-23 0 -36 13t-13 36v25q0 22 13.5 35.5t35.5 13.5h87q22 0 35.5 -13.5t13.5 -35.5v-25q0 -23 -13.5 -36t-35.5 -13z" />
    <glyph glyph-name="copyright" unicode="&#xa9;" horiz-adv-x="1132" 
d="M100 400q0 174 135 293t330 119q128 0 235.5 -54t169.5 -149t62 -209q0 -174 -136 -294.5t-331 -120.5t-330 120.5t-135 294.5zM199 400q0 -136 106.5 -231t259.5 -95t260.5 95t107.5 231q0 135 -107.5 229t-260.5 94t-259.5 -93.5t-106.5 -229.5zM317 398
q0 105 75.5 168t188.5 63q67 0 116 -21t71 -45q20 -21 20 -46q0 -26 -23 -49l-10 -10q-14 -14 -32 -14q-15 0 -39 17q-53 40 -102 40q-52 0 -84 -29t-32 -74t32 -74t84 -29q49 0 102 40q24 17 39 17q18 0 32 -14l10 -10q23 -23 23 -49q0 -25 -20 -46q-22 -24 -71 -45
t-116 -21q-113 0 -188.5 63t-75.5 168z" />
    <glyph glyph-name="ordfeminine" unicode="&#xaa;" horiz-adv-x="599" 
d="M266 358q-71 0 -118.5 33.5t-47.5 89.5q0 55 47.5 88t123.5 33q64 0 113 -28v22q0 55 -83 55q-58 0 -108 -31q-11 -7 -23 -7q-17 0 -32 14q-17 17 -17 35q0 22 21 39q49 41 161 41q98 0 146.5 -38.5t48.5 -105.5v-181q0 -23 -13 -36t-36 -13h-2q-35 0 -48 31
q-57 -41 -133 -41zM450 217h-287q-22 0 -35.5 13.5t-13.5 35.5v1q0 22 13.5 35t35.5 13h287q22 0 35.5 -13t13.5 -35v-1q0 -22 -13.5 -35.5t-35.5 -13.5zM298 526q-33 0 -53.5 -12.5t-20.5 -33.5q0 -22 21 -33.5t51 -11.5q59 0 88 31v30q-29 30 -86 30z" />
    <glyph glyph-name="guillemotleft" unicode="&#xab;" horiz-adv-x="833" 
d="M100 247q0 17 12 30l148 167q22 25 50 25h72q17 0 28 -8.5t11 -23.5t-13 -29l-141 -161l141 -162q13 -14 13 -29t-11 -23.5t-28 -8.5h-72q-28 0 -50 25l-148 167q-12 14 -12 31zM412 247q0 17 12 30l148 167q22 25 50 25h72q17 0 28 -8.5t11 -23.5t-13 -29l-141 -161
l141 -162q13 -14 13 -29t-11 -23.5t-28 -8.5h-72q-28 0 -50 25l-148 167q-12 14 -12 31z" />
    <glyph glyph-name="logicalnot" unicode="&#xac;" horiz-adv-x="763" 
d="M548 0q-22 0 -35.5 13.5t-13.5 35.5v199h-350q-23 0 -36 13t-13 36v52q0 22 13.5 35.5t35.5 13.5h465q22 0 35.5 -13.5t13.5 -35.5v-300q0 -23 -13.5 -36t-35.5 -13h-66z" />
    <glyph glyph-name="uni00AD" unicode="&#xad;" horiz-adv-x="594" 
d="M435 193h-276q-23 0 -36 13.5t-13 35.5v52q0 22 13.5 35.5t35.5 13.5h276q22 0 35.5 -13.5t13.5 -35.5v-52q0 -22 -13 -35.5t-36 -13.5z" />
    <glyph glyph-name="registered" unicode="&#xae;" horiz-adv-x="1132" 
d="M100 400q0 174 135 293t330 119q128 0 235.5 -54t169.5 -149t62 -209q0 -174 -136 -294.5t-331 -120.5t-330 120.5t-135 294.5zM199 400q0 -136 106.5 -231t259.5 -95t260.5 95t107.5 231q0 135 -107.5 229t-260.5 94t-259.5 -93.5t-106.5 -229.5zM393 621h251
q79 0 120.5 -39t41.5 -99q0 -91 -83 -125l77 -91q11 -13 11 -28q0 -18 -11.5 -29.5t-32.5 -11.5h-42q-31 0 -57 30l-90 108h-102v-89q0 -23 -13 -36t-36 -13h-34q-22 0 -35.5 13.5t-13.5 35.5v325q0 22 13.5 35.5t35.5 13.5zM476 440h153q19 0 31 10t12 26q0 33 -43 33h-153
v-69z" />
    <glyph glyph-name="macron" unicode="&#xaf;" horiz-adv-x="550" 
d="M401 610h-252q-23 0 -36 13t-13 36v19q0 22 13.5 35.5t35.5 13.5h252q22 0 35.5 -13.5t13.5 -35.5v-19q0 -23 -13 -36t-36 -13z" />
    <glyph glyph-name="degree" unicode="&#xb0;" horiz-adv-x="650" 
d="M100 545q0 90 65.5 150.5t157.5 60.5t158 -60.5t66 -150.5q0 -89 -66 -149.5t-158 -60.5t-157.5 60t-65.5 150zM229 545q0 -39 27.5 -66.5t66.5 -27.5t67 27.5t28 66.5t-28 67t-67 28t-66.5 -28t-27.5 -67z" />
    <glyph glyph-name="plusminus" unicode="&#xb1;" horiz-adv-x="833" 
d="M676 356h-187v-187q0 -23 -13.5 -36t-35.5 -13h-66q-22 0 -35.5 13.5t-13.5 35.5v187h-187q-22 0 -35.5 13t-13.5 36v52q0 22 13.5 35.5t35.5 13.5h187v187q0 22 13.5 35.5t35.5 13.5h66q22 0 35.5 -13.5t13.5 -35.5v-187h187q22 0 35.5 -13.5t13.5 -35.5v-52
q0 -23 -13.5 -36t-35.5 -13zM687 -150h-538q-23 0 -36 13t-13 36v52q0 22 13.5 35.5t35.5 13.5h538q22 0 35.5 -13.5t13.5 -35.5v-52q0 -23 -13 -36t-36 -13z" />
    <glyph glyph-name="twosuperior" unicode="&#xb2;" horiz-adv-x="477" 
d="M254 756q70 0 110 -30t40 -79q0 -44 -33 -72.5t-100 -48.5q-47 -13 -64 -32h151q23 0 36 -13t13 -35v-3q0 -22 -13 -35t-36 -13h-249q-39 0 -39 45q0 57 46 100.5t124 66.5q47 14 47 34q0 22 -36 22q-38 0 -86 -25q-18 -10 -34 -10q-21 0 -37 15q-6 7 -11 14q-6 11 -6 21
q0 19 21 35q56 43 156 43z" />
    <glyph glyph-name="threesuperior" unicode="&#xb3;" horiz-adv-x="491" 
d="M253 385q-109 0 -163 46q-20 17 -20 37q0 10 4 17q4 8 14 18q13 13 31 13t36 -11q46 -27 97 -27q59 0 59 33q0 22 -43 22h-70q-38 0 -38 37v3q0 37 38 37h69q35 0 35 25q0 14 -13.5 22.5t-35.5 8.5q-42 0 -90 -25q-24 -13 -36 -13q-17 0 -32 15q-9 9 -13 17t-4 17
q0 20 21 36q56 43 155 43q74 0 116.5 -32.5t42.5 -79.5q0 -49 -35 -71q43 -26 43 -73q0 -52 -43 -83.5t-125 -31.5z" />
    <glyph glyph-name="acute" unicode="&#xb4;" horiz-adv-x="500" 
d="M374 675l-164 -88q-20 -11 -41 -11q-40 0 -61 38l-1 2q-7 13 -7 26q0 27 26 40l164 88q20 11 41 11q40 0 61 -38l1 -2q7 -13 7 -26q0 -27 -26 -40z" />
    <glyph glyph-name="mu" unicode="&#xb5;" horiz-adv-x="788" 
d="M154 -171q-22 0 -35.5 13.5t-13.5 35.5v592q0 22 13.5 35.5t35.5 13.5h66q22 0 35.5 -13.5t13.5 -35.5v-242q2 -53 28 -82t74 -29q73 0 128 57v296q0 22 13.5 35.5t35.5 13.5h66q22 0 35.5 -13.5t13.5 -35.5v-422q0 -22 -13.5 -35.5t-35.5 -13.5h-9q-29 0 -49.5 15.5
t-26.5 40.5q-78 -70 -178 -70q-50 0 -86 14v-121q0 -22 -13.5 -35.5t-35.5 -13.5h-62z" />
    <glyph glyph-name="paragraph" unicode="&#xb6;" horiz-adv-x="1089" 
d="M576 -171q-22 0 -35.5 13.5t-13.5 35.5v391h-185q-123 0 -190 66t-67 169q0 105 66.5 171.5t190.5 66.5h300q22 0 35.5 -13.5t13.5 -35.5v-815q0 -22 -13.5 -35.5t-35.5 -13.5h-66zM849 -171q-22 0 -35.5 13.5t-13.5 35.5v815q0 22 13.5 35.5t35.5 13.5h66
q22 0 35.5 -13.5t13.5 -35.5v-815q0 -22 -13 -35.5t-36 -13.5h-66zM259 505q0 -38 25 -63t69 -25h174v177h-174q-44 0 -69 -25t-25 -64z" />
    <glyph glyph-name="periodcentered" unicode="&#xb7;" horiz-adv-x="392" 
d="M243 214h-94q-23 0 -36 13t-13 36v52q0 22 13.5 35.5t35.5 13.5h94q22 0 35.5 -13.5t13.5 -35.5v-52q0 -23 -13 -36t-36 -13z" />
    <glyph glyph-name="cedilla" unicode="&#xb8;" horiz-adv-x="435" 
d="M143 -64q8 0 22.5 -3.5t21.5 -3.5q17 0 29 11t12 28q0 31 -42 86h105q44 -49 44 -112q0 -53 -35.5 -90t-102.5 -37q-93 0 -97 70q0 19 9 32l3 4q13 15 31 15z" />
    <glyph glyph-name="onesuperior" unicode="&#xb9;" horiz-adv-x="490" 
d="M119 395q-22 0 -35.5 13.5t-13.5 35.5v1q0 22 13.5 35t35.5 13h90v121q-54 -30 -81 -30q-21 0 -35 13.5t-14 35.5v9q0 31 33 43q54 20 93 44q26 17 50 17h15q22 0 35.5 -13t13.5 -35v-205h52q22 0 35.5 -13t13.5 -35v-1q0 -22 -13 -35.5t-36 -13.5h-252z" />
    <glyph glyph-name="ordmasculine" unicode="&#xba;" horiz-adv-x="627" 
d="M314 451q42 0 66 28.5t24 69.5q0 42 -24.5 70.5t-66.5 28.5q-41 0 -65.5 -29t-24.5 -71q0 -41 25 -69t66 -28zM313 355q-92 0 -152.5 56t-60.5 137q0 82 60 138t153 56q94 0 154 -56t60 -138q0 -81 -60 -137t-154 -56zM169 217q-22 0 -35.5 13.5t-13.5 35.5v1
q0 22 13.5 35t35.5 13h287q22 0 35.5 -13t13.5 -35v-1q0 -22 -13.5 -35.5t-35.5 -13.5h-287z" />
    <glyph glyph-name="guillemotright" unicode="&#xbb;" horiz-adv-x="833" 
d="M421 247q0 -17 -12 -31l-148 -167q-22 -25 -50 -25h-72q-17 0 -28 8.5t-11 23.5t13 29l141 162l-141 161q-13 14 -13 29t11 23.5t28 8.5h72q28 0 50 -25l148 -167q12 -13 12 -30zM733 247q0 -17 -12 -31l-148 -167q-22 -25 -50 -25h-72q-17 0 -28 8.5t-11 23.5t13 29
l141 162l-141 161q-13 14 -13 29t11 23.5t28 8.5h72q28 0 50 -25l148 -167q12 -13 12 -30z" />
    <glyph glyph-name="onequarter" unicode="&#xbc;" horiz-adv-x="1056" 
d="M269 61l464 656q19 25 50 25h36q38 0 38 -31q0 -14 -11 -30l-464 -656q-19 -25 -50 -25h-36q-38 0 -38 31q0 14 11 30zM119 395q-22 0 -35.5 13.5t-13.5 35.5v1q0 22 13.5 35t35.5 13h90v121q-54 -30 -81 -30q-21 0 -35 13.5t-14 35.5v9q0 31 33 43q54 20 93 44
q26 17 50 17h15q22 0 35.5 -13t13.5 -35v-205h52q22 0 35.5 -13t13.5 -35v-1q0 -22 -13 -35.5t-36 -13.5h-252zM799 37v16h-161q-23 0 -36 13.5t-13 36.5v10q0 31 25 52l176 153q24 21 54 21h32q18 0 29 -11t11 -29v-148h21q22 0 35 -12.5t14 -33.5v-3q0 -22 -13 -35.5
t-36 -13.5h-21v-16q0 -23 -13.5 -36t-36.5 -13h-18q-22 0 -35.5 13.5t-13.5 35.5zM812 141v86l-97 -86h97z" />
    <glyph glyph-name="onehalf" unicode="&#xbd;" horiz-adv-x="1066" 
d="M278 61l464 656q19 25 50 25h36q38 0 38 -31q0 -14 -11 -30l-464 -656q-19 -25 -50 -25h-36q-38 0 -38 31q0 14 11 30zM119 395q-22 0 -35.5 13.5t-13.5 35.5v1q0 22 13.5 35t35.5 13h90v121q-54 -30 -81 -30q-21 0 -35 13.5t-14 35.5v9q0 31 33 43q54 20 93 44
q26 17 50 17h15q22 0 35.5 -13t13.5 -35v-205h52q22 0 35.5 -13t13.5 -35v-1q0 -22 -13 -35.5t-36 -13.5h-252zM843 349q70 0 110 -30t40 -79q0 -44 -33 -72.5t-100 -48.5q-47 -13 -64 -32h151q23 0 36 -13t13 -35v-3q0 -22 -13 -35t-36 -13h-249q-39 0 -39 45
q0 57 46 100.5t124 66.5q47 14 47 34q0 22 -36 22q-38 0 -86 -25q-18 -10 -34 -10q-21 0 -37 15q-6 7 -11 14q-6 10 -6 21q0 19 21 35q56 43 156 43z" />
    <glyph glyph-name="threequarters" unicode="&#xbe;" horiz-adv-x="1077" 
d="M270 61l464 656q19 25 50 25h36q38 0 38 -31q0 -14 -11 -30l-464 -656q-19 -25 -50 -25h-36q-38 0 -38 31q0 14 11 30zM253 385q-109 0 -163 46q-20 17 -20 37q0 10 4 17q4 8 14 18q13 13 31 13t36 -11q46 -27 97 -27q59 0 59 33q0 22 -43 22h-70q-38 0 -38 37v3
q0 37 38 37h69q35 0 35 25q0 14 -13.5 22.5t-35.5 8.5q-42 0 -90 -25q-24 -13 -36 -13q-17 0 -32 15q-9 9 -13 17t-4 17q0 20 21 36q56 43 155 43q74 0 116.5 -32.5t42.5 -79.5q0 -49 -35 -71q43 -26 43 -73q0 -52 -43 -83.5t-125 -31.5zM820 37v16h-161q-23 0 -36 13.5
t-13 36.5v10q0 31 25 52l176 153q24 21 54 21h32q18 0 29 -11t11 -29v-148h21q22 0 35 -12.5t14 -33.5v-3q0 -22 -13.5 -35.5t-35.5 -13.5h-21v-16q0 -23 -13.5 -36t-36.5 -13h-18q-22 0 -35.5 13.5t-13.5 35.5zM833 141v86l-97 -86h97z" />
    <glyph glyph-name="questiondown" unicode="&#xbf;" horiz-adv-x="894" 
d="M527 571q22 0 35.5 -13.5t13.5 -35.5v-52q0 -22 -13.5 -35.5t-35.5 -13.5h-94q-22 0 -35.5 13.5t-13.5 35.5v52q0 22 13 35.5t36 13.5h94zM406 -31q153 0 257 72q24 17 43 17q17 0 33 -13l15 -13q40 -35 40 -66q0 -26 -24 -46q-60 -50 -158 -77.5t-198 -27.5
q-137 0 -225.5 52t-88.5 152q0 67 44.5 110.5t133.5 72.5l85 27q33 10 33 43v24q0 22 13 35.5t36 13.5h71q22 0 35.5 -13.5t13.5 -35.5v-72q0 -77 -78 -102l-120 -39q-28 -9 -39 -13t-27 -11.5t-21.5 -16t-5.5 -19.5q0 -54 132 -54z" />
    <glyph glyph-name="Agrave" unicode="&#xc0;" 
d="M429 742h92q40 0 55 -30l332 -645q7 -13 7 -26q0 -18 -12 -29.5t-33 -11.5h-79q-40 0 -55 30l-56 115h-410l-56 -115q-15 -30 -55 -30h-79q-21 0 -33 11.5t-12 29.5q0 13 7 26l332 645q15 30 55 30zM475 564l-132 -269h263zM513 810l-164 88q-26 13 -26 40q0 13 7 26l1 2
q21 38 61 38q21 0 41 -11l164 -88q26 -13 26 -40q0 -13 -7 -26l-1 -2q-21 -38 -61 -38q-21 0 -41 11z" />
    <glyph glyph-name="Aacute" unicode="&#xc1;" 
d="M429 742h92q40 0 55 -30l332 -645q7 -13 7 -26q0 -18 -12 -29.5t-33 -11.5h-79q-40 0 -55 30l-56 115h-410l-56 -115q-15 -30 -55 -30h-79q-21 0 -33 11.5t-12 29.5q0 13 7 26l332 645q15 30 55 30zM475 564l-132 -269h263zM600 898l-164 -88q-20 -11 -41 -11
q-40 0 -61 38l-1 2q-7 13 -7 26q0 27 26 40l164 88q20 11 41 11q40 0 61 -38l1 -2q7 -13 7 -26q0 -27 -26 -40z" />
    <glyph glyph-name="Acircumflex" unicode="&#xc2;" 
d="M429 742h92q40 0 55 -30l332 -645q7 -13 7 -26q0 -18 -12 -29.5t-33 -11.5h-79q-40 0 -55 30l-56 115h-410l-56 -115q-15 -30 -55 -30h-79q-21 0 -33 11.5t-12 29.5q0 13 7 26l332 645q15 30 55 30zM475 564l-132 -269h263zM475 1019q13 0 27 -8l154 -98q23 -16 23 -37
q0 -17 -11 -31q-9 -12 -27 -20q-17 -7 -30 -7q-28 0 -59 21l-77 51l-77 -51q-31 -21 -59 -21q-13 0 -30 7q-18 8 -27 20q-11 14 -11 31q0 21 23 37l154 98q14 8 27 8z" />
    <glyph glyph-name="Atilde" unicode="&#xc3;" 
d="M429 742h92q40 0 55 -30l332 -645q7 -13 7 -26q0 -18 -12 -29.5t-33 -11.5h-79q-40 0 -55 30l-56 115h-410l-56 -115q-15 -30 -55 -30h-79q-21 0 -33 11.5t-12 29.5q0 13 7 26l332 645q15 30 55 30zM475 564l-132 -269h263zM557 819q-36 0 -85.5 27.5t-60.5 27.5
q-20 0 -31 -31q-9 -26 -37 -26q-9 0 -20 4l-3 1q-39 14 -39 51q0 12 5 32q10 37 39.5 62.5t68.5 25.5q36 0 85 -27.5t60 -27.5q20 0 31 31q9 26 35 26q10 0 22 -4l3 -1q39 -13 39 -50q0 -14 -5 -32q-11 -38 -39 -63.5t-68 -25.5z" />
    <glyph glyph-name="Adieresis" unicode="&#xc4;" 
d="M429 742h92q40 0 55 -30l332 -645q7 -13 7 -26q0 -18 -12 -29.5t-33 -11.5h-79q-40 0 -55 30l-56 115h-410l-56 -115q-15 -30 -55 -30h-79q-21 0 -33 11.5t-12 29.5q0 13 7 26l332 645q15 30 55 30zM475 564l-132 -269h263zM392 837h-87q-23 0 -36 13.5t-13 35.5v25
q0 22 13.5 35.5t35.5 13.5h87q22 0 35.5 -13.5t13.5 -35.5v-25q0 -22 -13.5 -35.5t-35.5 -13.5zM646 837h-87q-23 0 -36 13.5t-13 35.5v25q0 22 13.5 35.5t35.5 13.5h87q22 0 35.5 -13.5t13.5 -35.5v-25q0 -22 -13.5 -35.5t-35.5 -13.5z" />
    <glyph glyph-name="Aring" unicode="&#xc5;" 
d="M327 823q0 52 40.5 91.5t108.5 39.5t108 -39.5t40 -91.5q0 -63 -54 -102l6 -9l332 -645q7 -13 7 -26q0 -18 -12 -29.5t-33 -11.5h-79q-40 0 -55 30l-56 115h-410l-56 -115q-15 -30 -55 -30h-79q-21 0 -33 11.5t-12 29.5q0 13 7 26l332 645l6 9q-53 38 -53 102zM475 564
l-132 -269h263zM415 823q0 -22 16 -39t45 -17t45 17t16 39t-16 39t-45 17t-45 -17t-16 -39z" />
    <glyph glyph-name="AE" unicode="&#xc6;" horiz-adv-x="1459" 
d="M692 0q-22 0 -35.5 13.5t-13.5 35.5v103h-371l-59 -122q-15 -30 -55 -30h-79q-21 0 -32.5 12t-11.5 30q0 13 6 25l332 645q15 30 55 30h902q22 0 35.5 -13.5t13.5 -35.5v-52q0 -23 -13.5 -36t-35.5 -13h-518v-142h365q22 0 35.5 -13.5t13.5 -35.5v-52q0 -23 -13 -36
t-36 -13h-365v-150h518q22 0 35.5 -13.5t13.5 -35.5v-52q0 -23 -13.5 -36t-35.5 -13h-638zM487 592l-143 -294h299v294h-156z" />
    <glyph glyph-name="Ccedilla" unicode="&#xc7;" horiz-adv-x="972" 
d="M397 -64q8 0 22.5 -3.5t21.5 -3.5q17 0 29 11t12 28q0 8 -3 19q-175 5 -294.5 113.5t-119.5 270.5q0 109 57.5 198t155 138t215.5 49q119 0 223 -47.5t154 -109.5q21 -26 21 -47q0 -31 -30 -61l-27 -26q-13 -12 -29 -12q-21 0 -37 17q-52 58 -122.5 94.5t-150.5 36.5
q-108 0 -181 -66.5t-73 -163.5t73 -163.5t181 -66.5q80 0 150.5 36.5t122.5 94.5q16 17 37 17q16 0 29 -12l27 -26q31 -31 31 -60q0 -21 -21 -47q-43 -52 -121 -94t-170 -57q9 -29 9 -51q0 -53 -35.5 -90t-102.5 -37q-93 0 -97 70q0 19 9 32l3 4q13 15 31 15z" />
    <glyph glyph-name="Egrave" unicode="&#xc8;" horiz-adv-x="951" 
d="M174 0q-22 0 -35.5 13.5t-13.5 35.5v644q0 22 13.5 35.5t35.5 13.5h648q22 0 35.5 -13.5t13.5 -35.5v-52q0 -23 -13.5 -36t-35.5 -13h-528v-142h375q22 0 35.5 -13.5t13.5 -35.5v-52q0 -23 -13 -36t-36 -13h-375v-150h528q22 0 35.5 -13.5t13.5 -35.5v-52
q0 -23 -13.5 -36t-35.5 -13h-648zM532 810l-164 88q-26 13 -26 40q0 13 7 26l1 2q21 38 61 38q21 0 41 -11l164 -88q26 -13 26 -40q0 -13 -7 -26l-1 -2q-21 -38 -61 -38q-21 0 -41 11z" />
    <glyph glyph-name="Eacute" unicode="&#xc9;" horiz-adv-x="951" 
d="M174 0q-22 0 -35.5 13.5t-13.5 35.5v644q0 22 13.5 35.5t35.5 13.5h648q22 0 35.5 -13.5t13.5 -35.5v-52q0 -23 -13.5 -36t-35.5 -13h-528v-142h375q22 0 35.5 -13.5t13.5 -35.5v-52q0 -23 -13 -36t-36 -13h-375v-150h528q22 0 35.5 -13.5t13.5 -35.5v-52
q0 -23 -13.5 -36t-35.5 -13h-648zM649 898l-164 -88q-20 -11 -41 -11q-40 0 -61 38l-1 2q-7 13 -7 26q0 27 26 40l164 88q20 11 41 11q40 0 61 -38l1 -2q7 -13 7 -26q0 -27 -26 -40z" />
    <glyph glyph-name="Ecircumflex" unicode="&#xca;" horiz-adv-x="951" 
d="M174 0q-22 0 -35.5 13.5t-13.5 35.5v644q0 22 13.5 35.5t35.5 13.5h648q22 0 35.5 -13.5t13.5 -35.5v-52q0 -23 -13.5 -36t-35.5 -13h-528v-142h375q22 0 35.5 -13.5t13.5 -35.5v-52q0 -23 -13 -36t-36 -13h-375v-150h528q22 0 35.5 -13.5t13.5 -35.5v-52
q0 -23 -13.5 -36t-35.5 -13h-648zM504 1019q13 0 27 -8l154 -98q23 -16 23 -37q0 -17 -11 -31q-9 -12 -27 -20q-18 -7 -30 -7q-28 0 -59 21l-77 51l-77 -51q-31 -21 -59 -21q-12 0 -30 7q-18 8 -27 20q-11 14 -11 31q0 21 23 37l154 98q14 8 27 8z" />
    <glyph glyph-name="Edieresis" unicode="&#xcb;" horiz-adv-x="951" 
d="M174 0q-22 0 -35.5 13.5t-13.5 35.5v644q0 22 13.5 35.5t35.5 13.5h648q22 0 35.5 -13.5t13.5 -35.5v-52q0 -23 -13.5 -36t-35.5 -13h-528v-142h375q22 0 35.5 -13.5t13.5 -35.5v-52q0 -23 -13 -36t-36 -13h-375v-150h528q22 0 35.5 -13.5t13.5 -35.5v-52
q0 -23 -13.5 -36t-35.5 -13h-648zM420 837h-87q-23 0 -36 13.5t-13 35.5v25q0 22 13.5 35.5t35.5 13.5h87q22 0 35.5 -13.5t13.5 -35.5v-25q0 -22 -13.5 -35.5t-35.5 -13.5zM674 837h-87q-23 0 -36 13.5t-13 35.5v25q0 22 13.5 35.5t35.5 13.5h87q22 0 35.5 -13.5
t13.5 -35.5v-25q0 -22 -13.5 -35.5t-35.5 -13.5z" />
    <glyph glyph-name="Igrave" unicode="&#xcc;" horiz-adv-x="419" 
d="M174 0q-22 0 -35.5 13.5t-13.5 35.5v644q0 22 13.5 35.5t35.5 13.5h71q22 0 35.5 -13.5t13.5 -35.5v-644q0 -23 -13 -36t-36 -13h-71zM254 810l-164 88q-26 13 -26 40q0 13 7 26l1 2q21 38 61 38q21 0 41 -11l164 -88q26 -13 26 -40q0 -13 -7 -26l-1 -2q-21 -38 -61 -38
q-21 0 -41 11z" />
    <glyph glyph-name="Iacute" unicode="&#xcd;" horiz-adv-x="419" 
d="M174 0q-22 0 -35.5 13.5t-13.5 35.5v644q0 22 13.5 35.5t35.5 13.5h71q22 0 35.5 -13.5t13.5 -35.5v-644q0 -23 -13 -36t-36 -13h-71zM335 898l-164 -88q-20 -11 -41 -11q-40 0 -61 38l-1 2q-7 13 -7 26q0 27 26 40l164 88q20 11 41 11q40 0 61 -38l1 -2q7 -13 7 -26
q0 -27 -26 -40z" />
    <glyph glyph-name="Icircumflex" unicode="&#xce;" horiz-adv-x="419" 
d="M174 0q-22 0 -35.5 13.5t-13.5 35.5v644q0 22 13.5 35.5t35.5 13.5h71q22 0 35.5 -13.5t13.5 -35.5v-644q0 -23 -13 -36t-36 -13h-71zM209 1019q13 0 27 -8l154 -98q23 -16 23 -37q0 -17 -11 -31q-9 -12 -27 -20q-17 -7 -30 -7q-28 0 -59 21l-77 51l-77 -51
q-31 -21 -59 -21q-13 0 -30 7q-18 8 -27 20q-11 14 -11 31q0 21 23 37l154 98q14 8 27 8z" />
    <glyph glyph-name="Idieresis" unicode="&#xcf;" horiz-adv-x="419" 
d="M174 0q-22 0 -35.5 13.5t-13.5 35.5v644q0 22 13.5 35.5t35.5 13.5h71q22 0 35.5 -13.5t13.5 -35.5v-644q0 -23 -13 -36t-36 -13h-71zM126 837h-87q-23 0 -36 13.5t-13 35.5v25q0 22 13.5 35.5t35.5 13.5h87q22 0 35.5 -13.5t13.5 -35.5v-25q0 -22 -13.5 -35.5
t-35.5 -13.5zM380 837h-87q-23 0 -36 13.5t-13 35.5v25q0 22 13.5 35.5t35.5 13.5h87q22 0 35.5 -13.5t13.5 -35.5v-25q0 -22 -13.5 -35.5t-35.5 -13.5z" />
    <glyph glyph-name="Eth" unicode="&#xd0;" horiz-adv-x="1102" 
d="M246 0q-22 0 -35.5 13.5t-13.5 35.5v242h-103q-22 0 -35.5 13.5t-13.5 35.5v52q0 22 13.5 35.5t35.5 13.5h103v252q0 22 13.5 35.5t35.5 13.5h399q186 0 289 -103t103 -268t-103 -268t-289 -103h-399zM569 291h-203v-143h274q108 0 164.5 64.5t56.5 158.5t-56.5 158.5
t-164.5 64.5h-274v-153h203q22 0 35.5 -13.5t13.5 -35.5v-52q0 -22 -13 -35.5t-36 -13.5z" />
    <glyph glyph-name="Ntilde" unicode="&#xd1;" horiz-adv-x="1050" 
d="M762 20l-468 461v-432q0 -22 -13.5 -35.5t-35.5 -13.5h-71q-22 0 -35.5 13.5t-13.5 35.5v644q0 23 13.5 36t35.5 13h60q34 0 54 -20l468 -461v432q0 22 13.5 35.5t35.5 13.5h71q22 0 35.5 -13.5t13.5 -35.5v-644q0 -23 -13.5 -36t-35.5 -13h-60q-34 0 -54 20zM612 819
q-36 0 -85.5 27.5t-60.5 27.5q-20 0 -31 -31q-9 -26 -37 -26q-9 0 -20 4l-3 1q-39 14 -39 51q0 12 5 32q10 37 39.5 62.5t68.5 25.5q35 0 84 -27.5t61 -27.5q20 0 31 31q9 26 35 26q10 0 22 -4l3 -1q39 -13 39 -50q0 -14 -5 -32q-11 -38 -39 -63.5t-68 -25.5z" />
    <glyph glyph-name="Ograve" unicode="&#xd2;" horiz-adv-x="1006" 
d="M503 601q-113 0 -187.5 -66.5t-74.5 -163.5t74.5 -163.5t187.5 -66.5t187.5 66.5t74.5 163.5t-74.5 163.5t-187.5 66.5zM503 756q190 0 314 -111.5t124 -273.5t-124 -273.5t-314 -111.5t-314 111.5t-124 273.5t124 273.5t314 111.5zM539 810l-164 88q-26 13 -26 40
q0 13 7 26l1 2q21 38 61 38q21 0 41 -11l164 -88q26 -13 26 -40q0 -13 -7 -26l-1 -2q-21 -38 -61 -38q-21 0 -41 11z" />
    <glyph glyph-name="Oacute" unicode="&#xd3;" horiz-adv-x="1006" 
d="M503 601q-113 0 -187.5 -66.5t-74.5 -163.5t74.5 -163.5t187.5 -66.5t187.5 66.5t74.5 163.5t-74.5 163.5t-187.5 66.5zM503 756q190 0 314 -111.5t124 -273.5t-124 -273.5t-314 -111.5t-314 111.5t-124 273.5t124 273.5t314 111.5zM650 898l-164 -88q-20 -11 -41 -11
q-40 0 -61 38l-1 2q-7 13 -7 26q0 27 26 40l164 88q20 11 41 11q40 0 61 -38l1 -2q7 -13 7 -26q0 -27 -26 -40z" />
    <glyph glyph-name="Ocircumflex" unicode="&#xd4;" horiz-adv-x="1006" 
d="M503 601q-113 0 -187.5 -66.5t-74.5 -163.5t74.5 -163.5t187.5 -66.5t187.5 66.5t74.5 163.5t-74.5 163.5t-187.5 66.5zM503 756q190 0 314 -111.5t124 -273.5t-124 -273.5t-314 -111.5t-314 111.5t-124 273.5t124 273.5t314 111.5zM503 1019q13 0 27 -8l154 -98
q23 -16 23 -37q0 -17 -11 -31q-9 -12 -27 -20q-18 -7 -30 -7q-28 0 -59 21l-77 51l-77 -51q-31 -21 -59 -21q-13 0 -30 7q-18 8 -27 20q-11 14 -11 31q0 21 23 37l154 98q14 8 27 8z" />
    <glyph glyph-name="Otilde" unicode="&#xd5;" horiz-adv-x="1006" 
d="M503 601q-113 0 -187.5 -66.5t-74.5 -163.5t74.5 -163.5t187.5 -66.5t187.5 66.5t74.5 163.5t-74.5 163.5t-187.5 66.5zM503 756q190 0 314 -111.5t124 -273.5t-124 -273.5t-314 -111.5t-314 111.5t-124 273.5t124 273.5t314 111.5zM583 819q-36 0 -85.5 27.5t-60.5 27.5
q-20 0 -31 -31q-9 -26 -37 -26q-9 0 -20 4l-3 1q-39 14 -39 51q0 12 5 32q10 37 39.5 62.5t68.5 25.5q35 0 84.5 -27.5t60.5 -27.5q20 0 31 31q9 26 35 26q10 0 22 -4l3 -1q39 -13 39 -50q0 -14 -5 -32q-11 -38 -39 -63.5t-68 -25.5z" />
    <glyph glyph-name="Odieresis" unicode="&#xd6;" horiz-adv-x="1006" 
d="M503 601q-113 0 -187.5 -66.5t-74.5 -163.5t74.5 -163.5t187.5 -66.5t187.5 66.5t74.5 163.5t-74.5 163.5t-187.5 66.5zM503 756q190 0 314 -111.5t124 -273.5t-124 -273.5t-314 -111.5t-314 111.5t-124 273.5t124 273.5t314 111.5zM423 837h-87q-22 0 -35.5 13.5
t-13.5 35.5v25q0 22 13.5 35.5t35.5 13.5h87q22 0 35.5 -13.5t13.5 -35.5v-25q0 -22 -13 -35.5t-36 -13.5zM677 837h-87q-22 0 -35.5 13.5t-13.5 35.5v25q0 22 13.5 35.5t35.5 13.5h87q22 0 35.5 -13.5t13.5 -35.5v-25q0 -22 -13 -35.5t-36 -13.5z" />
    <glyph glyph-name="multiply" unicode="&#xd7;" horiz-adv-x="718" 
d="M602 479l-137 -137l132 -132q16 -16 16 -35t-16 -35l-36 -36q-16 -16 -35 -16q-20 0 -35 16l-132 132l-137 -137q-16 -16 -35 -16t-34 16l-37 37q-16 15 -16 34t16 35l137 137l-132 132q-16 15 -16 35q0 19 16 35l36 36q16 16 35 16t35 -16l132 -132l137 137q16 16 35 16
q18 0 34 -16l37 -37q16 -18 16 -35q0 -18 -16 -34z" />
    <glyph glyph-name="Oslash" unicode="&#xd8;" horiz-adv-x="1055" 
d="M97 371q0 160 125 272.5t303 112.5q138 0 251 -73l36 32q31 27 63 27h76q22 0 35.5 -10t13.5 -28q0 -20 -22 -39l-95 -82q71 -96 71 -212q0 -160 -125.5 -272.5t-303.5 -112.5q-137 0 -248 70l-34 -29q-31 -27 -63 -27h-76q-22 0 -35.5 10t-13.5 28q0 20 22 39l92 80
q-72 95 -72 214zM272 371q0 -55 25 -103l354 307q-60 31 -126 31q-106 0 -179.5 -69t-73.5 -166zM779 371q0 52 -24 100l-353 -306q58 -29 123 -29q106 0 180 69t74 166z" />
    <glyph glyph-name="Ugrave" unicode="&#xd9;" horiz-adv-x="996" 
d="M498 -14q-85 0 -150.5 17t-120 55.5t-83.5 110t-29 172.5v352q0 22 13.5 35.5t35.5 13.5h71q22 0 35.5 -13.5t13.5 -35.5v-352q0 -202 214 -202t214 202v352q0 22 13.5 35.5t35.5 13.5h71q22 0 35.5 -13.5t13.5 -35.5v-352q0 -101 -29 -172.5t-83.5 -110t-120 -55.5
t-150.5 -17zM524 810l-164 88q-26 13 -26 40q0 13 7 26l1 2q21 38 61 38q21 0 41 -11l164 -88q26 -13 26 -40q0 -13 -7 -26l-1 -2q-21 -38 -61 -38q-21 0 -41 11z" />
    <glyph glyph-name="Uacute" unicode="&#xda;" horiz-adv-x="996" 
d="M498 -14q-85 0 -150.5 17t-120 55.5t-83.5 110t-29 172.5v352q0 22 13.5 35.5t35.5 13.5h71q22 0 35.5 -13.5t13.5 -35.5v-352q0 -202 214 -202t214 202v352q0 22 13.5 35.5t35.5 13.5h71q22 0 35.5 -13.5t13.5 -35.5v-352q0 -101 -29 -172.5t-83.5 -110t-120 -55.5
t-150.5 -17zM635 898l-164 -88q-20 -11 -41 -11q-40 0 -61 38l-1 2q-7 13 -7 26q0 27 26 40l164 88q20 11 41 11q40 0 61 -38l1 -2q7 -13 7 -26q0 -27 -26 -40z" />
    <glyph glyph-name="Ucircumflex" unicode="&#xdb;" horiz-adv-x="996" 
d="M498 -14q-85 0 -150.5 17t-120 55.5t-83.5 110t-29 172.5v352q0 22 13.5 35.5t35.5 13.5h71q22 0 35.5 -13.5t13.5 -35.5v-352q0 -202 214 -202t214 202v352q0 22 13.5 35.5t35.5 13.5h71q22 0 35.5 -13.5t13.5 -35.5v-352q0 -101 -29 -172.5t-83.5 -110t-120 -55.5
t-150.5 -17zM492 1019q13 0 27 -8l154 -98q23 -16 23 -37q0 -17 -11 -31q-9 -12 -27 -20q-18 -7 -30 -7q-28 0 -59 21l-77 51l-77 -51q-31 -21 -59 -21q-12 0 -30 7q-18 8 -27 20q-11 14 -11 31q0 21 23 37l154 98q14 8 27 8z" />
    <glyph glyph-name="Udieresis" unicode="&#xdc;" horiz-adv-x="996" 
d="M498 -14q-85 0 -150.5 17t-120 55.5t-83.5 110t-29 172.5v352q0 22 13.5 35.5t35.5 13.5h71q22 0 35.5 -13.5t13.5 -35.5v-352q0 -202 214 -202t214 202v352q0 22 13.5 35.5t35.5 13.5h71q22 0 35.5 -13.5t13.5 -35.5v-352q0 -101 -29 -172.5t-83.5 -110t-120 -55.5
t-150.5 -17zM414 837h-87q-23 0 -36 13.5t-13 35.5v25q0 22 13.5 35.5t35.5 13.5h87q22 0 35.5 -13.5t13.5 -35.5v-25q0 -22 -13.5 -35.5t-35.5 -13.5zM668 837h-87q-23 0 -36 13.5t-13 35.5v25q0 22 13.5 35.5t35.5 13.5h87q22 0 35.5 -13.5t13.5 -35.5v-25
q0 -22 -13.5 -35.5t-35.5 -13.5z" />
    <glyph glyph-name="Yacute" unicode="&#xdd;" horiz-adv-x="961" 
d="M448 0q-22 0 -35.5 13.5t-13.5 35.5v239l-366 385q-13 15 -13 30q0 39 39 39h98q33 0 62 -30l261 -286l262 286q28 30 62 30h98q39 0 39 -39q0 -15 -13 -30l-365 -385v-239q0 -23 -13.5 -36t-35.5 -13h-66zM623 898l-164 -88q-20 -11 -41 -11q-40 0 -61 38l-1 2
q-7 13 -7 26q0 27 26 40l164 88q20 11 41 11q40 0 61 -38l1 -2q7 -13 7 -26q0 -27 -26 -40z" />
    <glyph glyph-name="Thorn" unicode="&#xde;" 
d="M174 0q-22 0 -35.5 13.5t-13.5 35.5v644q0 22 13.5 35.5t35.5 13.5h71q22 0 35.5 -13.5t13.5 -35.5v-85h354q124 0 190.5 -66.5t66.5 -170.5t-67 -170t-190 -66h-354v-86q0 -23 -13 -36t-36 -13h-71zM637 460h-343v-177h343q44 0 69 25t25 63q0 39 -25 64t-69 25z" />
    <glyph glyph-name="germandbls" unicode="&#xdf;" horiz-adv-x="844" 
d="M421 481h1q54 1 85 31.5t31 75.5q0 42 -27.5 63.5t-75.5 21.5q-70 0 -108 -46t-38 -136v-613q0 -22 -13.5 -35.5t-35.5 -13.5h-64q-22 0 -35.5 13.5t-13.5 35.5v628q0 149 82 227.5t223 78.5q126 0 200 -59t74 -147q0 -57 -31.5 -105.5t-88.5 -74.5q78 -25 124.5 -79.5
t46.5 -136.5q0 -95 -63 -159.5t-177 -64.5q-77 0 -121 27q-41 24 -41 61q0 25 11 47l9 18q16 31 42 31q15 0 32 -7q42 -16 61 -16q34 0 55 20t21 55q0 51 -44 80.5t-118 29.5h-2q-22 0 -35.5 13t-13.5 36v51q0 22 13 35.5t35 13.5z" />
    <glyph glyph-name="agrave" unicode="&#xe0;" horiz-adv-x="767" 
d="M224 359q-24 -15 -37 -15q-16 0 -33 17l-6 6q-23 23 -23 54q0 30 30 54q72 58 228 58q140 0 209.5 -54.5t69.5 -150.5v-279q0 -23 -13 -36t-36 -13h-21q-55 0 -72 44q-83 -58 -188 -58q-101 0 -169 47.5t-68 127.5q0 79 67.5 126t173.5 47q92 0 163 -38v29q0 79 -118 79
q-82 0 -157 -45zM375 226q-45 0 -75.5 -18t-30.5 -48q0 -31 31 -47.5t74 -16.5q37 0 71.5 12t53.5 32v45q-49 41 -124 41zM430 597l-164 88q-26 13 -26 40q0 13 7 26l1 2q21 38 61 38q21 0 41 -11l164 -88q26 -13 26 -40q0 -13 -7 -26l-1 -2q-21 -38 -61 -38q-21 0 -41 11z
" />
    <glyph glyph-name="aacute" unicode="&#xe1;" horiz-adv-x="767" 
d="M224 359q-24 -15 -37 -15q-16 0 -33 17l-6 6q-23 23 -23 54q0 30 30 54q72 58 228 58q140 0 209.5 -54.5t69.5 -150.5v-279q0 -23 -13 -36t-36 -13h-21q-55 0 -72 44q-83 -58 -188 -58q-101 0 -169 47.5t-68 127.5q0 79 67.5 126t173.5 47q92 0 163 -38v29q0 79 -118 79
q-82 0 -157 -45zM375 226q-45 0 -75.5 -18t-30.5 -48q0 -31 31 -47.5t74 -16.5q37 0 71.5 12t53.5 32v45q-49 41 -124 41zM545 685l-164 -88q-20 -11 -41 -11q-40 0 -61 38l-1 2q-7 13 -7 26q0 27 26 40l164 88q20 11 41 11q40 0 61 -38l1 -2q7 -13 7 -26q0 -27 -26 -40z
" />
    <glyph glyph-name="acircumflex" unicode="&#xe2;" horiz-adv-x="767" 
d="M224 359q-24 -15 -37 -15q-16 0 -33 17l-6 6q-23 23 -23 54q0 30 30 54q72 58 228 58q140 0 209.5 -54.5t69.5 -150.5v-279q0 -23 -13 -36t-36 -13h-21q-55 0 -72 44q-83 -58 -188 -58q-101 0 -169 47.5t-68 127.5q0 79 67.5 126t173.5 47q92 0 163 -38v29q0 79 -118 79
q-82 0 -157 -45zM375 226q-45 0 -75.5 -18t-30.5 -48q0 -31 31 -47.5t74 -16.5q37 0 71.5 12t53.5 32v45q-49 41 -124 41zM402 796q13 0 27 -8l154 -98q23 -16 23 -37q0 -17 -11 -31q-9 -12 -27 -20q-18 -7 -30 -7q-28 0 -59 21l-77 51l-77 -51q-31 -21 -59 -21q-12 0 -30 7
q-18 8 -27 20q-11 14 -11 31q0 21 23 37l154 98q14 8 27 8z" />
    <glyph glyph-name="atilde" unicode="&#xe3;" horiz-adv-x="767" 
d="M224 359q-24 -15 -37 -15q-16 0 -33 17l-6 6q-23 23 -23 54q0 30 30 54q72 58 228 58q140 0 209.5 -54.5t69.5 -150.5v-279q0 -23 -13 -36t-36 -13h-21q-55 0 -72 44q-83 -58 -188 -58q-101 0 -169 47.5t-68 127.5q0 79 67.5 126t173.5 47q92 0 163 -38v29q0 79 -118 79
q-82 0 -157 -45zM375 226q-45 0 -75.5 -18t-30.5 -48q0 -31 31 -47.5t74 -16.5q37 0 71.5 12t53.5 32v45q-49 41 -124 41zM477 596q-36 0 -85.5 27.5t-60.5 27.5q-20 0 -31 -31q-9 -26 -37 -26q-9 0 -20 4l-3 1q-39 14 -39 51q0 12 5 32q10 37 39.5 62.5t68.5 25.5
q36 0 85 -27.5t60 -27.5q20 0 31 31q9 26 35 26q10 0 22 -4l3 -1q39 -13 39 -50q0 -14 -5 -32q-11 -38 -39 -63.5t-68 -25.5z" />
    <glyph glyph-name="adieresis" unicode="&#xe4;" horiz-adv-x="767" 
d="M224 359q-24 -15 -37 -15q-16 0 -33 17l-6 6q-23 23 -23 54q0 30 30 54q72 58 228 58q140 0 209.5 -54.5t69.5 -150.5v-279q0 -23 -13 -36t-36 -13h-21q-55 0 -72 44q-83 -58 -188 -58q-101 0 -169 47.5t-68 127.5q0 79 67.5 126t173.5 47q92 0 163 -38v29q0 79 -118 79
q-82 0 -157 -45zM375 226q-45 0 -75.5 -18t-30.5 -48q0 -31 31 -47.5t74 -16.5q37 0 71.5 12t53.5 32v45q-49 41 -124 41zM316 614h-87q-23 0 -36 13t-13 36v25q0 22 13.5 35.5t35.5 13.5h87q22 0 35.5 -13.5t13.5 -35.5v-25q0 -23 -13.5 -36t-35.5 -13zM570 614h-87
q-23 0 -36 13t-13 36v25q0 22 13.5 35.5t35.5 13.5h87q22 0 35.5 -13.5t13.5 -35.5v-25q0 -23 -13.5 -36t-35.5 -13z" />
    <glyph glyph-name="aring" unicode="&#xe5;" horiz-adv-x="767" 
d="M224 359q-24 -15 -37 -15q-16 0 -33 17l-6 6q-23 23 -23 54q0 30 30 54q72 58 228 58q140 0 209.5 -54.5t69.5 -150.5v-279q0 -23 -13 -36t-36 -13h-21q-55 0 -72 44q-83 -58 -188 -58q-101 0 -169 47.5t-68 127.5q0 79 67.5 126t173.5 47q92 0 163 -38v29q0 79 -118 79
q-82 0 -157 -45zM375 226q-45 0 -75.5 -18t-30.5 -48q0 -31 31 -47.5t74 -16.5q37 0 71.5 12t53.5 32v45q-49 41 -124 41zM251 690q0 52 40.5 91.5t108.5 39.5t108 -39.5t40 -91.5q0 -53 -40 -91.5t-108 -38.5t-108.5 38.5t-40.5 91.5zM339 690q0 -22 16 -39t45 -17t45 17
t16 39t-16 39t-45 17t-45 -17t-16 -39z" />
    <glyph glyph-name="ae" unicode="&#xe6;" horiz-adv-x="1200" 
d="M824 -14q-146 0 -227 73q-103 -73 -246 -73q-114 0 -185 47t-71 126q0 80 71.5 127.5t181.5 47.5q89 0 165 -32v23q0 37 -33.5 58t-92.5 21q-86 0 -159 -47q-19 -12 -34 -12q-19 0 -37 18l-10 10q-19 19 -19 44q0 23 15 43q25 31 92 52t153 21q147 0 219 -67
q83 67 209 67q140 0 224.5 -78t84.5 -177q0 -31 -11 -46t-39 -15h-411q14 -52 59 -74.5t101 -22.5q104 0 172 61q16 15 35 15q13 0 24 -9l20 -17q28 -23 28 -55q0 -27 -20 -47q-30 -31 -100 -56.5t-159 -25.5zM378 96q45 0 89 14.5t68 33.5q-12 29 -15 48q-56 34 -130 34
q-52 0 -85.5 -18t-33.5 -49q0 -30 30 -46.5t77 -16.5zM820 412q-53 0 -94 -23.5t-58 -68.5h297q-12 37 -48 64.5t-97 27.5z" />
    <glyph glyph-name="ccedilla" unicode="&#xe7;" horiz-adv-x="721" 
d="M262 -64q8 0 22.5 -3.5t21.5 -3.5q17 0 29 11t12 28q0 6 -4 20q-117 11 -192.5 85t-75.5 186q0 121 87.5 197t218.5 76q76 0 134.5 -24t88.5 -53q27 -27 27 -56q0 -32 -23 -55l-6 -6q-17 -17 -34 -17q-16 0 -35 15q-76 60 -145 60q-62 0 -100.5 -40.5t-38.5 -96.5
t38.5 -96.5t100.5 -40.5q69 0 145 60q19 15 35 15q17 0 34 -17l6 -6q23 -23 23 -54q0 -30 -27 -57q-58 -56 -158 -71q8 -26 8 -50q0 -53 -35.5 -90t-102.5 -37q-93 0 -97 70q0 19 9 32l3 4q13 15 31 15z" />
    <glyph glyph-name="egrave" unicode="&#xe8;" horiz-adv-x="758" 
d="M631 59q-33 -31 -97 -52t-144 -21q-153 0 -234 79.5t-81 192.5q0 120 88 197.5t218 77.5q71 0 130.5 -25t95.5 -64.5t56 -83.5t20 -85q0 -58 -50 -58h-397q14 -50 57 -73.5t101 -23.5q85 0 166 58q21 15 35 15q17 0 34 -17l6 -6q23 -23 23 -55t-27 -56zM386 412
q-50 0 -90 -23.5t-57 -68.5h277q-31 92 -130 92zM420 597l-164 88q-26 13 -26 40q0 13 7 26l1 2q21 38 61 38q21 0 41 -11l164 -88q26 -13 26 -40q0 -13 -7 -26l-1 -2q-21 -38 -61 -38q-21 0 -41 11z" />
    <glyph glyph-name="eacute" unicode="&#xe9;" horiz-adv-x="758" 
d="M631 59q-33 -31 -97 -52t-144 -21q-153 0 -234 79.5t-81 192.5q0 120 88 197.5t218 77.5q71 0 130.5 -25t95.5 -64.5t56 -83.5t20 -85q0 -58 -50 -58h-397q14 -50 57 -73.5t101 -23.5q85 0 166 58q21 15 35 15q17 0 34 -17l6 -6q23 -23 23 -55t-27 -56zM386 412
q-50 0 -90 -23.5t-57 -68.5h277q-31 92 -130 92zM504 685l-164 -88q-20 -11 -41 -11q-40 0 -61 38l-1 2q-7 13 -7 26q0 27 26 40l164 88q20 11 41 11q40 0 61 -38l1 -2q7 -13 7 -26q0 -27 -26 -40z" />
    <glyph glyph-name="ecircumflex" unicode="&#xea;" horiz-adv-x="758" 
d="M631 59q-33 -31 -97 -52t-144 -21q-153 0 -234 79.5t-81 192.5q0 120 88 197.5t218 77.5q71 0 130.5 -25t95.5 -64.5t56 -83.5t20 -85q0 -58 -50 -58h-397q14 -50 57 -73.5t101 -23.5q85 0 166 58q21 15 35 15q17 0 34 -17l6 -6q23 -23 23 -55t-27 -56zM386 412
q-50 0 -90 -23.5t-57 -68.5h277q-31 92 -130 92zM381 796q13 0 27 -8l154 -98q23 -16 23 -37q0 -17 -11 -31q-9 -12 -27 -20q-18 -7 -30 -7q-28 0 -59 21l-77 51l-77 -51q-31 -21 -59 -21q-13 0 -30 7q-18 8 -27 20q-11 14 -11 31q0 21 23 37l154 98q14 8 27 8z" />
    <glyph glyph-name="edieresis" unicode="&#xeb;" horiz-adv-x="758" 
d="M631 59q-33 -31 -97 -52t-144 -21q-153 0 -234 79.5t-81 192.5q0 120 88 197.5t218 77.5q71 0 130.5 -25t95.5 -64.5t56 -83.5t20 -85q0 -58 -50 -58h-397q14 -50 57 -73.5t101 -23.5q85 0 166 58q21 15 35 15q17 0 34 -17l6 -6q23 -23 23 -55t-27 -56zM386 412
q-50 0 -90 -23.5t-57 -68.5h277q-31 92 -130 92zM295 614h-87q-22 0 -35.5 13t-13.5 36v25q0 22 13.5 35.5t35.5 13.5h87q22 0 35.5 -13.5t13.5 -35.5v-25q0 -23 -13 -36t-36 -13zM549 614h-87q-22 0 -35.5 13t-13.5 36v25q0 22 13.5 35.5t35.5 13.5h87q22 0 35.5 -13.5
t13.5 -35.5v-25q0 -23 -13 -36t-36 -13z" />
    <glyph glyph-name="igrave" unicode="&#xec;" horiz-adv-x="414" 
d="M174 0q-22 0 -35.5 13.5t-13.5 35.5v420q0 23 13.5 36.5t35.5 13.5h66q23 0 36 -13.5t13 -36.5v-420q0 -23 -13.5 -36t-35.5 -13h-66zM246 597l-164 88q-26 13 -26 40q0 13 7 26l1 2q21 38 61 38q21 0 41 -11l164 -88q26 -13 26 -40q0 -13 -7 -26l-1 -2q-21 -38 -61 -38
q-21 0 -41 11z" />
    <glyph glyph-name="iacute" unicode="&#xed;" horiz-adv-x="414" 
d="M174 0q-22 0 -35.5 13.5t-13.5 35.5v420q0 23 13.5 36.5t35.5 13.5h66q23 0 36 -13.5t13 -36.5v-420q0 -23 -13.5 -36t-35.5 -13h-66zM332 685l-164 -88q-20 -11 -41 -11q-40 0 -61 38l-1 2q-7 13 -7 26q0 27 26 40l164 88q20 11 41 11q40 0 61 -38l1 -2q7 -13 7 -26
q0 -27 -26 -40z" />
    <glyph glyph-name="icircumflex" unicode="&#xee;" horiz-adv-x="414" 
d="M174 0q-22 0 -35.5 13.5t-13.5 35.5v420q0 23 13.5 36.5t35.5 13.5h66q23 0 36 -13.5t13 -36.5v-420q0 -23 -13.5 -36t-35.5 -13h-66zM207 796q13 0 27 -8l154 -98q23 -16 23 -37q0 -17 -11 -31q-9 -12 -27 -20q-17 -7 -30 -7q-28 0 -59 21l-77 51l-77 -51
q-31 -21 -59 -21q-13 0 -30 7q-18 8 -27 20q-11 14 -11 31q0 21 23 37l154 98q14 8 27 8z" />
    <glyph glyph-name="idieresis" unicode="&#xef;" horiz-adv-x="414" 
d="M174 0q-22 0 -35.5 13.5t-13.5 35.5v420q0 23 13.5 36.5t35.5 13.5h66q23 0 36 -13.5t13 -36.5v-420q0 -23 -13.5 -36t-35.5 -13h-66zM124 619h-87q-23 0 -36 13.5t-13 35.5v25q0 22 13.5 35.5t35.5 13.5h87q22 0 35.5 -13.5t13.5 -35.5v-25q0 -22 -13.5 -35.5
t-35.5 -13.5zM378 619h-87q-23 0 -36 13.5t-13 35.5v25q0 22 13.5 35.5t35.5 13.5h87q22 0 35.5 -13.5t13.5 -35.5v-25q0 -22 -13.5 -35.5t-35.5 -13.5z" />
    <glyph glyph-name="eth" unicode="&#xf0;" horiz-adv-x="796" 
d="M358 813q124 0 208 -72l43 23q20 11 40 11q43 0 65 -42q7 -13 7 -25q0 -28 -26 -41l-51 -27q52 -101 52 -257q0 -192 -82.5 -294.5t-234.5 -102.5q-133 0 -218.5 72.5t-85.5 188.5q0 112 80 184.5t198 72.5q96 0 171 -52q-6 68 -23 112l-42 -22q-20 -11 -40 -11
q-43 0 -65 42q-7 13 -7 25q0 28 26 41l42 22q-28 11 -60 11q-77 0 -151 -49q-20 -14 -36 -14q-19 0 -34 15l-10 10q-23 23 -23 55t27 56q29 26 94.5 47t135.5 21zM381 120q70 0 104 49.5t41 142.5q-74 58 -139 58q-61 0 -99.5 -34.5t-38.5 -92.5q0 -56 36.5 -89.5
t95.5 -33.5z" />
    <glyph glyph-name="ntilde" unicode="&#xf1;" horiz-adv-x="788" 
d="M174 0q-22 0 -35.5 13.5t-13.5 35.5v421q0 22 13.5 35.5t35.5 13.5h9q61 0 75 -56q82 70 194 70q106 0 168.5 -63t62.5 -180v-241q0 -23 -13.5 -36t-35.5 -13h-66q-22 0 -35.5 13.5t-13.5 35.5v235q0 55 -26.5 86t-76.5 31q-72 0 -127 -57v-295q0 -22 -13.5 -35.5
t-35.5 -13.5h-66zM490 596q-36 0 -85.5 27.5t-60.5 27.5q-20 0 -31 -31q-9 -26 -37 -26q-9 0 -20 4l-3 1q-39 14 -39 51q0 12 5 32q10 37 39.5 62.5t68.5 25.5q35 0 84 -27.5t61 -27.5q20 0 31 31q9 26 35 26q10 0 22 -4l3 -1q39 -13 39 -50q0 -14 -5 -32q-11 -38 -39 -63.5
t-68 -25.5z" />
    <glyph glyph-name="ograve" unicode="&#xf2;" horiz-adv-x="754" 
d="M377 120q58 0 93 41t35 99t-34.5 98.5t-93.5 40.5q-58 0 -93 -41t-35 -99t34.5 -98.5t93.5 -40.5zM377 -14q-132 0 -217 79t-85 194t85 194.5t217 79.5t217 -79.5t85 -194.5t-85 -194t-217 -79zM415 597l-164 88q-26 13 -26 40q0 13 7 26l1 2q21 38 61 38q21 0 41 -11
l164 -88q26 -13 26 -40q0 -13 -7 -26l-1 -2q-21 -38 -61 -38q-21 0 -41 11z" />
    <glyph glyph-name="oacute" unicode="&#xf3;" horiz-adv-x="754" 
d="M377 120q58 0 93 41t35 99t-34.5 98.5t-93.5 40.5q-58 0 -93 -41t-35 -99t34.5 -98.5t93.5 -40.5zM377 -14q-132 0 -217 79t-85 194t85 194.5t217 79.5t217 -79.5t85 -194.5t-85 -194t-217 -79zM501 685l-164 -88q-20 -11 -41 -11q-40 0 -61 38l-1 2q-7 13 -7 26
q0 27 26 40l164 88q20 11 41 11q40 0 61 -38l1 -2q7 -13 7 -26q0 -27 -26 -40z" />
    <glyph glyph-name="ocircumflex" unicode="&#xf4;" horiz-adv-x="754" 
d="M377 120q58 0 93 41t35 99t-34.5 98.5t-93.5 40.5q-58 0 -93 -41t-35 -99t34.5 -98.5t93.5 -40.5zM377 -14q-132 0 -217 79t-85 194t85 194.5t217 79.5t217 -79.5t85 -194.5t-85 -194t-217 -79zM377 796q13 0 27 -8l154 -98q23 -16 23 -37q0 -17 -11 -31q-9 -12 -27 -20
q-17 -7 -30 -7q-28 0 -59 21l-77 51l-77 -51q-31 -21 -59 -21q-13 0 -30 7q-18 8 -27 20q-11 14 -11 31q0 21 23 37l154 98q14 8 27 8z" />
    <glyph glyph-name="otilde" unicode="&#xf5;" horiz-adv-x="754" 
d="M377 120q58 0 93 41t35 99t-34.5 98.5t-93.5 40.5q-58 0 -93 -41t-35 -99t34.5 -98.5t93.5 -40.5zM377 -14q-132 0 -217 79t-85 194t85 194.5t217 79.5t217 -79.5t85 -194.5t-85 -194t-217 -79zM457 596q-36 0 -85.5 27.5t-60.5 27.5q-20 0 -31 -31q-9 -26 -37 -26
q-9 0 -20 4l-3 1q-39 14 -39 51q0 12 5 32q10 37 39.5 62.5t68.5 25.5q36 0 85 -27.5t60 -27.5q20 0 31 31q9 26 35 26q10 0 22 -4l3 -1q39 -13 39 -50q0 -14 -5 -32q-11 -38 -39 -63.5t-68 -25.5z" />
    <glyph glyph-name="odieresis" unicode="&#xf6;" horiz-adv-x="754" 
d="M377 120q58 0 93 41t35 99t-34.5 98.5t-93.5 40.5q-58 0 -93 -41t-35 -99t34.5 -98.5t93.5 -40.5zM377 -14q-132 0 -217 79t-85 194t85 194.5t217 79.5t217 -79.5t85 -194.5t-85 -194t-217 -79zM291 614h-87q-22 0 -35.5 13t-13.5 36v25q0 22 13.5 35.5t35.5 13.5h87
q22 0 35.5 -13.5t13.5 -35.5v-25q0 -23 -13 -36t-36 -13zM545 614h-87q-22 0 -35.5 13t-13.5 36v25q0 22 13.5 35.5t35.5 13.5h87q22 0 35.5 -13.5t13.5 -35.5v-25q0 -23 -13 -36t-36 -13z" />
    <glyph glyph-name="divide" unicode="&#xf7;" horiz-adv-x="836" 
d="M465 31h-94q-23 0 -36 13.5t-13 35.5v52q0 22 13.5 35.5t35.5 13.5h94q22 0 35.5 -13.5t13.5 -35.5v-52q0 -22 -13 -35.5t-36 -13.5zM465 503h-94q-23 0 -36 13.5t-13 35.5v52q0 22 13.5 35.5t35.5 13.5h94q22 0 35.5 -13.5t13.5 -35.5v-52q0 -22 -13 -35.5t-36 -13.5z
M687 277h-538q-23 0 -36 13.5t-13 35.5v52q0 22 13.5 35.5t35.5 13.5h538q22 0 35.5 -13.5t13.5 -35.5v-52q0 -22 -13 -35.5t-36 -13.5z" />
    <glyph glyph-name="oslash" unicode="&#xf8;" horiz-adv-x="754" 
d="M377 -14q-92 0 -165 41q-31 -27 -63 -27h-56q-22 0 -35.5 10t-13.5 27q0 21 22 40l48 42q-39 64 -39 140q0 115 85 194.5t217 79.5q90 0 166 -42l1 1q31 27 63 27h56q22 0 35.5 -10t13.5 -27q0 -21 -22 -40l-51 -44q40 -63 40 -139q0 -115 -85 -194t-217 -79zM241 213
l6 4l197 172q-32 16 -67 16q-60 0 -101.5 -42t-41.5 -104q0 -26 7 -46zM378 114q61 0 101.5 42t40.5 104q0 25 -7 46l-203 -176q29 -16 68 -16z" />
    <glyph glyph-name="ugrave" unicode="&#xf9;" horiz-adv-x="788" 
d="M614 519q22 0 35.5 -13.5t13.5 -35.5v-421q0 -22 -13.5 -35.5t-35.5 -13.5h-9q-29 0 -49.5 15.5t-26.5 40.5q-79 -70 -193 -70q-106 0 -168.5 63t-62.5 180v241q0 22 13.5 35.5t35.5 13.5h66q22 0 35.5 -13.5t13.5 -35.5v-235q0 -55 26.5 -86t76.5 -31q72 0 127 57v295
q0 22 13.5 35.5t35.5 13.5h66zM414 597l-164 88q-26 13 -26 40q0 13 7 26l1 2q21 38 61 38q21 0 41 -11l164 -88q26 -13 26 -40q0 -13 -7 -26l-1 -2q-21 -38 -61 -38q-21 0 -41 11z" />
    <glyph glyph-name="uacute" unicode="&#xfa;" horiz-adv-x="788" 
d="M614 519q22 0 35.5 -13.5t13.5 -35.5v-421q0 -22 -13.5 -35.5t-35.5 -13.5h-9q-29 0 -49.5 15.5t-26.5 40.5q-79 -70 -193 -70q-106 0 -168.5 63t-62.5 180v241q0 22 13.5 35.5t35.5 13.5h66q22 0 35.5 -13.5t13.5 -35.5v-235q0 -55 26.5 -86t76.5 -31q72 0 127 57v295
q0 22 13.5 35.5t35.5 13.5h66zM529 685l-164 -88q-20 -11 -41 -11q-40 0 -61 38l-1 2q-7 13 -7 26q0 27 26 40l164 88q20 11 41 11q40 0 61 -38l1 -2q7 -13 7 -26q0 -27 -26 -40z" />
    <glyph glyph-name="ucircumflex" unicode="&#xfb;" horiz-adv-x="788" 
d="M614 519q22 0 35.5 -13.5t13.5 -35.5v-421q0 -22 -13.5 -35.5t-35.5 -13.5h-9q-29 0 -49.5 15.5t-26.5 40.5q-79 -70 -193 -70q-106 0 -168.5 63t-62.5 180v241q0 22 13.5 35.5t35.5 13.5h66q22 0 35.5 -13.5t13.5 -35.5v-235q0 -55 26.5 -86t76.5 -31q72 0 127 57v295
q0 22 13.5 35.5t35.5 13.5h66zM386 796q13 0 27 -8l154 -98q23 -16 23 -37q0 -17 -11 -31q-9 -12 -27 -20q-18 -7 -30 -7q-28 0 -59 21l-77 51l-77 -51q-31 -21 -59 -21q-12 0 -30 7q-18 8 -27 20q-11 14 -11 31q0 21 23 37l154 98q14 8 27 8z" />
    <glyph glyph-name="udieresis" unicode="&#xfc;" horiz-adv-x="788" 
d="M614 519q22 0 35.5 -13.5t13.5 -35.5v-421q0 -22 -13.5 -35.5t-35.5 -13.5h-9q-29 0 -49.5 15.5t-26.5 40.5q-79 -70 -193 -70q-106 0 -168.5 63t-62.5 180v241q0 22 13.5 35.5t35.5 13.5h66q22 0 35.5 -13.5t13.5 -35.5v-235q0 -55 26.5 -86t76.5 -31q72 0 127 57v295
q0 22 13.5 35.5t35.5 13.5h66zM300 614h-87q-23 0 -36 13t-13 36v25q0 22 13.5 35.5t35.5 13.5h87q22 0 35.5 -13.5t13.5 -35.5v-25q0 -23 -13.5 -36t-35.5 -13zM554 614h-87q-23 0 -36 13t-13 36v25q0 22 13.5 35.5t35.5 13.5h87q22 0 35.5 -13.5t13.5 -35.5v-25
q0 -23 -13.5 -36t-35.5 -13z" />
    <glyph glyph-name="yacute" unicode="&#xfd;" horiz-adv-x="760" 
d="M200 -27q26 -17 45 -17q33 0 50 35l9 18l-233 443q-6 14 -6 25q0 18 11.5 30t32.5 12h69q40 0 55 -30l151 -315l153 314q14 31 55 31h69q21 0 32.5 -12t11.5 -30q0 -11 -6 -25l-257 -487q-45 -84 -84 -117t-108 -33q-37 0 -70.5 11.5t-50.5 27.5q-27 26 -27 56
q0 32 23 55l6 6q17 17 33 17q12 0 36 -15zM529 685l-164 -88q-20 -11 -41 -11q-40 0 -61 38l-1 2q-7 13 -7 26q0 27 26 40l164 88q20 11 41 11q40 0 61 -38l1 -2q7 -13 7 -26q0 -27 -26 -40z" />
    <glyph glyph-name="thorn" unicode="&#xfe;" horiz-adv-x="774" 
d="M418 -14q-75 0 -129 33v-141q0 -22 -13.5 -35.5t-35.5 -13.5h-66q-22 0 -35.5 13.5t-13.5 35.5v872q0 22 13.5 35.5t35.5 13.5h66q22 0 35.5 -13.5t13.5 -35.5v-260q65 43 145 43q111 0 188 -74t77 -191q0 -118 -78.5 -200t-202.5 -82zM395 393q-59 0 -106 -39v-211
q42 -23 94 -23q67 0 104.5 40.5t37.5 100.5q0 59 -36 95.5t-94 36.5z" />
    <glyph glyph-name="ydieresis" unicode="&#xff;" horiz-adv-x="760" 
d="M200 -27q26 -17 45 -17q33 0 50 35l9 18l-233 443q-6 14 -6 25q0 18 11.5 30t32.5 12h69q40 0 55 -30l151 -315l153 314q14 31 55 31h69q21 0 32.5 -12t11.5 -30q0 -11 -6 -25l-257 -487q-45 -84 -84 -117t-108 -33q-37 0 -70.5 11.5t-50.5 27.5q-27 26 -27 56
q0 32 23 55l6 6q17 17 33 17q12 0 36 -15zM300 614h-87q-23 0 -36 13t-13 36v25q0 22 13.5 35.5t35.5 13.5h87q22 0 35.5 -13.5t13.5 -35.5v-25q0 -23 -13.5 -36t-35.5 -13zM554 614h-87q-23 0 -36 13t-13 36v25q0 22 13.5 35.5t35.5 13.5h87q22 0 35.5 -13.5t13.5 -35.5
v-25q0 -23 -13.5 -36t-35.5 -13z" />
    <glyph glyph-name="Amacron" unicode="&#x100;" 
d="M429 742h92q40 0 55 -30l332 -645q7 -13 7 -26q0 -18 -12 -29.5t-33 -11.5h-79q-40 0 -55 30l-56 115h-410l-56 -115q-15 -30 -55 -30h-79q-21 0 -33 11.5t-12 29.5q0 13 7 26l332 645q15 30 55 30zM475 564l-132 -269h263zM595 833h-252q-23 0 -36 13.5t-13 35.5v19
q0 22 13.5 35.5t35.5 13.5h252q22 0 35.5 -13.5t13.5 -35.5v-19q0 -22 -13 -35.5t-36 -13.5z" />
    <glyph glyph-name="amacron" unicode="&#x101;" horiz-adv-x="767" 
d="M224 359q-24 -15 -37 -15q-16 0 -33 17l-6 6q-23 23 -23 54q0 30 30 54q72 58 228 58q140 0 209.5 -54.5t69.5 -150.5v-279q0 -23 -13 -36t-36 -13h-21q-55 0 -72 44q-83 -58 -188 -58q-101 0 -169 47.5t-68 127.5q0 79 67.5 126t173.5 47q92 0 163 -38v29q0 79 -118 79
q-82 0 -157 -45zM375 226q-45 0 -75.5 -18t-30.5 -48q0 -31 31 -47.5t74 -16.5q37 0 71.5 12t53.5 32v45q-49 41 -124 41zM520 610h-252q-22 0 -35.5 13t-13.5 36v19q0 22 13.5 35.5t35.5 13.5h252q22 0 35.5 -13.5t13.5 -35.5v-19q0 -23 -13.5 -36t-35.5 -13z" />
    <glyph glyph-name="Abreve" unicode="&#x102;" 
d="M429 742h92q40 0 55 -30l332 -645q7 -13 7 -26q0 -18 -12 -29.5t-33 -11.5h-79q-40 0 -55 30l-56 115h-410l-56 -115q-15 -30 -55 -30h-79q-21 0 -33 11.5t-12 29.5q0 13 7 26l332 645q15 30 55 30zM475 564l-132 -269h263zM477 804q-62 0 -109 28t-66 68q-9 20 -9 37
q0 28 25 48l4 3q12 9 26 9q24 0 38 -23q35 -58 91 -58t91 58q14 23 37 23q15 0 27 -9l4 -3q25 -19 25 -48q0 -17 -9 -37q-19 -40 -66 -68t-109 -28z" />
    <glyph glyph-name="abreve" unicode="&#x103;" horiz-adv-x="767" 
d="M224 359q-24 -15 -37 -15q-16 0 -33 17l-6 6q-23 23 -23 54q0 30 30 54q72 58 228 58q140 0 209.5 -54.5t69.5 -150.5v-279q0 -23 -13 -36t-36 -13h-21q-55 0 -72 44q-83 -58 -188 -58q-101 0 -169 47.5t-68 127.5q0 79 67.5 126t173.5 47q92 0 163 -38v29q0 79 -118 79
q-82 0 -157 -45zM375 226q-45 0 -75.5 -18t-30.5 -48q0 -31 31 -47.5t74 -16.5q37 0 71.5 12t53.5 32v45q-49 41 -124 41zM402 581q-62 0 -109 28t-66 68q-9 19 -9 37q0 28 25 48l4 3q12 9 26 9q24 0 38 -23q35 -58 91 -58t91 58q14 23 37 23q15 0 27 -9l4 -3q25 -19 25 -48
q0 -18 -9 -37q-19 -40 -66 -68t-109 -28z" />
    <glyph glyph-name="Aogonek" unicode="&#x104;" horiz-adv-x="957" 
d="M923 -64q21 0 33 -15q4 -5 7 -13q4 -12 4 -23q0 -32 -24.5 -51t-72.5 -19q-64 0 -101 32t-37 79q0 51 33 77q-20 7 -29 27l-61 124h-402l-60 -124q-15 -30 -55 -30h-79q-21 0 -32.5 12t-11.5 31q0 13 6 24l332 645q15 30 55 30h92q40 0 55 -30l332 -645q6 -11 6 -24
q0 -33 -34 -42q-40 -12 -40 -38q0 -15 11.5 -24.5t28.5 -9.5q8 0 22.5 3.5t21.5 3.5zM474 564l-129 -264h258z" />
    <glyph glyph-name="aogonek" unicode="&#x105;" horiz-adv-x="770" 
d="M662 328v-279q0 -44 -38 -50q-37 -6 -37 -36q0 -15 12 -24.5t28 -9.5q7 0 22 3.5t23 3.5q13 0 22 -6q10 -7 16 -20q5 -12 5 -25q0 -33 -24.5 -51.5t-72.5 -18.5q-64 0 -101 32t-37 79q0 57 54 97q-8 7 -13 22q-81 -59 -189 -59q-101 0 -169 47.5t-68 127.5q0 79 67.5 126
t173.5 47q92 0 163 -38v29q0 79 -118 79q-82 0 -157 -45q-24 -15 -37 -15q-16 0 -33 17l-6 6q-23 23 -23 54q0 30 30 54q72 58 228 58q140 0 209.5 -54.5t69.5 -150.5zM375 226q-45 0 -75.5 -18t-30.5 -48q0 -31 31 -47.5t74 -16.5q37 0 71.5 12t53.5 32v45q-49 41 -124 41z
" />
    <glyph glyph-name="Cacute" unicode="&#x106;" horiz-adv-x="972" 
d="M241 371q0 -97 73 -163.5t181 -66.5q80 0 150.5 36.5t122.5 94.5q16 17 37 17q16 0 29 -12l27 -26q31 -31 31 -60q0 -21 -21 -47q-54 -65 -158.5 -111.5t-220.5 -46.5q-179 0 -303 110t-124 275q0 109 57.5 198t155 138t215.5 49q119 0 223 -47.5t154 -109.5
q21 -26 21 -47q0 -31 -30 -61l-27 -26q-13 -12 -29 -12q-21 0 -37 17q-52 58 -122.5 94.5t-150.5 36.5q-108 0 -181 -66.5t-73 -163.5zM636 898l-164 -88q-20 -11 -41 -11q-40 0 -61 38l-1 2q-7 13 -7 26q0 27 26 40l164 88q20 11 41 11q40 0 61 -38l1 -2q7 -13 7 -26
q0 -27 -26 -40z" />
    <glyph glyph-name="cacute" unicode="&#x107;" horiz-adv-x="721" 
d="M249 259q0 -56 38.5 -96.5t100.5 -40.5q69 0 145 60q19 15 35 15q17 0 34 -17l6 -6q23 -23 23 -54q0 -30 -27 -57q-30 -29 -88.5 -53t-134.5 -24q-131 0 -218.5 76t-87.5 197t87.5 197t218.5 76q76 0 134.5 -24t88.5 -53q27 -27 27 -56q0 -32 -23 -55l-6 -6
q-17 -17 -34 -17q-16 0 -35 15q-76 60 -145 60q-62 0 -100.5 -40.5t-38.5 -96.5zM521 685l-164 -88q-20 -11 -41 -11q-40 0 -61 38l-1 2q-7 13 -7 26q0 27 26 40l164 88q20 11 41 11q40 0 61 -38l1 -2q7 -13 7 -26q0 -27 -26 -40z" />
    <glyph glyph-name="Ccircumflex" unicode="&#x108;" horiz-adv-x="972" 
d="M241 371q0 -97 73 -163.5t181 -66.5q80 0 150.5 36.5t122.5 94.5q16 17 37 17q16 0 29 -12l27 -26q31 -31 31 -60q0 -21 -21 -47q-54 -65 -158.5 -111.5t-220.5 -46.5q-179 0 -303 110t-124 275q0 109 57.5 198t155 138t215.5 49q119 0 223 -47.5t154 -109.5
q21 -26 21 -47q0 -31 -30 -61l-27 -26q-13 -12 -29 -12q-21 0 -37 17q-52 58 -122.5 94.5t-150.5 36.5q-108 0 -181 -66.5t-73 -163.5zM493 1019q13 0 27 -8l154 -98q23 -16 23 -37q0 -17 -11 -31q-9 -12 -27 -20q-18 -7 -30 -7q-28 0 -59 21l-77 51l-77 -51
q-31 -21 -59 -21q-13 0 -30 7q-18 8 -27 20q-11 14 -11 31q0 21 23 37l154 98q14 8 27 8z" />
    <glyph glyph-name="ccircumflex" unicode="&#x109;" horiz-adv-x="721" 
d="M249 259q0 -56 38.5 -96.5t100.5 -40.5q69 0 145 60q19 15 35 15q17 0 34 -17l6 -6q23 -23 23 -54q0 -30 -27 -57q-30 -29 -88.5 -53t-134.5 -24q-131 0 -218.5 76t-87.5 197t87.5 197t218.5 76q76 0 134.5 -24t88.5 -53q27 -27 27 -56q0 -32 -23 -55l-6 -6
q-17 -17 -34 -17q-16 0 -35 15q-76 60 -145 60q-62 0 -100.5 -40.5t-38.5 -96.5zM378 786q13 0 27 -8l154 -98q23 -16 23 -37q0 -17 -11 -31q-9 -12 -27 -20q-18 -7 -30 -7q-28 0 -59 21l-77 51l-77 -51q-31 -21 -59 -21q-12 0 -30 7q-18 8 -27 20q-11 14 -11 31q0 21 23 37
l154 98q14 8 27 8z" />
    <glyph glyph-name="Cdotaccent" unicode="&#x10a;" horiz-adv-x="972" 
d="M241 371q0 -97 73 -163.5t181 -66.5q80 0 150.5 36.5t122.5 94.5q16 17 37 17q16 0 29 -12l27 -26q31 -31 31 -60q0 -21 -21 -47q-54 -65 -158.5 -111.5t-220.5 -46.5q-179 0 -303 110t-124 275q0 109 57.5 198t155 138t215.5 49q119 0 223 -47.5t154 -109.5
q21 -26 21 -47q0 -31 -30 -61l-27 -26q-13 -12 -29 -12q-21 0 -37 17q-52 58 -122.5 94.5t-150.5 36.5q-108 0 -181 -66.5t-73 -163.5zM533 820h-87q-22 0 -35.5 13t-13.5 36v25q0 22 13.5 35.5t35.5 13.5h87q22 0 35.5 -13.5t13.5 -35.5v-25q0 -23 -13 -36t-36 -13z" />
    <glyph glyph-name="cdotaccent" unicode="&#x10b;" horiz-adv-x="721" 
d="M249 259q0 -56 38.5 -96.5t100.5 -40.5q69 0 145 60q19 15 35 15q17 0 34 -17l6 -6q23 -23 23 -54q0 -30 -27 -57q-30 -29 -88.5 -53t-134.5 -24q-131 0 -218.5 76t-87.5 197t87.5 197t218.5 76q76 0 134.5 -24t88.5 -53q27 -27 27 -56q0 -32 -23 -55l-6 -6
q-17 -17 -34 -17q-16 0 -35 15q-76 60 -145 60q-62 0 -100.5 -40.5t-38.5 -96.5zM418 597h-87q-23 0 -36 13.5t-13 35.5v25q0 22 13.5 35.5t35.5 13.5h87q22 0 35.5 -13.5t13.5 -35.5v-25q0 -22 -13.5 -35.5t-35.5 -13.5z" />
    <glyph glyph-name="Ccaron" unicode="&#x10c;" horiz-adv-x="972" 
d="M241 371q0 -97 73 -163.5t181 -66.5q80 0 150.5 36.5t122.5 94.5q16 17 37 17q16 0 29 -12l27 -26q31 -31 31 -60q0 -21 -21 -47q-54 -65 -158.5 -111.5t-220.5 -46.5q-179 0 -303 110t-124 275q0 109 57.5 198t155 138t215.5 49q119 0 223 -47.5t154 -109.5
q21 -26 21 -47q0 -31 -30 -61l-27 -26q-13 -12 -29 -12q-21 0 -37 17q-52 58 -122.5 94.5t-150.5 36.5q-108 0 -181 -66.5t-73 -163.5zM492 807q-13 0 -27 8l-154 98q-23 15 -23 37q0 17 11 31q9 12 27 20q16 7 31 7q27 0 58 -21l77 -51l77 51q32 21 58 21q15 0 31 -7
q19 -9 27 -20q11 -14 11 -31q0 -22 -23 -37l-154 -98q-14 -8 -27 -8z" />
    <glyph glyph-name="ccaron" unicode="&#x10d;" horiz-adv-x="721" 
d="M249 259q0 -56 38.5 -96.5t100.5 -40.5q69 0 145 60q19 15 35 15q17 0 34 -17l6 -6q23 -23 23 -54q0 -30 -27 -57q-30 -29 -88.5 -53t-134.5 -24q-131 0 -218.5 76t-87.5 197t87.5 197t218.5 76q76 0 134.5 -24t88.5 -53q27 -27 27 -56q0 -32 -23 -55l-6 -6
q-17 -17 -34 -17q-16 0 -35 15q-76 60 -145 60q-62 0 -100.5 -40.5t-38.5 -96.5zM377 584q-13 0 -27 8l-154 98q-23 15 -23 37q0 17 11 31q9 12 27 20q16 7 31 7q26 0 58 -21l77 -51l77 51q32 21 58 21q15 0 31 -7q19 -9 27 -20q11 -14 11 -31q0 -22 -23 -37l-154 -98
q-14 -8 -27 -8z" />
    <glyph glyph-name="Dcaron" unicode="&#x10e;" horiz-adv-x="1030" 
d="M174 0q-22 0 -35.5 13.5t-13.5 35.5v644q0 22 13.5 35.5t35.5 13.5h399q186 0 289 -103t103 -268t-103 -268t-289 -103h-399zM568 594h-274v-446h274q108 0 164.5 64.5t56.5 158.5t-56.5 158.5t-164.5 64.5zM516 807q-13 0 -27 8l-154 98q-23 15 -23 37q0 17 11 31
q9 12 27 20q16 7 31 7q27 0 58 -21l77 -51l77 51q32 21 58 21q15 0 31 -7q19 -9 27 -20q11 -14 11 -31q0 -22 -23 -37l-154 -98q-14 -8 -27 -8z" />
    <glyph glyph-name="dcaron" unicode="&#x10f;" horiz-adv-x="947" 
d="M600 0h-10q-55 0 -73 48q-69 -62 -170 -62q-116 0 -194 78.5t-78 195.5q0 122 83.5 197.5t197.5 75.5q67 0 129 -30v247q0 22 13 35.5t35 13.5h67q22 0 35.5 -13.5t13.5 -35.5v-701q0 -22 -13.5 -35.5t-35.5 -13.5zM377 120q62 0 108 43v198q-49 38 -105 38
q-58 0 -94.5 -39t-36.5 -100q0 -60 35 -100t93 -40zM825 497q-37 0 -58.5 14t-21.5 42v3q0 22 13.5 35.5t35.5 13.5q26 0 37 11.5t11 35.5v28h-38q-22 0 -35.5 13t-13.5 36v21q0 22 13.5 35.5t35.5 13.5h94q22 0 35.5 -13.5t13.5 -35.5v-102q0 -151 -122 -151z" />
    <glyph glyph-name="Dcroat" unicode="&#x110;" horiz-adv-x="1102" 
d="M246 0q-22 0 -35.5 13.5t-13.5 35.5v242h-103q-22 0 -35.5 13.5t-13.5 35.5v52q0 22 13.5 35.5t35.5 13.5h103v252q0 22 13.5 35.5t35.5 13.5h399q186 0 289 -103t103 -268t-103 -268t-289 -103h-399zM569 291h-203v-143h274q108 0 164.5 64.5t56.5 158.5t-56.5 158.5
t-164.5 64.5h-274v-153h203q22 0 35.5 -13.5t13.5 -35.5v-52q0 -22 -13 -35.5t-36 -13.5z" />
    <glyph glyph-name="dcroat" unicode="&#x111;" horiz-adv-x="774" 
d="M347 -14q-116 0 -194 78.5t-78 195.5q0 122 83.5 197.5t197.5 75.5q67 0 129 -30v78h-91q-22 0 -35.5 13.5t-13.5 35.5v19q0 22 13.5 35.5t35.5 13.5h91v52q0 22 13 35.5t35 13.5h67q22 0 35.5 -13.5t13.5 -35.5v-52h41q22 0 35.5 -13.5t13.5 -35.5v-19
q0 -22 -13.5 -35.5t-35.5 -13.5h-41v-532q0 -22 -13.5 -35.5t-35.5 -13.5h-10q-55 0 -73 48q-69 -62 -170 -62zM377 120q62 0 108 43v198q-49 38 -105 38q-58 0 -94.5 -39t-36.5 -100q0 -60 35 -100t93 -40z" />
    <glyph glyph-name="Emacron" unicode="&#x112;" horiz-adv-x="951" 
d="M174 0q-22 0 -35.5 13.5t-13.5 35.5v644q0 22 13.5 35.5t35.5 13.5h648q22 0 35.5 -13.5t13.5 -35.5v-52q0 -23 -13.5 -36t-35.5 -13h-528v-142h375q22 0 35.5 -13.5t13.5 -35.5v-52q0 -23 -13 -36t-36 -13h-375v-150h528q22 0 35.5 -13.5t13.5 -35.5v-52
q0 -23 -13.5 -36t-35.5 -13h-648zM624 833h-252q-22 0 -35.5 13.5t-13.5 35.5v19q0 22 13.5 35.5t35.5 13.5h252q22 0 35.5 -13.5t13.5 -35.5v-19q0 -22 -13.5 -35.5t-35.5 -13.5z" />
    <glyph glyph-name="emacron" unicode="&#x113;" horiz-adv-x="758" 
d="M631 59q-33 -31 -97 -52t-144 -21q-153 0 -234 79.5t-81 192.5q0 120 88 197.5t218 77.5q71 0 130.5 -25t95.5 -64.5t56 -83.5t20 -85q0 -58 -50 -58h-397q14 -50 57 -73.5t101 -23.5q85 0 166 58q21 15 35 15q17 0 34 -17l6 -6q23 -23 23 -55t-27 -56zM386 412
q-50 0 -90 -23.5t-57 -68.5h277q-31 92 -130 92zM509 610h-252q-23 0 -36 13t-13 36v19q0 22 13.5 35.5t35.5 13.5h252q22 0 35.5 -13.5t13.5 -35.5v-19q0 -23 -13 -36t-36 -13z" />
    <glyph glyph-name="Ebreve" unicode="&#x114;" horiz-adv-x="951" 
d="M174 0q-22 0 -35.5 13.5t-13.5 35.5v644q0 22 13.5 35.5t35.5 13.5h648q22 0 35.5 -13.5t13.5 -35.5v-52q0 -23 -13.5 -36t-35.5 -13h-528v-142h375q22 0 35.5 -13.5t13.5 -35.5v-52q0 -23 -13 -36t-36 -13h-375v-150h528q22 0 35.5 -13.5t13.5 -35.5v-52
q0 -23 -13.5 -36t-35.5 -13h-648zM506 804q-62 0 -109 28t-66 68q-9 20 -9 37q0 28 25 48l4 3q12 9 26 9q24 0 38 -23q35 -58 91 -58t91 58q14 23 37 23q15 0 27 -9l4 -3q25 -19 25 -48q0 -17 -9 -37q-19 -40 -66 -68t-109 -28z" />
    <glyph glyph-name="ebreve" unicode="&#x115;" horiz-adv-x="758" 
d="M631 59q-33 -31 -97 -52t-144 -21q-153 0 -234 79.5t-81 192.5q0 120 88 197.5t218 77.5q71 0 130.5 -25t95.5 -64.5t56 -83.5t20 -85q0 -58 -50 -58h-397q14 -50 57 -73.5t101 -23.5q85 0 166 58q21 15 35 15q17 0 34 -17l6 -6q23 -23 23 -55t-27 -56zM386 412
q-50 0 -90 -23.5t-57 -68.5h277q-31 92 -130 92zM391 581q-62 0 -109 28t-66 68q-9 19 -9 37q0 28 25 48l4 3q12 9 26 9q24 0 38 -23q35 -58 91 -58t91 58q14 23 37 23q15 0 27 -9l4 -3q25 -19 25 -48q0 -18 -9 -37q-19 -40 -66 -68t-109 -28z" />
    <glyph glyph-name="Edotaccent" unicode="&#x116;" horiz-adv-x="951" 
d="M174 0q-22 0 -35.5 13.5t-13.5 35.5v644q0 22 13.5 35.5t35.5 13.5h648q22 0 35.5 -13.5t13.5 -35.5v-52q0 -23 -13.5 -36t-35.5 -13h-528v-142h375q22 0 35.5 -13.5t13.5 -35.5v-52q0 -23 -13 -36t-36 -13h-375v-150h528q22 0 35.5 -13.5t13.5 -35.5v-52
q0 -23 -13.5 -36t-35.5 -13h-648zM546 820h-87q-23 0 -36 13t-13 36v25q0 22 13.5 35.5t35.5 13.5h87q22 0 35.5 -13.5t13.5 -35.5v-25q0 -23 -13.5 -36t-35.5 -13z" />
    <glyph glyph-name="edotaccent" unicode="&#x117;" horiz-adv-x="758" 
d="M631 59q-33 -31 -97 -52t-144 -21q-153 0 -234 79.5t-81 192.5q0 120 88 197.5t218 77.5q71 0 130.5 -25t95.5 -64.5t56 -83.5t20 -85q0 -58 -50 -58h-397q14 -50 57 -73.5t101 -23.5q85 0 166 58q21 15 35 15q17 0 34 -17l6 -6q23 -23 23 -55t-27 -56zM386 412
q-50 0 -90 -23.5t-57 -68.5h277q-31 92 -130 92zM431 597h-87q-22 0 -35.5 13.5t-13.5 35.5v25q0 22 13.5 35.5t35.5 13.5h87q22 0 35.5 -13.5t13.5 -35.5v-25q0 -22 -13 -35.5t-36 -13.5z" />
    <glyph glyph-name="Eogonek" unicode="&#x118;" horiz-adv-x="951" 
d="M174 0q-22 0 -35.5 13.5t-13.5 35.5v644q0 22 13.5 35.5t35.5 13.5h648q22 0 35.5 -13.5t13.5 -35.5v-52q0 -23 -13.5 -36t-35.5 -13h-528v-142h375q22 0 35.5 -13.5t13.5 -35.5v-52q0 -23 -13 -36t-36 -13h-375v-150h528q22 0 35.5 -13.5t13.5 -35.5v-52
q0 -23 -13.5 -36t-35.5 -13h-308q-8 -18 -8 -32q0 -17 12 -28t29 -11q7 0 21.5 3.5t22.5 3.5q18 0 31 -15l3 -4q9 -13 9 -32q-4 -70 -97 -70q-67 0 -102.5 37t-35.5 90q0 30 11 58h-236z" />
    <glyph glyph-name="eogonek" unicode="&#x119;" horiz-adv-x="758" 
d="M491 -64q18 0 31 -15l3 -4q9 -13 9 -32q-4 -70 -97 -70q-67 0 -102.5 37t-35.5 90q0 27 9 51q-114 21 -173.5 95t-59.5 170q0 120 88 197.5t218 77.5q71 0 130.5 -25t95.5 -64.5t56 -83.5t20 -85q0 -58 -50 -58h-397q14 -50 57 -73.5t101 -23.5q85 0 166 58q21 15 35 15
q17 0 34 -17l6 -6q23 -23 23 -55t-27 -56q-31 -28 -89.5 -48.5t-132.5 -23.5q-3 -11 -3 -19q0 -17 12 -28t29 -11q7 0 21.5 3.5t22.5 3.5zM386 412q-50 0 -90 -23.5t-57 -68.5h277q-31 92 -130 92z" />
    <glyph glyph-name="Ecaron" unicode="&#x11a;" horiz-adv-x="951" 
d="M174 0q-22 0 -35.5 13.5t-13.5 35.5v644q0 22 13.5 35.5t35.5 13.5h648q22 0 35.5 -13.5t13.5 -35.5v-52q0 -23 -13.5 -36t-35.5 -13h-528v-142h375q22 0 35.5 -13.5t13.5 -35.5v-52q0 -23 -13 -36t-36 -13h-375v-150h528q22 0 35.5 -13.5t13.5 -35.5v-52
q0 -23 -13.5 -36t-35.5 -13h-648zM505 807q-13 0 -27 8l-154 98q-23 15 -23 37q0 17 11 31q9 12 27 20q16 7 31 7q26 0 58 -21l77 -51l77 51q32 21 58 21q15 0 31 -7q19 -9 27 -20q11 -14 11 -31q0 -22 -23 -37l-154 -98q-14 -8 -27 -8z" />
    <glyph glyph-name="ecaron" unicode="&#x11b;" horiz-adv-x="758" 
d="M631 59q-33 -31 -97 -52t-144 -21q-153 0 -234 79.5t-81 192.5q0 120 88 197.5t218 77.5q71 0 130.5 -25t95.5 -64.5t56 -83.5t20 -85q0 -58 -50 -58h-397q14 -50 57 -73.5t101 -23.5q85 0 166 58q21 15 35 15q17 0 34 -17l6 -6q23 -23 23 -55t-27 -56zM386 412
q-50 0 -90 -23.5t-57 -68.5h277q-31 92 -130 92zM390 584q-13 0 -27 8l-154 98q-23 15 -23 37q0 17 11 31q9 12 27 20q16 7 31 7q27 0 58 -21l77 -51l77 51q31 21 58 21q15 0 31 -7q19 -9 27 -20q11 -14 11 -31q0 -22 -23 -37l-154 -98q-14 -8 -27 -8z" />
    <glyph glyph-name="Gcircumflex" unicode="&#x11c;" horiz-adv-x="1003" 
d="M943 380q0 -167 -125 -280.5t-315 -113.5q-186 0 -312 109.5t-126 275.5q0 109 60 198t160 138t218 49q112 0 205.5 -36t147.5 -92q24 -24 24 -48q0 -31 -32 -58l-32 -26q-14 -11 -28 -11q-20 0 -39 18q-109 98 -247 98q-115 0 -188 -63.5t-73 -166.5q0 -99 71.5 -164.5
t190.5 -65.5q93 0 155.5 39t91.5 106h-302q-22 0 -35.5 13t-13.5 36v45q0 22 13.5 35.5t35.5 13.5h446q22 0 35.5 -13.5t13.5 -35.5zM493 1019q13 0 27 -8l154 -98q23 -16 23 -37q0 -17 -11 -31q-9 -12 -27 -20q-18 -7 -30 -7q-28 0 -59 21l-77 51l-77 -51q-31 -21 -59 -21
q-13 0 -30 7q-18 8 -27 20q-11 14 -11 31q0 21 23 37l154 98q14 8 27 8z" />
    <glyph glyph-name="gcircumflex" unicode="&#x11d;" horiz-adv-x="769" 
d="M339 29q-111 0 -187.5 70.5t-76.5 181.5q0 110 77 181t188 71q98 0 173 -60q19 46 73 46h9q23 0 36 -13.5t13 -36.5v-381q0 -273 -281 -273q-129 0 -196 49q-35 25 -35 59q0 30 23 53l6 6q17 17 34 17q15 0 36 -15q55 -37 126 -37q58 0 90.5 25.5t32.5 70.5v21
q-62 -35 -141 -35zM373 156q59 0 107 41v162q-44 42 -105 42q-54 0 -90 -34t-36 -87t35.5 -88.5t88.5 -35.5zM368 796q13 0 27 -8l154 -98q23 -16 23 -37q0 -17 -11 -31q-9 -12 -27 -20q-18 -7 -30 -7q-28 0 -59 21l-77 51l-77 -51q-31 -21 -59 -21q-12 0 -30 7
q-18 8 -27 20q-11 14 -11 31q0 21 23 37l154 98q14 8 27 8z" />
    <glyph glyph-name="Gbreve" unicode="&#x11e;" horiz-adv-x="1003" 
d="M943 380q0 -167 -125 -280.5t-315 -113.5q-186 0 -312 109.5t-126 275.5q0 109 60 198t160 138t218 49q112 0 205.5 -36t147.5 -92q24 -24 24 -48q0 -31 -32 -58l-32 -26q-14 -11 -28 -11q-20 0 -39 18q-109 98 -247 98q-115 0 -188 -63.5t-73 -166.5q0 -99 71.5 -164.5
t190.5 -65.5q93 0 155.5 39t91.5 106h-302q-22 0 -35.5 13t-13.5 36v45q0 22 13.5 35.5t35.5 13.5h446q22 0 35.5 -13.5t13.5 -35.5zM493 804q-62 0 -109 28t-66 68q-9 20 -9 37q0 28 25 48l4 3q12 9 26 9q24 0 38 -23q35 -58 91 -58t91 58q14 23 37 23q15 0 27 -9l4 -3
q25 -19 25 -48q0 -17 -9 -37q-19 -40 -66 -68t-109 -28z" />
    <glyph glyph-name="gbreve" unicode="&#x11f;" horiz-adv-x="769" 
d="M339 29q-111 0 -187.5 70.5t-76.5 181.5q0 110 77 181t188 71q98 0 173 -60q19 46 73 46h9q23 0 36 -13.5t13 -36.5v-381q0 -273 -281 -273q-129 0 -196 49q-35 25 -35 59q0 30 23 53l6 6q17 17 34 17q15 0 36 -15q55 -37 126 -37q58 0 90.5 25.5t32.5 70.5v21
q-62 -35 -141 -35zM373 156q59 0 107 41v162q-44 42 -105 42q-54 0 -90 -34t-36 -87t35.5 -88.5t88.5 -35.5zM378 581q-62 0 -109 28t-66 68q-9 19 -9 37q0 28 25 48l4 3q12 9 26 9q24 0 38 -23q35 -58 91 -58t91 58q14 23 37 23q15 0 27 -9l4 -3q25 -19 25 -48
q0 -18 -9 -37q-19 -40 -66 -68t-109 -28z" />
    <glyph glyph-name="Gdotaccent" unicode="&#x120;" horiz-adv-x="1003" 
d="M943 380q0 -167 -125 -280.5t-315 -113.5q-186 0 -312 109.5t-126 275.5q0 109 60 198t160 138t218 49q112 0 205.5 -36t147.5 -92q24 -24 24 -48q0 -31 -32 -58l-32 -26q-14 -11 -28 -11q-20 0 -39 18q-109 98 -247 98q-115 0 -188 -63.5t-73 -166.5q0 -99 71.5 -164.5
t190.5 -65.5q93 0 155.5 39t91.5 106h-302q-22 0 -35.5 13t-13.5 36v45q0 22 13.5 35.5t35.5 13.5h446q22 0 35.5 -13.5t13.5 -35.5zM533 820h-87q-22 0 -35.5 13t-13.5 36v25q0 22 13.5 35.5t35.5 13.5h87q22 0 35.5 -13.5t13.5 -35.5v-25q0 -23 -13 -36t-36 -13z" />
    <glyph glyph-name="gdotaccent" unicode="&#x121;" horiz-adv-x="769" 
d="M339 29q-111 0 -187.5 70.5t-76.5 181.5q0 110 77 181t188 71q98 0 173 -60q19 46 73 46h9q23 0 36 -13.5t13 -36.5v-381q0 -273 -281 -273q-129 0 -196 49q-35 25 -35 59q0 30 23 53l6 6q17 17 34 17q15 0 36 -15q55 -37 126 -37q58 0 90.5 25.5t32.5 70.5v21
q-62 -35 -141 -35zM373 156q59 0 107 41v162q-44 42 -105 42q-54 0 -90 -34t-36 -87t35.5 -88.5t88.5 -35.5zM388 597h-87q-23 0 -36 13.5t-13 35.5v25q0 22 13.5 35.5t35.5 13.5h87q22 0 35.5 -13.5t13.5 -35.5v-25q0 -22 -13.5 -35.5t-35.5 -13.5z" />
    <glyph glyph-name="Gcommaaccent" unicode="&#x122;" horiz-adv-x="1003" 
d="M943 380q0 -167 -125 -280.5t-315 -113.5q-186 0 -312 109.5t-126 275.5q0 109 60 198t160 138t218 49q112 0 205.5 -36t147.5 -92q24 -24 24 -48q0 -31 -32 -58l-32 -26q-14 -11 -28 -11q-20 0 -39 18q-109 98 -247 98q-115 0 -188 -63.5t-73 -166.5q0 -99 71.5 -164.5
t190.5 -65.5q93 0 155.5 39t91.5 106h-302q-22 0 -35.5 13t-13.5 36v45q0 22 13.5 35.5t35.5 13.5h446q22 0 35.5 -13.5t13.5 -35.5zM389 -127l19 51q12 32 45 32h98q13 0 21 -7t8 -18q0 -18 -23 -37l-58 -48q-50 -41 -83 -41q-37 0 -37 32q0 11 10 36z" />
    <glyph glyph-name="gcommaaccent" unicode="&#x123;" horiz-adv-x="769" 
d="M339 29q-111 0 -187.5 70.5t-76.5 181.5q0 110 77 181t188 71q98 0 173 -60q19 46 73 46h9q23 0 36 -13.5t13 -36.5v-381q0 -273 -281 -273q-129 0 -196 49q-35 25 -35 59q0 30 23 53l6 6q17 17 34 17q15 0 36 -15q55 -37 126 -37q58 0 90.5 25.5t32.5 70.5v21
q-62 -35 -141 -35zM373 156q59 0 107 41v162q-44 42 -105 42q-54 0 -90 -34t-36 -87t35.5 -88.5t88.5 -35.5zM484 679l-19 -51q-12 -32 -45 -32h-98q-13 0 -21 7t-8 18q0 18 23 37l58 48q50 41 83 41q37 0 37 -32q0 -11 -10 -36z" />
    <glyph glyph-name="Hcircumflex" unicode="&#x124;" horiz-adv-x="1016" 
d="M771 0q-22 0 -35.5 13.5t-13.5 35.5v251h-428v-251q0 -23 -13 -36t-36 -13h-71q-22 0 -35.5 13.5t-13.5 35.5v644q0 22 13.5 35.5t35.5 13.5h71q22 0 35.5 -13.5t13.5 -35.5v-243h428v243q0 22 13.5 35.5t35.5 13.5h71q22 0 35.5 -13.5t13.5 -35.5v-644q0 -23 -13.5 -36
t-35.5 -13h-71zM508 986q13 0 27 -8l154 -98q23 -16 23 -37q0 -17 -11 -31q-9 -12 -27 -20q-18 -7 -30 -7q-28 0 -59 21l-77 51l-77 -51q-31 -21 -59 -21q-12 0 -30 7q-18 8 -27 20q-11 14 -11 31q0 21 23 37l154 98q14 8 27 8z" />
    <glyph glyph-name="hcircumflex" unicode="&#x125;" horiz-adv-x="788" 
d="M634 0h-66q-22 0 -35.5 13.5t-13.5 35.5v230q0 57 -26.5 87.5t-77.5 30.5q-70 0 -126 -58v-290q0 -22 -13.5 -35.5t-35.5 -13.5h-66q-22 0 -35.5 13t-13.5 36v701q0 22 13.5 35.5t35.5 13.5h66q22 0 35.5 -13.5t13.5 -35.5v-264q72 47 163 47q106 0 168.5 -63t62.5 -180
v-241q0 -22 -13.5 -35.5t-35.5 -13.5zM205 1023q13 0 27 -8l154 -98q23 -16 23 -37q0 -17 -11 -31q-9 -12 -27 -20q-17 -7 -30 -7q-28 0 -59 21l-77 51l-77 -51q-31 -21 -59 -21q-13 0 -30 7q-18 8 -27 20q-11 14 -11 31q0 21 23 37l154 98q14 8 27 8z" />
    <glyph glyph-name="Hbar" unicode="&#x126;" horiz-adv-x="1016" 
d="M174 0q-22 0 -35.5 13.5t-13.5 35.5v456h-36q-23 0 -36 13.5t-13 35.5v42q0 22 13.5 35.5t35.5 13.5h36v48q0 22 13.5 35.5t35.5 13.5h71q22 0 35.5 -13.5t13.5 -35.5v-48h428v48q0 22 13.5 35.5t35.5 13.5h71q22 0 35.5 -13.5t13.5 -35.5v-48h36q22 0 35.5 -13.5
t13.5 -35.5v-42q0 -22 -13 -35.5t-36 -13.5h-36v-456q0 -23 -13.5 -36t-35.5 -13h-71q-22 0 -35.5 13.5t-13.5 35.5v211h-428v-211q0 -23 -13 -36t-36 -13h-71zM294 505v-105h428v105h-428z" />
    <glyph glyph-name="hbar" unicode="&#x127;" horiz-adv-x="788" 
d="M240 0h-66q-22 0 -35.5 13t-13.5 36v532h-41q-22 0 -35.5 13.5t-13.5 35.5v19q0 22 13.5 35.5t35.5 13.5h41v52q0 22 13.5 35.5t35.5 13.5h66q22 0 35.5 -13.5t13.5 -35.5v-52h91q22 0 35.5 -13.5t13.5 -35.5v-19q0 -22 -13.5 -35.5t-35.5 -13.5h-91v-95q72 47 163 47
q106 0 168.5 -63t62.5 -180v-241q0 -22 -13.5 -35.5t-35.5 -13.5h-66q-22 0 -35.5 13.5t-13.5 35.5v230q0 57 -26.5 87.5t-77.5 30.5q-70 0 -126 -58v-290q0 -22 -13.5 -35.5t-35.5 -13.5z" />
    <glyph glyph-name="Itilde" unicode="&#x128;" horiz-adv-x="419" 
d="M174 0q-22 0 -35.5 13.5t-13.5 35.5v644q0 22 13.5 35.5t35.5 13.5h71q22 0 35.5 -13.5t13.5 -35.5v-644q0 -23 -13 -36t-36 -13h-71zM292 819q-36 0 -85.5 27.5t-60.5 27.5q-20 0 -31 -31q-9 -26 -37 -26q-9 0 -20 4l-3 1q-39 14 -39 51q0 12 5 32q10 37 39.5 62.5
t68.5 25.5q35 0 84 -27.5t61 -27.5q20 0 31 31q9 26 35 26q10 0 22 -4l3 -1q39 -13 39 -50q0 -14 -5 -32q-11 -38 -39 -63.5t-68 -25.5z" />
    <glyph glyph-name="itilde" unicode="&#x129;" horiz-adv-x="414" 
d="M174 0q-22 0 -35.5 13.5t-13.5 35.5v420q0 23 13.5 36.5t35.5 13.5h66q23 0 36 -13.5t13 -36.5v-420q0 -23 -13.5 -36t-35.5 -13h-66zM290 596q-36 0 -85.5 27.5t-60.5 27.5q-20 0 -31 -31q-9 -26 -37 -26q-9 0 -20 4l-3 1q-39 14 -39 51q0 12 5 32q10 37 39.5 62.5
t68.5 25.5q35 0 84 -27.5t61 -27.5q20 0 31 31q9 26 35 26q10 0 22 -4l3 -1q39 -13 39 -50q0 -14 -5 -32q-11 -38 -39 -63.5t-68 -25.5z" />
    <glyph glyph-name="Imacron" unicode="&#x12a;" horiz-adv-x="419" 
d="M174 0q-22 0 -35.5 13.5t-13.5 35.5v644q0 22 13.5 35.5t35.5 13.5h71q22 0 35.5 -13.5t13.5 -35.5v-644q0 -23 -13 -36t-36 -13h-71zM330 833h-252q-22 0 -35.5 13.5t-13.5 35.5v19q0 22 13.5 35.5t35.5 13.5h252q22 0 35.5 -13.5t13.5 -35.5v-19q0 -22 -13.5 -35.5
t-35.5 -13.5z" />
    <glyph glyph-name="imacron" unicode="&#x12b;" horiz-adv-x="414" 
d="M174 0q-22 0 -35.5 13.5t-13.5 35.5v420q0 23 13.5 36.5t35.5 13.5h66q23 0 36 -13.5t13 -36.5v-420q0 -23 -13.5 -36t-35.5 -13h-66zM333 610h-252q-23 0 -36 13t-13 36v19q0 22 13.5 35.5t35.5 13.5h252q22 0 35.5 -13.5t13.5 -35.5v-19q0 -23 -13 -36t-36 -13z" />
    <glyph glyph-name="Ibreve" unicode="&#x12c;" horiz-adv-x="419" 
d="M174 0q-22 0 -35.5 13.5t-13.5 35.5v644q0 22 13.5 35.5t35.5 13.5h71q22 0 35.5 -13.5t13.5 -35.5v-644q0 -23 -13 -36t-36 -13h-71zM212 804q-62 0 -109 28t-66 68q-9 20 -9 37q0 28 25 48l4 3q12 9 26 9q24 0 38 -23q35 -58 91 -58t91 58q14 23 37 23q15 0 27 -9l4 -3
q25 -19 25 -48q0 -17 -9 -37q-19 -40 -66 -68t-109 -28z" />
    <glyph glyph-name="ibreve" unicode="&#x12d;" horiz-adv-x="414" 
d="M174 0q-22 0 -35.5 13.5t-13.5 35.5v420q0 23 13.5 36.5t35.5 13.5h66q23 0 36 -13.5t13 -36.5v-420q0 -23 -13.5 -36t-35.5 -13h-66zM207 581q-62 0 -109 28t-66 68q-9 19 -9 37q0 28 25 48l4 3q12 9 26 9q24 0 38 -23q35 -58 91 -58t91 58q14 23 37 23q15 0 27 -9l4 -3
q25 -19 25 -48q0 -18 -9 -37q-19 -40 -66 -68t-109 -28z" />
    <glyph glyph-name="Iogonek" unicode="&#x12e;" horiz-adv-x="419" 
d="M294 693v-644q0 -43 -42 -50q-16 -2 -27 -11.5t-11 -24.5t11.5 -24.5t28.5 -9.5q7 0 22 3.5t23 3.5q13 0 24 -8q9 -7 13 -16q6 -12 6 -27q0 -33 -25 -51.5t-72 -18.5q-64 0 -101 32t-37 78q0 54 38 83q-20 13 -20 41v644q0 22 13.5 35.5t35.5 13.5h71q22 0 35.5 -13.5
t13.5 -35.5z" />
    <glyph glyph-name="iogonek" unicode="&#x12f;" horiz-adv-x="414" 
d="M289 469v-420q0 -44 -38 -50q-37 -6 -37 -36q0 -15 12 -24.5t28 -9.5q7 0 22 3.5t23 3.5q13 0 22 -6t15 -17q6 -12 6 -27q0 -71 -97 -71q-65 0 -101.5 32t-36.5 78q0 54 38 83q-20 13 -20 41v420q0 23 13.5 36.5t35.5 13.5h66q23 0 36 -13.5t13 -36.5zM251 609h-88
q-23 0 -36 13.5t-13 35.5v35q0 22 13.5 35.5t35.5 13.5h88q22 0 35.5 -13.5t13.5 -35.5v-35q0 -22 -13 -35.5t-36 -13.5z" />
    <glyph glyph-name="Idotaccent" unicode="&#x130;" horiz-adv-x="419" 
d="M174 0q-22 0 -35.5 13.5t-13.5 35.5v644q0 22 13.5 35.5t35.5 13.5h71q22 0 35.5 -13.5t13.5 -35.5v-644q0 -23 -13 -36t-36 -13h-71zM252 820h-87q-23 0 -36 13t-13 36v25q0 22 13.5 35.5t35.5 13.5h87q22 0 35.5 -13.5t13.5 -35.5v-25q0 -23 -13.5 -36t-35.5 -13z" />
    <glyph glyph-name="dotlessi" unicode="&#x131;" horiz-adv-x="414" 
d="M174 0q-22 0 -35.5 13.5t-13.5 35.5v420q0 23 13.5 36.5t35.5 13.5h66q23 0 36 -13.5t13 -36.5v-420q0 -23 -13.5 -36t-35.5 -13h-66z" />
    <glyph glyph-name="ij" unicode="&#x133;" horiz-adv-x="844" 
d="M174 0q-22 0 -35.5 13.5t-13.5 35.5v420q0 23 13.5 36.5t35.5 13.5h66q23 0 36 -13.5t13 -36.5v-420q0 -23 -13.5 -36t-35.5 -13h-66zM251 609h-88q-23 0 -36 13.5t-13 35.5v35q0 22 13.5 35.5t35.5 13.5h88q22 0 35.5 -13.5t13.5 -35.5v-35q0 -22 -13 -35.5t-36 -13.5z
M603 519h66q23 0 36 -13.5t13 -35.5v-461q0 -86 -51.5 -140t-143.5 -54q-82 0 -126 38q-27 24 -27 56t23 55l6 6q17 17 34 17q15 0 35 -16q20 -15 41 -15q19 0 32 14t13 41v459q0 22 13.5 35.5t35.5 13.5zM680 609h-88q-22 0 -35.5 13.5t-13.5 35.5v35q0 22 13.5 35.5
t35.5 13.5h88q22 0 35.5 -13.5t13.5 -35.5v-35q0 -22 -13.5 -35.5t-35.5 -13.5z" />
    <glyph glyph-name="Jcircumflex" unicode="&#x134;" horiz-adv-x="776" 
d="M30 236q0 94 78 94h40q22 0 35.5 -13.5t13.5 -35.5q0 -61 35.5 -102t104.5 -41q66 0 108 41t42 131v383q0 22 13.5 35.5t35.5 13.5h71q22 0 35.5 -13.5t13.5 -35.5v-379q0 -155 -81.5 -241.5t-237.5 -86.5q-151 0 -229 74.5t-78 175.5zM573 1019q13 0 27 -8l154 -98
q23 -16 23 -37q0 -17 -11 -31q-9 -12 -27 -20q-18 -7 -30 -7q-28 0 -59 21l-77 51l-77 -51q-31 -21 -59 -21q-13 0 -30 7q-18 8 -27 20q-11 14 -11 31q0 21 23 37l154 98q14 8 27 8z" />
    <glyph glyph-name="jcircumflex" unicode="&#x135;" horiz-adv-x="430" 
d="M-6 -147q-27 24 -27 56t23 55l6 6q17 17 34 17q15 0 35 -16q20 -15 41 -15q18 0 30 14t12 41v459q0 22 13.5 35.5t35.5 13.5h69q22 0 35.5 -13.5t13.5 -35.5v-461q0 -86 -51.5 -140t-143.5 -54q-82 0 -126 38zM229 796q13 0 27 -8l154 -98q23 -16 23 -37q0 -17 -11 -31
q-9 -12 -27 -20q-17 -7 -30 -7q-28 0 -59 21l-77 51l-77 -51q-31 -21 -59 -21q-13 0 -30 7q-18 8 -27 20q-11 14 -11 31q0 21 23 37l154 98q14 8 27 8z" />
    <glyph glyph-name="Kcommaaccent" unicode="&#x136;" horiz-adv-x="967" 
d="M720 24l-272 326l-154 -114v-187q0 -23 -13 -36t-36 -13h-71q-22 0 -35.5 13.5t-13.5 35.5v644q0 22 13.5 35.5t35.5 13.5h71q22 0 35.5 -13.5t13.5 -35.5v-269l391 295q30 24 58 24h136q17 0 26.5 -8t9.5 -20q0 -17 -16 -30l-319 -241l338 -386q14 -16 14 -30
q0 -12 -9.5 -20t-26.5 -8h-118q-39 0 -58 24zM374 -117l19 51q12 32 45 32h98q13 0 21 -7t8 -18q0 -18 -23 -37l-58 -48q-50 -41 -83 -41q-37 0 -37 32q0 11 10 36z" />
    <glyph glyph-name="kcommaaccent" unicode="&#x137;" horiz-adv-x="767" 
d="M504 27l-150 193l-65 -50v-132q0 -17 -10 -27.5t-28 -10.5h-88q-17 0 -27.5 10.5t-10.5 27.5v723q0 17 10.5 27.5t27.5 10.5h88q18 0 28 -10.5t10 -27.5v-420l179 151q33 27 62 27h103q40 0 40 -35q0 -19 -21 -35l-172 -132l192 -247q20 -24 20 -38q0 -32 -38 -32h-88
q-40 0 -62 27zM284 -117l19 51q12 32 45 32h98q13 0 21 -7t8 -18q0 -18 -23 -37l-58 -48q-50 -41 -83 -41q-37 0 -37 32q0 11 10 36z" />
    <glyph glyph-name="Lacute" unicode="&#x139;" horiz-adv-x="881" 
d="M174 0q-22 0 -35.5 13.5t-13.5 35.5v644q0 22 13.5 35.5t35.5 13.5h71q22 0 35.5 -13.5t13.5 -35.5v-543h518q22 0 35.5 -13.5t13.5 -35.5v-52q0 -23 -13.5 -36t-35.5 -13h-638zM344 898l-164 -88q-20 -11 -41 -11q-40 0 -61 38l-1 2q-7 13 -7 26q0 27 26 40l164 88
q20 11 41 11q40 0 61 -38l1 -2q7 -13 7 -26q0 -27 -26 -40z" />
    <glyph glyph-name="lacute" unicode="&#x13a;" horiz-adv-x="414" 
d="M174 0q-22 0 -35.5 13.5t-13.5 35.5v701q0 22 13.5 35.5t35.5 13.5h66q22 0 35.5 -13.5t13.5 -35.5v-701q0 -23 -13.5 -36t-35.5 -13h-66zM333 954l-164 -88q-20 -11 -41 -11q-40 0 -61 38l-1 2q-7 13 -7 26q0 27 26 40l164 88q20 11 41 11q40 0 61 -38l1 -2q7 -13 7 -26
q0 -27 -26 -40z" />
    <glyph glyph-name="Lcommaaccent" unicode="&#x13b;" horiz-adv-x="881" 
d="M174 0q-22 0 -35.5 13.5t-13.5 35.5v644q0 22 13.5 35.5t35.5 13.5h71q22 0 35.5 -13.5t13.5 -35.5v-543h518q22 0 35.5 -13.5t13.5 -35.5v-52q0 -23 -13.5 -36t-35.5 -13h-638zM364 -117l19 51q12 32 45 32h98q13 0 21 -7t8 -18q0 -18 -23 -37l-58 -48q-50 -41 -83 -41
q-37 0 -37 32q0 11 10 36z" />
    <glyph glyph-name="lcommaaccent" unicode="&#x13c;" horiz-adv-x="414" 
d="M174 0q-22 0 -35.5 13.5t-13.5 35.5v701q0 22 13.5 35.5t35.5 13.5h66q22 0 35.5 -13.5t13.5 -35.5v-701q0 -23 -13.5 -36t-35.5 -13h-66zM85 -117l19 51q12 32 45 32h98q13 0 21 -7t8 -18q0 -18 -23 -37l-58 -48q-50 -41 -83 -41q-37 0 -37 32q0 11 10 36z" />
    <glyph glyph-name="Lcaron" unicode="&#x13d;" horiz-adv-x="881" 
d="M174 0q-22 0 -35.5 13.5t-13.5 35.5v644q0 22 13.5 35.5t35.5 13.5h71q22 0 35.5 -13.5t13.5 -35.5v-543h518q22 0 35.5 -13.5t13.5 -35.5v-52q0 -23 -13.5 -36t-35.5 -13h-638zM610 440q-37 0 -58.5 14t-21.5 42v3q0 22 13.5 35.5t35.5 13.5q26 0 37 11.5t11 35.5v28
h-38q-23 0 -36 13.5t-13 35.5v21q0 22 13.5 35.5t35.5 13.5h94q22 0 35.5 -13.5t13.5 -35.5v-102q0 -151 -122 -151z" />
    <glyph glyph-name="lcaron" unicode="&#x13e;" horiz-adv-x="607" 
d="M174 0q-22 0 -35.5 13.5t-13.5 35.5v701q0 22 13.5 35.5t35.5 13.5h66q22 0 35.5 -13.5t13.5 -35.5v-701q0 -23 -13.5 -36t-35.5 -13h-66zM485 497q-37 0 -58.5 14t-21.5 42v3q0 22 13.5 35.5t35.5 13.5q26 0 37 11.5t11 35.5v28h-38q-22 0 -35.5 13t-13.5 36v21
q0 22 13.5 35.5t35.5 13.5h94q22 0 35.5 -13.5t13.5 -35.5v-102q0 -151 -122 -151z" />
    <glyph glyph-name="Ldot" unicode="&#x13f;" horiz-adv-x="881" 
d="M174 0q-22 0 -35.5 13.5t-13.5 35.5v644q0 22 13.5 35.5t35.5 13.5h71q22 0 35.5 -13.5t13.5 -35.5v-543h518q22 0 35.5 -13.5t13.5 -35.5v-52q0 -23 -13.5 -36t-35.5 -13h-638zM599 337h-94q-23 0 -36 13.5t-13 35.5v52q0 22 13.5 35.5t35.5 13.5h94q22 0 35.5 -13.5
t13.5 -35.5v-52q0 -22 -13 -35.5t-36 -13.5z" />
    <glyph glyph-name="ldot" unicode="&#x140;" horiz-adv-x="632" 
d="M174 0q-22 0 -35.5 13.5t-13.5 35.5v701q0 22 13.5 35.5t35.5 13.5h66q22 0 35.5 -13.5t13.5 -35.5v-701q0 -23 -13.5 -36t-35.5 -13h-66zM563 238h-94q-23 0 -36 13t-13 36v52q0 22 13.5 35.5t35.5 13.5h94q22 0 35.5 -13.5t13.5 -35.5v-52q0 -23 -13 -36t-36 -13z" />
    <glyph glyph-name="Lslash" unicode="&#x141;" horiz-adv-x="895" 
d="M188 0q-22 0 -35.5 13.5t-13.5 35.5v232l-55 -24q-20 -9 -36 -9q-38 0 -38 40v15q0 46 13 66t51 37l65 28v259q0 22 13.5 35.5t35.5 13.5h71q22 0 35.5 -13.5t13.5 -35.5v-184l81 36q19 9 36 9q38 0 38 -40v-15q0 -46 -13 -66t-51 -37l-91 -40v-206h518q22 0 35.5 -13.5
t13.5 -35.5v-52q0 -23 -13.5 -36t-35.5 -13h-638z" />
    <glyph glyph-name="lslash" unicode="&#x142;" horiz-adv-x="451" 
d="M193 0q-22 0 -35.5 13.5t-13.5 35.5v238l-69 -30q-19 -9 -35 -9q-41 0 -41 37v18q0 46 13 66t51 37l81 36v308q0 22 13.5 35.5t35.5 13.5h66q22 0 35.5 -13.5t13.5 -35.5v-235l68 30q19 9 35 9q41 0 41 -37v-18q0 -46 -13 -66t-51 -37l-80 -36v-311q0 -23 -13 -36
t-36 -13h-66z" />
    <glyph glyph-name="Nacute" unicode="&#x143;" horiz-adv-x="1050" 
d="M762 20l-468 461v-432q0 -22 -13.5 -35.5t-35.5 -13.5h-71q-22 0 -35.5 13.5t-13.5 35.5v644q0 23 13.5 36t35.5 13h60q34 0 54 -20l468 -461v432q0 22 13.5 35.5t35.5 13.5h71q22 0 35.5 -13.5t13.5 -35.5v-644q0 -23 -13.5 -36t-35.5 -13h-60q-34 0 -54 20zM675 898
l-164 -88q-20 -11 -41 -11q-40 0 -61 38l-1 2q-7 13 -7 26q0 27 26 40l164 88q20 11 41 11q40 0 61 -38l1 -2q7 -13 7 -26q0 -27 -26 -40z" />
    <glyph glyph-name="nacute" unicode="&#x144;" horiz-adv-x="788" 
d="M174 0q-22 0 -35.5 13.5t-13.5 35.5v421q0 22 13.5 35.5t35.5 13.5h9q61 0 75 -56q82 70 194 70q106 0 168.5 -63t62.5 -180v-241q0 -23 -13.5 -36t-35.5 -13h-66q-22 0 -35.5 13.5t-13.5 35.5v235q0 55 -26.5 86t-76.5 31q-72 0 -127 -57v-295q0 -22 -13.5 -35.5
t-35.5 -13.5h-66zM539 675l-164 -88q-20 -11 -41 -11q-40 0 -61 38l-1 2q-7 13 -7 26q0 27 26 40l164 88q20 11 41 11q40 0 61 -38l1 -2q7 -13 7 -26q0 -27 -26 -40z" />
    <glyph glyph-name="Ncommaaccent" unicode="&#x145;" horiz-adv-x="1050" 
d="M762 20l-468 461v-432q0 -22 -13.5 -35.5t-35.5 -13.5h-71q-22 0 -35.5 13.5t-13.5 35.5v644q0 23 13.5 36t35.5 13h60q34 0 54 -20l468 -461v432q0 22 13.5 35.5t35.5 13.5h71q22 0 35.5 -13.5t13.5 -35.5v-644q0 -23 -13.5 -36t-35.5 -13h-60q-34 0 -54 20zM424 -117
l19 51q12 32 45 32h98q13 0 21 -7t8 -18q0 -18 -23 -37l-58 -48q-50 -41 -83 -41q-37 0 -37 32q0 11 10 36z" />
    <glyph glyph-name="ncommaaccent" unicode="&#x146;" horiz-adv-x="788" 
d="M174 0q-22 0 -35.5 13.5t-13.5 35.5v421q0 22 13.5 35.5t35.5 13.5h9q61 0 75 -56q82 70 194 70q106 0 168.5 -63t62.5 -180v-241q0 -23 -13.5 -36t-35.5 -13h-66q-22 0 -35.5 13.5t-13.5 35.5v235q0 55 -26.5 86t-76.5 31q-72 0 -127 -57v-295q0 -22 -13.5 -35.5
t-35.5 -13.5h-66zM288 -117l19 51q12 32 45 32h98q13 0 21 -7t8 -18q0 -18 -23 -37l-58 -48q-50 -41 -83 -41q-37 0 -37 32q0 11 10 36z" />
    <glyph glyph-name="Ncaron" unicode="&#x147;" horiz-adv-x="1050" 
d="M762 20l-468 461v-432q0 -22 -13.5 -35.5t-35.5 -13.5h-71q-22 0 -35.5 13.5t-13.5 35.5v644q0 23 13.5 36t35.5 13h60q34 0 54 -20l468 -461v432q0 22 13.5 35.5t35.5 13.5h71q22 0 35.5 -13.5t13.5 -35.5v-644q0 -23 -13.5 -36t-35.5 -13h-60q-34 0 -54 20zM531 807
q-13 0 -27 8l-154 98q-23 15 -23 37q0 17 11 31q9 12 27 20q16 7 31 7q27 0 58 -21l77 -51l77 51q32 21 58 21q15 0 31 -7q19 -9 27 -20q11 -14 11 -31q0 -22 -23 -37l-154 -98q-14 -8 -27 -8z" />
    <glyph glyph-name="ncaron" unicode="&#x148;" horiz-adv-x="788" 
d="M174 0q-22 0 -35.5 13.5t-13.5 35.5v421q0 22 13.5 35.5t35.5 13.5h9q61 0 75 -56q82 70 194 70q106 0 168.5 -63t62.5 -180v-241q0 -23 -13.5 -36t-35.5 -13h-66q-22 0 -35.5 13.5t-13.5 35.5v235q0 55 -26.5 86t-76.5 31q-72 0 -127 -57v-295q0 -22 -13.5 -35.5
t-35.5 -13.5h-66zM411 584q-13 0 -27 8l-154 98q-23 15 -23 37q0 17 11 31q9 12 27 20q16 7 31 7q26 0 58 -21l77 -51l77 51q32 21 58 21q15 0 31 -7q19 -9 27 -20q11 -14 11 -31q0 -22 -23 -37l-154 -98q-14 -8 -27 -8z" />
    <glyph glyph-name="Omacron" unicode="&#x14c;" horiz-adv-x="1006" 
d="M503 601q-113 0 -187.5 -66.5t-74.5 -163.5t74.5 -163.5t187.5 -66.5t187.5 66.5t74.5 163.5t-74.5 163.5t-187.5 66.5zM503 756q190 0 314 -111.5t124 -273.5t-124 -273.5t-314 -111.5t-314 111.5t-124 273.5t124 273.5t314 111.5zM621 833h-252q-23 0 -36 13.5
t-13 35.5v19q0 22 13.5 35.5t35.5 13.5h252q22 0 35.5 -13.5t13.5 -35.5v-19q0 -22 -13 -35.5t-36 -13.5z" />
    <glyph glyph-name="omacron" unicode="&#x14d;" horiz-adv-x="754" 
d="M377 120q58 0 93 41t35 99t-34.5 98.5t-93.5 40.5q-58 0 -93 -41t-35 -99t34.5 -98.5t93.5 -40.5zM377 -14q-132 0 -217 79t-85 194t85 194.5t217 79.5t217 -79.5t85 -194.5t-85 -194t-217 -79zM502 610h-252q-22 0 -35.5 13t-13.5 36v19q0 22 13.5 35.5t35.5 13.5h252
q22 0 35.5 -13.5t13.5 -35.5v-19q0 -23 -13.5 -36t-35.5 -13z" />
    <glyph glyph-name="Obreve" unicode="&#x14e;" horiz-adv-x="1006" 
d="M503 601q-113 0 -187.5 -66.5t-74.5 -163.5t74.5 -163.5t187.5 -66.5t187.5 66.5t74.5 163.5t-74.5 163.5t-187.5 66.5zM503 756q190 0 314 -111.5t124 -273.5t-124 -273.5t-314 -111.5t-314 111.5t-124 273.5t124 273.5t314 111.5zM503 814q-62 0 -109 28t-66 68
q-9 20 -9 37q0 28 25 48l4 3q12 9 26 9q24 0 38 -23q35 -58 91 -58t91 58q14 23 37 23q15 0 27 -9l4 -3q25 -19 25 -48q0 -17 -9 -37q-19 -40 -66 -68t-109 -28z" />
    <glyph glyph-name="obreve" unicode="&#x14f;" horiz-adv-x="754" 
d="M377 120q58 0 93 41t35 99t-34.5 98.5t-93.5 40.5q-58 0 -93 -41t-35 -99t34.5 -98.5t93.5 -40.5zM377 -14q-132 0 -217 79t-85 194t85 194.5t217 79.5t217 -79.5t85 -194.5t-85 -194t-217 -79zM377 581q-62 0 -109 28t-66 68q-9 19 -9 37q0 28 25 48l4 3q12 9 26 9
q24 0 38 -23q35 -58 91 -58t91 58q14 23 37 23q15 0 27 -9l4 -3q25 -19 25 -48q0 -18 -9 -37q-19 -40 -66 -68t-109 -28z" />
    <glyph glyph-name="Ohungarumlaut" unicode="&#x150;" horiz-adv-x="1006" 
d="M503 601q-113 0 -187.5 -66.5t-74.5 -163.5t74.5 -163.5t187.5 -66.5t187.5 66.5t74.5 163.5t-74.5 163.5t-187.5 66.5zM503 756q190 0 314 -111.5t124 -273.5t-124 -273.5t-314 -111.5t-314 111.5t-124 273.5t124 273.5t314 111.5zM532 928l-111 -106q-24 -22 -48 -22
q-29 0 -50 25q-13 14 -13 30q0 19 17 34l111 106q24 22 48 22q27 0 50 -25q13 -14 13 -30q0 -19 -17 -34zM749 928l-111 -106q-24 -22 -48 -22q-29 0 -50 25q-13 14 -13 30q0 19 17 34l111 106q24 22 48 22q27 0 50 -25q13 -14 13 -30q0 -19 -17 -34z" />
    <glyph glyph-name="ohungarumlaut" unicode="&#x151;" horiz-adv-x="754" 
d="M377 120q58 0 93 41t35 99t-34.5 98.5t-93.5 40.5q-58 0 -93 -41t-35 -99t34.5 -98.5t93.5 -40.5zM377 -14q-132 0 -217 79t-85 194t85 194.5t217 79.5t217 -79.5t85 -194.5t-85 -194t-217 -79zM426 695l-111 -106q-24 -22 -48 -22q-29 0 -50 25q-13 14 -13 30
q0 19 17 34l111 106q24 22 48 22q27 0 50 -25q13 -14 13 -30q0 -19 -17 -34zM643 695l-111 -106q-24 -22 -48 -22q-29 0 -50 25q-13 14 -13 30q0 19 17 34l111 106q24 22 48 22q27 0 50 -25q13 -14 13 -30q0 -19 -17 -34z" />
    <glyph glyph-name="OE" unicode="&#x152;" horiz-adv-x="1477" 
d="M65 371q0 165 103 268t289 103h891q22 0 35.5 -13.5t13.5 -35.5v-52q0 -23 -13.5 -36t-35.5 -13h-518v-142h365q22 0 35.5 -13.5t13.5 -35.5v-52q0 -23 -13 -36t-36 -13h-365v-150h518q22 0 35.5 -13.5t13.5 -35.5v-52q0 -23 -13.5 -36t-35.5 -13h-891q-186 0 -289 103
t-103 268zM237 371q0 -94 56.5 -158.5t164.5 -64.5h203v446h-203q-108 0 -164.5 -64.5t-56.5 -158.5z" />
    <glyph glyph-name="oe" unicode="&#x153;" horiz-adv-x="1209" 
d="M838 -14q-162 0 -244 89q-80 -89 -217 -89q-132 0 -217 79t-85 194t85 194.5t217 79.5q138 0 218 -91q85 91 233 91q140 0 225.5 -78.5t85.5 -176.5q0 -31 -11 -46t-39 -15h-415q15 -49 60.5 -73t103.5 -24q102 0 170 61q16 15 35 15q13 0 24 -9l20 -17q28 -23 28 -55
q0 -27 -20 -47q-30 -30 -100 -56t-157 -26zM378 120q58 0 92.5 41t34.5 99t-34.5 98.5t-93.5 40.5q-58 0 -93 -41t-35 -99t35 -98.5t94 -40.5zM833 412q-55 0 -96.5 -24.5t-58.5 -67.5h294q-13 40 -47.5 66t-91.5 26z" />
    <glyph glyph-name="Racute" unicode="&#x154;" horiz-adv-x="1024" 
d="M174 0q-22 0 -35.5 13.5t-13.5 35.5v644q0 22 13.5 35.5t35.5 13.5h484q124 0 190.5 -66.5t66.5 -171.5q0 -85 -46 -146t-133 -81l192 -208q11 -13 11 -28q0 -18 -11.5 -29.5t-32.5 -11.5h-97q-31 0 -57 30l-217 242h-230v-223q0 -23 -13 -36t-36 -13h-71zM645 594h-351
v-177h351q44 0 69 25t25 63q0 39 -25 64t-69 25zM631 898l-164 -88q-20 -11 -41 -11q-40 0 -61 38l-1 2q-7 13 -7 26q0 27 26 40l164 88q20 11 41 11q40 0 61 -38l1 -2q7 -13 7 -26q0 -27 -26 -40z" />
    <glyph glyph-name="racute" unicode="&#x155;" horiz-adv-x="620" 
d="M413 350q0 49 -34 49q-43 0 -90 -58v-292q0 -23 -13.5 -36t-35.5 -13h-66q-22 0 -35.5 13.5t-13.5 35.5v420q0 23 13.5 36.5t35.5 13.5h9q28 0 48.5 -15t26.5 -41q73 70 163 70q70 0 107 -41t37 -103q0 -89 -78 -89h-25q-23 0 -36 13.5t-13 36.5zM466 675l-164 -88
q-20 -11 -41 -11q-40 0 -61 38l-1 2q-7 13 -7 26q0 27 26 40l164 88q20 11 41 11q40 0 61 -38l1 -2q7 -13 7 -26q0 -27 -26 -40z" />
    <glyph glyph-name="Rcommaaccent" unicode="&#x156;" horiz-adv-x="1024" 
d="M174 0q-22 0 -35.5 13.5t-13.5 35.5v644q0 22 13.5 35.5t35.5 13.5h484q124 0 190.5 -66.5t66.5 -171.5q0 -85 -46 -146t-133 -81l192 -208q11 -13 11 -28q0 -18 -11.5 -29.5t-32.5 -11.5h-97q-31 0 -57 30l-217 242h-230v-223q0 -23 -13 -36t-36 -13h-71zM645 594h-351
v-177h351q44 0 69 25t25 63q0 39 -25 64t-69 25zM392 -117l19 51q12 32 45 32h98q13 0 21 -7t8 -18q0 -18 -23 -37l-58 -48q-50 -41 -83 -41q-37 0 -37 32q0 11 10 36z" />
    <glyph glyph-name="rcommaaccent" unicode="&#x157;" horiz-adv-x="620" 
d="M413 350q0 49 -34 49q-43 0 -90 -58v-292q0 -23 -13.5 -36t-35.5 -13h-66q-22 0 -35.5 13.5t-13.5 35.5v420q0 23 13.5 36.5t35.5 13.5h9q28 0 48.5 -15t26.5 -41q73 70 163 70q70 0 107 -41t37 -103q0 -89 -78 -89h-25q-23 0 -36 13.5t-13 36.5zM92 -117l19 51
q12 32 45 32h98q13 0 21 -7t8 -18q0 -18 -23 -37l-58 -48q-50 -41 -83 -41q-37 0 -37 32q0 11 10 36z" />
    <glyph glyph-name="Rcaron" unicode="&#x158;" horiz-adv-x="1024" 
d="M174 0q-22 0 -35.5 13.5t-13.5 35.5v644q0 22 13.5 35.5t35.5 13.5h484q124 0 190.5 -66.5t66.5 -171.5q0 -85 -46 -146t-133 -81l192 -208q11 -13 11 -28q0 -18 -11.5 -29.5t-32.5 -11.5h-97q-31 0 -57 30l-217 242h-230v-223q0 -23 -13 -36t-36 -13h-71zM645 594h-351
v-177h351q44 0 69 25t25 63q0 39 -25 64t-69 25zM498 798q-13 0 -27 8l-154 98q-23 15 -23 37q0 17 11 31q9 12 27 20q16 7 31 7q27 0 58 -21l77 -51l77 51q32 21 58 21q15 0 31 -7q19 -9 27 -20q11 -14 11 -31q0 -22 -23 -37l-154 -98q-14 -8 -27 -8z" />
    <glyph glyph-name="rcaron" unicode="&#x159;" horiz-adv-x="620" 
d="M413 350q0 49 -34 49q-43 0 -90 -58v-292q0 -23 -13.5 -36t-35.5 -13h-66q-22 0 -35.5 13.5t-13.5 35.5v420q0 23 13.5 36.5t35.5 13.5h9q28 0 48.5 -15t26.5 -41q73 70 163 70q70 0 107 -41t37 -103q0 -89 -78 -89h-25q-23 0 -36 13.5t-13 36.5zM322 584q-13 0 -27 8
l-154 98q-23 15 -23 37q0 17 11 31q9 12 27 20q16 7 31 7q27 0 58 -21l77 -51l77 51q31 21 58 21q15 0 31 -7q19 -9 27 -20q11 -14 11 -31q0 -22 -23 -37l-154 -98q-14 -8 -27 -8z" />
    <glyph glyph-name="Sacute" unicode="&#x15a;" horiz-adv-x="910" 
d="M179 228q135 -93 290 -93q86 0 145 24t59 70q0 39 -49.5 56t-166.5 25q-186 13 -278 60t-92 146q0 107 99.5 173.5t264.5 66.5q111 0 196.5 -28t128.5 -61q31 -23 31 -54q0 -24 -17 -44l-26 -30q-14 -17 -35 -17q-17 0 -36 12q-118 73 -242 73q-76 0 -134 -22.5
t-58 -59.5q0 -34 49.5 -47.5t150.5 -20.5q75 -5 129.5 -13t105.5 -24t82.5 -39t50 -59t18.5 -83q0 -118 -104 -185.5t-276 -67.5q-114 0 -212 30t-161 81q-28 23 -28 49t18 47l26 30q14 17 34 17t37 -12zM592 898l-164 -88q-20 -11 -41 -11q-40 0 -61 38l-1 2q-7 13 -7 26
q0 27 26 40l164 88q20 11 41 11q40 0 61 -38l1 -2q7 -13 7 -26q0 -27 -26 -40z" />
    <glyph glyph-name="sacute" unicode="&#x15b;" horiz-adv-x="705" 
d="M548 487q33 -22 33 -54q0 -34 -23 -57l-6 -6q-17 -17 -34 -17q-12 0 -36 14q-73 42 -149 42q-40 0 -61 -10.5t-21 -27.5q0 -18 25 -26.5t81 -16.5q49 -7 77 -12t63.5 -14t54.5 -19.5t37.5 -26t26 -37.5t7.5 -51q0 -85 -70 -133.5t-198 -48.5q-79 0 -146 18t-101 47
q-27 24 -27 56t23 55l6 6q17 17 36 17q15 0 33 -13q82 -61 192 -61q93 0 93 45q0 20 -25 28.5t-105 20.5q-29 4 -46 7q-94 15 -144.5 49.5t-50.5 104.5q0 83 70 125t181 42q71 0 124.5 -14.5t79.5 -31.5zM479 675l-164 -88q-20 -11 -41 -11q-40 0 -61 38l-1 2q-7 13 -7 26
q0 27 26 40l164 88q20 11 41 11q40 0 61 -38l1 -2q7 -13 7 -26q0 -27 -26 -40z" />
    <glyph glyph-name="Scircumflex" unicode="&#x15c;" horiz-adv-x="910" 
d="M179 228q135 -93 290 -93q86 0 145 24t59 70q0 39 -49.5 56t-166.5 25q-186 13 -278 60t-92 146q0 107 99.5 173.5t264.5 66.5q111 0 196.5 -28t128.5 -61q31 -23 31 -54q0 -24 -17 -44l-26 -30q-14 -17 -35 -17q-17 0 -36 12q-118 73 -242 73q-76 0 -134 -22.5
t-58 -59.5q0 -34 49.5 -47.5t150.5 -20.5q75 -5 129.5 -13t105.5 -24t82.5 -39t50 -59t18.5 -83q0 -118 -104 -185.5t-276 -67.5q-114 0 -212 30t-161 81q-28 23 -28 49t18 47l26 30q14 17 34 17t37 -12zM449 1019q13 0 27 -8l154 -98q23 -16 23 -37q0 -17 -11 -31
q-9 -12 -27 -20q-17 -7 -30 -7q-28 0 -59 21l-77 51l-77 -51q-31 -21 -59 -21q-13 0 -30 7q-18 8 -27 20q-11 14 -11 31q0 21 23 37l154 98q14 8 27 8z" />
    <glyph glyph-name="scircumflex" unicode="&#x15d;" horiz-adv-x="705" 
d="M548 487q33 -22 33 -54q0 -34 -23 -57l-6 -6q-17 -17 -34 -17q-12 0 -36 14q-73 42 -149 42q-40 0 -61 -10.5t-21 -27.5q0 -18 25 -26.5t81 -16.5q49 -7 77 -12t63.5 -14t54.5 -19.5t37.5 -26t26 -37.5t7.5 -51q0 -85 -70 -133.5t-198 -48.5q-79 0 -146 18t-101 47
q-27 24 -27 56t23 55l6 6q17 17 36 17q15 0 33 -13q82 -61 192 -61q93 0 93 45q0 20 -25 28.5t-105 20.5q-29 4 -46 7q-94 15 -144.5 49.5t-50.5 104.5q0 83 70 125t181 42q71 0 124.5 -14.5t79.5 -31.5zM336 776q13 0 27 -8l154 -98q23 -16 23 -37q0 -17 -11 -31
q-9 -12 -27 -20q-18 -7 -30 -7q-28 0 -59 21l-77 51l-77 -51q-31 -21 -59 -21q-12 0 -30 7q-18 8 -27 20q-11 14 -11 31q0 21 23 37l154 98q14 8 27 8z" />
    <glyph glyph-name="Scedilla" unicode="&#x15e;" horiz-adv-x="910" 
d="M370 -64q8 0 22.5 -3.5t21.5 -3.5q17 0 29 11t12 28q0 9 -3 18q-111 2 -205.5 31.5t-154.5 79.5q-28 23 -28 49t18 47l26 30q14 17 34 17t37 -12q135 -93 290 -93q86 0 145 24t59 70q0 39 -49.5 56t-166.5 25q-186 13 -278 60t-92 146q0 107 99.5 173.5t264.5 66.5
q111 0 196.5 -28t128.5 -61q31 -23 31 -54q0 -24 -17 -44l-26 -30q-14 -17 -35 -17q-17 0 -36 12q-118 73 -242 73q-76 0 -134 -22.5t-58 -59.5q0 -34 49.5 -47.5t150.5 -20.5q75 -5 129.5 -13t105.5 -24t82.5 -39t50 -59t18.5 -83q0 -102 -78.5 -166.5t-212.5 -80.5
q8 -26 8 -50q0 -53 -35.5 -90t-102.5 -37q-93 0 -97 70q0 19 9 32l3 4q13 15 31 15z" />
    <glyph glyph-name="scedilla" unicode="&#x15f;" horiz-adv-x="705" 
d="M255 -64q8 0 22.5 -3.5t21.5 -3.5q17 0 29 11t12 28q0 9 -3 18q-74 2 -135.5 19.5t-93.5 45.5q-27 24 -27 56t23 55l6 6q17 17 36 17q15 0 33 -13q82 -61 192 -61q93 0 93 45q0 20 -25 28.5t-105 20.5q-29 4 -46 7q-94 15 -144.5 49.5t-50.5 104.5q0 83 70 125t181 42
q71 0 124.5 -14.5t79.5 -31.5q33 -22 33 -54q0 -34 -23 -57l-6 -6q-17 -17 -34 -17q-12 0 -36 14q-73 42 -149 42q-40 0 -61 -10.5t-21 -27.5q0 -18 25 -26.5t81 -16.5q49 -7 77 -12t63.5 -14t54.5 -19.5t37.5 -26t26 -37.5t7.5 -51q0 -70 -47.5 -115.5t-137.5 -59.5
q9 -25 9 -51q0 -53 -35.5 -90t-102.5 -37q-93 0 -97 70q0 19 9 32l3 4q13 15 31 15z" />
    <glyph glyph-name="Scaron" unicode="&#x160;" horiz-adv-x="910" 
d="M179 228q135 -93 290 -93q86 0 145 24t59 70q0 39 -49.5 56t-166.5 25q-186 13 -278 60t-92 146q0 107 99.5 173.5t264.5 66.5q111 0 196.5 -28t128.5 -61q31 -23 31 -54q0 -24 -17 -44l-26 -30q-14 -17 -35 -17q-17 0 -36 12q-118 73 -242 73q-76 0 -134 -22.5
t-58 -59.5q0 -34 49.5 -47.5t150.5 -20.5q75 -5 129.5 -13t105.5 -24t82.5 -39t50 -59t18.5 -83q0 -118 -104 -185.5t-276 -67.5q-114 0 -212 30t-161 81q-28 23 -28 49t18 47l26 30q14 17 34 17t37 -12zM456 807q-13 0 -27 8l-154 98q-23 15 -23 37q0 17 11 31q9 12 27 20
q16 7 31 7q27 0 58 -21l77 -51l77 51q32 21 58 21q15 0 31 -7q19 -9 27 -20q11 -14 11 -31q0 -22 -23 -37l-154 -98q-14 -8 -27 -8z" />
    <glyph glyph-name="scaron" unicode="&#x161;" horiz-adv-x="705" 
d="M548 487q33 -22 33 -54q0 -34 -23 -57l-6 -6q-17 -17 -34 -17q-12 0 -36 14q-73 42 -149 42q-40 0 -61 -10.5t-21 -27.5q0 -18 25 -26.5t81 -16.5q49 -7 77 -12t63.5 -14t54.5 -19.5t37.5 -26t26 -37.5t7.5 -51q0 -85 -70 -133.5t-198 -48.5q-79 0 -146 18t-101 47
q-27 24 -27 56t23 55l6 6q17 17 36 17q15 0 33 -13q82 -61 192 -61q93 0 93 45q0 20 -25 28.5t-105 20.5q-29 4 -46 7q-94 15 -144.5 49.5t-50.5 104.5q0 83 70 125t181 42q71 0 124.5 -14.5t79.5 -31.5zM357 584q-13 0 -27 8l-154 98q-23 15 -23 37q0 17 11 31q9 12 27 20
q16 7 31 7q26 0 58 -21l77 -51l77 51q32 21 58 21q15 0 31 -7q19 -9 27 -20q11 -14 11 -31q0 -22 -23 -37l-154 -98q-14 -8 -27 -8z" />
    <glyph glyph-name="Tcommaaccent" unicode="&#x162;" horiz-adv-x="899" 
d="M825 592h-291v-543q0 -23 -13 -36t-36 -13h-71q-22 0 -35.5 13.5t-13.5 35.5v543h-291q-22 0 -35.5 13t-13.5 36v52q0 22 13.5 35.5t35.5 13.5h751q22 0 35.5 -13.5t13.5 -35.5v-52q0 -23 -13 -36t-36 -13zM324 -117l19 51q12 32 45 32h98q13 0 21 -7t8 -18
q0 -18 -23 -37l-58 -48q-50 -41 -83 -41q-37 0 -37 32q0 11 10 36z" />
    <glyph glyph-name="tcommaaccent" unicode="&#x163;" horiz-adv-x="611" 
d="M114 393q-22 0 -35.5 13.5t-13.5 36.5v26q0 23 13.5 36.5t35.5 13.5h67v152q0 23 13.5 36t35.5 13h66q22 0 35.5 -13.5t13.5 -35.5v-152h130q23 0 36 -13.5t13 -36.5v-26q0 -23 -13 -36.5t-36 -13.5h-130v-211q0 -27 12 -41t30 -14q21 0 41 15q20 16 35 16q17 0 34 -17
l6 -6q23 -23 23 -55t-27 -56q-43 -38 -132 -38q-186 0 -186 194v213h-67zM226 -117l19 51q12 32 45 32h98q13 0 21 -7t8 -18q0 -18 -23 -37l-58 -48q-50 -41 -83 -41q-37 0 -37 32q0 11 10 36z" />
    <glyph glyph-name="Tcaron" unicode="&#x164;" horiz-adv-x="899" 
d="M825 592h-291v-543q0 -23 -13 -36t-36 -13h-71q-22 0 -35.5 13.5t-13.5 35.5v543h-291q-22 0 -35.5 13t-13.5 36v52q0 22 13.5 35.5t35.5 13.5h751q22 0 35.5 -13.5t13.5 -35.5v-52q0 -23 -13 -36t-36 -13zM448 794q-13 0 -27 8l-154 98q-23 15 -23 37q0 17 11 31
q9 12 27 20q16 7 31 7q27 0 58 -21l77 -51l77 51q31 21 58 21q15 0 31 -7q19 -9 27 -20q11 -14 11 -31q0 -22 -23 -37l-154 -98q-14 -8 -27 -8z" />
    <glyph glyph-name="tcaron" unicode="&#x165;" horiz-adv-x="767" 
d="M114 393q-22 0 -35.5 13.5t-13.5 36.5v26q0 23 13.5 36.5t35.5 13.5h67v152q0 23 13.5 36t35.5 13h66q22 0 35.5 -13.5t13.5 -35.5v-152h130q23 0 36 -13.5t13 -36.5v-26q0 -23 -13 -36.5t-36 -13.5h-130v-211q0 -27 12 -41t30 -14q21 0 41 15q20 16 35 16q17 0 34 -17
l6 -6q23 -23 23 -55t-27 -56q-43 -38 -132 -38q-186 0 -186 194v213h-67zM645 497q-37 0 -58.5 14t-21.5 42v3q0 22 13.5 35.5t35.5 13.5q26 0 37 11.5t11 35.5v28h-38q-22 0 -35.5 13t-13.5 36v21q0 22 13.5 35.5t35.5 13.5h94q22 0 35.5 -13.5t13.5 -35.5v-102
q0 -151 -122 -151z" />
    <glyph glyph-name="Tbar" unicode="&#x166;" horiz-adv-x="899" 
d="M825 592h-291v-166h180q22 0 35.5 -13.5t13.5 -35.5v-47q0 -22 -13.5 -35.5t-35.5 -13.5h-180v-232q0 -23 -13 -36t-36 -13h-71q-22 0 -35.5 13.5t-13.5 35.5v232h-180q-23 0 -36 13.5t-13 35.5v47q0 22 13.5 35.5t35.5 13.5h180v166h-291q-22 0 -35.5 13t-13.5 36v52
q0 22 13.5 35.5t35.5 13.5h751q22 0 35.5 -13.5t13.5 -35.5v-52q0 -23 -13 -36t-36 -13z" />
    <glyph glyph-name="tbar" unicode="&#x167;" horiz-adv-x="611" 
d="M473 402h-128v-58h128q22 0 35.5 -13.5t13.5 -35.5v-19q0 -22 -13 -35.5t-36 -13.5h-128v-45q0 -55 43 -55q19 0 40 15q20 16 36 16t33 -17l6 -6q23 -23 23 -55t-27 -56q-46 -38 -123 -38q-103 0 -149 49.5t-46 144.5v47h-67q-22 0 -35.5 13.5t-13.5 35.5v19
q0 22 13.5 35.5t35.5 13.5h67v58h-67q-22 0 -35.5 13t-13.5 36v19q0 22 13.5 35.5t35.5 13.5h67v152q0 23 13.5 36t35.5 13h66q22 0 35.5 -13.5t13.5 -35.5v-152h128q22 0 35.5 -13.5t13.5 -35.5v-19q0 -23 -13 -36t-36 -13z" />
    <glyph glyph-name="Utilde" unicode="&#x168;" horiz-adv-x="996" 
d="M498 -14q-85 0 -150.5 17t-120 55.5t-83.5 110t-29 172.5v352q0 22 13.5 35.5t35.5 13.5h71q22 0 35.5 -13.5t13.5 -35.5v-352q0 -202 214 -202t214 202v352q0 22 13.5 35.5t35.5 13.5h71q22 0 35.5 -13.5t13.5 -35.5v-352q0 -101 -29 -172.5t-83.5 -110t-120 -55.5
t-150.5 -17zM586 819q-36 0 -85.5 27.5t-60.5 27.5q-20 0 -31 -31q-9 -26 -37 -26q-9 0 -20 4l-3 1q-39 14 -39 51q0 12 5 32q10 37 39.5 62.5t68.5 25.5q35 0 84 -27.5t61 -27.5q20 0 31 31q9 26 35 26q10 0 22 -4l3 -1q39 -13 39 -50q0 -14 -5 -32q-11 -38 -39 -63.5
t-68 -25.5z" />
    <glyph glyph-name="utilde" unicode="&#x169;" horiz-adv-x="788" 
d="M614 519q22 0 35.5 -13.5t13.5 -35.5v-421q0 -22 -13.5 -35.5t-35.5 -13.5h-9q-29 0 -49.5 15.5t-26.5 40.5q-79 -70 -193 -70q-106 0 -168.5 63t-62.5 180v241q0 22 13.5 35.5t35.5 13.5h66q22 0 35.5 -13.5t13.5 -35.5v-235q0 -55 26.5 -86t76.5 -31q72 0 127 57v295
q0 22 13.5 35.5t35.5 13.5h66zM466 596q-36 0 -85.5 27.5t-60.5 27.5q-20 0 -31 -31q-9 -26 -37 -26q-9 0 -20 4l-3 1q-39 14 -39 51q0 12 5 32q10 37 39.5 62.5t68.5 25.5q35 0 84 -27.5t61 -27.5q20 0 31 31q9 26 35 26q10 0 22 -4l3 -1q39 -13 39 -50q0 -14 -5 -32
q-11 -38 -39 -63.5t-68 -25.5z" />
    <glyph glyph-name="Umacron" unicode="&#x16a;" horiz-adv-x="996" 
d="M498 -14q-85 0 -150.5 17t-120 55.5t-83.5 110t-29 172.5v352q0 22 13.5 35.5t35.5 13.5h71q22 0 35.5 -13.5t13.5 -35.5v-352q0 -202 214 -202t214 202v352q0 22 13.5 35.5t35.5 13.5h71q22 0 35.5 -13.5t13.5 -35.5v-352q0 -101 -29 -172.5t-83.5 -110t-120 -55.5
t-150.5 -17zM610 833h-252q-22 0 -35.5 13.5t-13.5 35.5v19q0 22 13.5 35.5t35.5 13.5h252q22 0 35.5 -13.5t13.5 -35.5v-19q0 -22 -13.5 -35.5t-35.5 -13.5z" />
    <glyph glyph-name="umacron" unicode="&#x16b;" horiz-adv-x="788" 
d="M614 519q22 0 35.5 -13.5t13.5 -35.5v-421q0 -22 -13.5 -35.5t-35.5 -13.5h-9q-29 0 -49.5 15.5t-26.5 40.5q-79 -70 -193 -70q-106 0 -168.5 63t-62.5 180v241q0 22 13.5 35.5t35.5 13.5h66q22 0 35.5 -13.5t13.5 -35.5v-235q0 -55 26.5 -86t76.5 -31q72 0 127 57v295
q0 22 13.5 35.5t35.5 13.5h66zM504 610h-252q-22 0 -35.5 13t-13.5 36v19q0 22 13.5 35.5t35.5 13.5h252q22 0 35.5 -13.5t13.5 -35.5v-19q0 -23 -13.5 -36t-35.5 -13z" />
    <glyph glyph-name="Ubreve" unicode="&#x16c;" horiz-adv-x="996" 
d="M498 -14q-85 0 -150.5 17t-120 55.5t-83.5 110t-29 172.5v352q0 22 13.5 35.5t35.5 13.5h71q22 0 35.5 -13.5t13.5 -35.5v-352q0 -202 214 -202t214 202v352q0 22 13.5 35.5t35.5 13.5h71q22 0 35.5 -13.5t13.5 -35.5v-352q0 -101 -29 -172.5t-83.5 -110t-120 -55.5
t-150.5 -17zM492 804q-62 0 -109 28t-66 68q-9 20 -9 37q0 28 25 48l4 3q12 9 26 9q24 0 38 -23q35 -58 91 -58t91 58q14 23 37 23q15 0 27 -9l4 -3q25 -19 25 -48q0 -17 -9 -37q-19 -40 -66 -68t-109 -28z" />
    <glyph glyph-name="ubreve" unicode="&#x16d;" horiz-adv-x="788" 
d="M614 519q22 0 35.5 -13.5t13.5 -35.5v-421q0 -22 -13.5 -35.5t-35.5 -13.5h-9q-29 0 -49.5 15.5t-26.5 40.5q-79 -70 -193 -70q-106 0 -168.5 63t-62.5 180v241q0 22 13.5 35.5t35.5 13.5h66q22 0 35.5 -13.5t13.5 -35.5v-235q0 -55 26.5 -86t76.5 -31q72 0 127 57v295
q0 22 13.5 35.5t35.5 13.5h66zM386 581q-62 0 -109 28t-66 68q-9 19 -9 37q0 28 25 48l4 3q12 9 26 9q24 0 38 -23q35 -58 91 -58t91 58q14 23 37 23q15 0 27 -9l4 -3q25 -19 25 -48q0 -18 -9 -37q-19 -40 -66 -68t-109 -28z" />
    <glyph glyph-name="Uring" unicode="&#x16e;" horiz-adv-x="996" 
d="M498 -14q-85 0 -150.5 17t-120 55.5t-83.5 110t-29 172.5v352q0 22 13.5 35.5t35.5 13.5h71q22 0 35.5 -13.5t13.5 -35.5v-352q0 -202 214 -202t214 202v352q0 22 13.5 35.5t35.5 13.5h71q22 0 35.5 -13.5t13.5 -35.5v-352q0 -101 -29 -172.5t-83.5 -110t-120 -55.5
t-150.5 -17zM351 913q0 52 40.5 91.5t108.5 39.5t108 -39.5t40 -91.5q0 -53 -40 -91.5t-108 -38.5t-108.5 38.5t-40.5 91.5zM439 913q0 -22 16 -39t45 -17t45 17t16 39t-16 39t-45 17t-45 -17t-16 -39z" />
    <glyph glyph-name="uring" unicode="&#x16f;" horiz-adv-x="788" 
d="M614 519q22 0 35.5 -13.5t13.5 -35.5v-421q0 -22 -13.5 -35.5t-35.5 -13.5h-9q-29 0 -49.5 15.5t-26.5 40.5q-79 -70 -193 -70q-106 0 -168.5 63t-62.5 180v241q0 22 13.5 35.5t35.5 13.5h66q22 0 35.5 -13.5t13.5 -35.5v-235q0 -55 26.5 -86t76.5 -31q72 0 127 57v295
q0 22 13.5 35.5t35.5 13.5h66zM240 680q0 52 40.5 91.5t108.5 39.5t108 -39.5t40 -91.5q0 -53 -40 -91.5t-108 -38.5t-108.5 38.5t-40.5 91.5zM328 680q0 -22 16 -39t45 -17t45 17t16 39t-16 39t-45 17t-45 -17t-16 -39z" />
    <glyph glyph-name="Uhungarumlaut" unicode="&#x170;" horiz-adv-x="996" 
d="M498 -14q-85 0 -150.5 17t-120 55.5t-83.5 110t-29 172.5v352q0 22 13.5 35.5t35.5 13.5h71q22 0 35.5 -13.5t13.5 -35.5v-352q0 -202 214 -202t214 202v352q0 22 13.5 35.5t35.5 13.5h71q22 0 35.5 -13.5t13.5 -35.5v-352q0 -101 -29 -172.5t-83.5 -110t-120 -55.5
t-150.5 -17zM541 908l-111 -106q-24 -22 -48 -22q-29 0 -50 25q-13 14 -13 30q0 19 17 34l111 106q24 22 48 22q27 0 50 -25q13 -14 13 -30q0 -19 -17 -34zM758 908l-111 -106q-24 -22 -48 -22q-29 0 -50 25q-13 14 -13 30q0 19 17 34l111 106q24 22 48 22q27 0 50 -25
q13 -14 13 -30q0 -19 -17 -34z" />
    <glyph glyph-name="uhungarumlaut" unicode="&#x171;" horiz-adv-x="788" 
d="M614 519q22 0 35.5 -13.5t13.5 -35.5v-421q0 -22 -13.5 -35.5t-35.5 -13.5h-9q-29 0 -49.5 15.5t-26.5 40.5q-79 -70 -193 -70q-106 0 -168.5 63t-62.5 180v241q0 22 13.5 35.5t35.5 13.5h66q22 0 35.5 -13.5t13.5 -35.5v-235q0 -55 26.5 -86t76.5 -31q72 0 127 57v295
q0 22 13.5 35.5t35.5 13.5h66zM435 695l-111 -106q-24 -22 -48 -22q-29 0 -50 25q-13 14 -13 30q0 19 17 34l111 106q24 22 48 22q27 0 50 -25q13 -14 13 -30q0 -19 -17 -34zM652 695l-111 -106q-24 -22 -48 -22q-29 0 -50 25q-13 14 -13 30q0 19 17 34l111 106q24 22 48 22
q27 0 50 -25q13 -14 13 -30q0 -19 -17 -34z" />
    <glyph glyph-name="Uogonek" unicode="&#x172;" horiz-adv-x="996" 
d="M607 -64q18 0 31 -15l3 -4q9 -13 9 -32q-4 -70 -97 -70q-67 0 -102.5 37t-35.5 90q0 27 7 48q-307 31 -307 351v352q0 22 13.5 35.5t35.5 13.5h71q22 0 35.5 -13.5t13.5 -35.5v-352q0 -202 214 -202t214 202v352q0 22 13.5 35.5t35.5 13.5h71q22 0 35.5 -13.5t13.5 -35.5
v-352q0 -97 -27 -166.5t-77 -109t-111.5 -58t-140.5 -20.5q-3 -11 -3 -19q0 -17 12 -28t29 -11q7 0 21.5 3.5t22.5 3.5z" />
    <glyph glyph-name="uogonek" unicode="&#x173;" horiz-adv-x="788" 
d="M663 470v-421q0 -43 -39 -49q-15 -2 -25.5 -12t-10.5 -24q0 -16 11.5 -25.5t28.5 -9.5q8 0 22.5 3.5t21.5 3.5q11 0 21 -5q11 -5 17 -18q6 -12 6 -28q0 -33 -24.5 -51.5t-72.5 -18.5q-64 0 -101 32t-37 78q0 64 61 104q-11 13 -13 27q-80 -70 -193 -70q-106 0 -168.5 63
t-62.5 180v241q0 22 13.5 35.5t35.5 13.5h66q22 0 35.5 -13.5t13.5 -35.5v-235q0 -55 26.5 -86t76.5 -31q72 0 127 57v295q0 22 13.5 35.5t35.5 13.5h66q22 0 35.5 -13.5t13.5 -35.5z" />
    <glyph glyph-name="Wcircumflex" unicode="&#x174;" horiz-adv-x="1296" 
d="M443 0h-81q-41 0 -53 38l-258 637q-6 13 -6 25q0 18 11.5 30t32.5 12h78q41 0 55 -36l172 -479l166 477q13 38 53 38h70q40 0 53 -38l166 -477l172 479q14 36 55 36h78q21 0 32.5 -12t11.5 -30q0 -12 -6 -25l-258 -637q-12 -38 -53 -38h-81q-40 0 -53 38l-152 433
l-152 -433q-13 -38 -53 -38zM648 1019q13 0 27 -8l154 -98q23 -16 23 -37q0 -17 -11 -31q-9 -12 -27 -20q-18 -7 -30 -7q-28 0 -59 21l-77 51l-77 -51q-31 -21 -59 -21q-12 0 -30 7q-18 8 -27 20q-11 14 -11 31q0 21 23 37l154 98q14 8 27 8z" />
    <glyph glyph-name="wcircumflex" unicode="&#x175;" horiz-adv-x="1056" 
d="M554 519q39 0 53 -35l122 -293l99 292q12 36 55 36h69q21 0 32.5 -12t11.5 -30q0 -11 -6 -25l-162 -416q-15 -36 -51 -36h-81q-36 0 -51 36l-117 290l-117 -290q-15 -36 -51 -36h-81q-36 0 -51 36l-162 416q-6 14 -6 25q0 18 11.5 30t32.5 12h69q43 0 55 -36l99 -292
l122 293q14 35 53 35h52zM529 796q13 0 27 -8l154 -98q23 -16 23 -37q0 -17 -11 -31q-9 -12 -27 -20q-17 -7 -30 -7q-28 0 -59 21l-77 51l-77 -51q-31 -21 -59 -21q-13 0 -30 7q-18 8 -27 20q-11 14 -11 31q0 21 23 37l154 98q14 8 27 8z" />
    <glyph glyph-name="Ycircumflex" unicode="&#x176;" horiz-adv-x="961" 
d="M448 0q-22 0 -35.5 13.5t-13.5 35.5v239l-366 385q-13 15 -13 30q0 39 39 39h98q33 0 62 -30l261 -286l262 286q28 30 62 30h98q39 0 39 -39q0 -15 -13 -30l-365 -385v-239q0 -23 -13.5 -36t-35.5 -13h-66zM480 1019q13 0 27 -8l154 -98q23 -16 23 -37q0 -17 -11 -31
q-9 -12 -27 -20q-17 -7 -30 -7q-28 0 -59 21l-77 51l-77 -51q-31 -21 -59 -21q-12 0 -30 7q-18 8 -27 20q-11 14 -11 31q0 21 23 37l154 98q14 8 27 8z" />
    <glyph glyph-name="ycircumflex" unicode="&#x177;" horiz-adv-x="760" 
d="M200 -27q26 -17 45 -17q33 0 50 35l9 18l-233 443q-6 14 -6 25q0 18 11.5 30t32.5 12h69q40 0 55 -30l151 -315l153 314q14 31 55 31h69q21 0 32.5 -12t11.5 -30q0 -11 -6 -25l-257 -487q-45 -84 -84 -117t-108 -33q-37 0 -70.5 11.5t-50.5 27.5q-27 26 -27 56
q0 32 23 55l6 6q17 17 33 17q12 0 36 -15zM386 796q13 0 27 -8l154 -98q23 -16 23 -37q0 -17 -11 -31q-9 -12 -27 -20q-18 -7 -30 -7q-28 0 -59 21l-77 51l-77 -51q-31 -21 -59 -21q-12 0 -30 7q-18 8 -27 20q-11 14 -11 31q0 21 23 37l154 98q14 8 27 8z" />
    <glyph glyph-name="Ydieresis" unicode="&#x178;" horiz-adv-x="961" 
d="M448 0q-22 0 -35.5 13.5t-13.5 35.5v239l-366 385q-13 15 -13 30q0 39 39 39h98q33 0 62 -30l261 -286l262 286q28 30 62 30h98q39 0 39 -39q0 -15 -13 -30l-365 -385v-239q0 -23 -13.5 -36t-35.5 -13h-66zM396 837h-87q-23 0 -36 13.5t-13 35.5v25q0 22 13.5 35.5
t35.5 13.5h87q22 0 35.5 -13.5t13.5 -35.5v-25q0 -22 -13.5 -35.5t-35.5 -13.5zM650 837h-87q-23 0 -36 13.5t-13 35.5v25q0 22 13.5 35.5t35.5 13.5h87q22 0 35.5 -13.5t13.5 -35.5v-25q0 -22 -13.5 -35.5t-35.5 -13.5z" />
    <glyph glyph-name="Zacute" unicode="&#x179;" horiz-adv-x="909" 
d="M790 0h-671q-23 0 -36 13t-13 36v52q0 22 21 41l476 450h-438q-23 0 -36 13t-13 36v52q0 22 13.5 35.5t35.5 13.5h651q22 0 35.5 -13.5t13.5 -35.5v-52q0 -23 -22 -43l-470 -448h453q22 0 35.5 -13.5t13.5 -35.5v-52q0 -23 -13.5 -36t-35.5 -13zM596 898l-164 -88
q-20 -11 -41 -11q-40 0 -61 38l-1 2q-7 13 -7 26q0 27 26 40l164 88q20 11 41 11q40 0 61 -38l1 -2q7 -13 7 -26q0 -27 -26 -40z" />
    <glyph glyph-name="zacute" unicode="&#x17a;" horiz-adv-x="734" 
d="M144 0q-22 0 -35.5 13.5t-13.5 35.5v23q0 30 20 50l274 265h-233q-22 0 -35.5 13.5t-13.5 35.5v33q0 23 13.5 36.5t35.5 13.5h429q22 0 35.5 -13.5t13.5 -36.5v-27q0 -25 -24 -49l-265 -260h245q22 0 35.5 -13.5t13.5 -35.5v-35q0 -22 -13.5 -35.5t-35.5 -13.5h-446z
M514 675l-164 -88q-20 -11 -41 -11q-40 0 -61 38l-1 2q-7 13 -7 26q0 27 26 40l164 88q20 11 41 11q40 0 61 -38l1 -2q7 -13 7 -26q0 -27 -26 -40z" />
    <glyph glyph-name="Zdotaccent" unicode="&#x17b;" horiz-adv-x="909" 
d="M790 0h-671q-23 0 -36 13t-13 36v52q0 22 21 41l476 450h-438q-23 0 -36 13t-13 36v52q0 22 13.5 35.5t35.5 13.5h651q22 0 35.5 -13.5t13.5 -35.5v-52q0 -23 -22 -43l-470 -448h453q22 0 35.5 -13.5t13.5 -35.5v-52q0 -23 -13.5 -36t-35.5 -13zM493 820h-87
q-22 0 -35.5 13t-13.5 36v25q0 22 13.5 35.5t35.5 13.5h87q22 0 35.5 -13.5t13.5 -35.5v-25q0 -23 -13 -36t-36 -13z" />
    <glyph glyph-name="zdotaccent" unicode="&#x17c;" horiz-adv-x="734" 
d="M144 0q-22 0 -35.5 13.5t-13.5 35.5v23q0 30 20 50l274 265h-233q-22 0 -35.5 13.5t-13.5 35.5v33q0 23 13.5 36.5t35.5 13.5h429q22 0 35.5 -13.5t13.5 -36.5v-27q0 -25 -24 -49l-265 -260h245q22 0 35.5 -13.5t13.5 -35.5v-35q0 -22 -13.5 -35.5t-35.5 -13.5h-446z
M411 597h-87q-22 0 -35.5 13.5t-13.5 35.5v25q0 22 13.5 35.5t35.5 13.5h87q22 0 35.5 -13.5t13.5 -35.5v-25q0 -22 -13 -35.5t-36 -13.5z" />
    <glyph glyph-name="Zcaron" unicode="&#x17d;" horiz-adv-x="909" 
d="M790 0h-671q-23 0 -36 13t-13 36v52q0 22 21 41l476 450h-438q-23 0 -36 13t-13 36v52q0 22 13.5 35.5t35.5 13.5h651q22 0 35.5 -13.5t13.5 -35.5v-52q0 -23 -22 -43l-470 -448h453q22 0 35.5 -13.5t13.5 -35.5v-52q0 -23 -13.5 -36t-35.5 -13zM452 807q-13 0 -27 8
l-154 98q-23 15 -23 37q0 17 11 31q9 12 27 20q16 7 31 7q27 0 58 -21l77 -51l77 51q31 21 58 21q15 0 31 -7q19 -9 27 -20q11 -14 11 -31q0 -22 -23 -37l-154 -98q-14 -8 -27 -8z" />
    <glyph glyph-name="zcaron" unicode="&#x17e;" horiz-adv-x="734" 
d="M144 0q-22 0 -35.5 13.5t-13.5 35.5v23q0 30 20 50l274 265h-233q-22 0 -35.5 13.5t-13.5 35.5v33q0 23 13.5 36.5t35.5 13.5h429q22 0 35.5 -13.5t13.5 -36.5v-27q0 -25 -24 -49l-265 -260h245q22 0 35.5 -13.5t13.5 -35.5v-35q0 -22 -13.5 -35.5t-35.5 -13.5h-446z
M370 584q-13 0 -27 8l-154 98q-23 15 -23 37q0 17 11 31q9 12 27 20q16 7 31 7q27 0 58 -21l77 -51l77 51q31 21 58 21q15 0 31 -7q19 -9 27 -20q11 -14 11 -31q0 -22 -23 -37l-154 -98q-14 -8 -27 -8z" />
    <glyph glyph-name="florin" unicode="&#x192;" horiz-adv-x="508" 
d="M433 393h-129v-384q0 -86 -50 -140t-142 -54q-82 0 -126 38q-27 24 -27 56t23 55l6 6q17 17 34 17q15 0 35 -16q20 -15 41 -15q18 0 30 14t12 41v382h-76q-22 0 -35.5 13.5t-13.5 35.5v27q0 23 13.5 36.5t35.5 13.5h76v100q0 86 50 140t142 54q82 0 126 -38
q27 -24 27 -56t-23 -55l-6 -6q-17 -17 -34 -17q-15 0 -35 16q-20 15 -41 15q-18 0 -30 -14t-12 -41v-98h129q23 0 36 -13.5t13 -36.5v-27q0 -22 -13 -35.5t-36 -13.5z" />
    <glyph glyph-name="Scommaaccent" unicode="&#x218;" horiz-adv-x="910" 
d="M179 228q135 -93 290 -93q86 0 145 24t59 70q0 39 -49.5 56t-166.5 25q-186 13 -278 60t-92 146q0 107 99.5 173.5t264.5 66.5q111 0 196.5 -28t128.5 -61q31 -23 31 -54q0 -24 -17 -44l-26 -30q-14 -17 -35 -17q-17 0 -36 12q-118 73 -242 73q-76 0 -134 -22.5
t-58 -59.5q0 -34 49.5 -47.5t150.5 -20.5q75 -5 129.5 -13t105.5 -24t82.5 -39t50 -59t18.5 -83q0 -118 -104 -185.5t-276 -67.5q-114 0 -212 30t-161 81q-28 23 -28 49t18 47l26 30q14 17 34 17t37 -12zM363 -127l19 51q12 32 45 32h98q13 0 21 -7t8 -18q0 -18 -23 -37
l-58 -48q-50 -41 -83 -41q-37 0 -37 32q0 11 10 36z" />
    <glyph glyph-name="scommaaccent" unicode="&#x219;" horiz-adv-x="705" 
d="M548 487q33 -22 33 -54q0 -34 -23 -57l-6 -6q-17 -17 -34 -17q-12 0 -36 14q-73 42 -149 42q-40 0 -61 -10.5t-21 -27.5q0 -18 25 -26.5t81 -16.5q49 -7 77 -12t63.5 -14t54.5 -19.5t37.5 -26t26 -37.5t7.5 -51q0 -85 -70 -133.5t-198 -48.5q-79 0 -146 18t-101 47
q-27 24 -27 56t23 55l6 6q17 17 36 17q15 0 33 -13q82 -61 192 -61q93 0 93 45q0 20 -25 28.5t-105 20.5q-29 4 -46 7q-94 15 -144.5 49.5t-50.5 104.5q0 83 70 125t181 42q71 0 124.5 -14.5t79.5 -31.5zM235 -117l19 51q12 32 45 32h98q13 0 21 -7t8 -18q0 -18 -23 -37
l-58 -48q-50 -41 -83 -41q-37 0 -37 32q0 11 10 36z" />
    <glyph glyph-name="uni021A" unicode="&#x21a;" horiz-adv-x="899" 
d="M825 592h-291v-543q0 -23 -13 -36t-36 -13h-71q-22 0 -35.5 13.5t-13.5 35.5v543h-291q-22 0 -35.5 13t-13.5 36v52q0 22 13.5 35.5t35.5 13.5h751q22 0 35.5 -13.5t13.5 -35.5v-52q0 -23 -13 -36t-36 -13zM324 -117l19 51q12 32 45 32h98q13 0 21 -7t8 -18
q0 -18 -23 -37l-58 -48q-50 -41 -83 -41q-37 0 -37 32q0 11 10 36z" />
    <glyph glyph-name="uni021B" unicode="&#x21b;" horiz-adv-x="611" 
d="M114 393q-22 0 -35.5 13.5t-13.5 36.5v26q0 23 13.5 36.5t35.5 13.5h67v152q0 23 13.5 36t35.5 13h66q22 0 35.5 -13.5t13.5 -35.5v-152h130q23 0 36 -13.5t13 -36.5v-26q0 -23 -13 -36.5t-36 -13.5h-130v-211q0 -27 12 -41t30 -14q21 0 41 15q20 16 35 16q17 0 34 -17
l6 -6q23 -23 23 -55t-27 -56q-43 -38 -132 -38q-186 0 -186 194v213h-67zM226 -117l19 51q12 32 45 32h98q13 0 21 -7t8 -18q0 -18 -23 -37l-58 -48q-50 -41 -83 -41q-37 0 -37 32q0 11 10 36z" />
    <glyph glyph-name="dotlessj" unicode="&#x237;" horiz-adv-x="430" 
d="M-7 -147q-27 24 -27 56t23 55l6 6q17 17 34 17q15 0 35 -16q20 -15 41 -15q18 0 30 14t12 41v459q0 22 13.5 35.5t35.5 13.5h69q23 0 36 -13.5t13 -35.5v-461q0 -86 -51.5 -140t-143.5 -54q-82 0 -126 38z" />
    <glyph glyph-name="circumflex" unicode="&#x2c6;" horiz-adv-x="608" 
d="M304 796q13 0 27 -8l154 -98q23 -16 23 -37q0 -17 -11 -31q-9 -12 -27 -20q-18 -7 -30 -7q-28 0 -59 21l-77 51l-77 -51q-31 -21 -59 -21q-12 0 -30 7q-18 8 -27 20q-11 14 -11 31q0 21 23 37l154 98q14 8 27 8z" />
    <glyph glyph-name="caron" unicode="&#x2c7;" horiz-adv-x="608" 
d="M304 584q-13 0 -27 8l-154 98q-23 15 -23 37q0 17 11 31q9 12 27 20q16 7 31 7q27 0 58 -21l77 -51l77 51q31 21 58 21q15 0 31 -7q19 -9 27 -20q11 -14 11 -31q0 -22 -23 -37l-154 -98q-14 -8 -27 -8z" />
    <glyph glyph-name="breve" unicode="&#x2d8;" horiz-adv-x="568" 
d="M284 581q-62 0 -109 28t-66 68q-9 19 -9 37q0 28 25 48l4 3q12 9 26 9q24 0 38 -23q35 -58 91 -58t91 58q14 23 37 23q15 0 27 -9l4 -3q25 -19 25 -48q0 -18 -9 -37q-19 -40 -66 -68t-109 -28z" />
    <glyph glyph-name="dotaccent" unicode="&#x2d9;" horiz-adv-x="385" 
d="M236 597h-87q-23 0 -36 13.5t-13 35.5v25q0 22 13.5 35.5t35.5 13.5h87q22 0 35.5 -13.5t13.5 -35.5v-25q0 -22 -13.5 -35.5t-35.5 -13.5z" />
    <glyph glyph-name="ring" unicode="&#x2da;" horiz-adv-x="522" 
d="M112 690q0 52 40.5 91.5t108.5 39.5t108 -39.5t40 -91.5q0 -53 -40 -91.5t-108 -38.5t-108.5 38.5t-40.5 91.5zM200 690q0 -22 16 -39t45 -17t45 17t16 39t-16 39t-45 17t-45 -17t-16 -39z" />
    <glyph glyph-name="ogonek" unicode="&#x2db;" horiz-adv-x="435" 
d="M292 -64q18 0 31 -15l3 -4q9 -13 9 -32q-4 -70 -97 -70q-67 0 -102.5 37t-35.5 90q0 63 44 112h105q-42 -55 -42 -86q0 -17 12 -28t29 -11q7 0 21.5 3.5t22.5 3.5z" />
    <glyph glyph-name="tilde" unicode="&#x2dc;" horiz-adv-x="588" 
d="M376 596q-36 0 -85.5 27.5t-60.5 27.5q-20 0 -31 -31q-9 -26 -37 -26q-9 0 -20 4l-3 1q-39 14 -39 51q0 12 5 32q10 37 39.5 62.5t68.5 25.5q35 0 84 -27.5t61 -27.5q20 0 31 31q9 26 35 26q10 0 22 -4l3 -1q39 -13 39 -50q0 -14 -5 -32q-11 -38 -39 -63.5t-68 -25.5z
" />
    <glyph glyph-name="hungarumlaut" unicode="&#x2dd;" horiz-adv-x="656" 
d="M322 673l-111 -106q-24 -22 -48 -22q-29 0 -50 25q-13 14 -13 30q0 19 17 34l111 106q24 22 48 22q27 0 50 -25q13 -14 13 -30q0 -19 -17 -34zM539 673l-111 -106q-24 -22 -48 -22q-29 0 -50 25q-13 14 -13 30q0 19 17 34l111 106q24 22 48 22q27 0 50 -25q13 -14 13 -30
q0 -19 -17 -34z" />
    <glyph glyph-name="uni0312" unicode="&#x312;" horiz-adv-x="417" 
d="M325 659l-19 -51q-12 -32 -45 -32h-98q-13 0 -21 7t-8 18q0 18 23 37l58 48q50 41 83 41q37 0 37 -32q0 -11 -10 -36z" />
    <glyph glyph-name="uni0315" unicode="&#x315;" horiz-adv-x="422" 
d="M180 497q-37 0 -58.5 14t-21.5 42v3q0 22 13.5 35.5t35.5 13.5q26 0 37 11.5t11 35.5v28h-38q-23 0 -36 13t-13 36v21q0 22 13.5 35.5t35.5 13.5h94q22 0 35.5 -13.5t13.5 -35.5v-102q0 -151 -122 -151z" />
    <glyph glyph-name="uni0326" unicode="&#x326;" horiz-adv-x="417" 
d="M92 -117l19 51q12 32 45 32h98q13 0 21 -7t8 -18q0 -18 -23 -37l-58 -48q-50 -41 -83 -41q-37 0 -37 32q0 11 10 36z" />
    <glyph glyph-name="pi" unicode="&#x3c0;" horiz-adv-x="827" 
d="M554 0q-22 0 -35.5 13.5t-13.5 35.5v338h-194v-338q0 -23 -13.5 -36t-35.5 -13h-66q-22 0 -35.5 13.5t-13.5 35.5v338h-38q-22 0 -35.5 13.5t-13.5 35.5v34q0 22 13.5 35.5t35.5 13.5h609q22 0 35.5 -13.5t13.5 -35.5v-34q0 -22 -13.5 -35.5t-35.5 -13.5h-49v-338
q0 -23 -13.5 -36t-35.5 -13h-66z" />
    <glyph glyph-name="Wgrave" unicode="&#x1e80;" horiz-adv-x="1296" 
d="M443 0h-81q-41 0 -53 38l-258 637q-6 13 -6 25q0 18 11.5 30t32.5 12h78q41 0 55 -36l172 -479l166 477q13 38 53 38h70q40 0 53 -38l166 -477l172 479q14 36 55 36h78q21 0 32.5 -12t11.5 -30q0 -12 -6 -25l-258 -637q-12 -38 -53 -38h-81q-40 0 -53 38l-152 433
l-152 -433q-13 -38 -53 -38zM687 810l-164 88q-26 13 -26 40q0 13 7 26l1 2q21 38 61 38q21 0 41 -11l164 -88q26 -13 26 -40q0 -13 -7 -26l-1 -2q-21 -38 -61 -38q-21 0 -41 11z" />
    <glyph glyph-name="wgrave" unicode="&#x1e81;" horiz-adv-x="1056" 
d="M554 519q39 0 53 -35l122 -293l99 292q12 36 55 36h69q21 0 32.5 -12t11.5 -30q0 -11 -6 -25l-162 -416q-15 -36 -51 -36h-81q-36 0 -51 36l-117 290l-117 -290q-15 -36 -51 -36h-81q-36 0 -51 36l-162 416q-6 14 -6 25q0 18 11.5 30t32.5 12h69q43 0 55 -36l99 -292
l122 293q14 35 53 35h52zM564 587l-164 88q-26 13 -26 40q0 13 7 26l1 2q21 38 61 38q21 0 41 -11l164 -88q26 -13 26 -40q0 -13 -7 -26l-1 -2q-21 -38 -61 -38q-21 0 -41 11z" />
    <glyph glyph-name="Wacute" unicode="&#x1e82;" horiz-adv-x="1296" 
d="M443 0h-81q-41 0 -53 38l-258 637q-6 13 -6 25q0 18 11.5 30t32.5 12h78q41 0 55 -36l172 -479l166 477q13 38 53 38h70q40 0 53 -38l166 -477l172 479q14 36 55 36h78q21 0 32.5 -12t11.5 -30q0 -12 -6 -25l-258 -637q-12 -38 -53 -38h-81q-40 0 -53 38l-152 433
l-152 -433q-13 -38 -53 -38zM791 898l-164 -88q-20 -11 -41 -11q-40 0 -61 38l-1 2q-7 13 -7 26q0 27 26 40l164 88q20 11 41 11q40 0 61 -38l1 -2q7 -13 7 -26q0 -27 -26 -40z" />
    <glyph glyph-name="wacute" unicode="&#x1e83;" horiz-adv-x="1056" 
d="M554 519q39 0 53 -35l122 -293l99 292q12 36 55 36h69q21 0 32.5 -12t11.5 -30q0 -11 -6 -25l-162 -416q-15 -36 -51 -36h-81q-36 0 -51 36l-117 290l-117 -290q-15 -36 -51 -36h-81q-36 0 -51 36l-162 416q-6 14 -6 25q0 18 11.5 30t32.5 12h69q43 0 55 -36l99 -292
l122 293q14 35 53 35h52zM652 675l-164 -88q-20 -11 -41 -11q-40 0 -61 38l-1 2q-7 13 -7 26q0 27 26 40l164 88q20 11 41 11q40 0 61 -38l1 -2q7 -13 7 -26q0 -27 -26 -40z" />
    <glyph glyph-name="Wdieresis" unicode="&#x1e84;" horiz-adv-x="1296" 
d="M443 0h-81q-41 0 -53 38l-258 637q-6 13 -6 25q0 18 11.5 30t32.5 12h78q41 0 55 -36l172 -479l166 477q13 38 53 38h70q40 0 53 -38l166 -477l172 479q14 36 55 36h78q21 0 32.5 -12t11.5 -30q0 -12 -6 -25l-258 -637q-12 -38 -53 -38h-81q-40 0 -53 38l-152 433
l-152 -433q-13 -38 -53 -38zM562 837h-87q-23 0 -36 13.5t-13 35.5v25q0 22 13.5 35.5t35.5 13.5h87q22 0 35.5 -13.5t13.5 -35.5v-25q0 -22 -13.5 -35.5t-35.5 -13.5zM816 837h-87q-23 0 -36 13.5t-13 35.5v25q0 22 13.5 35.5t35.5 13.5h87q22 0 35.5 -13.5t13.5 -35.5v-25
q0 -22 -13.5 -35.5t-35.5 -13.5z" />
    <glyph glyph-name="wdieresis" unicode="&#x1e85;" horiz-adv-x="1056" 
d="M554 519q39 0 53 -35l122 -293l99 292q12 36 55 36h69q21 0 32.5 -12t11.5 -30q0 -11 -6 -25l-162 -416q-15 -36 -51 -36h-81q-36 0 -51 36l-117 290l-117 -290q-15 -36 -51 -36h-81q-36 0 -51 36l-162 416q-6 14 -6 25q0 18 11.5 30t32.5 12h69q43 0 55 -36l99 -292
l122 293q14 35 53 35h52zM443 614h-87q-22 0 -35.5 13t-13.5 36v25q0 22 13.5 35.5t35.5 13.5h87q22 0 35.5 -13.5t13.5 -35.5v-25q0 -23 -13 -36t-36 -13zM697 614h-87q-22 0 -35.5 13t-13.5 36v25q0 22 13.5 35.5t35.5 13.5h87q22 0 35.5 -13.5t13.5 -35.5v-25
q0 -23 -13 -36t-36 -13z" />
    <glyph glyph-name="Ygrave" unicode="&#x1ef2;" horiz-adv-x="961" 
d="M448 0q-22 0 -35.5 13.5t-13.5 35.5v239l-366 385q-13 15 -13 30q0 39 39 39h98q33 0 62 -30l261 -286l262 286q28 30 62 30h98q39 0 39 -39q0 -15 -13 -30l-365 -385v-239q0 -23 -13.5 -36t-35.5 -13h-66zM496 810l-164 88q-26 13 -26 40q0 13 7 26l1 2q21 38 61 38
q21 0 41 -11l164 -88q26 -13 26 -40q0 -13 -7 -26l-1 -2q-21 -38 -61 -38q-21 0 -41 11z" />
    <glyph glyph-name="ygrave" unicode="&#x1ef3;" horiz-adv-x="760" 
d="M200 -27q26 -17 45 -17q33 0 50 35l9 18l-233 443q-6 14 -6 25q0 18 11.5 30t32.5 12h69q40 0 55 -30l151 -315l153 314q14 31 55 31h69q21 0 32.5 -12t11.5 -30q0 -11 -6 -25l-257 -487q-45 -84 -84 -117t-108 -33q-37 0 -70.5 11.5t-50.5 27.5q-27 26 -27 56
q0 32 23 55l6 6q17 17 33 17q12 0 36 -15zM402 587l-164 88q-26 13 -26 40q0 13 7 26l1 2q21 38 61 38q21 0 41 -11l164 -88q26 -13 26 -40q0 -13 -7 -26l-1 -2q-21 -38 -61 -38q-21 0 -41 11z" />
    <glyph glyph-name="endash" unicode="&#x2013;" horiz-adv-x="754" 
d="M605 193h-456q-23 0 -36 13.5t-13 35.5v52q0 22 13.5 35.5t35.5 13.5h456q22 0 35.5 -13.5t13.5 -35.5v-52q0 -22 -13 -35.5t-36 -13.5z" />
    <glyph glyph-name="emdash" unicode="&#x2014;" horiz-adv-x="1014" 
d="M865 193h-716q-23 0 -36 13.5t-13 35.5v52q0 22 13.5 35.5t35.5 13.5h716q22 0 35.5 -13.5t13.5 -35.5v-52q0 -22 -13 -35.5t-36 -13.5z" />
    <glyph glyph-name="quoteleft" unicode="&#x2018;" horiz-adv-x="427" 
d="M100 550v132q0 151 138 151q89 0 89 -59v-8q0 -22 -13.5 -35.5t-35.5 -13.5q-26 0 -37 -11.5t-11 -35.5v-30h38q22 0 35.5 -13t13.5 -36v-41q0 -22 -13.5 -35.5t-35.5 -13.5h-119q-22 0 -35.5 13.5t-13.5 35.5z" />
    <glyph glyph-name="quoteright" unicode="&#x2019;" horiz-adv-x="427" 
d="M327 777v-132q0 -151 -138 -151q-89 0 -89 59v8q0 22 13.5 35.5t35.5 13.5q26 0 37 11.5t11 35.5v30h-38q-23 0 -36 13.5t-13 35.5v41q0 22 13.5 35.5t35.5 13.5h119q22 0 35.5 -13.5t13.5 -35.5z" />
    <glyph glyph-name="quotesinglbase" unicode="&#x201a;" horiz-adv-x="427" 
d="M327 98v-132q0 -151 -138 -151q-89 0 -89 59v8q0 22 13.5 35.5t35.5 13.5q26 0 37 11.5t11 35.5v30h-38q-23 0 -36 13t-13 36v41q0 22 13.5 35.5t35.5 13.5h119q22 0 35.5 -13.5t13.5 -35.5z" />
    <glyph glyph-name="quotedblleft" unicode="&#x201c;" horiz-adv-x="744" 
d="M100 550v132q0 151 138 151q89 0 89 -59v-8q0 -22 -13.5 -35.5t-35.5 -13.5q-26 0 -37 -11.5t-11 -35.5v-30h38q22 0 35.5 -13t13.5 -36v-41q0 -22 -13.5 -35.5t-35.5 -13.5h-119q-22 0 -35.5 13.5t-13.5 35.5zM417 550v132q0 151 138 151q89 0 89 -59v-8
q0 -22 -13.5 -35.5t-35.5 -13.5q-26 0 -37 -11.5t-11 -35.5v-30h38q23 0 36 -13t13 -36v-41q0 -22 -13.5 -35.5t-35.5 -13.5h-119q-22 0 -35.5 13.5t-13.5 35.5z" />
    <glyph glyph-name="quotedblright" unicode="&#x201d;" horiz-adv-x="744" 
d="M327 777v-132q0 -151 -138 -151q-89 0 -89 59v8q0 22 13.5 35.5t35.5 13.5q26 0 37 11.5t11 35.5v30h-38q-23 0 -36 13.5t-13 35.5v41q0 22 13.5 35.5t35.5 13.5h119q22 0 35.5 -13.5t13.5 -35.5zM644 777v-132q0 -151 -138 -151q-89 0 -89 59v8q0 22 13.5 35.5
t35.5 13.5q26 0 37 11.5t11 35.5v30h-38q-22 0 -35.5 13.5t-13.5 35.5v41q0 22 13.5 35.5t35.5 13.5h119q22 0 35.5 -13.5t13.5 -35.5z" />
    <glyph glyph-name="quotedblbase" unicode="&#x201e;" horiz-adv-x="745" 
d="M327 98v-132q0 -151 -138 -151q-89 0 -89 59v8q0 22 13.5 35.5t35.5 13.5q26 0 37 11.5t11 35.5v30h-38q-23 0 -36 13t-13 36v41q0 22 13.5 35.5t35.5 13.5h119q22 0 35.5 -13.5t13.5 -35.5zM645 98v-132q0 -151 -138 -151q-89 0 -89 59v8q0 22 13.5 35.5t35.5 13.5
q26 0 37 11.5t11 35.5v30h-38q-23 0 -36 13t-13 36v41q0 22 13.5 35.5t35.5 13.5h119q22 0 35.5 -13.5t13.5 -35.5z" />
    <glyph glyph-name="dagger" unicode="&#x2020;" horiz-adv-x="749" 
d="M600 369h-151v-320q0 -23 -13.5 -36t-35.5 -13h-66q-22 0 -35.5 13.5t-13.5 35.5v320h-151q-22 0 -35.5 13.5t-13.5 35.5v52q0 22 13.5 35.5t35.5 13.5h151v175q0 22 13.5 35.5t35.5 13.5h66q22 0 35.5 -13.5t13.5 -35.5v-175h151q22 0 35.5 -13.5t13.5 -35.5v-52
q0 -22 -13.5 -35.5t-35.5 -13.5z" />
    <glyph glyph-name="daggerdbl" unicode="&#x2021;" horiz-adv-x="749" 
d="M600 170h-151v-121q0 -23 -13.5 -36t-35.5 -13h-66q-22 0 -35.5 13.5t-13.5 35.5v121h-151q-22 0 -35.5 13t-13.5 36v52q0 22 13.5 35.5t35.5 13.5h151v103h-151q-22 0 -35.5 13.5t-13.5 35.5v52q0 22 13.5 35.5t35.5 13.5h151v121q0 22 13.5 35.5t35.5 13.5h66
q22 0 35.5 -13.5t13.5 -35.5v-121h151q22 0 35.5 -13.5t13.5 -35.5v-52q0 -22 -13.5 -35.5t-35.5 -13.5h-151v-103h151q22 0 35.5 -13.5t13.5 -35.5v-52q0 -23 -13.5 -36t-35.5 -13z" />
    <glyph glyph-name="bullet" unicode="&#x2022;" horiz-adv-x="519" 
d="M390 263q0 -48 -39 -83.5t-91 -35.5q-54 0 -92 35.5t-38 83.5q0 50 38 85.5t92 35.5q53 0 91.5 -36t38.5 -85z" />
    <glyph glyph-name="ellipsis" unicode="&#x2026;" horiz-adv-x="1176" 
d="M243 0h-94q-23 0 -36 13t-13 36v52q0 22 13.5 35.5t35.5 13.5h94q22 0 35.5 -13.5t13.5 -35.5v-52q0 -23 -13 -36t-36 -13zM635 0h-94q-23 0 -36 13t-13 36v52q0 22 13.5 35.5t35.5 13.5h94q22 0 35.5 -13.5t13.5 -35.5v-52q0 -23 -13 -36t-36 -13zM1027 0h-94
q-23 0 -36 13t-13 36v52q0 22 13.5 35.5t35.5 13.5h94q22 0 35.5 -13.5t13.5 -35.5v-52q0 -23 -13 -36t-36 -13z" />
    <glyph glyph-name="perthousand" unicode="&#x2030;" horiz-adv-x="1701" 
d="M305 61l464 656q19 25 50 25h66q38 0 38 -31q0 -14 -11 -30l-464 -656q-19 -25 -50 -25h-66q-38 0 -38 31q0 14 11 30zM120 570q0 77 58 131.5t141 54.5t141.5 -54.5t58.5 -131.5q0 -76 -58.5 -130.5t-141.5 -54.5q-82 0 -140.5 54t-58.5 131zM250 570q0 -29 19.5 -48
t49.5 -19t49.5 19t19.5 48t-19.5 48.5t-49.5 19.5t-49.5 -19.5t-19.5 -48.5zM696 171q0 77 58 131.5t141 54.5t141.5 -54.5t58.5 -131.5q0 -76 -58.5 -130.5t-141.5 -54.5q-82 0 -140.5 54t-58.5 131zM826 171q0 -29 19.5 -48t49.5 -19t49.5 19t19.5 48t-19.5 48.5
t-49.5 19.5t-49.5 -19.5t-19.5 -48.5zM1181 171q0 77 58 131.5t141 54.5t141.5 -54.5t58.5 -131.5q0 -76 -58.5 -130.5t-141.5 -54.5q-82 0 -140.5 54t-58.5 131zM1311 171q0 -29 19.5 -48t49.5 -19t49.5 19t19.5 48t-19.5 48.5t-49.5 19.5t-49.5 -19.5t-19.5 -48.5z" />
    <glyph glyph-name="guilsinglleft" unicode="&#x2039;" horiz-adv-x="521" 
d="M100 247q0 17 12 30l148 167q22 25 50 25h72q17 0 28 -8.5t11 -23.5t-13 -29l-141 -161l141 -162q13 -14 13 -29t-11 -23.5t-28 -8.5h-72q-28 0 -50 25l-148 167q-12 14 -12 31z" />
    <glyph glyph-name="guilsinglright" unicode="&#x203a;" horiz-adv-x="521" 
d="M421 247q0 -17 -12 -31l-148 -167q-22 -25 -50 -25h-72q-17 0 -28 8.5t-11 23.5t13 29l141 162l-141 161q-13 14 -13 29t11 23.5t28 8.5h72q28 0 50 -25l148 -167q12 -13 12 -30z" />
    <glyph glyph-name="fraction" unicode="&#x2044;" horiz-adv-x="99" 
d="M-229 61l464 656q19 25 50 25h36q38 0 38 -31q0 -14 -11 -30l-464 -656q-19 -25 -50 -25h-36q-38 0 -38 31q0 14 11 30z" />
    <glyph glyph-name="Euro" unicode="&#x20ac;" horiz-adv-x="1120" 
d="M717 401h-336q-2 -10 -2 -30q0 -11 2 -29h336q22 0 35.5 -13.5t13.5 -35.5v-27q0 -22 -13 -35.5t-36 -13.5h-278q76 -81 195 -81q141 0 268 141q16 17 37 17q16 0 29 -12l22 -21q30 -29 30 -61q0 -26 -19 -46q-154 -168 -363 -168q-131 0 -237.5 63.5t-156.5 167.5h-95
q-23 0 -36 13.5t-13 35.5v27q0 22 13.5 35.5t35.5 13.5h61q-1 9 -1 29t1 30h-61q-23 0 -36 13.5t-13 35.5v27q0 22 13.5 35.5t35.5 13.5h96q50 103 156 166.5t237 63.5q209 0 363 -168q19 -20 19 -46q0 -32 -30 -61l-22 -21q-13 -12 -29 -12q-21 0 -37 17q-127 141 -268 141
q-117 0 -194 -80h277q22 0 35.5 -13.5t13.5 -35.5v-27q0 -22 -13 -35.5t-36 -13.5z" />
    <glyph glyph-name="trademark" unicode="&#x2122;" horiz-adv-x="1047" 
d="M728 447q-28 0 -42 26l-50 91v-122q0 -22 -13 -35.5t-36 -13.5h-29q-22 0 -35.5 13.5t-13.5 35.5v251q0 22 13.5 35.5t35.5 13.5h43q43 0 68 -41l59 -96l59 96q25 41 68 41h43q22 0 35.5 -13.5t13.5 -35.5v-251q0 -22 -13.5 -35.5t-35.5 -13.5h-29q-23 0 -36 13.5
t-13 35.5v122l-50 -91q-14 -26 -42 -26zM149 629q-22 0 -35.5 13.5t-13.5 35.5v15q0 22 13.5 35.5t35.5 13.5h274q22 0 35.5 -13.5t13.5 -35.5v-15q0 -22 -13 -35.5t-36 -13.5h-71v-187q0 -22 -13 -35.5t-36 -13.5h-34q-22 0 -35.5 13.5t-13.5 35.5v187h-71z" />
    <glyph glyph-name="Omega" unicode="&#x2126;" horiz-adv-x="1043" 
d="M522 756q177 0 302.5 -112.5t125.5 -266.5q0 -137 -102 -227h91q22 0 35.5 -13.5t13.5 -35.5v-52q0 -23 -13 -36t-36 -13h-309q-22 0 -35.5 13t-13.5 36v52q0 32 40 48q67 27 110.5 85.5t43.5 133.5q0 99 -73.5 166t-180.5 67t-180 -67t-73 -166q0 -75 43.5 -133.5
t110.5 -85.5q40 -16 40 -48v-52q0 -23 -13 -36t-36 -13h-309q-22 0 -35.5 13t-13.5 36v52q0 22 13.5 35.5t35.5 13.5h91q-102 90 -102 227q0 154 126 266.5t303 112.5z" />
    <glyph glyph-name="uni2153" unicode="&#x2153;" horiz-adv-x="1080" 
d="M119 395q-22 0 -35.5 13.5t-13.5 35.5v1q0 22 13.5 35t35.5 13h90v121q-54 -30 -81 -30q-21 0 -35 13.5t-14 35.5v9q0 31 33 43q54 20 93 44q26 17 50 17h15q22 0 35.5 -13t13.5 -35v-205h52q22 0 35.5 -13t13.5 -35v-1q0 -22 -13 -35.5t-36 -13.5h-252zM271 61l464 656
q19 25 50 25h36q38 0 38 -31q0 -14 -11 -30l-464 -656q-19 -25 -50 -25h-36q-38 0 -38 31q0 14 11 30zM842 -10q-109 0 -163 46q-20 17 -20 37q0 10 4 17q4 8 14 18q13 13 31 13t36 -11q46 -27 97 -27q59 0 59 33q0 22 -43 22h-70q-38 0 -38 37v3q0 37 38 37h69q35 0 35 25
q0 14 -13.5 22.5t-35.5 8.5q-42 0 -90 -25q-24 -13 -36 -13q-17 0 -32 15q-9 9 -13 17t-4 17q0 20 21 36q56 43 155 43q74 0 116.5 -32.5t42.5 -79.5q0 -49 -35 -71q43 -26 43 -73q0 -52 -43 -83.5t-125 -31.5z" />
    <glyph glyph-name="uni2154" unicode="&#x2154;" horiz-adv-x="1067" 
d="M254 756q70 0 110 -30t40 -79q0 -44 -33 -72.5t-100 -48.5q-47 -13 -64 -32h151q23 0 36 -13t13 -35v-3q0 -22 -13 -35t-36 -13h-249q-39 0 -39 45q0 57 46 100.5t124 66.5q47 14 47 34q0 22 -36 22q-38 0 -86 -25q-18 -10 -34 -10q-21 0 -37 15q-6 7 -11 14q-6 11 -6 21
q0 19 21 35q56 43 156 43zM250 61l464 656q19 25 50 25h36q38 0 38 -31q0 -14 -11 -30l-464 -656q-19 -25 -50 -25h-36q-38 0 -38 31q0 14 11 30zM829 -10q-109 0 -163 46q-20 17 -20 37q0 10 4 17q4 8 14 18q13 13 31 13t36 -11q46 -27 97 -27q59 0 59 33q0 22 -43 22h-70
q-38 0 -38 37v3q0 37 38 37h69q35 0 35 25q0 14 -13.5 22.5t-35.5 8.5q-42 0 -90 -25q-24 -13 -36 -13q-17 0 -32 15q-9 9 -13 17t-4 17q0 20 21 36q56 43 155 43q74 0 116.5 -32.5t42.5 -79.5q0 -49 -35 -71q43 -26 43 -73q0 -52 -43 -83.5t-125 -31.5z" />
    <glyph glyph-name="uni2155" unicode="&#x2155;" horiz-adv-x="1091" 
d="M271 61l464 656q19 25 50 25h36q38 0 38 -31q0 -14 -11 -30l-464 -656q-19 -25 -50 -25h-36q-38 0 -38 31q0 14 11 30zM119 395q-22 0 -35.5 13.5t-13.5 35.5v1q0 22 13.5 35t35.5 13h90v121q-54 -30 -81 -30q-21 0 -35 13.5t-14 35.5v9q0 31 33 43q54 20 93 44
q26 17 50 17h15q22 0 35.5 -13t13.5 -35v-205h52q22 0 35.5 -13t13.5 -35v-1q0 -22 -13 -35.5t-36 -13.5h-252zM748 351h212q22 0 34 -11t12 -30v-6q0 -20 -12 -31.5t-34 -11.5h-170l-12 -43q40 12 91 12q67 0 109.5 -31t42.5 -81q0 -54 -48.5 -91t-133.5 -37
q-47 0 -92 11.5t-68 29.5q-20 15 -20 36q0 18 14 31l9 8q14 12 29 12q10 0 30 -12q44 -26 99 -26q30 0 48 10.5t18 27.5t-18 27.5t-50 10.5q-34 0 -85 -12q-30 -7 -34 -7q-20 0 -33 13l-4 4q-17 17 -17 33q0 7 3 16l34 120q6 28 46 28z" />
    <glyph glyph-name="uni2156" unicode="&#x2156;" horiz-adv-x="1078" 
d="M260 61l464 656q19 25 50 25h36q38 0 38 -31q0 -14 -11 -30l-464 -656q-19 -25 -50 -25h-36q-38 0 -38 31q0 14 11 30zM254 756q70 0 110 -30t40 -79q0 -44 -33 -72.5t-100 -48.5q-47 -13 -64 -32h151q23 0 36 -13t13 -35v-3q0 -22 -13 -35t-36 -13h-249q-39 0 -39 45
q0 57 46 100.5t124 66.5q47 14 47 34q0 22 -36 22q-38 0 -86 -25q-18 -10 -34 -10q-21 0 -37 15q-6 7 -11 14q-6 11 -6 21q0 19 21 35q56 43 156 43zM735 351h212q22 0 34 -11t12 -30v-6q0 -20 -12 -31.5t-34 -11.5h-170l-12 -43q41 12 91 12q67 0 109.5 -31t42.5 -81
q0 -54 -48.5 -91t-133.5 -37q-47 0 -92 11.5t-68 29.5q-20 15 -20 36q0 18 14 31l9 8q14 12 29 12q10 0 30 -12q44 -26 99 -26q30 0 48 10.5t18 27.5t-18 27.5t-50 10.5q-34 0 -85 -12q-30 -7 -34 -7q-20 0 -33 13l-4 4q-17 17 -17 33q0 7 3 16l34 120q6 28 46 28z" />
    <glyph glyph-name="uni2157" unicode="&#x2157;" horiz-adv-x="1092" 
d="M263 61l464 656q19 25 50 25h36q38 0 38 -31q0 -14 -11 -30l-464 -656q-19 -25 -50 -25h-36q-38 0 -38 31q0 14 11 30zM253 385q-109 0 -163 46q-20 17 -20 37q0 10 4 17q4 8 14 18q13 13 31 13t36 -11q46 -27 97 -27q59 0 59 33q0 22 -43 22h-70q-38 0 -38 37v3
q0 37 38 37h69q35 0 35 25q0 14 -13.5 22.5t-35.5 8.5q-42 0 -90 -25q-24 -13 -36 -13q-17 0 -32 15q-9 9 -13 17t-4 17q0 20 21 36q56 43 155 43q74 0 116.5 -32.5t42.5 -79.5q0 -49 -35 -71q43 -26 43 -73q0 -52 -43 -83.5t-125 -31.5zM749 351h212q22 0 34 -11t12 -30v-6
q0 -20 -12 -31.5t-34 -11.5h-170l-12 -43q41 12 91 12q67 0 109.5 -31t42.5 -81q0 -54 -48.5 -91t-133.5 -37q-47 0 -92 11.5t-68 29.5q-20 15 -20 36q0 18 14 31l9 8q14 12 29 12q10 0 30 -12q44 -26 99 -26q30 0 48 10.5t18 27.5t-18 27.5t-50 10.5q-34 0 -85 -12
q-30 -7 -34 -7q-20 0 -33 13l-4 4q-17 17 -17 33q0 7 3 16l34 120q6 28 46 28z" />
    <glyph glyph-name="uni2158" unicode="&#x2158;" horiz-adv-x="1118" 
d="M295 61l464 656q19 25 50 25h36q38 0 38 -31q0 -14 -11 -30l-464 -656q-19 -25 -50 -25h-36q-38 0 -38 31q0 14 11 30zM280 444v16h-161q-23 0 -36 13.5t-13 36.5v10q0 31 25 52l176 153q24 21 54 21h32q18 0 29 -11t11 -29v-148h21q22 0 35 -12.5t14 -33.5v-3
q0 -23 -13.5 -36t-35.5 -13h-21v-16q0 -23 -13.5 -36t-36.5 -13h-18q-22 0 -35.5 13.5t-13.5 35.5zM293 548v86l-97 -86h97zM775 351h212q22 0 34 -11t12 -30v-6q0 -20 -12 -31.5t-34 -11.5h-170l-12 -43q41 12 91 12q67 0 109.5 -31t42.5 -81q0 -54 -48.5 -91t-133.5 -37
q-47 0 -92 11.5t-68 29.5q-20 15 -20 36q0 18 14 31l9 8q14 12 29 12q10 0 30 -12q44 -26 99 -26q30 0 48 10.5t18 27.5t-18 27.5t-50 10.5q-34 0 -85 -12q-30 -7 -34 -7q-20 0 -33 13l-4 4q-17 17 -17 33q0 7 3 16l34 120q6 28 46 28z" />
    <glyph glyph-name="uni2159" unicode="&#x2159;" horiz-adv-x="1118" 
d="M281 61l464 656q19 25 50 25h36q38 0 38 -31q0 -14 -11 -30l-464 -656q-19 -25 -50 -25h-36q-38 0 -38 31q0 14 11 30zM119 395q-22 0 -35.5 13.5t-13.5 35.5v1q0 22 13.5 35t35.5 13h90v121q-54 -30 -81 -30q-21 0 -35 13.5t-14 35.5v9q0 31 33 43q54 20 93 44
q26 17 50 17h15q22 0 35.5 -13t13.5 -35v-205h52q22 0 35.5 -13t13.5 -35v-1q0 -22 -13 -35.5t-36 -13.5h-252zM874 361q81 0 138 -40q22 -17 22 -39t-20 -35l-3 -2q-17 -12 -28 -12q-13 0 -30 11q-41 28 -86 28q-33 0 -60.5 -20t-34.5 -59q53 32 122 32q67 0 110.5 -29.5
t43.5 -78.5q0 -55 -50.5 -91t-126.5 -36q-93 0 -152.5 54t-59.5 132t59.5 131.5t155.5 53.5zM877 150q-45 0 -97 -29q23 -46 88 -46q31 0 48.5 11.5t17.5 28.5q0 16 -15.5 25.5t-41.5 9.5z" />
    <glyph glyph-name="uni215A" unicode="&#x215a;" horiz-adv-x="1130" 
d="M283 61l464 656q19 25 50 25h36q38 0 38 -31q0 -14 -11 -30l-464 -656q-19 -25 -50 -25h-36q-38 0 -38 31q0 14 11 30zM159 746h212q22 0 34 -11t12 -30v-6q0 -20 -12 -31.5t-34 -11.5h-170l-12 -43q41 12 91 12q67 0 109.5 -31t42.5 -81q0 -54 -48.5 -91t-133.5 -37
q-47 0 -92 11.5t-68 29.5q-20 15 -20 36q0 18 14 31l9 8q14 12 29 12q10 0 30 -12q44 -26 99 -26q30 0 48 10.5t18 27.5t-18 27.5t-50 10.5q-34 0 -85 -12q-30 -7 -34 -7q-20 0 -33 13l-4 4q-17 17 -17 33q0 7 3 16l34 120q6 28 46 28zM886 361q81 0 138 -40q22 -17 22 -39
t-20 -35l-3 -2q-17 -12 -28 -12q-13 0 -30 11q-41 28 -86 28q-33 0 -60.5 -20t-34.5 -59q53 32 122 32q67 0 110.5 -29.5t43.5 -78.5q0 -55 -50.5 -91t-126.5 -36q-93 0 -152.5 54t-59.5 132t59.5 131.5t155.5 53.5zM889 150q-45 0 -97 -29q23 -46 88 -46q31 0 48.5 11.5
t17.5 28.5q0 16 -15.5 25.5t-41.5 9.5z" />
    <glyph glyph-name="uni215B" unicode="&#x215b;" horiz-adv-x="1112" 
d="M119 395q-22 0 -35.5 13.5t-13.5 35.5v1q0 22 13.5 35t35.5 13h90v121q-54 -30 -81 -30q-21 0 -35 13.5t-14 35.5v9q0 31 33 43q54 20 93 44q26 17 50 17h15q22 0 35.5 -13t13.5 -35v-205h52q22 0 35.5 -13t13.5 -35v-1q0 -22 -13 -35.5t-36 -13.5h-252zM272 61l464 656
q19 25 50 25h36q38 0 38 -31q0 -14 -11 -30l-464 -656q-19 -25 -50 -25h-36q-38 0 -38 31q0 14 11 30zM851 -10q-85 0 -138.5 30t-53.5 81q0 56 58 84q-39 34 -39 73q0 44 46.5 73.5t126.5 29.5t126.5 -30t46.5 -74q0 -39 -41 -71q59 -28 59 -84q0 -52 -53 -82t-138 -30z
M850 219q28 0 45.5 8.5t17.5 23.5t-17.5 23.5t-45.5 8.5t-45 -8.5t-17 -23.5t17 -23.5t45 -8.5zM771 106q0 -36 79 -36q37 0 59 9.5t22 26.5t-22.5 27t-58.5 10t-57.5 -10t-21.5 -27z" />
    <glyph glyph-name="uni215C" unicode="&#x215c;" horiz-adv-x="1113" 
d="M253 385q-109 0 -163 46q-20 17 -20 37q0 10 4 17q4 8 14 18q13 13 31 13t36 -11q46 -27 97 -27q59 0 59 33q0 22 -43 22h-70q-38 0 -38 37v3q0 37 38 37h69q35 0 35 25q0 14 -13.5 22.5t-35.5 8.5q-42 0 -90 -25q-24 -13 -36 -13q-17 0 -32 15q-9 9 -13 17t-4 17
q0 20 21 36q56 43 155 43q74 0 116.5 -32.5t42.5 -79.5q0 -49 -35 -71q43 -26 43 -73q0 -52 -43 -83.5t-125 -31.5zM264 61l464 656q19 25 50 25h36q38 0 38 -31q0 -14 -11 -30l-464 -656q-19 -25 -50 -25h-36q-38 0 -38 31q0 14 11 30zM852 -10q-85 0 -138.5 30t-53.5 81
q0 56 58 84q-39 34 -39 73q0 44 46.5 73.5t126.5 29.5t126.5 -30t46.5 -74q0 -39 -41 -71q59 -28 59 -84q0 -52 -53 -82t-138 -30zM851 219q28 0 45.5 8.5t17.5 23.5t-17.5 23.5t-45.5 8.5q-27 0 -44.5 -8.5t-17.5 -23.5t17.5 -23.5t44.5 -8.5zM772 106q0 -36 79 -36
q37 0 59 9.5t22 26.5t-22.5 27t-58.5 10t-57.5 -10t-21.5 -27z" />
    <glyph glyph-name="uni215D" unicode="&#x215d;" horiz-adv-x="1124" 
d="M159 746h212q22 0 34 -11t12 -30v-6q0 -20 -12 -31.5t-34 -11.5h-170l-12 -43q41 12 91 12q67 0 109.5 -31t42.5 -81q0 -54 -48.5 -91t-133.5 -37q-47 0 -92 11.5t-68 29.5q-20 15 -20 36q0 18 14 31l9 8q14 12 29 12q10 0 30 -12q44 -26 99 -26q30 0 48 10.5t18 27.5
t-18 27.5t-50 10.5q-34 0 -85 -12q-30 -7 -34 -7q-20 0 -33 13l-4 4q-17 17 -17 33q0 7 3 16l34 120q6 28 46 28zM278 61l464 656q19 25 50 25h36q38 0 38 -31q0 -14 -11 -30l-464 -656q-19 -25 -50 -25h-36q-38 0 -38 31q0 14 11 30zM863 -10q-85 0 -138.5 30t-53.5 81
q0 56 58 84q-39 34 -39 73q0 44 46.5 73.5t126.5 29.5t126.5 -30t46.5 -74q0 -39 -41 -71q59 -28 59 -84q0 -52 -53 -82t-138 -30zM862 219q28 0 45.5 8.5t17.5 23.5t-17.5 23.5t-45.5 8.5t-45 -8.5t-17 -23.5t17 -23.5t45 -8.5zM783 106q0 -36 79 -36q37 0 59 9.5t22 26.5
t-22.5 27t-58.5 10t-57.5 -10t-21.5 -27z" />
    <glyph glyph-name="uni215E" unicode="&#x215e;" horiz-adv-x="1048" 
d="M264 647h-145q-22 0 -35.5 13.5t-13.5 36.5v1q0 22 13.5 35t35.5 13h247q23 0 36.5 -11t13.5 -31v-1q0 -18 -12 -36q-87 -133 -129 -234q-16 -38 -55 -38h-24q-19 0 -31 10.5t-12 27.5q0 9 5 21q40 94 106 193zM206 61l464 656q19 25 50 25h36q38 0 38 -31q0 -14 -11 -30
l-464 -656q-19 -25 -50 -25h-36q-38 0 -38 31q0 14 11 30zM787 -10q-85 0 -138.5 30t-53.5 81q0 56 58 84q-39 34 -39 73q0 44 46.5 73.5t126.5 29.5t126.5 -30t46.5 -74q0 -39 -41 -71q59 -28 59 -84q0 -52 -53 -82t-138 -30zM786 219q28 0 45.5 8.5t17.5 23.5t-17.5 23.5
t-45.5 8.5t-45 -8.5t-17 -23.5t17 -23.5t45 -8.5zM707 106q0 -36 79 -36q37 0 59 9.5t22 26.5t-22.5 27t-58.5 10t-57.5 -10t-21.5 -27z" />
    <glyph glyph-name="uni2190" unicode="&#x2190;" horiz-adv-x="1110" 
d="M260 372q0 18 14 33l234 253q15 16 36 16q17 0 31 -11q41 -34 41 -67q0 -34 -35 -69l-94 -85h318q22 0 35.5 -13.5t13.5 -35.5v-42q0 -22 -13.5 -35.5t-35.5 -13.5h-318l94 -85q35 -35 35 -69q0 -33 -41 -67q-14 -11 -31 -11q-21 0 -36 16l-234 253q-14 15 -14 33z" />
    <glyph glyph-name="uni2191" unicode="&#x2191;" horiz-adv-x="1110" 
d="M556 666q18 0 33 -14l253 -234q16 -15 16 -36q0 -17 -11 -31q-34 -41 -67 -41q-34 0 -69 35l-85 94v-318q0 -22 -13.5 -35.5t-35.5 -13.5h-42q-22 0 -35.5 13.5t-13.5 35.5v318l-85 -94q-35 -35 -69 -35q-33 0 -67 41q-11 14 -11 31q0 21 16 36l253 234q15 14 33 14z" />
    <glyph glyph-name="uni2192" unicode="&#x2192;" horiz-adv-x="1110" 
d="M850 372q0 -18 -14 -33l-234 -253q-15 -16 -36 -16q-17 0 -31 11q-41 34 -41 67q0 34 35 69l94 85h-318q-22 0 -35.5 13.5t-13.5 35.5v42q0 22 13.5 35.5t35.5 13.5h318l-94 85q-35 35 -35 69q0 33 41 67q14 11 31 11q21 0 36 -16l234 -253q14 -15 14 -33z" />
    <glyph glyph-name="uni2193" unicode="&#x2193;" horiz-adv-x="1110" 
d="M556 77q-18 0 -33 14l-253 234q-16 15 -16 36q0 17 11 31q34 41 67 41q34 0 69 -35l85 -94v318q0 22 13.5 35.5t35.5 13.5h42q22 0 35.5 -13.5t13.5 -35.5v-318l85 94q35 35 69 35q33 0 67 -41q11 -14 11 -31q0 -21 -16 -36l-253 -234q-15 -14 -33 -14z" />
    <glyph glyph-name="uni2196" unicode="&#x2196;" horiz-adv-x="1110" 
d="M718 130q-20 0 -35 15l-225 225l6 -126q4 -94 -86 -94q-26 0 -42 16t-16 37l14 344q0 19 12.5 32.5t33.5 14.5l340 13q24 2 40.5 -13.5t16.5 -44.5q0 -42 -26 -65t-67 -21l-127 6l225 -225q15 -15 15 -34q0 -20 -15 -35l-30 -30q-15 -15 -34 -15z" />
    <glyph glyph-name="uni2197" unicode="&#x2197;" horiz-adv-x="1110" 
d="M392 130q-19 0 -34 15l-30 30q-15 15 -15 35q0 19 15 34l225 225l-127 -6q-41 -2 -67 21t-26 65q0 29 16.5 44.5t40.5 13.5l340 -13q21 -1 33.5 -14.5t12.5 -32.5l14 -344q0 -21 -16 -37t-42 -16q-90 0 -86 94l6 126l-225 -225q-15 -15 -35 -15z" />
    <glyph glyph-name="uni2198" unicode="&#x2198;" horiz-adv-x="1110" 
d="M730 148l-340 -13q-24 -2 -40.5 13.5t-16.5 44.5q0 42 26 65t67 21l127 -6l-225 225q-15 15 -15 34q0 20 15 35l30 30q15 15 34 15q20 0 35 -15l225 -225l-6 126q-4 94 86 94q26 0 42 -16t16 -37l-14 -344q0 -19 -12.5 -32.5t-33.5 -14.5z" />
    <glyph glyph-name="uni2199" unicode="&#x2199;" horiz-adv-x="1110" 
d="M718 612q19 0 34 -15l30 -30q15 -15 15 -35q0 -19 -15 -34l-225 -225l127 6q41 2 67 -21t26 -65q0 -29 -16.5 -44.5t-40.5 -13.5l-340 13q-21 1 -33.5 14.5t-12.5 32.5l-14 344q0 21 16 37t42 16q90 0 86 -94l-6 -126l225 225q15 15 35 15z" />
    <glyph glyph-name="partialdiff" unicode="&#x2202;" horiz-adv-x="777" 
d="M354 813q149 0 243.5 -109.5t94.5 -320.5q0 -192 -82.5 -294.5t-234.5 -102.5q-133 0 -218.5 72.5t-85.5 188.5q0 112 80 184.5t198 72.5q96 0 171 -52q-21 220 -169 220q-77 0 -151 -49q-20 -14 -36 -14q-19 0 -34 15l-10 10q-23 23 -23 55t27 56q29 26 94.5 47
t135.5 21zM377 120q70 0 104 49.5t41 142.5q-74 58 -139 58q-61 0 -99.5 -34.5t-38.5 -92.5q0 -56 36.5 -89.5t95.5 -33.5z" />
    <glyph glyph-name="Delta" unicode="&#x2206;" horiz-adv-x="928" 
d="M69 0q-21 0 -33 12t-12 30q0 12 8 26l378 642q11 19 16 26.5t15 14t23 6.5t23.5 -7.5t15 -14t15.5 -25.5l378 -642q8 -14 8 -26q0 -18 -12 -30t-33 -12h-790zM464 492l-198 -346h396z" />
    <glyph glyph-name="product" unicode="&#x220f;" horiz-adv-x="1016" 
d="M771 0q-22 0 -35.5 13.5t-13.5 35.5v543h-428v-543q0 -23 -13 -36t-36 -13h-71q-22 0 -35.5 13.5t-13.5 35.5v644q0 22 13.5 35.5t35.5 13.5h668q22 0 35.5 -13.5t13.5 -35.5v-644q0 -23 -13.5 -36t-35.5 -13h-71z" />
    <glyph glyph-name="summation" unicode="&#x2211;" horiz-adv-x="899" 
d="M569 378v-14q0 -39 -32 -63l-200 -151h438q23 0 36 -13t13 -36v-52q0 -22 -13.5 -35.5t-35.5 -13.5h-651q-22 0 -35.5 13.5t-13.5 35.5v52q0 23 22 43l297 227l-297 227q-22 20 -22 43v52q0 22 13.5 35.5t35.5 13.5h651q22 0 35.5 -13.5t13.5 -35.5v-52q0 -23 -13 -36
t-36 -13h-438l200 -151q32 -24 32 -63z" />
    <glyph glyph-name="minus" unicode="&#x2212;" horiz-adv-x="836" 
d="M687 267h-538q-23 0 -36 13.5t-13 35.5v52q0 22 13.5 35.5t35.5 13.5h538q22 0 35.5 -13.5t13.5 -35.5v-52q0 -22 -13 -35.5t-36 -13.5z" />
    <glyph glyph-name="radical" unicode="&#x221a;" horiz-adv-x="962" 
d="M469 0h-92q-40 0 -55 30l-217 422q-6 11 -6 25q0 18 11.5 30t32.5 12h79q40 0 55 -30l146 -311l261 534q15 30 55 30h79q21 0 32.5 -12t11.5 -30q0 -14 -6 -25l-332 -645q-15 -30 -55 -30z" />
    <glyph glyph-name="infinity" unicode="&#x221e;" horiz-adv-x="1031" 
d="M100 312q0 98 69 163.5t169 65.5q110 0 177 -78q65 78 175 78q103 0 172 -65t69 -164q0 -98 -69 -163t-171 -65q-113 0 -176 77q-67 -77 -176 -77q-102 0 -170.5 65t-68.5 163zM240 312q0 -42 30 -72t72 -30q43 0 73 30t30 72q0 43 -31 73t-72 30q-42 0 -72 -30t-30 -73z
M586 312q0 -44 29.5 -73t71.5 -29q43 0 73.5 30t30.5 72q0 43 -30.5 73t-72.5 30q-43 0 -72.5 -30t-29.5 -73z" />
    <glyph glyph-name="integral" unicode="&#x222b;" horiz-adv-x="726" 
d="M445 617v-608q0 -86 -50 -140t-142 -54q-82 0 -126 38q-27 24 -27 56t23 55l6 6q17 17 34 17q15 0 35 -16q20 -15 41 -15q18 0 30 14t12 41v608q0 86 50 140t142 54q82 0 126 -38q27 -24 27 -56t-23 -55l-6 -6q-17 -17 -34 -17q-15 0 -35 16q-20 15 -41 15q-18 0 -30 -14
t-12 -41z" />
    <glyph glyph-name="approxequal" unicode="&#x2248;" horiz-adv-x="769" 
d="M255 535q46 0 124.5 -25.5t108.5 -25.5q39 0 71 34q17 17 37 17q18 0 35 -15l16 -14q22 -19 22 -46q0 -24 -16 -46q-19 -26 -55.5 -44t-83.5 -18q-46 0 -124.5 25.5t-108.5 25.5q-39 0 -71 -34q-17 -17 -37 -17q-18 0 -35 15l-16 14q-22 19 -22 46q0 24 16 46
q19 26 55.5 44t83.5 18zM255 317q46 0 124.5 -25.5t108.5 -25.5q39 0 71 34q17 17 37 17q18 0 35 -15l16 -14q22 -19 22 -46q0 -24 -16 -46q-19 -26 -55.5 -44t-83.5 -18q-46 0 -124.5 25.5t-108.5 25.5q-39 0 -71 -34q-17 -17 -37 -17q-18 0 -35 15l-16 14q-22 19 -22 46
q0 24 16 46q19 26 55.5 44t83.5 18z" />
    <glyph glyph-name="notequal" unicode="&#x2260;" horiz-adv-x="836" 
d="M687 122h-289l-48 -92q-15 -30 -55 -30h-61q-22 0 -34 10.5t-12 27.5q0 16 8 30l28 54h-75q-23 0 -36 13t-13 36v52q0 22 13.5 35.5t35.5 13.5h153l50 96h-203q-23 0 -36 13t-13 36v52q0 22 13.5 35.5t35.5 13.5h281l48 93q15 30 55 30h61q22 0 34 -10.5t12 -27.5
q0 -16 -8 -30l-29 -55h84q22 0 35.5 -13.5t13.5 -35.5v-52q0 -23 -13 -36t-36 -13h-161l-50 -96h211q22 0 35.5 -13.5t13.5 -35.5v-52q0 -23 -13 -36t-36 -13z" />
    <glyph glyph-name="lessequal" unicode="&#x2264;" horiz-adv-x="836" 
d="M687 -150h-538q-23 0 -36 13t-13 36v52q0 22 13.5 35.5t35.5 13.5h538q22 0 35.5 -13.5t13.5 -35.5v-52q0 -23 -13 -36t-36 -13zM169 423q0 17 12 30l244 264q22 25 50 25h97q17 0 28 -8.5t11 -23.5t-13 -29l-237 -258l237 -257q13 -14 13 -29t-11 -23.5t-28 -8.5h-97
q-28 0 -50 25l-244 264q-12 14 -12 29z" />
    <glyph glyph-name="greaterequal" unicode="&#x2265;" horiz-adv-x="836" 
d="M687 -150h-538q-23 0 -36 13t-13 36v52q0 22 13.5 35.5t35.5 13.5h538q22 0 35.5 -13.5t13.5 -35.5v-52q0 -23 -13 -36t-36 -13zM667 423q0 -15 -12 -29l-244 -264q-22 -25 -50 -25h-97q-17 0 -28 8.5t-11 23.5t13 29l237 257l-237 258q-13 14 -13 29t11 23.5t28 8.5h97
q28 0 50 -25l244 -264q12 -13 12 -30z" />
    <glyph glyph-name="lozenge" unicode="&#x25ca;" horiz-adv-x="975" 
d="M522 2q-16 -16 -35 -16q-17 0 -35 16l-337 337q-15 15 -15 34q0 20 15 35l337 338q14 15 35 15t35 -15l337 -338q16 -16 16 -35q0 -18 -16 -34zM305 374l182 -182l182 182l-182 181z" />
    <glyph glyph-name="fi" unicode="&#xfb01;" horiz-adv-x="932" 
d="M443 393h-129v-344q0 -22 -13.5 -35.5t-35.5 -13.5h-66q-23 0 -36 13t-13 36v344h-66q-22 0 -35.5 13.5t-13.5 35.5v27q0 23 13.5 36.5t35.5 13.5h66v100q0 86 50 140t142 54q82 0 126 -38q27 -24 27 -56t-23 -55l-6 -6q-17 -17 -34 -17q-15 0 -35 16q-20 15 -41 15
q-18 0 -30 -14t-12 -41v-98h129q23 0 36 -13.5t13 -36.5v-27q0 -22 -13 -35.5t-36 -13.5zM692 0q-22 0 -35.5 13.5t-13.5 35.5v420q0 23 13.5 36.5t35.5 13.5h66q23 0 36 -13.5t13 -36.5v-420q0 -23 -13.5 -36t-35.5 -13h-66zM769 609h-88q-23 0 -36 13.5t-13 35.5v35
q0 22 13.5 35.5t35.5 13.5h88q22 0 35.5 -13.5t13.5 -35.5v-35q0 -22 -13 -35.5t-36 -13.5z" />
    <glyph glyph-name="fl" unicode="&#xfb02;" horiz-adv-x="932" 
d="M443 393h-129v-344q0 -22 -13.5 -35.5t-35.5 -13.5h-66q-23 0 -36 13t-13 36v344h-66q-22 0 -35.5 13.5t-13.5 35.5v27q0 23 13.5 36.5t35.5 13.5h66v100q0 86 50 140t142 54q82 0 126 -38q27 -24 27 -56t-23 -55l-6 -6q-17 -17 -34 -17q-15 0 -35 16q-20 15 -41 15
q-18 0 -30 -14t-12 -41v-98h129q23 0 36 -13.5t13 -36.5v-27q0 -22 -13 -35.5t-36 -13.5zM692 0q-22 0 -35.5 13.5t-13.5 35.5v701q0 22 13.5 35.5t35.5 13.5h66q22 0 35.5 -13.5t13.5 -35.5v-701q0 -23 -13.5 -36t-35.5 -13h-66z" />
    <glyph glyph-name="hyphen.case" horiz-adv-x="594" 
d="M435 288h-276q-23 0 -36 13t-13 36v52q0 22 13.5 35.5t35.5 13.5h276q22 0 35.5 -13.5t13.5 -35.5v-52q0 -23 -13 -36t-36 -13z" />
    <glyph glyph-name="uni00AD.case" horiz-adv-x="594" 
d="M435 288h-276q-23 0 -36 13t-13 36v52q0 22 13.5 35.5t35.5 13.5h276q22 0 35.5 -13.5t13.5 -35.5v-52q0 -23 -13 -36t-36 -13z" />
    <glyph glyph-name="endash.case" horiz-adv-x="754" 
d="M605 278h-456q-23 0 -36 13t-13 36v52q0 22 13.5 35.5t35.5 13.5h456q22 0 35.5 -13.5t13.5 -35.5v-52q0 -23 -13 -36t-36 -13z" />
    <glyph glyph-name="emdash.case" horiz-adv-x="1014" 
d="M865 278h-716q-23 0 -36 13t-13 36v52q0 22 13.5 35.5t35.5 13.5h716q22 0 35.5 -13.5t13.5 -35.5v-52q0 -23 -13 -36t-36 -13z" />
    <glyph glyph-name="parenleft.case" horiz-adv-x="543" 
d="M264 370q0 -197 129 -321q50 -49 50 -94v-33q0 -51 -52 -51q-36 0 -108 59q-91 74 -137 193t-46 247t46 247t137 193q72 59 108 59q52 0 52 -51v-33q0 -45 -50 -94q-129 -124 -129 -321z" />
    <glyph glyph-name="parenright.case" horiz-adv-x="543" 
d="M279 370q0 197 -129 321q-50 49 -50 94v33q0 51 52 51q36 0 108 -59q91 -74 137 -193t46 -247t-46 -247t-137 -193q-72 -59 -108 -59q-52 0 -52 51v33q0 45 50 94q129 124 129 321z" />
    <glyph glyph-name="bracketleft.case" horiz-adv-x="528" 
d="M149 -122q-22 0 -35.5 13.5t-13.5 35.5v872q0 22 13.5 35.5t35.5 13.5h230q22 0 35.5 -13.5t13.5 -35.5v-52q0 -23 -13 -36t-36 -13h-115v-670h115q22 0 35.5 -13.5t13.5 -35.5v-52q0 -23 -13 -36t-36 -13h-230z" />
    <glyph glyph-name="bracketright.case" horiz-adv-x="528" 
d="M379 -122h-230q-23 0 -36 13t-13 36v52q0 22 13.5 35.5t35.5 13.5h115v670h-115q-23 0 -36 13t-13 36v52q0 22 13.5 35.5t35.5 13.5h230q22 0 35.5 -13.5t13.5 -35.5v-872q0 -22 -13.5 -35.5t-35.5 -13.5z" />
    <glyph glyph-name="braceleft.case" horiz-adv-x="672" 
d="M100 337v68q0 21 13.5 34t35.5 15q37 2 54 26t17 78q0 7 -1 40t-1 62q0 96 56.5 153t165.5 57q59 0 92 -13q40 -15 40 -63v-19q0 -48 -48 -48q-10 0 -34 4.5t-38 4.5q-74 0 -74 -100q0 -11 1.5 -47.5t1.5 -51.5q0 -62 -23 -102.5t-83 -63.5q60 -23 83 -63.5t23 -102.5
q0 -15 -1.5 -51.5t-1.5 -47.5q0 -100 74 -100q14 0 38 4.5t34 4.5q48 0 48 -48v-19q0 -48 -40 -63q-33 -13 -92 -13q-109 0 -165.5 57t-56.5 153q0 29 1 62t1 40q0 54 -17 78t-54 26q-22 2 -35.5 15t-13.5 34z" />
    <glyph glyph-name="braceright.case" horiz-adv-x="672" 
d="M572 405v-68q0 -21 -13.5 -34t-35.5 -15q-37 -2 -54 -26t-17 -78q0 -7 1 -40t1 -62q0 -96 -56.5 -153t-165.5 -57q-59 0 -92 13q-40 15 -40 63v19q0 48 48 48q10 0 34 -4.5t38 -4.5q74 0 74 100q0 11 -1.5 47.5t-1.5 51.5q0 62 23 102.5t83 63.5q-60 23 -83 63.5
t-23 102.5q0 15 1.5 51.5t1.5 47.5q0 100 -74 100q-14 0 -38 -4.5t-34 -4.5q-48 0 -48 48v19q0 48 40 63q33 13 92 13q109 0 165.5 -57t56.5 -153q0 -29 -1 -62t-1 -40q0 -54 17 -78t54 -26q22 -2 35.5 -15t13.5 -34z" />
    <glyph glyph-name="slash.case" horiz-adv-x="631" 
d="M625 781l-457 -873q-15 -30 -55 -30h-69q-21 0 -32.5 12t-11.5 30q0 14 6 25l457 873q15 30 55 30h69q21 0 32.5 -12t11.5 -30q0 -13 -6 -25z" />
    <glyph glyph-name="bar.case" horiz-adv-x="364" 
d="M149 -122q-22 0 -35.5 13.5t-13.5 35.5v872q0 22 13.5 35.5t35.5 13.5h66q22 0 35.5 -13.5t13.5 -35.5v-872q0 -23 -13 -36t-36 -13h-66z" />
    <glyph glyph-name="backslash.case" horiz-adv-x="631" 
d="M463 -92l-457 873q-6 12 -6 25q0 18 11.5 30t32.5 12h69q40 0 55 -30l457 -873q6 -11 6 -25q0 -18 -11.5 -30t-32.5 -12h-69q-40 0 -55 30z" />
    <glyph glyph-name="guilsinglleft.case" horiz-adv-x="521" 
d="M100 362q0 16 12 30l148 167q22 25 50 25h72q17 0 28 -8.5t11 -23.5t-13 -29l-141 -161l141 -162q13 -14 13 -29t-11 -23.5t-28 -8.5h-72q-28 0 -50 25l-148 167q-12 13 -12 31z" />
    <glyph glyph-name="guilsinglright.case" horiz-adv-x="521" 
d="M421 362q0 -18 -12 -31l-148 -167q-22 -25 -50 -25h-72q-17 0 -28 8.5t-11 23.5t13 29l141 162l-141 161q-13 14 -13 29t11 23.5t28 8.5h72q28 0 50 -25l148 -167q12 -14 12 -30z" />
    <glyph glyph-name="guillemotleft.case" horiz-adv-x="833" 
d="M100 362q0 16 12 30l148 167q22 25 50 25h72q17 0 28 -8.5t11 -23.5t-13 -29l-141 -161l141 -162q13 -14 13 -29t-11 -23.5t-28 -8.5h-72q-28 0 -50 25l-148 167q-12 13 -12 31zM412 362q0 16 12 30l148 167q22 25 50 25h72q17 0 28 -8.5t11 -23.5t-13 -29l-141 -161
l141 -162q13 -14 13 -29t-11 -23.5t-28 -8.5h-72q-28 0 -50 25l-148 167q-12 13 -12 31z" />
    <glyph glyph-name="guillemotright.case" horiz-adv-x="833" 
d="M421 362q0 -18 -12 -31l-148 -167q-22 -25 -50 -25h-72q-17 0 -28 8.5t-11 23.5t13 29l141 162l-141 161q-13 14 -13 29t11 23.5t28 8.5h72q28 0 50 -25l148 -167q12 -14 12 -30zM733 362q0 -18 -12 -31l-148 -167q-22 -25 -50 -25h-72q-17 0 -28 8.5t-11 23.5t13 29
l141 162l-141 161q-13 14 -13 29t11 23.5t28 8.5h72q28 0 50 -25l148 -167q12 -14 12 -30z" />
    <glyph glyph-name="exclamdown.case" horiz-adv-x="399" 
d="M185 461h28q44 0 49 -49l36 -363q2 -22 -10.5 -35.5t-35.5 -13.5h-105q-23 0 -35.5 13.5t-10.5 35.5l35 363q5 49 49 49zM153 742h94q23 0 36 -13t13 -36v-52q0 -22 -13.5 -35.5t-35.5 -13.5h-94q-22 0 -35.5 13.5t-13.5 35.5v52q0 23 13 36t36 13z" />
    <glyph glyph-name="questiondown.case" horiz-adv-x="894" 
d="M527 742q22 0 35.5 -13.5t13.5 -35.5v-52q0 -22 -13.5 -35.5t-35.5 -13.5h-94q-22 0 -35.5 13.5t-13.5 35.5v52q0 23 13 36t36 13h94zM406 140q153 0 257 72q24 17 43 17q17 0 33 -13l15 -13q40 -35 40 -66q0 -26 -24 -46q-60 -50 -158 -77.5t-198 -27.5
q-137 0 -225.5 52t-88.5 152q0 67 44.5 110.5t133.5 72.5l85 27q33 10 33 43v24q0 23 13 36t36 13h71q22 0 35.5 -13.5t13.5 -35.5v-72q0 -77 -78 -102l-120 -39q-28 -9 -39 -13t-27 -11.5t-21.5 -16t-5.5 -19.5q0 -54 132 -54z" />
    <glyph glyph-name="zero.zero" horiz-adv-x="987" 
d="M524 454l52 -52q15 -15 15 -31q0 -15 -15 -33l-52 -50q-16 -14 -31 -14t-31 14l-52 50q-15 18 -15 33q0 16 15 31l52 52q15 15 31 15q15 0 31 -15zM80 371q0 160 120.5 272.5t292.5 112.5t293 -112.5t121 -272.5t-121 -272.5t-293 -112.5t-292.5 112.5t-120.5 272.5z
M256 371q0 -97 67.5 -163.5t169.5 -66.5q103 0 170.5 66.5t67.5 163.5t-67.5 163.5t-170.5 66.5q-102 0 -169.5 -66.5t-67.5 -163.5z" />
    <glyph glyph-name="zero.tnum" 
d="M62 371q0 160 120.5 272.5t292.5 112.5t293 -112.5t121 -272.5t-121 -272.5t-293 -112.5t-292.5 112.5t-120.5 272.5zM237 371q0 -97 67.5 -163.5t170.5 -66.5t171 66.5t68 163.5t-68 163.5t-171 66.5t-170.5 -66.5t-67.5 -163.5z" />
    <glyph glyph-name="one.tnum" 
d="M819 0h-643q-22 0 -35.5 13t-13.5 36v52q0 22 13.5 35.5t35.5 13.5h282v392q-57 -41 -122 -68.5t-111 -27.5q-34 0 -55.5 20t-21.5 55v23q0 21 15.5 36.5t39.5 21.5q104 28 229 113q39 27 84 27h62q22 0 35.5 -14.5t13.5 -37.5v-540h192q22 0 35.5 -13.5t13.5 -35.5v-52
q0 -23 -13 -36t-36 -13z" />
    <glyph glyph-name="two.tnum" 
d="M790 0h-622q-22 0 -35.5 13t-13.5 36q0 81 28.5 144.5t83 107.5t121 73t154.5 50q151 36 151 102q0 36 -37 56.5t-93 20.5q-62 0 -132 -24t-116 -59q-25 -19 -44 -19q-17 0 -33 13l-20 16q-40 32 -40 66q0 26 24 48q51 48 152 80.5t207 32.5q148 0 227.5 -65.5
t79.5 -168.5q0 -91 -64 -145.5t-196 -86.5q-111 -27 -166.5 -58.5t-80.5 -82.5h465q22 0 35.5 -13.5t13.5 -35.5v-52q0 -23 -13.5 -36t-35.5 -13z" />
    <glyph glyph-name="three.tnum" 
d="M504 -14q-116 0 -223 31t-158 81q-23 23 -23 48q0 33 40 66l20 16q16 13 32 13q19 0 45 -19q114 -83 263 -83q81 0 131 25.5t50 69.5q0 37 -38 51.5t-115 14.5h-162q-22 0 -35.5 13t-13.5 36v50q0 22 13.5 35.5t35.5 13.5h159q66 0 99 19.5t33 53.5q0 39 -40 60.5
t-103 21.5q-66 0 -135 -23t-119 -60q-26 -19 -45 -19q-16 0 -32 13l-20 16q-40 33 -40 67q0 25 23 47q45 43 146 77.5t217 34.5q148 0 235.5 -59t87.5 -153q0 -53 -27.5 -96t-75.5 -62q126 -36 126 -162q0 -105 -91.5 -171.5t-259.5 -66.5z" />
    <glyph glyph-name="four.tnum" 
d="M559 300v230l-265 -230h265zM728 693v-393h116q22 0 35.5 -13.5t13.5 -35.5v-48q0 -23 -13.5 -36t-35.5 -13h-116v-105q0 -23 -13 -36t-36 -13h-71q-22 0 -35.5 13t-13.5 36v105h-441q-22 0 -35.5 13t-13.5 36v59q0 29 24 51l458 406q25 23 57 23h71q22 0 35.5 -13.5
t13.5 -35.5z" />
    <glyph glyph-name="five.tnum" 
d="M256 224q116 -83 255 -83q81 0 126.5 30t45.5 80t-45.5 77.5t-124.5 27.5q-117 0 -208 -42q-37 -16 -56 -16q-27 0 -55 20l-24 18q-27 21 -27 52q0 9 3 21l83 285q15 48 69 48h468q22 0 35.5 -13.5t13.5 -35.5v-55q0 -22 -13.5 -35.5t-35.5 -13.5h-401l-45 -137
q110 47 232 47q136 0 221 -71t85 -175q0 -108 -92 -187.5t-258 -79.5q-104 0 -208 31.5t-158 82.5q-24 22 -24 48q0 33 40 65l20 16q17 14 33 14q19 0 45 -19z" />
    <glyph glyph-name="six.tnum" 
d="M512 599q-92 0 -159 -53.5t-80 -139.5q125 78 276 78q133 0 223.5 -62t90.5 -171q0 -115 -98.5 -190t-249.5 -75q-184 0 -302 111t-118 273q0 163 117.5 274.5t298.5 111.5q95 0 178.5 -30t120.5 -67q22 -22 22 -46q0 -37 -39 -68l-20 -16q-16 -13 -33 -13q-20 0 -44 19
q-79 64 -184 64zM528 335q-132 0 -238 -67q28 -61 87 -97t140 -36q76 0 123.5 31t47.5 77q0 43 -43 67.5t-117 24.5z" />
    <glyph glyph-name="seven.tnum" 
d="M860 693v-27q0 -36 -22 -67l-113 -154.5t-112.5 -173t-123.5 -222.5q-24 -49 -79 -49h-60q-24 0 -37 12t-13 32q0 16 9 35q89 187 327 513h-487q-23 0 -36 13t-13 36v52q0 22 13.5 35.5t35.5 13.5h662q22 0 35.5 -13.5t13.5 -35.5z" />
    <glyph glyph-name="eight.tnum" 
d="M488 -14q-170 0 -274 59.5t-104 167.5q0 122 123 176q-84 53 -84 151q0 97 90.5 156.5t248.5 59.5t248.5 -59.5t90.5 -156.5q0 -98 -84 -151q123 -54 123 -176q0 -108 -104 -167.5t-274 -59.5zM488 451q72 0 118.5 22.5t46.5 61.5t-46.5 61.5t-118.5 22.5t-118.5 -22.5
t-46.5 -61.5t46.5 -61.5t118.5 -22.5zM488 126q86 0 143.5 25.5t57.5 68.5q0 44 -57.5 69.5t-143.5 25.5t-143.5 -25.5t-57.5 -69.5q0 -43 57.5 -68.5t143.5 -25.5z" />
    <glyph glyph-name="nine.tnum" 
d="M446 143q91 0 158 53.5t81 139.5q-124 -78 -276 -78q-133 0 -223.5 62t-90.5 171q0 115 98.5 190t249.5 75q184 0 302 -111t118 -273q0 -163 -117.5 -274.5t-298.5 -111.5q-95 0 -178.5 30t-120.5 67q-22 22 -22 46q0 37 39 68l20 16q16 13 33 13q20 0 44 -19
q79 -64 184 -64zM430 407q133 0 237 66q-28 62 -87 98t-139 36q-76 0 -123.5 -31t-47.5 -77q0 -43 43 -67.5t117 -24.5z" />
    <glyph glyph-name="zero.sups" horiz-adv-x="539" 
d="M70 570q0 77 58 131.5t141 54.5t141.5 -54.5t58.5 -131.5q0 -76 -58.5 -130.5t-141.5 -54.5q-82 0 -140.5 54t-58.5 131zM179 570q0 -37 25.5 -62t64.5 -25t64.5 25t25.5 62t-25.5 62.5t-64.5 25.5t-64.5 -25.5t-25.5 -62.5z" />
    <glyph glyph-name="one.sups" horiz-adv-x="490" 
d="M119 395q-22 0 -35.5 13.5t-13.5 35.5v1q0 22 13.5 35t35.5 13h90v121q-54 -30 -81 -30q-21 0 -35 13.5t-14 35.5v9q0 31 33 43q54 20 93 44q26 17 50 17h15q22 0 35.5 -13t13.5 -35v-205h52q22 0 35.5 -13t13.5 -35v-1q0 -22 -13 -35.5t-36 -13.5h-252z" />
    <glyph glyph-name="two.sups" horiz-adv-x="477" 
d="M254 756q70 0 110 -30t40 -79q0 -44 -33 -72.5t-100 -48.5q-47 -13 -64 -32h151q23 0 36 -13t13 -35v-3q0 -22 -13 -35t-36 -13h-249q-39 0 -39 45q0 57 46 100.5t124 66.5q47 14 47 34q0 22 -36 22q-38 0 -86 -25q-18 -10 -34 -10q-21 0 -37 15q-6 7 -11 14q-6 11 -6 21
q0 19 21 35q56 43 156 43z" />
    <glyph glyph-name="three.sups" horiz-adv-x="491" 
d="M253 385q-109 0 -163 46q-20 17 -20 37q0 10 4 17q4 8 14 18q13 13 31 13t36 -11q46 -27 97 -27q59 0 59 33q0 22 -43 22h-70q-38 0 -38 37v3q0 37 38 37h69q35 0 35 25q0 14 -13.5 22.5t-35.5 8.5q-42 0 -90 -25q-24 -13 -36 -13q-17 0 -32 15q-9 9 -13 17t-4 17
q0 20 21 36q56 43 155 43q74 0 116.5 -32.5t42.5 -79.5q0 -49 -35 -71q43 -26 43 -73q0 -52 -43 -83.5t-125 -31.5z" />
    <glyph glyph-name="four.sups" horiz-adv-x="517" 
d="M260 444v16h-161q-23 0 -36 13.5t-13 36.5v10q0 31 25 52l176 153q24 21 54 21h32q18 0 29 -11t11 -29v-148h21q22 0 35 -12.5t14 -33.5v-3q0 -23 -13.5 -36t-35.5 -13h-21v-16q0 -23 -13.5 -36t-36.5 -13h-18q-22 0 -35.5 13.5t-13.5 35.5zM273 548v86l-97 -86h97z" />
    <glyph glyph-name="five.sups" horiz-adv-x="502" 
d="M159 746h212q22 0 34 -11t12 -30v-6q0 -20 -12 -31.5t-34 -11.5h-170l-12 -43q41 12 91 12q67 0 109.5 -31t42.5 -81q0 -54 -48.5 -91t-133.5 -37q-47 0 -92 11.5t-68 29.5q-20 15 -20 36q0 18 14 31l9 8q14 12 29 12q10 0 30 -12q44 -26 99 -26q30 0 48 10.5t18 27.5
t-18 27.5t-50 10.5q-34 0 -85 -12q-30 -7 -34 -7q-20 0 -33 13l-4 4q-17 17 -17 33q0 7 3 16l34 120q6 28 46 28z" />
    <glyph glyph-name="six.sups" horiz-adv-x="529" 
d="M285 756q81 0 138 -40q22 -17 22 -39t-20 -35l-3 -2q-17 -12 -28 -12q-14 0 -30 11q-41 28 -86 28q-33 0 -60.5 -20t-34.5 -59q53 32 122 32q67 0 110.5 -29.5t43.5 -78.5q0 -55 -50.5 -91t-126.5 -36q-93 0 -152.5 54t-59.5 132t59.5 131.5t155.5 53.5zM288 545
q-45 0 -97 -29q23 -46 88 -46q31 0 48.5 11.5t17.5 28.5q0 16 -15.5 25.5t-41.5 9.5z" />
    <glyph glyph-name="seven.sups" horiz-adv-x="466" 
d="M244 647h-145q-22 0 -35.5 13.5t-13.5 36.5v1q0 22 13.5 35t35.5 13h247q23 0 36.5 -11t13.5 -31v-1q0 -18 -12 -36q-87 -133 -129 -234q-16 -38 -55 -38h-24q-19 0 -31 10.5t-12 27.5q0 9 5 21q40 94 106 193z" />
    <glyph glyph-name="eight.sups" horiz-adv-x="523" 
d="M262 385q-85 0 -138.5 30t-53.5 81q0 56 58 84q-39 34 -39 73q0 44 46.5 73.5t126.5 29.5t126.5 -30t46.5 -74q0 -39 -41 -71q59 -28 59 -84q0 -52 -53 -82t-138 -30zM261 614q28 0 45.5 8.5t17.5 23.5t-17.5 23.5t-45.5 8.5q-27 0 -44.5 -8.5t-17.5 -23.5t17.5 -23.5
t44.5 -8.5zM182 501q0 -36 79 -36q37 0 59 9.5t22 26.5t-22.5 27t-58.5 10t-57.5 -10t-21.5 -27z" />
    <glyph glyph-name="nine.sups" horiz-adv-x="529" 
d="M244 385q-81 0 -138 40q-22 17 -22 39t20 35l3 2q16 12 28 12q13 0 30 -11q41 -28 86 -28q33 0 60.5 20t34.5 59q-53 -32 -122 -32q-67 0 -110.5 29.5t-43.5 78.5q0 55 50.5 91t126.5 36q93 0 152.5 -54t59.5 -132t-59.5 -131.5t-155.5 -53.5zM241 596q45 0 97 29
q-23 46 -88 46q-31 0 -48.5 -11.5t-17.5 -28.5q0 -16 15.5 -25.5t41.5 -9.5z" />
    <glyph glyph-name="parenleft.sups" horiz-adv-x="392" 
d="M100 571q0 71 30.5 136t74.5 100q27 21 50 21q37 0 37 -43q0 -27 -21 -51q-62 -67 -62 -163q0 -94 62 -163q21 -24 21 -51q0 -42 -37 -42q-23 0 -50 20q-42 31 -73.5 97.5t-31.5 138.5z" />
    <glyph glyph-name="parenright.sups" horiz-adv-x="392" 
d="M292 571q0 -72 -31.5 -138.5t-73.5 -97.5q-27 -20 -50 -20q-37 0 -37 42q0 27 21 51q62 69 62 163q0 96 -62 163q-21 24 -21 51q0 43 37 43q23 0 50 -21q44 -35 74.5 -100t30.5 -136z" />
    <glyph glyph-name="zero.subs" horiz-adv-x="539" 
d="M70 175q0 77 58 131.5t141 54.5t141.5 -54.5t58.5 -131.5q0 -76 -58.5 -130.5t-141.5 -54.5q-82 0 -140.5 54t-58.5 131zM179 175q0 -37 25.5 -62t64.5 -25t64.5 25t25.5 62t-25.5 62.5t-64.5 25.5t-64.5 -25.5t-25.5 -62.5z" />
    <glyph glyph-name="one.subs" horiz-adv-x="490" 
d="M119 0q-22 0 -35.5 13.5t-13.5 35.5v1q0 22 13.5 35t35.5 13h90v121q-54 -30 -81 -30q-21 0 -35 13.5t-14 35.5v9q0 31 33 43q54 20 93 44q26 17 50 17h15q22 0 35.5 -13t13.5 -35v-205h52q22 0 35.5 -13t13.5 -35v-1q0 -23 -13 -36t-36 -13h-252z" />
    <glyph glyph-name="two.subs" horiz-adv-x="477" 
d="M254 361q70 0 110 -30t40 -79q0 -44 -33 -72.5t-100 -48.5q-47 -13 -64 -32h151q23 0 36 -13t13 -35v-3q0 -22 -13 -35t-36 -13h-249q-39 0 -39 45q0 57 46 100.5t124 66.5q47 14 47 34q0 22 -36 22q-38 0 -86 -25q-18 -10 -34 -10q-21 0 -37 15q-6 6 -11 14q-6 10 -6 21
q0 19 21 35q56 43 156 43z" />
    <glyph glyph-name="three.subs" horiz-adv-x="491" 
d="M253 -10q-109 0 -163 46q-20 17 -20 37q0 10 4 17q4 8 14 18q13 13 31 13t36 -11q46 -27 97 -27q59 0 59 33q0 22 -43 22h-70q-38 0 -38 37v3q0 37 38 37h69q35 0 35 25q0 14 -13.5 22.5t-35.5 8.5q-42 0 -90 -25q-24 -13 -36 -13q-17 0 -32 15q-9 9 -13 17t-4 17
q0 20 21 36q56 43 155 43q74 0 116.5 -32.5t42.5 -79.5q0 -49 -35 -71q43 -26 43 -73q0 -52 -43 -83.5t-125 -31.5z" />
    <glyph glyph-name="four.subs" horiz-adv-x="517" 
d="M260 49v16h-161q-23 0 -36 13.5t-13 36.5v10q0 31 25 52l176 153q24 21 54 21h32q18 0 29 -11t11 -29v-148h21q22 0 35 -12.5t14 -33.5v-3q0 -22 -13.5 -35.5t-35.5 -13.5h-21v-16q0 -23 -13.5 -36t-36.5 -13h-18q-22 0 -35.5 13.5t-13.5 35.5zM273 153v86l-97 -86h97z
" />
    <glyph glyph-name="five.subs" horiz-adv-x="502" 
d="M159 351h212q22 0 34 -11t12 -30v-6q0 -20 -12 -31.5t-34 -11.5h-170l-12 -43q41 12 91 12q67 0 109.5 -31t42.5 -81q0 -54 -48.5 -91t-133.5 -37q-47 0 -92 11.5t-68 29.5q-20 15 -20 36q0 18 14 31l9 8q14 12 29 12q10 0 30 -12q44 -26 99 -26q30 0 48 10.5t18 27.5
t-18 27.5t-50 10.5q-34 0 -85 -12q-30 -7 -34 -7q-20 0 -33 13l-4 4q-17 17 -17 33q0 7 3 16l34 120q6 28 46 28z" />
    <glyph glyph-name="six.subs" horiz-adv-x="529" 
d="M285 361q81 0 138 -40q22 -17 22 -39t-20 -35l-3 -2q-17 -12 -28 -12q-14 0 -30 11q-41 28 -86 28q-33 0 -60.5 -20t-34.5 -59q53 32 122 32q67 0 110.5 -29.5t43.5 -78.5q0 -55 -50.5 -91t-126.5 -36q-93 0 -152.5 54t-59.5 132t59.5 131.5t155.5 53.5zM288 150
q-45 0 -97 -29q23 -46 88 -46q31 0 48.5 11.5t17.5 28.5q0 16 -15.5 25.5t-41.5 9.5z" />
    <glyph glyph-name="seven.subs" horiz-adv-x="466" 
d="M244 252h-145q-22 0 -35.5 13.5t-13.5 36.5v1q0 22 13.5 35t35.5 13h247q23 0 36.5 -11t13.5 -31v-1q0 -18 -12 -36q-87 -133 -129 -234q-16 -38 -55 -38h-24q-19 0 -31 10.5t-12 27.5q0 9 5 21q40 94 106 193z" />
    <glyph glyph-name="eight.subs" horiz-adv-x="523" 
d="M262 -10q-85 0 -138.5 30t-53.5 81q0 56 58 84q-39 34 -39 73q0 44 46.5 73.5t126.5 29.5t126.5 -30t46.5 -74q0 -39 -41 -71q59 -28 59 -84q0 -52 -53 -82t-138 -30zM261 219q28 0 45.5 8.5t17.5 23.5t-17.5 23.5t-45.5 8.5q-27 0 -44.5 -8.5t-17.5 -23.5t17.5 -23.5
t44.5 -8.5zM182 106q0 -36 79 -36q37 0 59 9.5t22 26.5t-22.5 27t-58.5 10t-57.5 -10t-21.5 -27z" />
    <glyph glyph-name="nine.subs" horiz-adv-x="529" 
d="M244 -10q-81 0 -138 40q-22 17 -22 39t20 35l3 2q17 12 28 12q13 0 30 -11q41 -28 86 -28q33 0 60.5 20t34.5 59q-53 -32 -122 -32q-67 0 -110.5 29.5t-43.5 78.5q0 55 50.5 91t126.5 36q93 0 152.5 -54t59.5 -132t-59.5 -131.5t-155.5 -53.5zM241 201q45 0 97 29
q-23 46 -88 46q-31 0 -48.5 -11.5t-17.5 -28.5q0 -16 15.5 -25.5t41.5 -9.5z" />
    <glyph glyph-name="parenleft.subs" horiz-adv-x="392" 
d="M100 184q0 71 30.5 136t74.5 100q27 21 50 21q37 0 37 -43q0 -27 -21 -51q-62 -67 -62 -163q0 -94 62 -163q21 -24 21 -51q0 -42 -37 -42q-23 0 -50 20q-42 31 -73.5 97.5t-31.5 138.5z" />
    <glyph glyph-name="parenright.subs" horiz-adv-x="374" 
d="M252 184q0 -72 -31.5 -138.5t-73.5 -97.5q-27 -20 -50 -20q-37 0 -37 42q0 27 21 51q62 69 62 163q0 96 -62 163q-21 24 -21 51q0 43 37 43q23 0 50 -21q44 -35 74.5 -100t30.5 -136z" />
    <glyph glyph-name="zero.alt" horiz-adv-x="1110" 
d="M284 370q0 -107 80 -181.5t194 -74.5q115 0 195.5 74.5t80.5 181.5t-80.5 182t-195.5 75q-114 0 -194 -75t-80 -182zM416 370q0 58 40.5 98t101.5 40t102.5 -40.5t41.5 -97.5t-41.5 -97.5t-102.5 -40.5t-101.5 40t-40.5 98zM1010 370q0 -188 -133 -321t-321 -133
q-189 0 -322.5 133t-133.5 321q0 189 133.5 322.5t322.5 133.5q188 0 321 -133.5t133 -322.5z" />
    <glyph glyph-name="one.alt" horiz-adv-x="1110" 
d="M1010 370q0 -188 -133 -321t-321 -133q-189 0 -322.5 133t-133.5 321q0 189 133.5 322.5t322.5 133.5q188 0 321 -133.5t133 -322.5zM652 249v346q0 35 -36 35h-60q-20 0 -36 -13q-30 -24 -83 -50t-84 -33q-30 -7 -30 -43v-12q0 -59 61 -59q52 0 129 51l9 6v-228h-178
q-34 0 -34 -34v-48q0 -34 34 -34h427q34 0 34 34v48q0 34 -34 34h-119z" />
    <glyph glyph-name="two.alt" horiz-adv-x="1110" 
d="M418 464q29 23 77.5 39t87.5 16q30 0 49.5 -10t19.5 -28q0 -36 -90 -57q-118 -26 -187 -85.5t-69 -152.5q0 -30 9 -42t31 -12h408q34 0 34 33v49q0 33 -34 33h-288q15 25 41.5 39.5t95.5 31.5q181 45 181 161q0 68 -54 113.5t-153 45.5q-72 0 -141 -23.5t-99 -53.5
q-17 -16 -17 -37q0 -27 29 -48l20 -15q14 -7 23 -7q13 0 26 10zM1010 370q0 -188 -133 -321t-321 -133q-189 0 -322.5 133t-133.5 321q0 189 133.5 322.5t322.5 133.5q188 0 321 -133.5t133 -322.5z" />
    <glyph glyph-name="three.alt" horiz-adv-x="1110" 
d="M584 432h-110q-16 0 -25 -9.5t-9 -24.5v-49q0 -34 34 -34h112q89 0 89 -33q0 -22 -29.5 -35.5t-79.5 -13.5q-91 0 -171 51q-15 11 -29 11q-10 0 -21 -8l-15 -12q-31 -21 -31 -49q0 -18 17 -35q34 -35 101.5 -55.5t146.5 -20.5q118 0 180 44.5t62 116.5q0 77 -66 107
q51 39 51 102q0 64 -58.5 103.5t-161.5 39.5q-151 0 -238 -77q-19 -15 -19 -38q0 -26 30 -46l14 -11q14 -8 24 -8q14 0 26 11q70 52 165 52q85 0 85 -42q0 -37 -74 -37zM1010 370q0 -188 -133 -321t-321 -133q-189 0 -322.5 133t-133.5 321q0 189 133.5 322.5t322.5 133.5
q188 0 321 -133.5t133 -322.5z" />
    <glyph glyph-name="four.alt" horiz-adv-x="1110" 
d="M566 473v-127h-142zM691 171v65h72q34 0 34 34v48q0 34 -34 34h-72v248q0 34 -34 34h-60q-19 0 -33 -14l-302 -267q-15 -12 -15 -35v-48q0 -34 34 -34h281v-65q0 -16 9 -25t24 -9h62q34 0 34 34zM1010 370q0 -188 -133 -321t-321 -133q-189 0 -322.5 133t-133.5 321
q0 189 133.5 322.5t322.5 133.5q188 0 321 -133.5t133 -322.5z" />
    <glyph glyph-name="five.alt" horiz-adv-x="1110" 
d="M736 619h-321q-30 0 -38 -30l-54 -180q-3 -9 -3 -17q0 -17 16 -31l32 -30q12 -11 25 -11q11 0 25 6q70 29 147 29q48 0 74 -16t26 -44t-27.5 -45t-76.5 -17q-81 0 -158 52q-13 9 -27 9q-12 0 -23 -8l-19 -15q-31 -24 -31 -49q0 -21 18 -36q37 -32 104.5 -52t134.5 -20
q106 0 171.5 49.5t65.5 128.5q0 73 -55 117t-149 44q-72 0 -136 -27l21 77h258q34 0 34 34v48q0 34 -34 34zM1010 370q0 -188 -133 -321t-321 -133q-189 0 -322.5 133t-133.5 321q0 189 133.5 322.5t322.5 133.5q188 0 321 -133.5t133 -322.5z" />
    <glyph glyph-name="six.alt" horiz-adv-x="1110" 
d="M759 564q-24 24 -80 44t-119 20q-119 0 -197 -74t-78 -183t78 -182.5t201 -73.5q102 0 167 50.5t65 128.5q0 75 -59.5 113.5t-147.5 38.5q-85 0 -166 -43q13 49 50.5 77t87.5 28q65 0 117 -41q15 -11 27 -11q11 0 22 8l20 14q29 20 29 50q0 19 -17 36zM564 230
q-96 0 -132 79q61 32 139 32q43 0 68.5 -14t25.5 -38q0 -25 -27.5 -42t-73.5 -17zM1010 370q0 -188 -133 -321t-321 -133q-189 0 -322.5 133t-133.5 321q0 189 133.5 322.5t322.5 133.5q188 0 321 -133.5t133 -322.5z" />
    <glyph glyph-name="seven.alt" horiz-adv-x="1110" 
d="M563 126q100 200 217 361q16 23 16 49v18q0 19 -11 29.5t-30 10.5h-408q-33 0 -33 -34v-48q0 -34 33 -34h275q-134 -188 -198 -335q-4 -9 -4 -18q0 -26 29 -26h73q30 0 41 27zM1010 370q0 -188 -133 -321t-321 -133q-189 0 -322.5 133t-133.5 321q0 189 133.5 322.5
t322.5 133.5q188 0 321 -133.5t133 -322.5z" />
    <glyph glyph-name="eight.alt" horiz-adv-x="1110" 
d="M556 115q113 0 183 43t70 116q0 78 -75 111q51 35 51 95q0 67 -61 107.5t-168 40.5q-106 0 -167 -40.5t-61 -109.5q0 -58 50 -93q-74 -33 -74 -112q0 -73 69.5 -115.5t182.5 -42.5zM556 433q-43 0 -69.5 11t-26.5 32t27 32.5t69 11.5t69.5 -11.5t27.5 -32.5t-27 -32
t-70 -11zM556 225q-52 0 -85.5 13t-33.5 36q0 24 33.5 37.5t85.5 13.5t85.5 -13.5t33.5 -37.5q0 -23 -33.5 -36t-85.5 -13zM1010 370q0 -188 -133 -321t-321 -133q-189 0 -322.5 133t-133.5 321q0 189 133.5 322.5t322.5 133.5q188 0 321 -133.5t133 -322.5z" />
    <glyph glyph-name="nine.alt" horiz-adv-x="1110" 
d="M352 178q24 -24 80 -44t119 -20q119 0 197 74t78 183t-78 182.5t-201 73.5q-102 0 -167 -50.5t-65 -128.5q0 -75 59.5 -113.5t147.5 -38.5q85 0 166 43q-13 -49 -50.5 -77t-87.5 -28q-65 0 -117 41q-15 11 -27 11q-11 0 -22 -8l-20 -14q-29 -20 -29 -50q0 -19 17 -36z
M547 512q96 0 132 -79q-61 -32 -139 -32q-43 0 -68.5 14t-25.5 38q0 25 27.5 42t73.5 17zM101 372q0 188 133 321t321 133q189 0 322.5 -133t133.5 -321q0 -189 -133.5 -322.5t-322.5 -133.5q-188 0 -321 133.5t-133 322.5z" />
    <glyph glyph-name="zero.sups.alt" horiz-adv-x="777" 
d="M100 565q0 120 84 204.5t204 84.5q119 0 204 -85t85 -204q0 -120 -84.5 -204t-204.5 -84t-204 84t-84 204zM210 567q0 -68 52.5 -117t125.5 -49q74 0 126.5 49t52.5 117q0 70 -52.5 118.5t-126.5 48.5t-126 -48.5t-52 -118.5zM307 567q0 33 23 56t58 23q36 0 58.5 -23
t22.5 -56t-22.5 -55.5t-58.5 -22.5q-35 0 -58 22.5t-23 55.5z" />
    <glyph glyph-name="one.sups.alt" horiz-adv-x="777" 
d="M100 565q0 120 84 204.5t204 84.5q119 0 204 -85t85 -204q0 -120 -84.5 -204t-204.5 -84t-204 84t-84 204zM280 416h230q20 0 32.5 12t12.5 33q0 20 -12.5 32t-32.5 12h-47v187q0 20 -12.5 32t-32.5 12h-14q-21 0 -45 -16q-38 -23 -85 -40q-30 -11 -30 -39v-8
q0 -20 13 -32.5t32 -12.5q23 0 73 27v-110h-82q-20 0 -32 -12t-12 -32q0 -21 12 -33t32 -12z" />
    <glyph glyph-name="two.sups.alt" horiz-adv-x="777" 
d="M100 565q0 120 84 204.5t204 84.5q119 0 204 -85t85 -204q0 -120 -84.5 -204t-204.5 -84t-204 84t-84 204zM402 741q-91 0 -141 -39q-19 -14 -19 -31q0 -8 5 -20l10 -12q15 -14 34 -14q13 0 31 9q42 23 78 23q32 0 32 -20q0 -11 -9.5 -17.5t-32.5 -13.5
q-70 -21 -112 -60.5t-42 -91.5q0 -21 8 -30.5t27 -9.5h226q20 0 32 11.5t12 31.5v3q0 20 -12 31.5t-32 11.5h-137q16 17 58 30q61 18 91 44t30 65q0 45 -36.5 72t-100.5 27z" />
    <glyph glyph-name="three.sups.alt" horiz-adv-x="777" 
d="M100 565q0 120 84 204.5t204 84.5q119 0 204 -85t85 -204q0 -120 -84.5 -204t-204.5 -84t-204 84t-84 204zM398 403q74 0 113 29t39 75q0 43 -39 66q32 19 32 64q0 43 -38.5 72t-105.5 29q-90 0 -140 -39q-19 -16 -19 -32q0 -8 4 -16l2 -3q1 -2 4 -5.5t6 -6.5
q12 -13 29 -13q10 0 32 11q42 23 81 23q20 0 32 -7.5t12 -20.5q0 -23 -31 -23h-62q-35 0 -35 -33v-3q0 -33 35 -33h63q39 0 39 -20q0 -30 -54 -30q-47 0 -87 25q-18 10 -33 10q-16 0 -28 -12q-11 -12 -12 -16q-4 -7 -4 -16q0 -18 18 -33q50 -42 147 -42z" />
    <glyph glyph-name="four.sups.alt" horiz-adv-x="777" 
d="M100 565q0 120 84 204.5t204 84.5q119 0 204 -85t85 -204q0 -120 -84.5 -204t-204.5 -84t-204 84t-84 204zM386 469v-14q0 -21 12 -33t32 -12h17q21 0 33.5 12t12.5 33v14h19q20 0 32.5 12.5t12.5 32.5v3q-1 19 -13 30.5t-32 11.5h-19v135q0 16 -10.5 26.5t-26.5 10.5
h-29q-27 0 -50 -19l-160 -140q-23 -19 -23 -48v-9q0 -21 12 -33.5t32 -12.5h148zM398 629v-79h-89z" />
    <glyph glyph-name="five.sups.alt" horiz-adv-x="777" 
d="M100 565q0 120 84 204.5t204 84.5q119 0 204 -85t85 -204q0 -120 -84.5 -204t-204.5 -84t-204 84t-84 204zM499 727h-193q-36 0 -41 -25l-31 -109q-3 -7 -3 -14q0 -15 15 -30l4 -4q12 -12 30 -12q6 0 16.5 2.5l14.5 3.5q42 11 77 11q29 0 45.5 -9.5t16.5 -24.5t-16.5 -25
t-43.5 -10q-50 0 -90 24q-20 11 -27 11q-12 0 -27 -11l-8 -7q-12 -11 -12 -28q0 -20 18 -33q20 -16 61 -26.5t84 -10.5q77 0 121 33.5t44 82.5q0 46 -38.5 74t-99.5 28q-44 0 -82 -11l11 39h154q19 0 30.5 10.5t11.5 28.5v5q0 37 -42 37z" />
    <glyph glyph-name="six.sups.alt" horiz-adv-x="777" 
d="M100 565q0 120 84 204.5t204 84.5q119 0 204 -85t85 -204q0 -120 -84.5 -204t-204.5 -84t-204 84t-84 204zM400 734q-86 0 -139.5 -48t-53.5 -118q0 -71 53.5 -119.5t137.5 -48.5q68 0 113.5 33t45.5 82q0 44 -39 70.5t-100 26.5q-62 0 -109 -29q6 35 30.5 53t54.5 18
q38 0 77 -25q13 -10 27 -10q11 0 25 11l3 1q18 12 18 32t-20 35q-50 36 -124 36zM403 544q23 0 37 -8.5t14 -22.5q0 -16 -15.5 -26t-43.5 -10q-59 0 -79 41q46 26 87 26z" />
    </font>
</defs>
</svg>
