<?xml version="1.0" encoding="utf-8"?>
<!-- Generated by IcoMoon.io -->
<!DOCTYPE svg PUBLIC "-//W3C//DTD SVG 1.1//EN" "http://www.w3.org/Graphics/SVG/1.1/DTD/svg11.dtd">
<svg version="1.1" xmlns="http://www.w3.org/2000/svg" xmlns:xlink="http://www.w3.org/1999/xlink" width="12" height="14" viewBox="0 0 12 14">
<path fill="#f2f2f2" d="M10.023 4.227l-2.773 2.773 2.773 2.773 1.125-1.125q0.227-0.242 0.547-0.109 0.305 0.133 0.305 0.461v3.5q0 0.203-0.148 0.352t-0.352 0.148h-3.5q-0.328 0-0.461-0.312-0.133-0.305 0.109-0.539l1.125-1.125-2.773-2.773-2.773 2.773 1.125 1.125q0.242 0.234 0.109 0.539-0.133 0.312-0.461 0.312h-3.5q-0.203 0-0.352-0.148t-0.148-0.352v-3.5q0-0.328 0.312-0.461 0.305-0.133 0.539 0.109l1.125 1.125 2.773-2.773-2.773-2.773-1.125 1.125q-0.148 0.148-0.352 0.148-0.094 0-0.187-0.039-0.312-0.133-0.312-0.461v-3.5q0-0.203 0.148-0.352t0.352-0.148h3.5q0.328 0 0.461 0.312 0.133 0.305-0.109 0.539l-1.125 1.125 2.773 2.773 2.773-2.773-1.125-1.125q-0.242-0.234-0.109-0.539 0.133-0.312 0.461-0.312h3.5q0.203 0 0.352 0.148t0.148 0.352v3.5q0 0.328-0.305 0.461-0.102 0.039-0.195 0.039-0.203 0-0.352-0.148z"></path>
</svg>
