<?xml version="1.0" encoding="utf-8"?>
<!-- Generated by IcoMoon.io -->
<!DOCTYPE svg PUBLIC "-//W3C//DTD SVG 1.1//EN" "http://www.w3.org/Graphics/SVG/1.1/DTD/svg11.dtd">
<svg version="1.1" xmlns="http://www.w3.org/2000/svg" xmlns:xlink="http://www.w3.org/1999/xlink" width="16" height="14" viewBox="0 0 16 14">
<path fill="#f2f2f2" d="M6.133 7.875h1.617q-0.109 1.234-0.77 1.941t-1.676 0.707q-1.266 0-1.988-0.906t-0.723-2.469q0-1.516 0.727-2.434t1.82-0.918q1.156 0 1.812 0.68t0.758 1.93h-1.586q-0.039-0.5-0.277-0.773t-0.637-0.273q-0.445 0-0.691 0.473t-0.246 1.387q0 0.375 0.039 0.656t0.141 0.543 0.312 0.402 0.516 0.141q0.742 0 0.852-1.086zM11.695 7.875h1.609q-0.109 1.234-0.766 1.941t-1.672 0.707q-1.266 0-1.988-0.906t-0.723-2.469q0-1.516 0.727-2.434t1.82-0.918q1.156 0 1.812 0.68t0.758 1.93h-1.594q-0.031-0.5-0.273-0.773t-0.633-0.273q-0.445 0-0.691 0.473t-0.246 1.387q0 0.375 0.039 0.656t0.141 0.543 0.309 0.402 0.512 0.141q0.383 0 0.598-0.297t0.262-0.789zM14.5 6.945q0-1.617-0.121-2.398t-0.473-1.258q-0.047-0.062-0.105-0.109t-0.168-0.117-0.125-0.086q-0.672-0.492-5.445-0.492-4.883 0-5.547 0.492-0.039 0.031-0.137 0.090t-0.164 0.109-0.113 0.113q-0.352 0.469-0.469 1.246t-0.117 2.41q0 1.625 0.117 2.402t0.469 1.254q0.047 0.062 0.117 0.117t0.16 0.109 0.137 0.094q0.344 0.258 1.871 0.383t3.676 0.125q4.766 0 5.445-0.508 0.039-0.031 0.133-0.086t0.16-0.109 0.105-0.125q0.359-0.469 0.477-1.242t0.117-2.414zM16 1v12h-16v-12h16z"></path>
</svg>
