<?xml version="1.0" encoding="utf-8"?>
<!-- Generated by IcoMoon.io -->
<!DOCTYPE svg PUBLIC "-//W3C//DTD SVG 1.1//EN" "http://www.w3.org/Graphics/SVG/1.1/DTD/svg11.dtd">
<svg version="1.1" xmlns="http://www.w3.org/2000/svg" xmlns:xlink="http://www.w3.org/1999/xlink" width="12" height="14" viewBox="0 0 12 14">
<path fill="#f2f2f2" d="M6 7.5v3.5q0 0.203-0.148 0.352t-0.352 0.148-0.352-0.148l-1.125-1.125-2.594 2.594q-0.078 0.078-0.18 0.078t-0.18-0.078l-0.891-0.891q-0.078-0.078-0.078-0.18t0.078-0.18l2.594-2.594-1.125-1.125q-0.148-0.148-0.148-0.352t0.148-0.352 0.352-0.148h3.5q0.203 0 0.352 0.148t0.148 0.352zM11.898 2.25q0 0.102-0.078 0.18l-2.594 2.594 1.125 1.125q0.148 0.148 0.148 0.352t-0.148 0.352-0.352 0.148h-3.5q-0.203 0-0.352-0.148t-0.148-0.352v-3.5q0-0.203 0.148-0.352t0.352-0.148 0.352 0.148l1.125 1.125 2.594-2.594q0.078-0.078 0.18-0.078t0.18 0.078l0.891 0.891q0.078 0.078 0.078 0.18z"></path>
</svg>
