<?xml version="1.0" encoding="utf-8"?>
<!-- Generated by IcoMoon.io -->
<!DOCTYPE svg PUBLIC "-//W3C//DTD SVG 1.1//EN" "http://www.w3.org/Graphics/SVG/1.1/DTD/svg11.dtd">
<svg version="1.1" xmlns="http://www.w3.org/2000/svg" xmlns:xlink="http://www.w3.org/1999/xlink" width="14" height="14" viewBox="0 0 14 14">
<path fill="#f2f2f2" d="M3 9.25v0.5q0 0.102-0.074 0.176t-0.176 0.074h-0.5q-0.102 0-0.176-0.074t-0.074-0.176v-0.5q0-0.102 0.074-0.176t0.176-0.074h0.5q0.102 0 0.176 0.074t0.074 0.176zM3 7.25v0.5q0 0.102-0.074 0.176t-0.176 0.074h-0.5q-0.102 0-0.176-0.074t-0.074-0.176v-0.5q0-0.102 0.074-0.176t0.176-0.074h0.5q0.102 0 0.176 0.074t0.074 0.176zM3 5.25v0.5q0 0.102-0.074 0.176t-0.176 0.074h-0.5q-0.102 0-0.176-0.074t-0.074-0.176v-0.5q0-0.102 0.074-0.176t0.176-0.074h0.5q0.102 0 0.176 0.074t0.074 0.176zM12 9.25v0.5q0 0.102-0.074 0.176t-0.176 0.074h-7.5q-0.102 0-0.176-0.074t-0.074-0.176v-0.5q0-0.102 0.074-0.176t0.176-0.074h7.5q0.102 0 0.176 0.074t0.074 0.176zM12 7.25v0.5q0 0.102-0.074 0.176t-0.176 0.074h-7.5q-0.102 0-0.176-0.074t-0.074-0.176v-0.5q0-0.102 0.074-0.176t0.176-0.074h7.5q0.102 0 0.176 0.074t0.074 0.176zM12 5.25v0.5q0 0.102-0.074 0.176t-0.176 0.074h-7.5q-0.102 0-0.176-0.074t-0.074-0.176v-0.5q0-0.102 0.074-0.176t0.176-0.074h7.5q0.102 0 0.176 0.074t0.074 0.176zM13 10.75v-6.5q0-0.102-0.074-0.176t-0.176-0.074h-11.5q-0.102 0-0.176 0.074t-0.074 0.176v6.5q0 0.102 0.074 0.176t0.176 0.074h11.5q0.102 0 0.176-0.074t0.074-0.176zM14 2.25v8.5q0 0.516-0.367 0.883t-0.883 0.367h-11.5q-0.516 0-0.883-0.367t-0.367-0.883v-8.5q0-0.516 0.367-0.883t0.883-0.367h11.5q0.516 0 0.883 0.367t0.367 0.883z"></path>
</svg>
