<?xml version="1.0" encoding="utf-8"?>
<!-- Generated by IcoMoon.io -->
<!DOCTYPE svg PUBLIC "-//W3C//DTD SVG 1.1//EN" "http://www.w3.org/Graphics/SVG/1.1/DTD/svg11.dtd">
<svg version="1.1" xmlns="http://www.w3.org/2000/svg" xmlns:xlink="http://www.w3.org/1999/xlink" width="13" height="14" viewBox="0 0 13 14">
<path fill="#f2f2f2" d="M6 7.5v3q0 0.625-0.438 1.062t-1.062 0.438h-3q-0.625 0-1.062-0.438t-0.438-1.062v-5.5q0-0.813 0.316-1.551t0.855-1.277 1.277-0.855 1.551-0.316h0.5q0.203 0 0.352 0.148t0.148 0.352v1q0 0.203-0.148 0.352t-0.352 0.148h-0.5q-0.828 0-1.414 0.586t-0.586 1.414v0.25q0 0.312 0.219 0.531t0.531 0.219h1.75q0.625 0 1.062 0.438t0.438 1.062zM13 7.5v3q0 0.625-0.438 1.062t-1.062 0.438h-3q-0.625 0-1.062-0.438t-0.438-1.062v-5.5q0-0.813 0.316-1.551t0.855-1.277 1.277-0.855 1.551-0.316h0.5q0.203 0 0.352 0.148t0.148 0.352v1q0 0.203-0.148 0.352t-0.352 0.148h-0.5q-0.828 0-1.414 0.586t-0.586 1.414v0.25q0 0.312 0.219 0.531t0.531 0.219h1.75q0.625 0 1.062 0.438t0.438 1.062z"></path>
</svg>
