<svg width="20" height="26" viewBox="0 0 20 26" fill="none" xmlns="http://www.w3.org/2000/svg">
<path d="M0.157227 4.52248C0.157227 3.21201 1.21958 2.14966 2.53005 2.14966H17.4698C18.7803 2.14966 19.8427 3.21201 19.8427 4.52248V15.1471C19.8427 20.5831 15.4359 24.9898 9.99995 24.9898V24.9898C4.56396 24.9898 0.157227 20.5831 0.157227 15.1471V4.52248Z" fill="#C88E57"/>
<path d="M0.157288 3.25783C0.157288 1.94736 1.21964 0.88501 2.53011 0.88501H17.4699C18.7804 0.88501 19.8427 1.94736 19.8427 3.25783V13.8824C19.8427 19.3184 15.436 23.7252 10 23.7252V23.7252C4.56403 23.7252 0.157288 19.3184 0.157288 13.8824V3.25783Z" fill="#E5AE7C"/>
<path d="M1.29297 4.26029C1.29297 3.09462 2.23793 2.14966 3.4036 2.14966H16.6926C17.8583 2.14966 18.8032 3.09462 18.8032 4.26029V13.7109C18.8032 18.5462 14.8834 22.466 10.0481 22.466V22.466C5.21277 22.466 1.29297 18.5462 1.29297 13.7109V4.26029Z" fill="#CF9C6D"/>
<path d="M6.40501 9.18755L8.12554 10.7014L9.65842 8.81405C9.70134 8.76129 9.75561 8.71889 9.8172 8.69001C9.87878 8.66113 9.94608 8.64651 10.0141 8.64725C10.0821 8.64799 10.1491 8.66406 10.21 8.69427C10.271 8.72449 10.3243 8.76805 10.3661 8.82174L11.8289 10.701L13.605 9.16539C13.6748 9.10521 13.7612 9.06777 13.8528 9.05808C13.9445 9.04839 14.0368 9.06692 14.1176 9.11118C14.1984 9.15543 14.2638 9.22332 14.3049 9.30573C14.3461 9.38815 14.3611 9.48117 14.3479 9.57235L13.6697 14.251H6.34758L5.65892 9.5936C5.64524 9.50192 5.66007 9.40824 5.7014 9.32527C5.74273 9.24229 5.80857 9.17403 5.88999 9.12971C5.97141 9.0854 6.06449 9.06718 6.15661 9.07753C6.24873 9.08787 6.33544 9.12628 6.40501 9.18755ZM6.38285 14.7032H13.6177V15.1554C13.6177 15.2753 13.57 15.3903 13.4852 15.4751C13.4004 15.5599 13.2854 15.6076 13.1655 15.6076H6.83503C6.7151 15.6076 6.60009 15.5599 6.51529 15.4751C6.43049 15.3903 6.38285 15.2753 6.38285 15.1554V14.7032Z" fill="#B07032"/>
<path opacity="0.3" fill-rule="evenodd" clip-rule="evenodd" d="M2.53005 1.01001C1.21958 1.01001 0.157227 2.07236 0.157227 3.38283V4.64748V14.0074V15.2721C0.157227 20.7081 4.56396 25.1148 9.99995 25.1148C15.4359 25.1148 19.8427 20.7081 19.8427 15.2721V14.0074V4.64748V3.38283C19.8427 2.07236 18.7803 1.01001 17.4698 1.01001H2.53005Z" fill="url(#paint0_linear_1_10)"/>
<defs>
<linearGradient id="paint0_linear_1_10" x1="0.157227" y1="1.01001" x2="17.132" y2="22.2102" gradientUnits="userSpaceOnUse">
<stop offset="0.35175" stop-color="white" stop-opacity="0"/>
<stop offset="0.359375" stop-color="white"/>
<stop offset="0.645833" stop-color="white"/>
<stop offset="0.679529" stop-color="white" stop-opacity="0"/>
</linearGradient>
</defs>
</svg>
