<svg width="287" height="99" viewBox="0 0 287 99" fill="none" xmlns="http://www.w3.org/2000/svg">
<rect y="49.1357" width="69.4879" height="69.4879" rx="11.2" transform="rotate(-45 0 49.1357)" fill="#FF7F27"/>
<path d="M104.82 45H118.456V40.1H111.176V24.98H104.82V45ZM119.822 45H125.73L126.626 41.668H132.954L133.878 45H140.598L134.326 24.98H126.122L119.822 45ZM129.818 30.104L131.778 37.356H127.83L129.818 30.104ZM150.587 45.364C156.187 45.364 159.771 42.704 159.771 36.684V24.98H153.387V36.46C153.387 39.092 152.827 40.38 150.587 40.38C148.319 40.38 147.759 39.092 147.759 36.488V24.98H141.431V36.74C141.431 42.452 144.735 45.364 150.587 45.364ZM163.281 45H168.881V33.016L175.573 45H181.649V24.98H176.077V35.564L170.393 24.98H163.281V45ZM194.924 45.364C200.216 45.364 204.08 42.592 204.416 37.328H198.088C197.864 39.344 196.576 40.268 194.784 40.268C192.32 40.268 190.976 38.42 190.976 35.088V34.864C190.976 31.476 192.376 29.684 194.672 29.684C196.436 29.684 197.416 30.72 197.612 32.568H204.164C203.688 27.136 200.048 24.672 194.644 24.672C188.736 24.672 184.284 28.704 184.284 34.892V35.116C184.284 41.248 187.7 45.364 194.924 45.364ZM206.703 45H213.059V37.3H218.939V45H225.295V24.98H218.939V32.372H213.059V24.98H206.703V45ZM228.933 45H235.261V38.476H237.193C242.373 38.476 245.145 36.124 245.145 31.952V31.84C245.145 27.556 242.681 24.98 236.913 24.98H228.933V45ZM235.261 34.22V29.712H236.605C238.257 29.712 239.125 30.328 239.125 31.868V31.98C239.125 33.464 238.257 34.22 236.577 34.22H235.261ZM244.565 45H250.473L251.369 41.668H257.697L258.621 45H265.341L259.069 24.98H250.865L244.565 45ZM254.561 30.104L256.521 37.356H252.573L254.561 30.104ZM273.762 40.128V29.852H274.798C277.878 29.852 279.25 31.196 279.25 34.864V35.088C279.25 38.588 277.934 40.128 274.826 40.128H273.762ZM267.406 45H275.05C282.106 45 285.858 41.332 285.858 34.948V34.752C285.858 28.396 282.218 24.98 275.05 24.98H267.406V45Z" fill="#FF7F27"/>
<path d="M104.82 76H118.456V71.1H111.176V55.98H104.82V76ZM121.117 76H135.789V71.128H127.445V68.132H133.717V63.68H127.445V60.852H135.341V55.98H121.117V76ZM136.912 76H142.82L143.716 72.668H150.044L150.968 76H157.688L151.416 55.98H143.212L136.912 76ZM146.908 61.104L148.868 68.356H144.92L146.908 61.104ZM159.754 76H166.082V69.14H167.09L170.814 76H177.478L172.914 67.824C174.902 66.928 176.302 65.36 176.302 62.588V62.476C176.302 58.192 173.446 55.98 167.93 55.98H159.754V76ZM166.082 65.052V60.74H167.594C169.302 60.74 170.17 61.3 170.17 62.756V62.868C170.17 64.324 169.33 65.052 167.566 65.052H166.082ZM179.633 76H185.233V64.016L191.925 76H198.001V55.98H192.429V66.564L186.745 55.98H179.633V76ZM201.756 76H208.168V55.98H201.756V76ZM211.925 76H217.525V64.016L224.217 76H230.293V55.98H224.721V66.564L219.037 55.98H211.925V76ZM243.541 76.364C250.261 76.364 253.537 72.388 253.537 67.404V64.828H243.933V69H247.349C247.209 70.316 246.257 71.548 243.737 71.548C240.489 71.548 239.509 69.168 239.509 66.228V66.004C239.509 62.616 241.049 60.656 243.569 60.656C245.529 60.656 246.565 61.58 246.789 63.232H253.061C252.725 57.884 248.413 55.672 243.541 55.672C237.465 55.672 232.901 59.76 232.901 65.892V66.116C232.901 72.136 236.625 76.364 243.541 76.364Z" fill="black"/>
<path d="M36.9391 69H66.1591V58.5H50.5591V26.1H36.9391V69Z" fill="white"/>
</svg>
