<svg xmlns="http://www.w3.org/2000/svg">
	<!-- icomoon.io -->
	<symbol id="camera" viewBox="0 0 512 512"><path d="M152 304c0 57.438 46.562 104 104 104s104-46.562 104-104-46.562-104-104-104-104 46.562-104 104zm328-176h-112c-8-32-16-64-48-64h-128c-32 0-40 32-48 64h-112c-17.6 0-32 14.4-32 32v288c0 17.6 14.4 32 32 32h448c17.6 0 32-14.4 32-32v-288c0-17.6-14.4-32-32-32zm-224 318c-78.425 0-142-63.574-142-142 0-78.425 63.575-142 142-142 78.426 0 142 63.575 142 142 0 78.426-63.573 142-142 142zm224-222h-64v-32h64v32z"/></symbol>
	<symbol id="pencil" viewBox="0 0 512 512"><path d="M432 0c44.182 0 80 35.817 80 80 0 18.01-5.955 34.629-16 48l-32 32-112-112 32-32c13.371-10.045 29.989-16 48-16zm-400 368l-32 144 144-32 296-296-112-112-296 296zm325.789-186.211l-224 224-27.578-27.578 224-224 27.578 27.578z"/></symbol>
</svg>
