<svg xmlns="http://www.w3.org/2000/svg" width="14" height="14" viewBox="0 0 14 14"><path fill="#444" d="M10.03 7.008q0-.21-.14-.352l-.71-.71q-.142-.142-.353-.142t-.352.14L6.998 7.423V3.5q0-.203-.148-.352T6.498 3h-1q-.203 0-.352.148t-.148.352v3.922L3.52 5.945q-.147-.148-.35-.148t-.353.148l-.71.71q-.142.142-.142.353t.14.352l3.54 3.54q.14.14.352.14t.352-.14l3.538-3.54q.14-.14.14-.352zM12 7q0 1.633-.805 3.012T9.01 12.196 6 13t-3.013-.804-2.184-2.184T-.002 7t.805-3.012 2.184-2.184T6 1t3.01.804 2.185 2.184T12 7z"/></svg>