<svg xmlns="http://www.w3.org/2000/svg" width="14" height="14" viewBox="0 0 14 14"><path fill="#444" d="M10.023 4.227L7.25 7l2.773 2.773 1.125-1.125q.227-.242.547-.11Q12 8.673 12 9v3.5q0 .203-.148.352T11.5 13H8q-.328 0-.46-.312-.134-.305.108-.54l1.125-1.124L6 8.25l-2.773 2.774 1.125 1.125q.242.233.11.538Q4.327 13 4 13H.5q-.203 0-.352-.148T0 12.5V9q0-.328.312-.46.305-.134.54.108l1.124 1.125L4.75 7 1.975 4.227.85 5.352Q.704 5.5.5 5.5q-.095 0-.188-.04Q0 5.33 0 5V1.5q0-.203.148-.352T.5 1H4q.328 0 .46.312.134.305-.108.54L3.227 2.975 6 5.75l2.773-2.774L7.648 1.85q-.242-.233-.11-.538Q7.673 1 8 1h3.5q.203 0 .352.148T12 1.5V5q0 .328-.305.46-.102.04-.195.04-.203 0-.352-.148z"/></svg>