<svg xmlns="http://www.w3.org/2000/svg" width="14" height="14" viewBox="0 0 14 14"><path fill="#444" d="M13 5q.414 0 .707.293T14 6t-.293.707T13 7v3q0 .406-.297.703T12 11Q8.742 8.29 5.656 8.03q-.453.15-.71.517t-.243.785.312.723q-.156.258-.18.512t.047.453.262.43.375.39.48.396q-.23.453-.873.648t-1.316.09-1.03-.434q-.055-.18-.23-.684t-.25-.738-.18-.695-.117-.79.027-.77T2.203 8H1.25q-.516 0-.883-.365T0 6.75v-1.5q0-.515.367-.882T1.25 4H5q3.398 0 7-3 .406 0 .703.298T13 2v3zm-1 4.72V2.265q-3.078 2.36-6 2.68v2.11q2.945.327 6 2.663z"/></svg>