<svg xmlns="http://www.w3.org/2000/svg" width="13" height="14" viewBox="0 0 13 14"><path fill="#444" d="M1 13h2.25v-2.25H1V13zm2.75 0h2.5v-2.25h-2.5V13zM1 10.25h2.25v-2.5H1v2.5zm2.75 0h2.5v-2.5h-2.5v2.5zM1 7.25h2.25V5H1v2.25zM6.75 13h2.5v-2.25h-2.5V13zm-3-5.75h2.5V5h-2.5v2.25zm6 5.75H12v-2.25H9.75V13zm-3-2.75h2.5v-2.5h-2.5v2.5zM4 3.5V1.25q0-.102-.074-.176T3.75 1h-.5q-.102 0-.176.074T3 1.25V3.5q0 .102.074.176t.176.074h.5q.102 0 .176-.074T4 3.5zm5.75 6.75H12v-2.5H9.75v2.5zm-3-3h2.5V5h-2.5v2.25zm3 0H12V5H9.75v2.25zM10 3.5V1.25q0-.102-.074-.176T9.75 1h-.5q-.102 0-.176.074T9 1.25V3.5q0 .102.074.176t.176.074h.5q.102 0 .176-.074T10 3.5zm3-.5v10q0 .406-.297.703T12 14H1q-.406 0-.703-.297T0 13V3q0-.406.297-.703T1 2h1v-.75q0-.516.367-.883T3.25 0h.5q.516 0 .883.367T5 1.25V2h3v-.75q0-.516.367-.883T9.25 0h.5q.516 0 .883.367T11 1.25V2h1q.406 0 .703.297T13 3z"/></svg>