<svg xmlns="http://www.w3.org/2000/svg" width="16" height="14" viewBox="0 0 16 14"><path fill="#444" d="M6.133 7.875H7.75q-.11 1.234-.77 1.94t-1.676.708q-1.266 0-1.988-.906t-.723-2.47q0-1.515.727-2.433t1.82-.918q1.156 0 1.812.68t.758 1.93H6.124q-.04-.5-.277-.773T5.21 5.36q-.445 0-.69.473T4.272 7.22q0 .375.04.656t.14.543.312.4.516.14q.743 0 .853-1.085zm5.562 0h1.61q-.11 1.234-.767 1.94t-1.672.708q-1.266 0-1.988-.906t-.723-2.47q0-1.515.727-2.433t1.82-.918q1.156 0 1.812.68t.758 1.93h-1.594q-.03-.5-.273-.773t-.633-.273q-.445 0-.69.473T9.834 7.22q0 .375.04.656t.14.543.31.4.51.14q.384 0 .6-.296t.26-.79zm2.805-.93q0-1.617-.12-2.398t-.474-1.258q-.047-.064-.105-.11t-.166-.118-.125-.086q-.673-.492-5.446-.492-4.883 0-5.547.492-.04.03-.137.09t-.165.11-.113.112q-.352.468-.47 1.245t-.116 2.41q0 1.625.117 2.402t.47 1.254q.046.062.116.117t.16.11.135.093q.344.26 1.87.384t3.677.125q4.766 0 5.445-.51.04-.03.133-.086t.16-.11.106-.124q.36-.468.477-1.24t.117-2.415zM16 1v12H0V1h16z"/></svg>