<svg xmlns="http://www.w3.org/2000/svg" width="13" height="14" viewBox="0 0 13 14"><path fill="#444" d="M3.43 9.93l-2 2q-.078.07-.18.07-.094 0-.18-.07-.07-.078-.07-.18t.07-.18l2-2q.078-.07.18-.07t.18.07q.07.078.07.18t-.07.18zm1.32.32v2.5q0 .11-.07.18T4.5 13t-.18-.07-.07-.18v-2.5q0-.11.07-.18T4.5 10t.18.07.07.18zM3 8.5q0 .11-.07.18t-.18.07H.25q-.11 0-.18-.07T0 8.5t.07-.18.18-.07h2.5q.11 0 .18.07T3 8.5zm9.875 1q0 .937-.664 1.586l-1.146 1.14q-.648.65-1.586.65-.945 0-1.594-.665l-2.61-2.615q-.163-.164-.327-.438l1.867-.14 2.133 2.14q.21.21.53.215t.532-.206l1.147-1.14q.22-.22.22-.524 0-.312-.22-.53l-2.14-2.15.14-1.866q.273.164.438.328L12.22 7.91q.655.67.655 1.593zm-4.82-5.656l-1.867.14-2.133-2.14q-.22-.22-.53-.22-.306 0-.532.212l-1.148 1.14q-.22.22-.22.524 0 .312.22.53l2.14 2.142-.14 1.875q-.273-.164-.438-.328L.782 5.092Q.126 4.423.126 3.5q0-.937.664-1.586L1.938.774q.648-.65 1.586-.65.945 0 1.594.665l2.61 2.615q.163.164.327.438zM13 4.5q0 .11-.07.18t-.18.07h-2.5q-.11 0-.18-.07T10 4.5t.07-.18.18-.07h2.5q.11 0 .18.07t.07.18zM8.75.25v2.5q0 .11-.07.18T8.5 3t-.18-.07-.07-.18V.25q0-.11.07-.18T8.5 0t.18.07.07.18zm3.18 1.18l-2 2q-.086.07-.18.07t-.18-.07q-.07-.078-.07-.18t.07-.18l2-2q.078-.07.18-.07t.18.07q.07.078.07.18t-.07.18z"/></svg>