<svg xmlns="http://www.w3.org/2000/svg" width="13" height="14" viewBox="0 0 13 14"><path fill="#444" d="M11 7.266V9.75q0 .93-.66 1.59T8.75 12h-6.5q-.93 0-1.59-.66T0 9.75v-6.5q0-.93.66-1.59T2.25 1h6.5q.492 0 .914.195.117.055.14.18.024.133-.07.227l-.382.383q-.078.078-.18.078-.023 0-.07-.016Q8.922 2 8.75 2h-6.5q-.516 0-.883.367T1 3.25v6.5q0 .516.367.883T2.25 11h6.5q.516 0 .883-.367T10 9.75V7.766q0-.102.07-.172l.5-.5q.078-.078.18-.078.047 0 .094.023.156.06.156.225zm1.805-3.82l-6.36 6.358Q6.26 9.99 6 9.99t-.443-.185l-3.36-3.36Q2.01 6.26 2.01 6t.187-.445l.86-.86q.186-.186.444-.186t.447.185L6 6.75l5.056-5.054q.187-.187.445-.187t.447.185l.86.86q.186.186.186.444t-.187.444z"/></svg>