<svg xmlns="http://www.w3.org/2000/svg" width="14" height="14" viewBox="0 0 14 14"><path fill="#444" d="M7 4.25v3.5q0 .11-.07.18T6.75 8h-2.5q-.11 0-.18-.07T4 7.75v-.5q0-.11.07-.18T4.25 7H6V4.25q0-.11.07-.18T6.25 4h.5q.11 0 .18.07t.07.18zM10.25 7q0-1.156-.57-2.133T8.133 3.32 6 2.75t-2.133.57T2.32 4.867 1.75 7t.57 2.133 1.547 1.547T6 11.25t2.133-.57T9.68 9.133 10.25 7zM12 7q0 1.633-.805 3.012T9.01 12.196 6 13t-3.013-.804-2.184-2.184T-.002 7t.805-3.012 2.184-2.184T6 1t3.01.804 2.185 2.184T12 7z"/></svg>