<svg xmlns="http://www.w3.org/2000/svg" width="14" height="14" viewBox="0 0 14 14"><path fill="#444" d="M8 7q0-.828-.586-1.414T6 5t-1.414.586T4 7t.586 1.414T6 9t1.414-.586T8 7zm4-.852v1.734q0 .094-.062.18t-.156.102l-1.445.22q-.148.42-.305.71.273.39.836 1.078.078.094.078.195t-.07.18q-.21.29-.773.844t-.734.557q-.096 0-.205-.07l-1.078-.844q-.344.18-.71.297-.126 1.06-.228 1.452-.056.22-.28.22H5.133q-.11 0-.19-.067t-.09-.168l-.22-1.438q-.383-.127-.703-.29l-1.1.835q-.08.07-.196.07-.11 0-.195-.086-.985-.89-1.29-1.314-.055-.078-.055-.18 0-.094.062-.18.117-.164.398-.52t.422-.55q-.21-.392-.32-.774l-1.43-.21q-.102-.017-.164-.1t-.06-.182V6.116q0-.094.06-.18t.15-.102l1.452-.22q.11-.358.305-.718-.312-.445-.836-1.078-.078-.094-.078-.187 0-.076.07-.18.203-.28.77-.84t.738-.557q.102 0 .203.078l1.078.837q.344-.18.71-.297.126-1.063.228-1.454.055-.22.28-.22H6.87q.11 0 .19.067t.09.168l.22 1.44q.383.125.703.29l1.11-.837q.07-.07.187-.07.102 0 .195.078 1.008.93 1.29 1.33.054.06.054.17 0 .095-.063.18-.117.165-.398.52t-.423.55q.203.393.32.768l1.43.22q.102.015.164.097t.063.184z"/></svg>