<svg xmlns="http://www.w3.org/2000/svg" width="14" height="14" viewBox="0 0 14 14"><path fill="#444" d="M11 6q0 1.086-.734 2.008T8.262 9.465 5.5 10q-.672 0-1.375-.125-.97.688-2.172 1-.28.07-.672.125h-.02q-.086 0-.16-.062t-.09-.164Q1 10.75 1 10.724t.004-.052.016-.047l.02-.04.027-.042.03-.04.036-.038.03-.035q.04-.047.18-.195t.204-.23.176-.227.195-.3.16-.345Q1.108 8.57.555 7.75T0 6q0-1.086.734-2.008t2.004-1.457T5.5 2t2.762.535 2.004 1.457T11 6zm3 2q0 .937-.555 1.754t-1.523 1.38q.078.186.16.343t.195.3.176.228.203.23.18.195l.03.035.036.04.03.038.028.043.02.04.016.046.004.05-.008.052q-.023.11-.102.172t-.172.055q-.39-.053-.672-.123-1.203-.312-2.172-1Q9.17 12 8.5 12q-2.12 0-3.69-1.03.453.03.688.03 1.258 0 2.414-.35t2.062-1.01q.977-.718 1.5-1.655T12 6q0-.6-.18-1.186 1.007.555 1.593 1.39t.587 1.8z"/></svg>