<svg xmlns="http://www.w3.org/2000/svg" width="14" height="14" viewBox="0 0 14 14"><path fill="#444" d="M6 7.5V11q0 .203-.148.352T5.5 11.5t-.352-.148l-1.125-1.125L1.43 12.82q-.08.08-.18.08t-.18-.08l-.892-.89Q.1 11.852.1 11.75t.078-.18l2.594-2.594L1.647 7.85Q1.5 7.704 1.5 7.5t.147-.353T2 7h3.5q.202 0 .35.147T6 7.5zm5.898-5.25q0 .102-.078.18L9.226 5.024 10.35 6.15q.15.147.15.35t-.15.353T10 7H6.5q-.204 0-.353-.147T6 6.5V3q0-.202.147-.35T6.5 2.5t.35.15l1.126 1.124L10.57 1.18q.078-.078.18-.078t.18.078l.89.89q.08.08.08.18z"/></svg>