<svg xmlns="http://www.w3.org/2000/svg" width="14" height="14" viewBox="0 0 14 14"><path fill="#444" d="M13.25 3q.312 0 .53.22t.22.53v9.5q0 .312-.22.53t-.53.22h-7.5q-.312 0-.53-.22T5 13.25V11H.75q-.312 0-.53-.22T0 10.25V5q0-.312.156-.688t.375-.594L3.72.53q.218-.22.593-.375T5 0h3.25q.313 0 .532.218t.22.53v2.564Q9.53 3 10 3h3.25zM9 4.664L6.664 7H9V4.664zm-5-3L1.664 4H4V1.664zM5.53 6.72L8 4.25V1H5v3.25q0 .312-.22.53T4.25 5H1v5h4V8q0-.312.156-.688t.375-.594zM13 13V4h-3v3.25q0 .312-.22.53T9.25 8H6v5h7z"/></svg>