<svg xmlns="http://www.w3.org/2000/svg" width="14" height="14" viewBox="0 0 14 14"><path fill="#444" d="M6.938 9.25l.906-.906-1.187-1.187-.906.906V8.5h.75v.75h.44zm3.437-5.625q-.125-.125-.258.008L7.383 6.367q-.133.133-.008.258t.258-.008l2.734-2.734q.133-.133.008-.258zM11 8.265V9.75q0 .93-.66 1.59T8.75 12h-6.5q-.93 0-1.59-.66T0 9.75v-6.5q0-.93.66-1.59T2.25 1h6.5q.492 0 .914.195.117.055.14.18.024.133-.07.227l-.382.383q-.11.11-.25.062Q8.922 2 8.75 2h-6.5q-.516 0-.883.367T1 3.25v6.5q0 .516.367.883T2.25 11h6.5q.516 0 .883-.367T10 9.75v-.984q0-.102.07-.172l.5-.5q.117-.117.273-.055t.156.226zM10.25 2.5l2.25 2.25L7.25 10H5V7.75zm3.47 1.03l-.72.72L10.75 2l.72-.72q.218-.218.53-.218t.53.22l1.188 1.186q.22.22.22.53t-.22.532z"/></svg>