<svg xmlns="http://www.w3.org/2000/svg" width="14" height="14" viewBox="0 0 14 14"><path fill="#444" d="M13 11.75v-6q-.25.28-.54.516-2.093 1.61-3.327 2.64-.398.337-.648.524t-.676.38-.803.19H6.99q-.374 0-.8-.19t-.676-.38-.648-.523q-1.234-1.03-3.328-2.64Q1.25 6.03 1 5.75v6q0 .102.074.176T1.25 12h11.5q.102 0 .176-.074T13 11.75zm0-8.21v-.192l-.004-.102-.023-.098-.043-.07-.07-.06-.11-.02H1.25q-.1 0-.175.075T1 3.25q0 1.31 1.15 2.218 1.506 1.187 3.13 2.477.047.04.273.23t.36.293.347.246.395.215.336.07h.017q.155 0 .335-.07t.395-.217.348-.246.36-.293.272-.23q1.625-1.29 3.133-2.477.422-.336.785-.902T13 3.54zm1-.29v8.5q0 .516-.367.883T12.75 13H1.25q-.516 0-.883-.367T0 11.75v-8.5q0-.516.367-.883T1.25 2h11.5q.516 0 .883.367T14 3.25z"/></svg>