<svg xmlns="http://www.w3.org/2000/svg" width="14" height="14" viewBox="0 0 14 14"><path fill="#444" d="M6 1q1.633 0 3.012.805t2.184 2.184T12 7t-.804 3.013-2.184 2.184T6 13.002t-3.012-.805-2.184-2.184T0 7t.804-3.01 2.184-2.185T6 1zm1 9.742V9.258q0-.11-.07-.184T6.758 9h-1.5q-.102 0-.18.078T5 9.258v1.484q0 .102.078.18t.18.078h1.5q.102 0 .172-.074t.07-.184zm-.016-2.687l.14-4.852q0-.094-.077-.14Q6.97 3 6.86 3H5.14q-.108 0-.186.062-.078.047-.078.14l.133 4.853q0 .078.077.137t.187.06H6.72q.108 0 .183-.06t.082-.137z"/></svg>