<svg xmlns="http://www.w3.org/2000/svg" width="14" height="14" viewBox="0 0 14 14"><path fill="#444" d="M8 10.742V9.258q0-.11-.074-.184T7.75 9h-1.5q-.102 0-.176.074T6 9.258v1.484q0 .11.074.184T6.25 11h1.5q.102 0 .176-.074T8 10.742zM7.984 7.82l.14-3.586q0-.094-.077-.148Q7.945 4 7.86 4H6.14q-.085 0-.186.086-.078.055-.078.164l.133 3.57q0 .078.076.13t.187.05H7.72q.108 0 .183-.05t.082-.13zM7.874.523l6 11q.274.492-.015.984-.135.227-.365.36T13 13H1q-.266 0-.496-.135t-.363-.36q-.287-.49-.014-.983l6-11Q6.258.28 6.492.14T7 0t.508.14.367.383z"/></svg>