<svg xmlns="http://www.w3.org/2000/svg" width="14" height="14" viewBox="0 0 14 14"><path fill="#444" d="M11 7.25v2.5q0 .93-.66 1.59T8.75 12h-6.5q-.93 0-1.59-.66T0 9.75v-6.5q0-.93.66-1.59T2.25 1h5.5q.11 0 .18.07t.07.18v.5q0 .11-.07.18T7.75 2h-5.5q-.516 0-.883.367T1 3.25v6.5q0 .516.367.883T2.25 11h6.5q.516 0 .883-.367T10 9.75v-2.5q0-.11.07-.18t.18-.07h.5q.11 0 .18.07t.07.18zM14 .5v4q0 .203-.148.352T13.5 5t-.352-.148l-1.375-1.375L6.68 8.57q-.08.08-.18.08t-.18-.08l-.892-.89q-.078-.078-.078-.18t.078-.18l5.094-5.094L9.147.85Q9 .704 9 .5t.147-.353T9.5 0h4q.202 0 .35.147T14 .5z"/></svg>