<svg xmlns="http://www.w3.org/2000/svg" width="14" height="14" viewBox="0 0 14 14"><path fill="#444" d="M4.336 10.43l.61-1.102q-.68-.492-1.063-1.242T3.5 6.5q0-.945.477-1.758Q2.187 5.656 1 7.5q1.305 2.016 3.336 2.93zm3.04-5.93q0-.156-.11-.266T7 4.124q-.977 0-1.676.7t-.7 1.676q0 .156.11.266t.266.11.266-.11.11-.266q0-.672.476-1.148T7 4.875q.156 0 .266-.11t.11-.265zm2.835-1.492q0 .055-.007.07-.82 1.47-2.46 4.422t-2.47 4.43l-.383.695q-.078.125-.22.125-.093 0-1.046-.547-.125-.078-.125-.22 0-.093.343-.68-1.117-.507-2.06-1.35T.156 8.037Q0 7.796 0 7.498t.155-.538q1.195-1.836 2.97-2.898T6.998 3q.694 0 1.405.133l.422-.758q.078-.125.22-.125.038 0 .14.047t.242.12.257.146.246.145.152.09q.125.078.125.21zM10.5 6.5q0 1.086-.617 1.98T8.25 9.765l2.188-3.922q.062.352.062.656zm3.5 1q0 .273-.156.54-.305.5-.852 1.132-1.172 1.344-2.715 2.086T7 12l.578-1.03q1.656-.142 3.066-1.07T13 7.5q-.9-1.397-2.204-2.296l.492-.875q.742.5 1.426 1.194t1.13 1.438q.155.266.155.54z"/></svg>