<svg xmlns="http://www.w3.org/2000/svg" width="14" height="14" viewBox="0 0 14 14"><path fill="#444" d="M13 7.5q-1.187-1.844-2.977-2.758.477.813.477 1.758 0 1.445-1.027 2.473T7 10 4.527 8.973 3.5 6.5q0-.945.477-1.758Q2.187 5.656 1 7.5q1.04 1.602 2.605 2.55T7 11t3.395-.95T13 7.5zm-5.625-3q0-.156-.11-.266T7 4.124q-.977 0-1.676.7t-.7 1.676q0 .156.11.266t.266.11.266-.11.11-.266q0-.672.476-1.148T7 4.875q.156 0 .266-.11t.11-.265zM14 7.5q0 .266-.156.54-1.094 1.796-2.94 2.878T7 12t-3.9-1.086T.157 8.04Q.002 7.765.002 7.5t.156-.54q1.094-1.788 2.94-2.874T7.002 3t3.903 1.086 2.94 2.875q.157.274.157.54z"/></svg>