<svg xmlns="http://www.w3.org/2000/svg" width="14" height="14" viewBox="0 0 14 14"><path fill="#444" d="M2.5 2q0 .563-.5.86v9.89q0 .102-.074.176T1.75 13h-.5q-.102 0-.176-.074T1 12.75V2.86Q.5 2.56.5 2q0-.414.293-.707T1.5 1t.707.293T2.5 2zm11.5.5v5.96q0 .196-.098.302t-.31.215q-1.68.906-2.882.906-.477 0-.965-.172t-.848-.373-.902-.375-1.113-.17q-1.5 0-3.625 1.14Q3.124 10 3 10q-.204 0-.353-.148T2.5 9.5V3.703q0-.25.24-.43.165-.11.618-.336Q5.202 2 6.648 2q.835 0 1.562.227t1.71.688q.298.148.69.148.42 0 .917-.164t.86-.37.687-.366T13.5 2q.203 0 .352.15T14 2.5z"/></svg>