<svg xmlns="http://www.w3.org/2000/svg" width="13" height="14" viewBox="0 0 13 14"><path fill="#444" d="M11 7.75v3.75q0 .203-.148.352T10.5 12h-3V9h-2v3h-3q-.203 0-.352-.148T2 11.5V7.75q0-.008.004-.023t.004-.023L6.5 4l4.492 3.704Q11 7.72 11 7.75zm1.742-.54l-.484.58q-.062.07-.164.085h-.023q-.1 0-.162-.055L6.5 3.312 1.096 7.82Q1 7.882.908 7.875.806 7.86.744 7.79L.26 7.21q-.062-.077-.055-.183T.29 6.86l5.62-4.68q.25-.204.594-.204t.594.203L9.004 3.77V2.25q0-.11.07-.18t.18-.07h1.5q.11 0 .18.07t.07.18v3.188l1.71 1.422q.08.062.087.168t-.055.184z"/></svg>