<svg xmlns="http://www.w3.org/2000/svg" width="14" height="14" viewBox="0 0 14 14"><path fill="#444" d="M8 10.75V9.5q0-.11-.07-.18t-.18-.07H7v-4q0-.11-.07-.18T6.75 5h-2.5q-.11 0-.18.07T4 5.25V6.5q0 .11.07.18t.18.07H5v2.5h-.75q-.11 0-.18.07T4 9.5v1.25q0 .11.07.18t.18.07h3.5q.11 0 .18-.07t.07-.18zm-1-7V2.5q0-.11-.07-.18t-.18-.07h-1.5q-.11 0-.18.07T5 2.5v1.25q0 .11.07.18t.18.07h1.5q.11 0 .18-.07T7 3.75zM12 7q0 1.633-.805 3.012T9.01 12.196 6 13t-3.013-.804-2.184-2.184T-.002 7t.805-3.012 2.184-2.184T6 1t3.01.804 2.185 2.184T12 7z"/></svg>