<svg xmlns="http://www.w3.org/2000/svg" width="12" height="14" viewBox="0 0 12 14"><path fill="#444" d="M1.852 11.047h1.805V5.625H1.852v5.422zm1.92-7.094q-.007-.406-.28-.672t-.727-.264-.738.266-.285.673q0 .398.277.668t.72.27h.01q.46 0 .74-.27t.28-.667zm4.572 7.094h1.805v-3.11q0-1.202-.57-1.82T8.07 5.5q-1.06 0-1.633.916h.016v-.79H4.65q.022.517 0 5.423h1.804V8.02q0-.3.055-.44.115-.273.35-.465t.58-.19q.904 0 .904 1.226v2.9zM12 3.25v7.5q0 .93-.66 1.59T9.75 13h-7.5q-.93 0-1.59-.66T0 10.75v-7.5q0-.93.66-1.59T2.25 1h7.5q.93 0 1.59.66T12 3.25z"/></svg>