<svg xmlns="http://www.w3.org/2000/svg" width="14" height="14" viewBox="0 0 14 14"><path fill="#444" d="M3 9.25v.5q0 .102-.074.176T2.75 10h-.5q-.102 0-.176-.074T2 9.75v-.5q0-.102.074-.176T2.25 9h.5q.102 0 .176.074T3 9.25zm0-2v.5q0 .102-.074.176T2.75 8h-.5q-.102 0-.176-.074T2 7.75v-.5q0-.102.074-.176T2.25 7h.5q.102 0 .176.074T3 7.25zm0-2v.5q0 .102-.074.176T2.75 6h-.5q-.102 0-.176-.074T2 5.75v-.5q0-.102.074-.176T2.25 5h.5q.102 0 .176.074T3 5.25zm9 4v.5q0 .102-.074.176T11.75 10h-7.5q-.102 0-.176-.074T4 9.75v-.5q0-.102.074-.176T4.25 9h7.5q.102 0 .176.074T12 9.25zm0-2v.5q0 .102-.074.176T11.75 8h-7.5q-.102 0-.176-.074T4 7.75v-.5q0-.102.074-.176T4.25 7h7.5q.102 0 .176.074T12 7.25zm0-2v.5q0 .102-.074.176T11.75 6h-7.5q-.102 0-.176-.074T4 5.75v-.5q0-.102.074-.176T4.25 5h7.5q.102 0 .176.074T12 5.25zm1 5.5v-6.5q0-.102-.074-.176T12.75 4H1.25q-.102 0-.176.074T1 4.25v6.5q0 .102.074.176T1.25 11h11.5q.102 0 .176-.074T13 10.75zm1-8.5v8.5q0 .516-.367.883T12.75 12H1.25q-.516 0-.883-.367T0 10.75v-8.5q0-.516.367-.883T1.25 1h11.5q.516 0 .883.367T14 2.25z"/></svg>