<svg xmlns="http://www.w3.org/2000/svg" width="15" height="14" viewBox="0 0 15 14"><path fill="#444" d="M6 9h3v-.75H8v-3.5h-.89L5.952 5.82l.602.625q.328-.29.43-.445H7v2.25H6V9zm4-2q0 .547-.164 1.11T9.37 9.155t-.792.79-1.078.304-1.078-.306-.793-.79-.467-1.046T5 7t.164-1.11.465-1.046.79-.79T7.5 3.75t1.078.305.793.79.467 1.046T10 7zm4 2V5q-.828 0-1.414-.586T12 3H3q0 .828-.586 1.414T1 5v4q.828 0 1.414.586T3 11h9q0-.828.586-1.414T14 9zm1-6.5v9q0 .203-.148.352T14.5 12H.5q-.203 0-.352-.148T0 11.5v-9q0-.203.148-.352T.5 2h14q.203 0 .352.148T15 2.5z"/></svg>