<svg xmlns="http://www.w3.org/2000/svg" width="13" height="14" viewBox="0 0 13 14"><path fill="#444" d="M3 12h7v-2H3v2zm0-5h7V4H8.75q-.312 0-.53-.22T8 3.25V2H3v5zm9 .5q0-.203-.148-.352T11.5 7t-.352.148T11 7.5t.148.352T11.5 8t.352-.148T12 7.5zm1 0v3.25q0 .102-.074.176T12.75 11H11v1.25q0 .312-.22.53t-.53.22h-7.5q-.312 0-.53-.22T2 12.25V11H.25q-.102 0-.176-.074T0 10.75V7.5q0-.617.44-1.06T1.5 6H2V1.75q0-.312.22-.53T2.75 1H8q.312 0 .688.156t.594.375L10.47 2.72q.218.22.374.594T11 4v2h.5q.617 0 1.06.44T13 7.5z"/></svg>