<svg xmlns="http://www.w3.org/2000/svg" width="14" height="14" viewBox="0 0 14 14"><path fill="#444" d="M7 10.75v-1.5q0-.11-.07-.18T6.75 9h-1.5q-.11 0-.18.07T5 9.25v1.5q0 .11.07.18t.18.07h1.5q.11 0 .18-.07t.07-.18zM9 5.5q0-.688-.434-1.273T7.484 3.32 6.156 3Q4.258 3 3.258 4.666q-.117.187.062.328l1.03.78q.056.048.15.048.124 0 .194-.093.414-.53.672-.72.266-.186.672-.186.375 0 .668.204t.293.46q0 .298-.157.478t-.53.352q-.493.22-.903.676T5 7.97v.28q0 .11.07.18t.18.07h1.5q.11 0 .18-.07T7 8.25q0-.147.168-.386t.426-.387q.25-.14.383-.223t.36-.273.347-.374.22-.473T9 5.5zM12 7q0 1.633-.805 3.012T9.01 12.196 6 13t-3.013-.804-2.184-2.184T-.002 7t.805-3.012 2.184-2.184T6 1t3.01.804 2.185 2.184T12 7z"/></svg>