<svg xmlns="http://www.w3.org/2000/svg" width="13" height="14" viewBox="0 0 13 14"><path fill="#444" d="M6 7.5v3q0 .625-.438 1.062T4.5 12h-3q-.625 0-1.062-.438T0 10.5V5q0-.813.316-1.55T1.17 2.17t1.278-.855T3.998 1h.5q.204 0 .353.15T5 1.5v1q0 .204-.15.353T4.5 3H4q-.83 0-1.415.587T2 5v.25q0 .313.218.532t.53.22H4.5q.626 0 1.063.437T6 7.5zm7 0v3q0 .625-.438 1.062T11.5 12h-3q-.625 0-1.062-.438T7 10.5V5q0-.813.316-1.55T8.17 2.17t1.278-.855T10.998 1h.5q.204 0 .353.15t.15.35v1q0 .204-.15.353T11.5 3H11q-.83 0-1.415.587T9 5v.25q0 .313.218.532t.53.22h1.75q.626 0 1.063.437T13 7.5z"/></svg>