<svg xmlns="http://www.w3.org/2000/svg" width="14" height="14" viewBox="0 0 14 14"><path fill="#444" d="M11.805 8.25q0 .04-.008.055-.5 2.094-2.094 3.395T5.97 13q-1.142 0-2.208-.43T1.86 11.345L.852 12.352Q.704 12.5.5 12.5t-.352-.148T0 12V8.5q0-.203.148-.352T.5 8H4q.203 0 .352.148T4.5 8.5t-.148.352l-1.07 1.07q.555.516 1.258.797T6 11q1.048 0 1.954-.508t1.453-1.398q.086-.133.414-.914.063-.18.235-.18h1.5q.102 0 .176.074t.075.176zM12 2v3.5q0 .203-.148.352T11.5 6H8q-.203 0-.352-.148T7.5 5.5t.148-.352L8.726 4.07Q7.57 3 6 3q-1.048 0-1.954.508T2.593 4.906q-.086.133-.414.914-.063.18-.235.18H.39q-.102 0-.176-.074T.14 5.75v-.055Q.648 3.6 2.25 2.3T6 1q1.14 0 2.218.433t1.914 1.223l1.016-1.008q.148-.148.352-.148t.352.148T12 2z"/></svg>