<svg xmlns="http://www.w3.org/2000/svg" width="14" height="14" viewBox="0 0 14 14"><path fill="#444" d="M12 7q0 1.22-.477 2.328t-1.28 1.914-1.915 1.28T6 13q-1.344 0-2.555-.566t-2.062-1.598q-.055-.078-.05-.176t.065-.16l1.07-1.078q.078-.07.195-.07.125.016.18.094.57.742 1.398 1.148T6 11q.812 0 1.55-.316t1.277-.855.855-1.28T9.998 7t-.316-1.55-.855-1.278-1.277-.855T6 3.002q-.767 0-1.47.277t-1.25.79l1.07 1.08q.242.234.11.54-.134.31-.462.31h-3.5q-.203 0-.352-.147T-.002 5.5V2q0-.327.312-.46.305-.133.54.11l1.015 1.007q.836-.79 1.91-1.223T5.998 1q1.22 0 2.328.477t1.914 1.28 1.28 1.915T12 7z"/></svg>