<svg xmlns="http://www.w3.org/2000/svg" width="13" height="14" viewBox="0 0 13 14"><path fill="#444" d="M8 6.25v.5q0 .102-.074.176T7.75 7H6v1.75q0 .102-.074.176T5.75 9h-.5q-.102 0-.176-.074T5 8.75V7H3.25q-.102 0-.176-.074T3 6.75v-.5q0-.102.074-.176T3.25 6H5V4.25q0-.102.074-.176T5.25 4h.5q.102 0 .176.074T6 4.25V6h1.75q.102 0 .176.074T8 6.25zm1 .25q0-1.445-1.027-2.473T5.5 3 3.027 4.027 2 6.5t1.027 2.473T5.5 10t2.473-1.027T9 6.5zm4 6.5q0 .414-.293.707T12 14q-.422 0-.703-.297l-2.68-2.672Q7.22 12 5.5 12q-1.117 0-2.137-.434t-1.758-1.172T.433 8.636 0 6.5.432 4.36t1.172-1.758 1.758-1.172T5.5.998t2.137.434 1.758 1.172 1.172 1.758T11 6.5q0 1.718-.968 3.116l2.68 2.68q.29.29.29.703z"/></svg>