<svg xmlns="http://www.w3.org/2000/svg" width="13" height="14" viewBox="0 0 13 14"><path fill="#444" d="M11 7.727V9.75q0 .93-.66 1.59T8.75 12h-6.5q-.93 0-1.59-.66T0 9.75v-6.5q0-.93.66-1.59T2.25 1h1.992q.102 0 .176.074t.074.176q0 .21-.203.25-.604.203-1.04.47-.08.03-.126.03H2.25q-.516 0-.883.367T1 3.25v6.5q0 .516.367.883T2.25 11h6.5q.516 0 .883-.367T10 9.75V8.078q0-.148.14-.227.22-.1.423-.287.125-.125.273-.062.164.07.164.228zm1.852-3.875l-3 3Q9.712 7 9.5 7q-.094 0-.195-.04Q9 6.83 9 6.5V5H7.75Q5.227 5 4.328 6.023q-.93 1.07-.578 3.695.023.18-.156.266Q3.532 10 3.5 10q-.125 0-.203-.102-.078-.11-.164-.242t-.31-.535-.386-.775-.3-.89T2 6.5q0-.382.025-.71t.11-.703.218-.688.367-.638.536-.577.738-.48.973-.38 1.246-.237T7.748 2h1.25V.5q0-.328.305-.46.102-.04.195-.04.203 0 .352.148l3 3q.148.148.148.352t-.148.352z"/></svg>