<svg xmlns="http://www.w3.org/2000/svg" width="13" height="14" viewBox="0 0 13 14"><path fill="#444" d="M5 12q0 .406-.297.703T4 13t-.703-.297T3 12t.297-.703T4 11t.703.297T5 12zm7 0q0 .406-.297.703T11 13t-.703-.297T10 12t.297-.703T11 11t.703.297T12 12zm1-8.5v4q0 .187-.13.332T12.556 8L4.4 8.953q.1.47.1.547 0 .125-.186.5H11.5q.204 0 .353.148T12 10.5t-.147.352T11.5 11h-8q-.202 0-.35-.148T3 10.5q0-.086.063-.246t.125-.28.168-.313.12-.23L2.096 3H.5q-.203 0-.352-.147T0 2.5t.148-.35T.5 2h2q.125 0 .223.052t.152.12.102.192.062.203.04.23.036.203H12.5q.203 0 .352.148T13 3.5z"/></svg>