<svg xmlns="http://www.w3.org/2000/svg" width="14" height="14" viewBox="0 0 14 14"><path fill="#444" d="M4.11 10.89q0 .415-.294.708t-.707.293q-.408 0-.705-.295t-.297-.703q0-.413.292-.706t.707-.293.706.294.293.707zM8 12.5q0 .414-.293.707T7 13.5t-.707-.293T6 12.5t.293-.707T7 11.5t.707.293T8 12.5zM2.5 7q0 .414-.293.707T1.5 8t-.707-.293T.5 7t.293-.707T1.5 6t.707.293T2.5 7zm9.39 3.89q0 .407-.296.704t-.703.297q-.412 0-.705-.29t-.293-.708.294-.706.707-.293.708.294.294.707zM4.36 3.11q0 .515-.368.882t-.883.367-.885-.37-.367-.882.366-.884.883-.367.882.366.366.883zM13.5 7q0 .414-.293.707T12.5 8t-.707-.293T11.5 7t.293-.707T12.5 6t.707.293T13.5 7zm-5-5.5q0 .625-.438 1.062T7 3t-1.062-.438T5.5 1.5 5.938.438 7 0t1.062.438T8.5 1.5zm4.14 1.61q0 .726-.515 1.237t-1.234.512q-.725 0-1.236-.514T9.14 3.11q0-.72.513-1.235t1.238-.516q.72 0 1.236.514t.516 1.234z"/></svg>