<svg xmlns="http://www.w3.org/2000/svg" width="14" height="14" viewBox="0 0 14 14"><path fill="#444" d="M8.977 8.766q0-.203-.148-.352L7.413 7 8.83 5.586q.147-.148.147-.352 0-.21-.148-.36l-.705-.702q-.148-.148-.36-.148-.202 0-.35.148L6 5.586 4.588 4.172q-.148-.148-.352-.148-.21 0-.36.148l-.702.703q-.148.148-.148.36 0 .202.148.35L4.587 7 3.173 8.414q-.148.148-.148.352 0 .21.148.36l.703.702q.148.148.36.148.202 0 .35-.148L6 8.414l1.416 1.414q.148.148.352.148.21 0 .36-.148l.702-.703q.147-.148.147-.36zM12 7q0 1.633-.805 3.012T9.01 12.196 6 13t-3.013-.804-2.184-2.184T-.002 7t.805-3.012 2.184-2.184T6 1t3.01.804 2.185 2.184T12 7z"/></svg>