<svg xmlns="http://www.w3.org/2000/svg" width="14" height="14" viewBox="0 0 14 14"><path fill="#444" d="M8.57 8.43L7.43 9.57q-.08.08-.18.08t-.18-.08L6 8.5 4.93 9.57q-.08.08-.18.08t-.18-.08L3.427 8.43q-.078-.078-.078-.18t.078-.18L4.498 7l-1.07-1.07q-.078-.078-.078-.18t.078-.18l1.14-1.14q.08-.08.18-.08t.18.08L6 5.5l1.07-1.07q.08-.08.18-.08t.18.08L8.57 5.57q.078.078.078.18t-.078.18L7.5 7l1.07 1.07q.078.078.078.18t-.078.18zM10.25 7q0-1.156-.57-2.133T8.133 3.32 6 2.75t-2.133.57T2.32 4.867 1.75 7t.57 2.133 1.547 1.547T6 11.25t2.133-.57T9.68 9.133 10.25 7zM12 7q0 1.633-.805 3.012T9.01 12.196 6 13t-3.013-.804-2.184-2.184T-.002 7t.805-3.012 2.184-2.184T6 1t3.01.804 2.185 2.184T12 7z"/></svg>