<svg xmlns="http://www.w3.org/2000/svg" width="11" height="14" viewBox="0 0 11 14"><path fill="#444" d="M4 5.75v4.5q0 .11-.07.18t-.18.07h-.5q-.11 0-.18-.07T3 10.25v-4.5q0-.11.07-.18t.18-.07h.5q.11 0 .18.07t.07.18zm2 0v4.5q0 .11-.07.18t-.18.07h-.5q-.11 0-.18-.07T5 10.25v-4.5q0-.11.07-.18t.18-.07h.5q.11 0 .18.07t.07.18zm2 0v4.5q0 .11-.07.18t-.18.07h-.5q-.11 0-.18-.07T7 10.25v-4.5q0-.11.07-.18t.18-.07h.5q.11 0 .18.07t.07.18zm1 5.656V4H2v7.406q0 .172.055.316t.113.21.082.067h6.5q.023 0 .082-.068t.113-.21.055-.317zM3.75 3h3.5l-.375-.914Q6.82 2.016 6.742 2H4.265q-.078.016-.133.086zm7.25.25v.5q0 .11-.07.18t-.18.07H10v7.406q0 .648-.367 1.12T8.75 13h-6.5q-.516 0-.883-.457T1 11.438V4H.25q-.11 0-.18-.07T0 3.75v-.5q0-.11.07-.18T.25 3h2.414l.547-1.305q.12-.29.424-.492T4.25 1h2.5q.312 0 .617.203t.422.492L8.334 3h2.414q.11 0 .18.07t.07.18z"/></svg>