<svg xmlns="http://www.w3.org/2000/svg" width="13" height="14" viewBox="0 0 13 14"><path fill="#444" d="M6 2.75v8.5q0 .203-.148.352t-.352.148-.352-.148L2.546 9H.5q-.204 0-.353-.148T0 8.5v-3q0-.203.147-.352T.5 5h2.046l2.602-2.602q.148-.148.352-.148t.352.148T6 2.75zM9 7q0 .594-.332 1.105t-.88.73q-.077.04-.194.04-.203 0-.352-.146t-.148-.357q0-.164.094-.277t.227-.195.266-.18.23-.276T8 7t-.094-.445-.227-.277-.264-.18-.227-.195-.095-.277q0-.21.148-.355t.352-.143q.117 0 .195.04.546.21.878.726T9 7.003zm2 0q0 1.195-.664 2.207T8.578 10.68q-.102.04-.195.04-.21 0-.36-.15t-.147-.35q0-.306.305-.462.44-.227.596-.344.578-.422.902-1.06T10 7t-.323-1.355-.902-1.06q-.156-.116-.594-.343-.303-.156-.303-.46 0-.204.148-.353t.352-.15q.102 0 .203.04 1.093.46 1.757 1.472T11 7zm2 0q0 1.797-.992 3.3t-2.64 2.216q-.103.04-.204.04-.203 0-.352-.15t-.148-.35q0-.282.305-.462.053-.03.174-.082t.176-.082q.36-.195.642-.398.96-.71 1.5-1.773t.54-2.26-.54-2.258-1.5-1.773q-.28-.204-.64-.4-.056-.03-.177-.08t-.176-.083q-.307-.18-.307-.46 0-.204.148-.353t.353-.148q.102 0 .203.04 1.648.71 2.64 2.214T13 7.003z"/></svg>