<svg xmlns="http://www.w3.org/2000/svg" width="9" height="14" viewBox="0 0 9 14"><path fill="#444" d="M6 2.75v8.5q0 .203-.148.352t-.352.148-.352-.148L2.546 9H.5q-.204 0-.353-.148T0 8.5v-3q0-.203.147-.352T.5 5h2.046l2.602-2.602q.148-.148.352-.148t.352.148T6 2.75zM9 7q0 .594-.332 1.105t-.88.73q-.077.04-.194.04-.203 0-.352-.146t-.148-.357q0-.164.094-.277t.227-.195.266-.18.23-.276T8 7t-.094-.445-.227-.277-.264-.18-.227-.195-.095-.277q0-.21.148-.355t.352-.143q.117 0 .195.04.546.21.878.726T9 7.003z"/></svg>