<?xml version="1.0" encoding="utf-8"?>
<!-- Generator: Adobe Illustrator 14.0.0, SVG Export Plug-In . SVG Version: 6.00 Build 43363)  -->
<!DOCTYPE svg PUBLIC "-//W3C//DTD SVG 1.1//EN" "http://www.w3.org/Graphics/SVG/1.1/DTD/svg11.dtd">
<svg version="1.1" id="图层_1" xmlns="http://www.w3.org/2000/svg" xmlns:xlink="http://www.w3.org/1999/xlink" x="0px" y="0px"
	 width="192px" height="32px" viewBox="0 0 192 32" enable-background="new 0 0 192 32" xml:space="preserve">
<path fill="none" stroke="#FFFFFF" d="M8.411,10.001"/>
<path fill="none" stroke="#FFFFFF" d="M8.411,7"/>
<path fill="none" stroke="#FFFFFF" d="M13.411,10.001"/>
<path fill="none" stroke="#FFFFFF" d="M13.411,7"/>
<linearGradient id="SVGID_1_" gradientUnits="userSpaceOnUse" x1="155.7871" y1="56.666" x2="155.7871" y2="57.666" gradientTransform="matrix(14 0 0 12 -2164 -678)">
	<stop  offset="0" style="stop-color:#FFFFFF"/>
	<stop  offset="1" style="stop-color:#C8C8C8"/>
</linearGradient>
<path fill="url(#SVGID_1_)" d="M3,3h28v10H3V3z M2,2v12h30V2H2z"/>
<polygon fill="none" points="2.411,2 32,2.053 32,14.054 2.411,14.001 "/>
<g>
	<path fill="#F2F2F2" d="M15.35,11.667h-0.879V6.066c-0.211,0.202-0.489,0.404-0.833,0.605c-0.344,0.201-0.652,0.353-0.925,0.454
		v-0.85c0.492-0.231,0.921-0.511,1.289-0.84s0.628-0.648,0.781-0.957h0.566L15.35,11.667L15.35,11.667z"/>
	<path fill="#F2F2F2" d="M17.259,11.667l1.895-2.695L17.4,6.481h1.099l0.796,1.216c0.15,0.231,0.27,0.425,0.361,0.581
		c0.143-0.215,0.275-0.405,0.396-0.571l0.874-1.226h1.05l-1.792,2.441l1.929,2.744h-1.079l-1.064-1.611L19.687,9.62l-1.362,2.046
		L17.259,11.667L17.259,11.667z"/>
</g>
<path fill="none" stroke="#FFFFFF" d="M39.527,10.306"/>
<path fill="none" stroke="#FFFFFF" d="M39.527,7.305"/>
<path fill="none" stroke="#FFFFFF" d="M44.527,10.306"/>
<path fill="none" stroke="#FFFFFF" d="M44.527,7.305"/>
<linearGradient id="SVGID_2_" gradientUnits="userSpaceOnUse" x1="158.0723" y1="56.666" x2="158.0723" y2="57.666" gradientTransform="matrix(14 0 0 12 -2164 -678)">
	<stop  offset="0" style="stop-color:#FFFFFF"/>
	<stop  offset="1" style="stop-color:#C8C8C8"/>
</linearGradient>
<path fill="url(#SVGID_2_)" d="M35,3h28v10.001H35V3z M34,2v12.001h30V2H34z"/>
<polygon fill="none" points="33.527,2.305 63.116,2.357 63.116,14.358 33.527,14.306 "/>
<g>
	<path fill="#F2F2F2" d="M37.724,8.137c0-0.846,0.087-1.527,0.261-2.043c0.174-0.516,0.433-0.914,0.776-1.194
		c0.343-0.28,0.775-0.42,1.296-0.42c0.384,0,0.721,0.077,1.011,0.232c0.29,0.155,0.529,0.377,0.718,0.669s0.337,0.646,0.444,1.064
		s0.161,0.982,0.161,1.692c0,0.84-0.086,1.518-0.259,2.034c-0.173,0.516-0.431,0.915-0.774,1.196
		c-0.343,0.281-0.777,0.422-1.301,0.422c-0.69,0-1.232-0.248-1.626-0.742C37.959,10.451,37.724,9.481,37.724,8.137z M38.627,8.137
		c0,1.175,0.138,1.957,0.413,2.346c0.275,0.389,0.614,0.583,1.018,0.583c0.404,0,0.743-0.195,1.018-0.586
		c0.275-0.391,0.413-1.172,0.413-2.344c0-1.178-0.138-1.961-0.413-2.349c-0.275-0.388-0.618-0.581-1.028-0.581
		c-0.404,0-0.726,0.171-0.967,0.513C38.778,6.156,38.627,6.961,38.627,8.137z"/>
	<path fill="#F2F2F2" d="M43.778,11.667v-1.001h1.001v1.001H43.778z"/>
	<path fill="#F2F2F2" d="M46.122,5.446V4.602h4.634v0.684C50.3,5.77,49.849,6.415,49.401,7.219c-0.448,0.804-0.793,1.631-1.038,2.48
		c-0.176,0.599-0.288,1.255-0.337,1.968h-0.903c0.01-0.563,0.121-1.244,0.332-2.041s0.515-1.566,0.911-2.307
		c0.396-0.741,0.816-1.365,1.262-1.873H46.122L46.122,5.446z"/>
	<path fill="#F2F2F2" d="M51.625,9.792l0.923-0.078c0.068,0.449,0.227,0.787,0.476,1.013s0.549,0.339,0.901,0.339
		c0.423,0,0.781-0.16,1.074-0.479s0.439-0.742,0.439-1.27c0-0.501-0.141-0.897-0.422-1.187c-0.281-0.29-0.65-0.435-1.106-0.435
		c-0.283,0-0.539,0.064-0.767,0.193c-0.228,0.129-0.407,0.295-0.537,0.5l-0.825-0.107l0.693-3.677h3.56v0.84h-2.856L52.792,7.37
		c0.43-0.299,0.88-0.449,1.353-0.449c0.625,0,1.152,0.216,1.582,0.649c0.43,0.433,0.645,0.99,0.645,1.67
		c0,0.648-0.189,1.208-0.566,1.68c-0.459,0.58-1.085,0.869-1.88,0.869c-0.651,0-1.183-0.182-1.594-0.547
		C51.921,10.877,51.684,10.394,51.625,9.792z"/>
	<path fill="#F2F2F2" d="M56.845,11.667l1.895-2.695l-1.753-2.49h1.099l0.796,1.216c0.15,0.231,0.27,0.425,0.361,0.581
		c0.143-0.215,0.275-0.405,0.396-0.571l0.874-1.226h1.05L59.77,8.923l1.929,2.744H60.62l-1.064-1.611l-0.283-0.435l-1.362,2.046
		H56.845z"/>
</g>
<path fill="none" stroke="#FFFFFF" d="M70.807,9.808"/>
<path fill="none" stroke="#FFFFFF" d="M70.807,6.807"/>
<path fill="none" stroke="#FFFFFF" d="M75.807,9.808"/>
<path fill="none" stroke="#FFFFFF" d="M75.807,6.807"/>
<linearGradient id="SVGID_3_" gradientUnits="userSpaceOnUse" x1="160.3574" y1="56.666" x2="160.3574" y2="57.666" gradientTransform="matrix(14 0 0 12 -2164 -678)">
	<stop  offset="0" style="stop-color:#FFFFFF"/>
	<stop  offset="1" style="stop-color:#C8C8C8"/>
</linearGradient>
<path fill="url(#SVGID_3_)" d="M67,3h28v10.001H67V3z M66,2v12.001h30V2H66z"/>
<g>
	<path fill="#F2F2F2" d="M72.314,11.667h-0.879V6.066c-0.211,0.202-0.489,0.404-0.833,0.605c-0.344,0.201-0.652,0.353-0.925,0.454
		v-0.85c0.492-0.231,0.921-0.511,1.289-0.84c0.368-0.329,0.628-0.648,0.781-0.957h0.566L72.314,11.667L72.314,11.667z"/>
	<path fill="#F2F2F2" d="M75.059,11.667v-1.001h1.001v1.001H75.059z"/>
	<path fill="#F2F2F2" d="M81.963,10.822v0.845h-4.731c-0.006-0.211,0.028-0.415,0.103-0.61c0.121-0.322,0.313-0.64,0.579-0.952
		s0.648-0.674,1.15-1.084c0.778-0.638,1.304-1.144,1.577-1.516s0.41-0.725,0.41-1.057c0-0.348-0.125-0.642-0.374-0.881
		c-0.249-0.239-0.574-0.359-0.974-0.359c-0.423,0-0.762,0.127-1.016,0.381s-0.382,0.605-0.386,1.055L77.397,6.55
		c0.062-0.674,0.294-1.188,0.698-1.541c0.404-0.353,0.946-0.53,1.626-0.53c0.687,0,1.23,0.19,1.631,0.571
		c0.401,0.381,0.601,0.853,0.601,1.416c0,0.287-0.059,0.568-0.176,0.845c-0.117,0.277-0.312,0.568-0.583,0.874
		s-0.724,0.726-1.355,1.26c-0.527,0.443-0.866,0.743-1.016,0.901c-0.15,0.158-0.273,0.316-0.371,0.476H81.963z"/>
	<path fill="#F2F2F2" d="M82.905,9.792l0.923-0.078c0.068,0.449,0.227,0.787,0.476,1.013s0.549,0.339,0.901,0.339
		c0.423,0,0.781-0.16,1.074-0.479s0.439-0.742,0.439-1.27c0-0.501-0.141-0.897-0.422-1.187c-0.281-0.29-0.65-0.435-1.106-0.435
		c-0.283,0-0.539,0.064-0.767,0.193c-0.228,0.129-0.407,0.295-0.537,0.5l-0.825-0.107l0.693-3.677h3.56v0.84h-2.856L84.072,7.37
		c0.43-0.299,0.88-0.449,1.353-0.449c0.625,0,1.152,0.216,1.582,0.649c0.43,0.433,0.645,0.99,0.645,1.67
		c0,0.648-0.189,1.208-0.566,1.68c-0.459,0.58-1.085,0.869-1.88,0.869c-0.651,0-1.183-0.182-1.594-0.547
		C83.201,10.877,82.964,10.394,82.905,9.792z"/>
	<path fill="#F2F2F2" d="M88.125,11.667l1.895-2.695l-1.753-2.49h1.099l0.796,1.216c0.15,0.231,0.27,0.425,0.361,0.581
		c0.143-0.215,0.275-0.405,0.396-0.571l0.874-1.226h1.05L91.05,8.923l1.929,2.744H91.9l-1.064-1.611l-0.283-0.435l-1.362,2.046
		H88.125z"/>
</g>
<path fill="none" stroke="#FFFFFF" d="M102.807,9.808"/>
<path fill="none" stroke="#FFFFFF" d="M102.807,6.807"/>
<path fill="none" stroke="#FFFFFF" d="M107.807,9.808"/>
<path fill="none" stroke="#FFFFFF" d="M107.807,6.807"/>
<linearGradient id="SVGID_4_" gradientUnits="userSpaceOnUse" x1="162.6436" y1="56.666" x2="162.6436" y2="57.666" gradientTransform="matrix(14 0 0 12 -2164 -678)">
	<stop  offset="0" style="stop-color:#FFFFFF"/>
	<stop  offset="1" style="stop-color:#C8C8C8"/>
</linearGradient>
<path fill="url(#SVGID_4_)" d="M99,3h28v10.001H99V3z M98,2v12.001h30V2H98z"/>
<g>
	<path fill="#F2F2F2" d="M106.729,11.667h-0.879V6.066c-0.213,0.202-0.49,0.404-0.834,0.605c-0.343,0.202-0.65,0.353-0.925,0.454
		v-0.85c0.491-0.231,0.921-0.511,1.289-0.84s0.628-0.648,0.781-0.957h0.565v7.189H106.729z"/>
	<path fill="#F2F2F2" d="M109.473,11.667v-1.001h1v1.001H109.473z"/>
	<path fill="#F2F2F2" d="M111.757,9.792l0.923-0.078c0.068,0.449,0.228,0.787,0.478,1.013c0.247,0.226,0.549,0.339,0.899,0.339
		c0.424,0,0.781-0.16,1.074-0.479s0.439-0.742,0.439-1.27c0-0.501-0.141-0.897-0.422-1.187c-0.282-0.29-0.65-0.435-1.106-0.435
		c-0.283,0-0.538,0.064-0.767,0.193c-0.229,0.129-0.406,0.295-0.537,0.5l-0.825-0.107l0.692-3.677h3.561v0.84h-2.855l-0.387,1.924
		c0.43-0.299,0.881-0.449,1.354-0.449c0.625,0,1.152,0.216,1.582,0.649c0.43,0.433,0.645,0.99,0.645,1.67
		c0,0.648-0.188,1.208-0.566,1.68c-0.459,0.58-1.084,0.869-1.879,0.869c-0.65,0-1.184-0.182-1.595-0.547
		C112.051,10.877,111.814,10.394,111.757,9.792z"/>
	<path fill="#F2F2F2" d="M116.977,11.667l1.896-2.695l-1.753-2.49h1.099l0.796,1.216c0.149,0.231,0.271,0.425,0.361,0.581
		c0.145-0.215,0.273-0.405,0.396-0.571l0.873-1.226h1.051l-1.793,2.441l1.93,2.744h-1.079l-1.063-1.611l-0.283-0.435l-1.362,2.046
		H116.977z"/>
</g>
<path fill="none" stroke="#FFFFFF" d="M134.807,9.808"/>
<path fill="none" stroke="#FFFFFF" d="M134.807,6.807"/>
<path fill="none" stroke="#FFFFFF" d="M139.807,9.808"/>
<path fill="none" stroke="#FFFFFF" d="M139.807,6.807"/>
<linearGradient id="SVGID_5_" gradientUnits="userSpaceOnUse" x1="164.9297" y1="56.666" x2="164.9297" y2="57.666" gradientTransform="matrix(14 0 0 12 -2164 -678)">
	<stop  offset="0" style="stop-color:#FFFFFF"/>
	<stop  offset="1" style="stop-color:#C8C8C8"/>
</linearGradient>
<path fill="url(#SVGID_5_)" d="M131,3h28v10.001h-28V3z M130,2v12.001h30V2H130z"/>
<polygon fill="none" points="128.807,1.807 158.396,1.859 158.396,13.86 128.807,13.808 "/>
<g>
	<path fill="#F2F2F2" d="M135.729,11.667h-0.879V6.066c-0.213,0.202-0.49,0.404-0.834,0.605c-0.343,0.202-0.65,0.353-0.925,0.454
		v-0.85c0.491-0.231,0.921-0.511,1.289-0.84s0.628-0.648,0.781-0.957h0.565v7.189H135.729z"/>
	<path fill="#F2F2F2" d="M138.473,11.667v-1.001h1v1.001H138.473z"/>
	<path fill="#F2F2F2" d="M140.814,5.446V4.602h4.635v0.684c-0.455,0.485-0.907,1.129-1.355,1.934
		c-0.447,0.804-0.793,1.631-1.037,2.48c-0.176,0.599-0.287,1.255-0.336,1.968h-0.904c0.011-0.563,0.121-1.244,0.332-2.041
		s0.517-1.566,0.91-2.307c0.396-0.741,0.816-1.365,1.264-1.873L140.814,5.446L140.814,5.446z"/>
	<path fill="#F2F2F2" d="M146.318,9.792l0.923-0.078c0.067,0.449,0.228,0.787,0.476,1.013c0.25,0.226,0.551,0.339,0.901,0.339
		c0.423,0,0.78-0.16,1.073-0.479s0.439-0.742,0.439-1.27c0-0.501-0.141-0.897-0.423-1.187c-0.281-0.29-0.649-0.435-1.104-0.435
		c-0.283,0-0.539,0.064-0.768,0.193c-0.229,0.129-0.406,0.295-0.537,0.5l-0.824-0.107l0.692-3.677h3.56v0.84h-2.855l-0.387,1.924
		c0.431-0.299,0.881-0.449,1.354-0.449c0.625,0,1.152,0.216,1.582,0.649c0.43,0.433,0.645,0.99,0.645,1.67
		c0,0.648-0.188,1.208-0.565,1.68c-0.459,0.58-1.086,0.869-1.88,0.869c-0.651,0-1.184-0.182-1.596-0.547
		C146.611,10.877,146.377,10.394,146.318,9.792z"/>
	<path fill="#F2F2F2" d="M151.538,11.667l1.896-2.695l-1.754-2.49h1.1l0.796,1.216c0.149,0.231,0.271,0.425,0.36,0.581
		c0.144-0.215,0.275-0.405,0.396-0.571l0.874-1.226h1.05l-1.792,2.441l1.929,2.744h-1.078l-1.064-1.611l-0.283-0.435l-1.361,2.046
		H151.538z"/>
</g>
<path fill="none" stroke="#FFFFFF" d="M166.41,10.001"/>
<path fill="none" stroke="#FFFFFF" d="M166.41,7"/>
<path fill="none" stroke="#FFFFFF" d="M171.41,10.001"/>
<path fill="none" stroke="#FFFFFF" d="M171.41,7"/>
<linearGradient id="SVGID_6_" gradientUnits="userSpaceOnUse" x1="167.2148" y1="56.666" x2="167.2148" y2="57.666" gradientTransform="matrix(14 0 0 12 -2164 -678)">
	<stop  offset="0" style="stop-color:#FFFFFF"/>
	<stop  offset="1" style="stop-color:#C8C8C8"/>
</linearGradient>
<path fill="url(#SVGID_6_)" d="M163,3h28v10.001h-28V3z M162,2v12.001h30V2H162z"/>
<polygon fill="none" points="160.41,2 190,2.053 190,14.054 160.41,14.001 "/>
<g>
	<path fill="#F2F2F2" d="M175.658,10.822v0.845h-4.73c-0.008-0.211,0.027-0.415,0.102-0.61c0.121-0.322,0.313-0.64,0.578-0.952
		c0.267-0.313,0.648-0.674,1.15-1.084c0.777-0.638,1.305-1.144,1.577-1.516s0.41-0.725,0.41-1.057c0-0.348-0.124-0.642-0.374-0.881
		c-0.248-0.239-0.573-0.359-0.975-0.359c-0.422,0-0.762,0.127-1.016,0.381S172,6.193,171.996,6.643l-0.903-0.093
		c0.062-0.674,0.294-1.188,0.698-1.541s0.945-0.53,1.626-0.53c0.687,0,1.229,0.19,1.631,0.571c0.401,0.381,0.601,0.853,0.601,1.416
		c0,0.287-0.059,0.568-0.176,0.845s-0.312,0.568-0.584,0.874c-0.271,0.306-0.723,0.726-1.354,1.26
		c-0.527,0.443-0.866,0.743-1.016,0.901c-0.15,0.158-0.273,0.316-0.371,0.476H175.658z"/>
	<path fill="#F2F2F2" d="M176.259,11.667l1.896-2.695l-1.754-2.49h1.1l0.796,1.216c0.149,0.231,0.271,0.425,0.361,0.581
		c0.143-0.215,0.274-0.405,0.396-0.571l0.874-1.226h1.05l-1.791,2.441l1.928,2.744h-1.078l-1.064-1.611l-0.283-0.435l-1.361,2.046
		H176.259z"/>
</g>
<path fill="none" stroke="#FFFFFF" d="M32.411,25.001"/>
<path fill="none" stroke="#FFFFFF" d="M32.411,22"/>
<path fill="none" stroke="#FFFFFF" d="M37.411,25.001"/>
<path fill="none" stroke="#FFFFFF" d="M37.411,22"/>
<polygon fill="none" points="26.205,16.973 47.795,17.025 47.795,29.027 26.205,28.975 "/>
<g>
	<path fill="#F2F2F2" d="M2,17v12h22V17H2z M5.569,19.314c0.682,0.059,1.625,0.088,2.827,0.088
		c-0.213-0.353-0.495-0.733-0.847-1.144l0.561-0.385c0.403,0.557,0.733,1.066,0.99,1.528c1.349,0,2.383-0.029,3.102-0.088v0.682
		c-0.602-0.059-1.903-0.088-3.905-0.088c-0.184,0.206-0.711,0.972-1.584,2.299l3.685-0.143c-0.308-0.374-0.634-0.711-0.979-1.012
		l0.484-0.385c0.653,0.594,1.32,1.36,2.002,2.299l-0.572,0.406c-0.154-0.249-0.337-0.523-0.55-0.824
		c-3.161,0.176-4.803,0.318-4.928,0.429c-0.059-0.22-0.14-0.44-0.242-0.66c0.169-0.059,0.339-0.172,0.512-0.341
		c0.172-0.169,0.414-0.473,0.726-0.913c0.312-0.44,0.544-0.821,0.698-1.144c-0.785,0-1.445,0.025-1.98,0.076V19.314z M3.402,18.456
		c0.924,0.521,1.595,0.939,2.013,1.255l-0.429,0.55c-0.374-0.345-1.023-0.767-1.947-1.266L3.402,18.456z M2.996,21.151
		c0.718,0.367,1.389,0.792,2.013,1.276l-0.451,0.55c-0.587-0.55-1.229-0.972-1.925-1.265L2.996,21.151z M2.578,27.399
		c0.895-1.225,1.587-2.489,2.079-3.795c0.161,0.198,0.363,0.337,0.605,0.418c-0.55,0.938-1.195,2.229-1.936,3.872
		C3.083,27.667,2.834,27.502,2.578,27.399z M7.296,23.709c-0.066,0.063-0.114,0.393-0.143,0.99s-0.099,1.085-0.209,1.463
		s-0.297,0.715-0.561,1.012c-0.264,0.297-0.66,0.614-1.188,0.952c-0.168-0.235-0.407-0.404-0.715-0.507
		c0.704-0.278,1.221-0.638,1.551-1.078c0.33-0.439,0.495-1.133,0.495-2.078c0-0.301-0.015-0.653-0.044-1.057
		c0.132,0.029,0.381,0.044,0.748,0.044c0.11,0,0.165,0.027,0.165,0.083C7.396,23.588,7.362,23.646,7.296,23.709z M8.936,27.784
		H8.154C8.198,27.374,8.22,27,8.22,26.662v-2.354c0-0.47-0.029-0.788-0.088-0.957c0.205,0.044,0.377,0.066,0.517,0.066l0.198-0.012
		c0.081,0,0.121,0.037,0.121,0.11c0,0.052-0.018,0.092-0.055,0.121c-0.037,0.029-0.059,0.077-0.066,0.143
		c-0.007,0.066-0.011,0.194-0.011,0.385v2.497C8.836,26.992,8.87,27.366,8.936,27.784z M12.252,27.345
		c-0.106,0.212-0.251,0.352-0.435,0.418c-0.184,0.065-0.467,0.099-0.853,0.099c-0.385,0-0.649-0.064-0.792-0.192
		s-0.214-0.435-0.214-0.918v-2.497c0-0.403-0.033-0.712-0.099-0.925c0.168,0.052,0.337,0.077,0.506,0.077l0.275-0.011
		c0.11,0,0.165,0.027,0.165,0.082c0,0.056-0.033,0.108-0.099,0.16c-0.103,0.095-0.154,0.352-0.154,0.77v2.398
		c0,0.315,0.165,0.473,0.495,0.473s0.535-0.097,0.616-0.291c0.081-0.194,0.125-0.52,0.132-0.974c0.139,0.19,0.377,0.297,0.715,0.318
		C12.444,26.795,12.358,27.132,12.252,27.345z M16.085,24.177v1.649c0,0.653,0.037,1.346,0.11,2.079h-0.869
		c0.066-0.711,0.099-1.404,0.099-2.079v-1.649h-1.034v0.638h-0.726c0.051-0.396,0.077-0.763,0.077-1.1v-3.168
		c0-0.25-0.029-0.532-0.088-0.848c0.484,0.059,1.074,0.092,1.771,0.1c0-0.968-0.033-1.588-0.099-1.859
		c0.271,0.073,0.558,0.11,0.858,0.11c0.132,0,0.198,0.035,0.198,0.104c0,0.07-0.039,0.129-0.115,0.177
		c-0.077,0.048-0.126,0.134-0.149,0.259c-0.022,0.125-0.033,0.33-0.033,0.615v0.595c0.807-0.008,1.412-0.041,1.815-0.1
		c-0.044,0.213-0.066,0.495-0.066,0.848v3.035c0,0.353,0.025,0.72,0.077,1.101h-0.715v-0.506H16.085z M23.213,24.925
		c-0.081,0.901-0.15,1.488-0.209,1.76s-0.162,0.489-0.308,0.654s-0.357,0.284-0.632,0.357s-0.666,0.125-1.171,0.154
		c0.044-0.403-0.099-0.719-0.429-0.946c0.293,0.022,0.583,0.033,0.869,0.033c0.286,0,0.517-0.048,0.693-0.143
		c0.176-0.096,0.299-0.259,0.369-0.49c0.069-0.23,0.137-0.731,0.203-1.501c0.066-0.771,0.106-1.475,0.121-2.112h-0.759
		c-0.308,1.188-0.695,2.146-1.161,2.871s-1.19,1.459-2.172,2.2c-0.125-0.213-0.396-0.359-0.814-0.44
		c1.914-1.034,3.135-2.577,3.663-4.631h-0.88c-0.542,1.467-1.36,2.585-2.453,3.355c-0.103-0.206-0.345-0.33-0.726-0.374
		c1.386-0.807,2.266-1.801,2.64-2.981c-0.587,0.008-1.038,0.088-1.353,0.242c-0.03-0.278-0.143-0.51-0.341-0.693
		c0.308-0.051,0.721-0.282,1.238-0.692c0.517-0.411,1.237-1.067,2.161-1.97h-1.683c-0.301,0-0.869,0.029-1.705,0.088v-0.648
		c0.521,0.036,1.267,0.055,2.238,0.055s1.637-0.022,1.997-0.065v0.627c-0.403,0.234-1.346,1.093-2.827,2.573h1.925
		c0.55,0,1.122-0.028,1.716-0.088C23.364,23.088,23.294,24.022,23.213,24.925z"/>
	<rect x="16.085" y="20.271" fill="#F2F2F2" width="1.111" height="1.507"/>
	<rect x="14.392" y="22.219" fill="#F2F2F2" width="1.034" height="1.496"/>
	<rect x="14.392" y="20.271" fill="#F2F2F2" width="1.034" height="1.507"/>
	<rect x="16.085" y="22.219" fill="#F2F2F2" width="1.111" height="1.496"/>
</g>
<g>
	<rect x="38.529" y="22.709" fill="#F2F2F2" width="1.199" height="2.662"/>
	<rect x="30.895" y="23.369" fill="#F2F2F2" width="3.619" height="0.9"/>
	<rect x="38.529" y="19.617" fill="#F2F2F2" width="1.199" height="2.586"/>
	<rect x="30.895" y="24.754" fill="#F2F2F2" width="3.619" height="0.859"/>
	<path fill="#F2F2F2" d="M26,17v12h22V17H26z M27.507,18.385c0.579,0.375,1.151,0.797,1.716,1.266l-0.418,0.539
		c-0.55-0.551-1.104-0.979-1.661-1.287L27.507,18.385z M26.891,20.926c0.682,0.404,1.272,0.818,1.771,1.244l-0.44,0.549
		c-0.447-0.447-1.008-0.871-1.683-1.275L26.891,20.926z M27.386,27.703c-0.22-0.162-0.462-0.297-0.726-0.408
		c0.887-1.121,1.536-2.32,1.947-3.596c0.191,0.213,0.403,0.385,0.638,0.516C28.724,25.096,28.105,26.258,27.386,27.703z
		 M35.185,24.072v2.871c0,0.447-0.112,0.729-0.335,0.842s-0.607,0.17-1.149,0.17c0.015-0.271-0.07-0.527-0.253-0.77
		c0.212,0.043,0.392,0.066,0.539,0.066c0.352,0,0.528-0.141,0.528-0.418v-0.738h-3.619v1.871h-0.737
		c0.066-0.58,0.099-1.104,0.099-1.574v-2.354c0-0.549-0.026-0.967-0.077-1.254c0.564,0.051,1.393,0.078,2.486,0.078
		s1.947-0.027,2.563-0.078C35.2,23.203,35.185,23.633,35.185,24.072z M36.186,22.236c-0.609-0.045-1.742-0.066-3.399-0.066
		S30,22.191,29.399,22.236v-0.639c0.572,0.043,1.573,0.066,3.003,0.066v-0.803c-0.8,0-1.529,0.018-2.189,0.055v-0.605
		c0.66,0.037,1.389,0.055,2.189,0.055v-0.814c-1.107,0-1.951,0.027-2.53,0.078V18.99c0.579,0.053,1.419,0.078,2.519,0.078
		c0-0.447-0.026-0.801-0.077-1.057c0.293,0.037,0.532,0.055,0.715,0.055c0.183,0,0.275,0.021,0.275,0.066
		c0,0.043-0.029,0.088-0.088,0.133c-0.103,0.088-0.154,0.23-0.154,0.428v0.375c1.122,0,1.969-0.025,2.541-0.078v0.639
		c-0.572-0.051-1.419-0.078-2.541-0.078v0.814c0.976,0,1.708-0.018,2.2-0.055v0.605c-0.492-0.037-1.225-0.055-2.2-0.055v0.803
		c1.489,0,2.53-0.023,3.124-0.066V22.236z M41.675,27.934c0.073-0.676,0.11-1.363,0.11-2.068v-3.09
		c-0.184,0.746-0.488,1.521-0.913,2.32c-0.169-0.191-0.345-0.305-0.528-0.342v0.605c0,0.463,0.029,0.949,0.088,1.463h-0.704v-0.945
		h-1.199v1.133h-0.726c0.059-0.434,0.088-0.936,0.088-1.508v-5.4c0-0.447-0.015-0.799-0.044-1.057
		c0.44,0.037,0.871,0.057,1.292,0.057c0.421,0,0.853-0.02,1.292-0.057c-0.059,0.287-0.088,0.639-0.088,1.057V24.6
		c0.161-0.227,0.315-0.477,0.462-0.748c0.146-0.27,0.28-0.557,0.401-0.857s0.248-0.67,0.379-1.111
		c0.132-0.439,0.198-0.719,0.198-0.836v-0.109c-0.499,0-0.902,0.029-1.21,0.088v-0.672c0.315,0.061,0.719,0.09,1.21,0.09
		c0-1.174-0.033-1.967-0.099-2.377c0.279,0.08,0.512,0.121,0.699,0.121s0.28,0.027,0.28,0.082s-0.033,0.111-0.099,0.166
		c-0.066,0.055-0.114,0.131-0.143,0.23c-0.03,0.1-0.044,0.186-0.044,0.258v1.52c0.499,0,0.88-0.029,1.144-0.09v0.672
		c-0.257-0.059-0.638-0.088-1.144-0.088v0.99c0.528,0.484,0.957,0.936,1.287,1.354l-0.517,0.418
		c-0.234-0.441-0.491-0.822-0.77-1.145v3.244c0,0.748,0.037,1.459,0.11,2.135H41.675z M47.461,22.225
		c-0.345-0.074-0.748-0.109-1.21-0.109v4.125c0,0.557,0.029,1.139,0.088,1.748h-0.803c0.059-0.514,0.088-1.096,0.088-1.748v-4.125
		h-1.166c0,1.605-0.081,2.777-0.242,3.514c-0.162,0.736-0.458,1.432-0.891,2.084c-0.213-0.176-0.473-0.281-0.781-0.318
		c0.558-0.543,0.918-1.207,1.083-1.99c0.165-0.785,0.248-1.879,0.248-3.279s-0.044-2.424-0.132-3.068
		c1.122-0.021,2.152-0.238,3.091-0.648c0.117,0.213,0.268,0.398,0.451,0.561c0.059,0.051,0.088,0.096,0.088,0.133
		c0,0.08-0.077,0.109-0.231,0.086c-0.066-0.014-0.178-0.021-0.335-0.021s-0.437,0.035-0.836,0.105
		c-0.4,0.068-0.904,0.145-1.513,0.225v2.102h1.452c0.542,0,1.06-0.037,1.551-0.109V22.225z"/>
</g>
</svg>
